<mxfile host="app.diagrams.net" modified="2023-04-17T16:27:32.341Z" agent="Mozilla/5.0 (Macintosh; Intel Mac OS X 10_15_7) AppleWebKit/537.36 (KHTML, like Gecko) Chrome/112.0.0.0 Safari/537.36" etag="ItrIvBoZZsQnGzq8OoR0" version="21.1.8" type="github">
  <diagram name="Page-1" id="HV4NR94e0xufNZvZFqn2">
    <mxGraphModel dx="1588" dy="912" grid="1" gridSize="10" guides="1" tooltips="1" connect="1" arrows="1" fold="1" page="1" pageScale="1" pageWidth="850" pageHeight="1100" math="0" shadow="0">
      <root>
        <mxCell id="0" />
        <mxCell id="1" parent="0" />
        <mxCell id="YX5vVdjbQr6RenzQoTTW-3" value="" style="shape=image;verticalLabelPosition=bottom;labelBackgroundColor=default;verticalAlign=top;aspect=fixed;imageAspect=0;image=data:image/png,iVBORw0KGgoAAAANSUhEUgAAA74AAAMjCAYAAACChsycAAAKomlDQ1BJQ0MgUHJvZmlsZQAASImVlwdQFFkax1/35EQaGMkMOSM5So5DzsnEMAPDEMZhYFAxI4sKrgEVEVAEWaICqxJkDYgoBhYBxawLsggo62LAhMo2cAy3d3V3df+qr/pXX7/+v69fv1f1NQDk60w+PxmWACCFly4I9nShR0ZF03FDAAJoQAAwUGGy0vjOgYG+ANHC9e/6cA8ZjeiO4azXv9//r5Jkx6WxAIACEY5lp7FSED6LRCOLL0gHAMVG8upr0/mzvBNhaQFSIMIls8yZ58ZZjp3nzrkxocGuCD8AAE9mMgUcAEi/I3l6BouD+JDRCBvz2FwewuYIO7ASmMg8ZOQeMEhJWTPLxxHWif0nH87fPGNFnkwmR8Tz7zInvBs3jZ/MXP9/Lsf/VkqycGEONSTICQKv4Nn5kDWrTlrjI2JerH/AAnPZ8zXNcoLQK2yBWWmu0QvMZrr5LLAwKcx5gZmCxWe56YzQBRasCRb585L9fUX+cQwRx6W5hyxwPNeDscCZCaERC5zBDfdf4LSkEJ/FMa6ivEAYLKo5XuAheseUtMXaWMzFudITQr0Wa4gU1cOOc3MX5XlhovH8dBeRJz85cLH+ZE9RPi0jRPRsOrLBFjiR6R246BMoWh/ABX6ACVjpcetm9xVwXcNfL+ByEtLpzsgpiaMzeCwjA7qpsYkVALNnbv6TvqPNnSWIdnMxl9oOgE0ukuQs5pjqAJx7AQD1w2JO/S2yHfYBcKGXJRRkzOdmtzrAACIQB9JADigDdaADDIEpsAR2wAm4A28QAEJBFFgFWCABpAABWAs2gm0gB+SBfeAQKAKl4ASoBqfAadACzoPL4Bq4BXrBAHgMBsEIeAUmwQcwDUEQDqJAVEgOUoE0IX3IFLKGHCB3yBcKhqKgGIgD8SAhtBHaDuVB+VARVAbVQD9D56DL0A2oD3oIDUHj0FvoC4yCybA0rARrwUtha9gZ9oFD4ZUwB06FM+FseA9cCJfDJ+Fm+DJ8Cx6AB+FX8BQKoEgoGkoVZYiyRrmiAlDRqHiUALUZlYsqQJWj6lFtqC7UHdQgagL1GY1FU9F0tCHaDu2FDkOz0Knozejd6CJ0NboZ3Ym+gx5CT6K/YygYRYw+xhbDwERiOJi1mBxMAaYS04S5ihnAjGA+YLFYGlYba4X1wkZhE7EbsLuxR7EN2HZsH3YYO4XD4eRw+jh7XACOiUvH5eCO4E7iLuH6cSO4T3gSXgVvivfAR+N5+Cx8Ab4WfxHfjx/FTxMkCJoEW0IAgU1YT9hLqCC0EW4TRgjTREmiNtGeGEpMJG4jFhLriVeJT4jvSCSSGsmGFETikraSCkmNpOukIdJnshRZj+xKXkEWkveQq8jt5IfkdxQKRYviRImmpFP2UGooVyjPKJ/EqGJGYgwxttgWsWKxZrF+sdfiBHFNcWfxVeKZ4gXiZ8Rvi09IECS0JFwlmBKbJYolzkncl5iSpEqaSAZIpkjulqyVvCE5JoWT0pJyl2JLZUudkLoiNUxFUdWprlQWdTu1gnqVOiKNldaWZkgnSudJn5LukZ6UkZIxlwmXWSdTLHNBZpCGomnRGLRk2l7aado92pclSkucl8Qt2bWkfkn/ko+yCrJOsnGyubINsgOyX+Tocu5ySXL75Vrknsqj5fXkg+TXyh+Tvyo/oSCtYKfAUshVOK3wSBFW1FMMVtygeEKxW3FKSVnJU4mvdETpitKEMk3ZSTlR+aDyReVxFaqKgwpX5aDKJZWXdBm6Mz2ZXkjvpE+qKqp6qQpVy1R7VKfVtNXC1LLUGtSeqhPVrdXj1Q+qd6hPaqho+Gls1KjTeKRJ0LTWTNA8rNml+VFLWytCa4dWi9aYtqw2QztTu077iQ5Fx1EnVadc564uVtdaN0n3qG6vHqxnoZegV6x3Wx/Wt9Tn6h/V7zPAGNgY8AzKDe4bkg2dDTMM6wyHjGhGvkZZRi1Gr5dqLI1eun9p19LvxhbGycYVxo9NpEy8TbJM2kzemuqZskyLTe+aUcw8zLaYtZq9Mdc3jzM/Zv7AgmrhZ7HDosPim6WVpcCy3nLcSsMqxqrE6r61tHWg9W7r6zYYGxebLTbnbT7bWtqm2562/dPO0C7JrtZubJn2srhlFcuG7dXsmfZl9oMOdIcYh+MOg46qjkzHcsfnTupObKdKp1FnXedE55POr12MXQQuTS4fXW1dN7m2u6HcPN1y3XrcpdzD3Ivcn3moeXA86jwmPS08N3i2e2G8fLz2e91nKDFYjBrGpLeV9ybvTh+yT4hPkc9zXz1fgW+bH+zn7XfA74m/pj/PvyUABDACDgQ8DdQOTA38JQgbFBhUHPQi2CR4Y3BXCDVkdUhtyIdQl9C9oY/DdMKEYR3h4uErwmvCP0a4ReRHDEYujdwUeStKPoob1RqNiw6ProyeWu6+/NDykRUWK3JW3FupvXLdyhur5Fclr7qwWnw1c/WZGExMRExtzFdmALOcORXLiC2JnWS5sg6zXrGd2AfZ43H2cflxo/H28fnxYxx7zgHOeIJjQkHCBNeVW8R9k+iVWJr4MSkgqSppJjkiuSEFnxKTco4nxUvida5RXrNuTR9fn5/DH0y1TT2UOinwEVSmQWkr01rTpZHmpluoI/xBOJThkFGc8Wlt+Noz6yTX8dZ1r9dbv2v9aKZH5k8b0BtYGzo2qm7ctnFok/Omss3Q5tjNHVvUt2RvGdnqubV6G3Fb0rZfs4yz8rPeb4/Y3patlL01e/gHzx/qcsRyBDn3d9jtKN2J3snd2bPLbNeRXd9z2bk384zzCvK+7mbtvvmjyY+FP87sid/Ts9dy77F92H28fff2O+6vzpfMz8wfPuB3oPkg/WDuwfeHVh+6UWBeUHqYeFh4eLDQt7D1iMaRfUe+FiUUDRS7FDeUKJbsKvl4lH20/5jTsfpSpdK80i/HuccflHmWNZdrlRecwJ7IOPGiIryi6yfrn2oq5SvzKr9V8aoGq4OrO2usampqFWv31sF1wrrxkytO9p5yO9Vab1hf1kBryGsEjcLGlz/H/HzvtM/pjjPWZ+rPap4taaI25TZDzeubJ1sSWgZbo1r7znmf62iza2v6xeiXqvOq54svyFzYe5F4MfvizKXMS1Pt/PaJy5zLwx2rOx5fibxytzOos+eqz9Xr1zyuXely7rp03f76+Ru2N87dtL7ZcsvyVnO3RXfTrxa/NvVY9jTftrrd2mvT29a3rO9iv2P/5Ttud67dZdy9NeA/0Hcv7N6D+yvuDz5gPxh7mPzwzaOMR9OPtz7BPMl9KvG04Jnis/LfdH9rGLQcvDDkNtT9POT542HW8Kvf037/OpL9gvKiYFRltGbMdOz8uMd478vlL0de8V9NT+T8IflHyWud12f/dPqzezJycuSN4M3M293v5N5VvTd/3zEVOPXsQ8qH6Y+5n+Q+VX+2/tz1JeLL6PTar7ivhd90v7V99/n+ZCZlZobPFDDnWgEUEnB8PABvqwCgRCG9Qy8ARLH5nnhO0HwfP0fgP/F83zwnSwCqnAAI2wqAL9KjHENCE2Eycp1tiUKdAGxmJop/KC3ezHTei4x0lphPMzPvlADAtQHwTTAzM310ZuZbBVLsQwDaU+d78VlhkT+URswsdStvBv+qvwA4FAEr9GF8VgAAAZ1pVFh0WE1MOmNvbS5hZG9iZS54bXAAAAAAADx4OnhtcG1ldGEgeG1sbnM6eD0iYWRvYmU6bnM6bWV0YS8iIHg6eG1wdGs9IlhNUCBDb3JlIDUuNC4wIj4KICAgPHJkZjpSREYgeG1sbnM6cmRmPSJodHRwOi8vd3d3LnczLm9yZy8xOTk5LzAyLzIyLXJkZi1zeW50YXgtbnMjIj4KICAgICAgPHJkZjpEZXNjcmlwdGlvbiByZGY6YWJvdXQ9IiIKICAgICAgICAgICAgeG1sbnM6ZXhpZj0iaHR0cDovL25zLmFkb2JlLmNvbS9leGlmLzEuMC8iPgogICAgICAgICA8ZXhpZjpQaXhlbFhEaW1lbnNpb24+OTU4PC9leGlmOlBpeGVsWERpbWVuc2lvbj4KICAgICAgICAgPGV4aWY6UGl4ZWxZRGltZW5zaW9uPjgwMzwvZXhpZjpQaXhlbFlEaW1lbnNpb24+CiAgICAgIDwvcmRmOkRlc2NyaXB0aW9uPgogICA8L3JkZjpSREY+CjwveDp4bXBtZXRhPgokqZXaAABAAElEQVR4Aey9B5hd1XX2v6b3pt57QRISAgGi924wzbhhExIndhzHjhPHTv0SO/8UP1/ixE9iPidxN9jGNqZ3ML0KAUJCqPdeZjS9l//67dEZroap0p07d2beLd25956yzz6/fc65+91r7bVT2jyZkgiIgAiIgAiIgAiIgAiIgAiIgAgMUwKpw/S8dFoiIAIiIAIiIAIiIAIiIAIiIAIiEAhI+OpCEAEREAEREAEREAEREAEREAERGNYEJHyHdfXq5ERABERABERABERABERABERABCR8dQ2IgAiIgAiIgAiIgAiIgAiIgAgMawISvsO6enVyIiACIiACIiACIiACIiACIiACEr66BkRABERABERABERABERABERABIY1gfTezq65udnKysqspaXFNPNRb7S0XgREQAQSTyAlJcWysrKsuLjYUlPVn5n4GtARRUAEREAEREAEkp1Aj8IXodvU1GT79u2zxsZGCd9BqE0atCR1OgwC/CF2SF0rQ6zC4lhcxG5ubq4VFhZK+MaRq7ISAREQAREQAREYPgR6FL5RQ5rTpWGVn59v6ek97jJ8yCTBmTQ0NFhtbW1gXlBQkAQlUhGSmUBNTU3ooEIAZWdnJ3NRVbY4EsArp7q6OnRSxjFbZSUCIiACIiACIiACw4pAryo2IyOj44SnTp0arAodC/RhQAkcPnzYtm7dGkTM7NmzB/RYynzoE9iyZYvV19fbqFGjbOLEiUP/hHQGfSJA59i6dev6tK02EgEREAEREAEREIGRSqBfg8HkbpvYy0S8E8t7uBxN181wqcm+nYfqu2+ctJUIiIAIiIAIiMDIJtAv4TuyUensRUAEREAEREAEREAEREAEREAEhiIBCd+hWGsqswiIgAiIgAiIgAiIgAiIgAiIQJ8JSPj2GZU2FAEREAEREAEREAEREAEREAERGIoEJHyHYq2pzCIgAiIgAiIgAiIgAiIgAiIgAn0mIOHbZ1TaUAREQAREQAREQAREQAREQAREYCgSkPAdirWmMouACIiACIiACIiACIiACIiACPSZgIRvn1FpQxEQAREQAREQAREQAREQAREQgaFIIH0oFlplFgEREAEREAEREIGRSOBgTbPtr2628voWK61tttY2s5SUkUhC5zxcCbT5NZ2VnmKjc9OtJDvNJhakW1FW2rA6Xd3H3Vdnsdc59T4uL93G56dbemr8HnASvt1z1xoREAEREAEREAERGHQCdc2ttqeyyTaXNdqGww227lC97a5qsm1HmqwF5askAsOIAFd0fmaqzSrJtKlFGbZoXLbNG5Vls0dlBjEUTyGUSGy6j3uhfVTfTi3MCPU+b3SWLRiTbXO83qcVZVpB1ok7Kkv49lIHWi0CIiACIiACIiACg0GgyUXt7oomW3Ow3p7aWmUv7ai1NG/7YQ1BGJw6MdvSMffGzyAyGKepY4rAMQSw+Da2tFl1Y6u9va/Ont1WYzluAf7wSYV21pQ8Wzg2y8a4NTiOhsBjjh/vL7qP+0601Z95NU1ttrey2dYebLC7m8tt0fhsu25eoS0ZnxM6Q7L9WjjeJOF7vOS0nwiIgAiIgAiIgAgMEIHaplZb59bdH79dZq/trrXMtBSb6G5/WMDOnZZnJ43JsvluESlwF9ChIgAGCJWyHWYEml38HHKXfq7/td7p88qu2uDWf/+6SntgfaV97ORiu25+oVsBMywjyS9+3cd9vzix9Nf5c29LWYOtP9zoz70a21jaaLvKm+xbrxwKovcPzxhtp03MsUJ/7h2P/JXw7Xt9aEsREAEREAEREAERGHACNP4e3VRlv1hTbjsrGoOFd/mUXLvWrR4L3NqVm5HqYjcljO09nsbfgJ+ADiACJ0AAV+YJ+Rk+vjPDzvNOno8tKrKVbvm9z4XvxtIG+9nqI8Ht/1NLiu2MybnmfUJJmXQf969aqEaebYvG5bhVP9uumVtg28ob7aktVfbbrdW23QXwP79w0G5ZVGwfWVhkJTn9F78Svv2rE20tAiIgAiIgAiIgAgNGoMFdPH/yzhF7aEOlHXCr1wK37H7UG/4XTs+3XHdvTnNRkKTt/AFjooxHHoHIgx9Ph7F5GXbZrHRb5pa+e96rsEe8U+h1twZWNLTYp/11xeyCpAOk+/j4qyQY8f0CyMtMCR19M4sz3cU91zs8yu2NvXWhQ/CwB/b73LLRHgCtf0HPJHyPv160pwiIgAiIgAiIgAjEjUCTi95XdtXYY96w31vVbJfOzLNPLC62k31sW1aymrXidvbKSAS6JoAIRgCPcwvwbUtH2XQPdHSnW33XHKhzEZxmUzwYEhbCZEm6j+NXE2lHBTCWfcZ1/8Y7Pu5zd/entlQbwa+unFNgBd4h2NfU9y37mmOctlu9erV9+9vf7jK3//3f/7UXX3yxy3VaGB8Cv/jFL+yxxx77QGY1NTX2j//4j3bo0KEPrOtqQVNTk33zm9+0bdu2dax+6KGH7Gc/+1nH97KyMvvqV78aXuT7H//xH/bOO+90rD+RD12Vl2NTBqX4EIjqeOfOnd1mSB1z3VAfSiIgAiIgAh8kgIXoJRe9//1Gqe3xiM3nTst10VtiSydI9H6QlpaMRAJ4OiByLp2Vbx/3cb5zSrLsVR//+4O3yuw9j3SeDEn38cDUAu7vczyy90e93q+cnR/GAv/Q4x88vrkqWP77etSktfhWVFTYli1bujyPHTt22Pjx47tcp4XxIXDgwAF74IEHrM1D611zzTUdmTY3N9uGDRussbGxY1lPH9LT023z5s2GOIrS0qVLO77v37/ffv7zn9vNN99sbFtQUGBXXnmlTZgwIdr8hN5TvKdo48aN1tra2pHP2WefbRkZGR3f9eHECHCNbNq0KXRUff7zn7e5c+cek+GePXvsjjvuCJ0fXD9KIiACIiACxxJgSqLNHtDle2+WeWCXxhC46la39C7xaKa4NiuJgAi8TyDHx4Fe7u7NNR71+S4fB//SToK/pdqfnzPGRrlVcLDuGN3H79fRQHzC8j/D3Z5vXVJiZXUttmJPrf1kVZmN8rG+F0zP61Ogs6QVvqmpPo4lrWu/bZYjaKKEpemXv/xlx/YIqM985jOWl5cXNnn66adt1KhRlp+fb7/5zW9s9uzZdu2119pPf/pTq62tDdvcdtttNmbMmChLe++99+zhhx8OYoyGPXn9wR/8QccxOjYcph/gO2vWLKMDAg7wihJ8Y9Ozzz5rb7zxRmDV0tJi06ZNs4997GNWV1dnP/zhD0MeWFkRtYholmP5I5//+Z//sXXr1hn1nZWVZXPmzAlCNTs7O9QZx4nqgm1Gjx5tv/u7vxt7+GC9JQ/yQ1gtWLDArrvuOisvL7fvf//74Vjf+973jDw/8pGP2O7du8Oxpk6dGvI5fPhwuBZiM429Hl555ZWQL9cNIp1ydHU9RBzIJypDbJ7D+TP3JNcA9d45cY+9+uqrNnHixGNWYXXvqt5iN/rRj35kpaWloeOCa3DhwoUdq2PrrfM9z0YrVqww6oRODjo+erp22P6ss84Kz4aXX37ZPvrRj7IopKgM1DsdOBdffLGdeeaZ0epwff3gBz8I1wgLY6+djo30QQREQAR6IFDqjbhfr60IgXsmFWTY7aeW2GmTci1D7s09UNOqkUyA6byunufi1wPB3eVjP4l8/oCPi7/dXaFjJEJCEek+Hnjc9APi4vx7p42yKu/4WHOg3u5z92ci3vfF3T1pXZ1BFytuY1HSAI0S1kQat2PHjg1CCYFbWFho999/v9EwJuE2iwB7/fXXQ+O7vr7efvKTnwTBlJubG/bDrRdBRFqzZk1oNI8bNy6so8GMaLrnnnusqqoqbDPc/yBgscwWFxfbCy+80O3psg4LfMSKekDYImoQG+yPKEL0Ujfwhi8iCaZFRUWWmemTUvt6OiaoWzoqsBKSYusi6pjADZs6JD3yyCPB7To6Pu8IpaeeeirkFR2f40T1yLHJl0SdU/eULfYVez1gMeZ6eeaZZ8J1FuUTez3EcqAMuGxTtpGUsNpzP/KKEnwRoAji2A6TJ598MtRT53pjOamhoSF0UvEMoN7Zjg6IVatWhfWd6417/te//nWHCz7bMlwCzxDqlTzIi44v8ibFloH8t2/fbnSQRMMoOpeBfMiPjhjOicQzhmcNx4+unwcffNB6cvsOO+qPCIiACBwl0NDcZqv219lz26ot3y1ZjOk9f1q+xvTqChGBXgiMzkkPkc6v9nGeVY0t9uTm6uA54aMGEp50HycOOR0bTGmEVwzTu63wgFd0fDDvc2/pWNNdb1sncD2NVMYF0oiMTQijvXv32hlnnBEWI2AQJv/0T/8Uu1mwCp5yyimhwYvFB6sTlsgLL7wwuGV+7WtfsxtuuMF+7/d+LwizP/7jP7bp06fblClTgkCurKy0P/uzP+vIE0vi7bffbueee24QaR0rhvEHGv6I3127dtlrr70WLGKdTxeBeM455wQLa7SO+viXf/mX4LJ86623BuF8/fXXH+MCS/0iNm688cbg0o6FPkoIpKhzg84KLLd//ud/HlZjKcbqihWexDoscDNnzgzf+YOw/fGPf2yXX365cXwseB//+MeDaGU9x45E2NatW0N9f+c732FVR4q9HtgWFgibD33oQ2EbxP3v//7vd1wPCH2urcgyDrPnn3++I7+R8IE6xsKONRzLPYlOEfh//etfD5wjDrjRcz9F9zHLo3q74oorQufJr371K/vud78buLOeDpGo44lhEIhb1keJOo9c8PFUwDrMtRklnidf/OIX7bLLLgsWf8rwqU99ynB9J61fvz4I68gNns6Ve++91/7rv/6rowxsh6cInW1Yffft22dPPPHEMR4DsR0zbK8kAiIgAj0RYDzvYz5Orc4F8BmTcsIUHlnp3rJTEgER6JXAZA9sdZVPe7Nyb20YG//wxkr7ozPGWFqC7yHdx71WVdw3YKz3Cq/3RzZW2fPba4LFl+jPPaWkFb4In+rqalu5cuUx5Ue0IHZ4J2FN5BWbaPzSeI3EE6IVcYQwIeGuiOhCuET5IG6ifLBAMvYU0RWNSUQ4YwWNto893nD9zPnOmzcvWLWweOIK2jnBORKh0TqYReKBumB97BjfaDveWc56toN75xQrglkXuRhH2yFsSQhYrMQc99133+3IKxJC0Xu0X/ROnUciOFrGe+z1wPmcfvrpHaKX9VF5o+th2bJlQZTh0sv2WAYRVSMpRR0ldAowRpy6OHjwYBCIneufusYTg2uMF/VAJ1bsPYggffPNN0Ods81pp53WIUDhy7WJqCZxr9/uQjpKV199dfjI8RmTTr5YZ2PrmvLFjv0+6aSTgmUa4Roltn/ppZdCBxrXKd+51rDwkkpKSowONiz+Udlxp4+u/ygfvYuACIhAVwR8aG9wb37drRVjfVqOGxcUhXksu9q2r8vouMdAQLuF5xKeT5MmTRqU5xK/C3hA8buIcSH6zezruWg7EegLAcZ9fsjnuCbIFQLoJr+Ppnnk50QNjx+I+7gv5z3StyH+wdVzCm1zaaO968HN3va5npd552FGDxWftMKXhi4W2n/4h3/4QL3+/d//fYcg/cDKbhaQX2yKxFhXYosfChq3d9999zGijoc241BHWsINmbogMjMN/WRLWN1wW127dm0QJnSMYJ2NZ4oVSF3li0UZV9u77roriDDGR+fk5Fg0jrirfYbbMhjdcsst9q1vfSu4muMSjnAlmnPkuh6dM0IV0UqdcS+S2D8KjIVL/Je+9KXgOYCIZpuLLrrILr300tCIQ6TSCcKxSAhS8sRDIbpHuQ6wuiNKWU8DrPNzIOwc84fGWWxi+8cffzzkGZWTZSeffHLYDA8Rxpzj4RCJe/LAks05KImACIhATwT2urWXxlqLe+gxbu3CGXlG9NLjTXjFYDB46623QvwB2jN09OMBxe941EF3vPn3d78jR44EDxnK9dnPfjY8i/ubh7YXgd4IENzoopn5YRqwgz6/64o9dT73b7rl+dCBRKR438c9lZm2CO1ePCCjtmnUocQ6XrSDZsyYkdCOJtpGtLMoC+3fRCWE7ikTsm1DaYOtO9zgHYmNtmhs91otaYUvwKKGZmd43S3vvN3xfqcBi4tkrKvz8eY1HPZbvHhx+LFkWqLOLuWDfX64r2KNxu30D//wD0NxEFSI0EQnRB8vEmVAlHU3JVeiy5bo4yFCeUUP487H5wEZuYp3Xhd9Z/+/+Zu/ib7av//7v4fxtLcftezSqRDx5WGLG/OXv/zl4OLMDwJjb3lW4KpMwgISm19Hxj18wHLLPpMnT+52KzpZ/vVf/zWs53h/+qd/Ghp3DItQEgEREIGeCOyvbvZpWBqsKCvVg1mdeGORjj68XPhN5LebYR940xAXgY66RAtffgOi34OeOGidCJwoAaY5QgQ94nNgv7Wv1ufAznfhe6K59m3/eN/HPR2V9lNk7KHtg2bB044OfgwCiGE6u/7yL/8yoV4etMeJlUIZYgOR9nQu8VpHUKsphbW2vbzRo+I3DF3hGy8g8ciHBi2u11QoD/GRlrihsGDRazvQHQ89seWGRtQQCIsfVCxtRHC+4IILwm6UjfWJThwTkdSVB0GiyzLYx+MeoR6wfFJPfU08vHmIs09v91vstuTfWWATZRl35CgCOPn1du329dph7C/b0qPJDxDuhHhFdFWOsFB/REAERKAbAofdOrX1SINN9EjOp/p8van+u3YiCW81fodOPfXU8FzCzZlOwkiAkjfPLYbr8E6KfrvYhmcbz26esaxnGdYj2gB8Zj/Wcwye12wfPfOjdeTJ9pH3Dd9JbB/twzF5jcT2VDsN/Y03AYTvqROz7SEf47veLX8NuFHYsUMh433MKL9438dRvl2903lFMFHiFHH/EHCToJx00NMe5v5kG+7BRCY8+/AMjTziEnnsBW7hJRr+yz4P+q7KnqdbTSyVAaBA5VLxPKCjhzgP3xN5oJJn9APAw5/PjJn553/+Z/vqV78atzlmBwDHgGWJCyoBn7D40gEAExI3Fj98JLjDjnqAf2yKfkRZ358UWxfki3sHVr6vf/3rx4iNqAxEXv7v//7vY4JdcTyOz8Og84OAa4dl/BhH50ReLOvPDzLHXLRoUQjoxfG6YsDykZCY9uvOO+8M0Z2785rg+oARrKkbeOOeRy8mQxm4xr7udYwFl2mQousgun4YH0xAsb/+678O9dbTPc9xmGeYazdyC6IeYsvA987XDtcD23Dd8GJfvmNJRkRznjQyCej1f/7P/wkNweO5dji2kgiIwMgkwDykR+pbbK67Oc8fk3XCYxLphMPqwjOPoR88k/gti/19I5AfwQEJPsgzle2IgYL3Cs9SIuLjtUSQRjoicZMmxgKd38Q8IBAhcRR4FvJc/MpXvhIsywQgxNrMsZjSjw7pyOWRzmHWY33GOrVkyRK75JJLOoJOjsza11nHkwBz+84fkx3m8D1c02JNDLxNUIr3fdxTsbm/IqMCn7nHeKejifufezJ6RW0m8qMdw3bRMp4NbEeKltFeipZF2/JOirbvbj3eJQwxIw9e7NefdnQ4yHH+YTw3ru1VDa1WUd9+Tt1lNeSFLxFaqfTPfe5zHYBpnH7+85/viCzb3cl3t5zgNEyHQ6RhGuRUNj2aCD+m6xmJiQuYyMlEw0ZAwISEMCEYENGxYcXFzlhoxAv1gKgh4fbLeuqJ5X1NsXXBjcm4UY5JfZD+6q/+yphnlRfpvPPOCy601F+UKMM3vvGNcH3wAx17fIJWcWPiJhubqHt+6PuacNuFA/uREMGUbSSm2AdoLOtYFlG9/fjHPw7XBQ9kmEX1QP1Sz3fccUeY9ojrit5NGmAkGk0si7bnOLH3PPVAowyLL/XLtYsL8n/+5392FCO2DCzsfO3ww/J3f/d3RsRvAmORD+VknPEnP/nJkA/5EsTsL/7iLzqu9f5eOx0F0gcREIERRaDcBe/uyqYQzGpSQfoJje2NwBGEEpdDpnDE0ovll2crwa1IWGSYao+gfMxCQCceQpbo9J/4xCdCJzAdejxriemBUCXQJ89k8uIZiHDGlfLKK68M0xKyDC8bOshpC9D4xvqDwGU/3hHjlI31dGDTOUr+F3nsBnlKRbWn9xMlkOORnKd4lGfuq81ljTbefZ2zBzi680Dcx71xiMRoV9shPpl5gsQ9jiDGM417lPY59za6iSC+dHDhHUe7hvv40UcfDRZkjEHcz+eff77N8LHCJAyAzz33XIjNwvrZs2eHDjB0Ec+Uhx9+OLTLeMawjI4v2tGJEr/j8tKsJDvVDrkXzT4fQsK8vl2lrpd2tWWCl9Gw7W5cHZaWqLeDCl2+fHmIohtdCEBmOhWEFomHefSZ7zRWO/u+08hGVJG4IOj9pFKjPNk/9nvYcBj/6cyMU4UrNwJiIOoA4IZhGhvGM7I+6iTgR5GEIIF15B7KGCM4RoK4P3VBftR3bMAoeqiZI5aeJo5NufjRjcYXcJ0gwjke6wnuwTjcSJxRPnq7qf/YRBkj0cYURjwQYhP5/u3f/m0HB+YJRpghnrhm+B7vAFuxx0+mz1EdY5mNUmdm1Au8ovs2tt7gRd3EMuNaop7pUOABS+La4d4k0VCKrbfO9zyNLRplNO7In+/sj2U2tgwEJeNHguNTfqwkfCaRJ/tEZSAfejonTJjQ0fHCcwHLBgI86gWNvXZCRvojAiIgAl0QwCLV6K9MD2ZVkNk/b6gusguLCKzIbAfMJc6c6ohavFnoRMYFkTnIaevwG8kzjxfxD5gNgYYtz0oawYhSfid55tI4JkI+KXpW82xFUNMBSSAtnoU0cmkjkHCx5pnJ85Xn9QxvPHN8nvPMq86LdViCJXwDMv2JAwGGChRm4bXZbMyr2/573m6xjEP2XWYxEPdxlwfq48Ls7Oxw/3HfX3XVVaHdjCcG9xydUIz35z4tLS0NHhof/vCHg6fHfffdF9rKtN+4/7mvedHu5oW3B8FGcbPm3iZPXKxp/9P2jcb48h0NFj0D+ljsE94s1y3+WP2b3eDb2MNEzkkrfBEvvLpKscKH9TyoeQB3l2Ib5GzDg5wfh9jEQzk28XDmNVJTZ2YRBy52GvaxCSHAq6vE9p1Zx24Xj7pAnPCKTVF98sMd/RBH6yPhE33nho6EcrQs9j0S+bHLyLc/HGL3HW6fu6rjzsxo2HTm1VW9dWYTzQfceTnfe6u3qHEVu29sGXBPx2Mk9tnBHNRRp0y0X09lYBsafESZVhIBERCB/hCgOR5e/ucEAjkfc0ietUz3xvOP316sLzRYCXrFb+F2t7wiBnA7Zlue30w3xG8aQpTfRzqqGXaCIGZbXJ4RuCS+4/KMYYJnMB2TuEzzzI/t7KXxHW1P3uQb/fZyXD7TWdi5UznspD8icAIEonvJL+2EpIG4j0+k4NyftHWwwGLVpT1MxxbvPA+4n3kW4MnGfc1zgo4tRC4eGVF7mHsTbw/2QcS+/fbbhkieP39+KB4GLrzy2B9DBDoAMU3bDiNTopMP6Dj6r/252t3xk1b4dldgLRcBERCBeBDA+oBL/AMPPBAafzToaIx9+tOfjkf2ykMEREAEeiXQ7l/S62b93gCxiWUXwwCWGKZ2Q2jSUYdRAW8r1rGMRjDeWzSY6fx77bXXQmOWBi7rV61addRy1i588YYhnyghZCPPmWhZ53eer7yURCBRBBJ5tSXyWH3hh+EOIyFeH1hvEaR4aeChx71KpxbLEKgsY/gBnVjc65HnG+7RWIcjIyQCeN26daHzjA4zEkMlos88K7jHo06yvpRzILahLnqqj/efXANxdOUpAiIgAklKANccrLuMZ6ORGPV8Mg5NSQREQAQGmkCaNx6Zs7fVW2nN/DnBhNUG90M8qRCtvNPAxcqLtYcGLkMzeOZhFeYzicYrLsdYaWkokw9DghDGWHNjRS7bx4pYnp14vGAtIl8svwhjGsw0hCPLL/spicBAE+Auajrq5prh91YkygbyuPG+j+NRVrwx6NxHqNKpFXmx4s2JpZf7lTm2sdRyP8OJe5l7HqHLvct+bI84RhhzX2P5paOLxD7XXHPNMcMPo+VhgwT/aUZ0+yvNNXl6D5PvSPgmuGJ0OBEQgeQhcPHFFxsvJREQARFINIF8n7uX+XvrmlqttK7dlfhEykDnHW6MNGijiM1EyMdlkeccInTZsmVB2L755ptBENOIZT1uysz7i5WYBi5j92jkMu4X1+dIQHS26CCKcatEWBMIC7dpGs4cNxrOQrk6W4GiZeSnJALxItDqHUhMLdTq19WY3DTLSHMVNMCJ+7g4jvdxPIrLvT5v3rzg1YagRQRj+eXexuLLLBp8x9uDDjGC3yF6cVvmOUBC/HL/kxfPAO5ztkMsRwlXajrYSOTN/UxkeBL3OMdOVKpsaDFeeT7OtyS7++NK+CaqRnQcERABERABERABEThKAIvU6ByfDcG136GaZqt1AUyAluNNWGcITMV4Piy3uCpGy6JxeYzDYyoigl4RnZnGKg1atqOBS2BRrLWso2FMIxjvmCjYKPuzLLL6UFZcpLEQM5aY47KOcYKIYfInkixBdSLxzD40yhHWWKaURCBeBCobWj2qb4tleSTncbnpwfoXr7y7y4f7eFQc7+PujtPd8qgzKrYTifuOMbiIUjrDiORMhxTiFndmvDqw5EaxjPAAOfPMM8NUZlGQOzxByAcxzP3PLChYinGJRtAicPEUwYWa49B5RkcY000imjk+z5XY+767czjR5fSfHfZ6r2vyQKkuent6jkr4niht7S8CIiACIiACIiACx0EAa9E4n3aj1htsTL9y8rjsEwp0RQOWFwK4u4R4ve6667pcTcMYERubYqf243Ps92g7Gr0EvukqMUtG59Td8Ttvp+8i0FcCdBxtLmsI98+kggxLc0GaqBTv+7g/5eaexbuCgHaxCRF6zjnnhAjvdDIhQBGsCFKmJqOTK0p0VnH/EvSOyO9YeOn4YugX27MfHWCM/3/11VeDRwfHI4JzJJ4RyHh8EAQLQcw6njWJEL47Khqt1C39o9zKPyqne2sv5yvhG9W63kVABERABERABEQggQSwSs0blWWbShts5d5aWzg2yxvuiWuwJ/BUdSgRGFACWHtX7q0L9w8dSFh9E5UG8z7GXZlX54SYZTqjzokpYHl1TghULMO8ukoIbDrUuutUQyhzvK6O2VV+8Vz27sH6MHczczjPKG4fg9xd/sfvU9NdjlouAiIgAiIgAiIgAiLQK4GJbpla5I30ch+b9uquWqv3uUeVREAE+k+Asb2v+T2U5spm2aRcy+kpwlH/s+9xD93HPeIZ0JW4Ob+9r852VTTZrJIsm+sdiT0lCd+e6GidCIiACIiACIiACAwQAQLwLBmfbYwT3OkNtxd31Fjj0ai0A3RIZSsCw44Aovclv3dK65o90FSaLZuYbdkJtPjqPh6cS4puwtf31Nr6ww0hOv680Zk2vTijx8JI+PaIRytFQAREQAREQAREYOAITHX3vPOn51lFfYvdu67CjnjjXXbfgeOtnIcfgY0ufB7ZVGk5Hhzu0tkexCkz8fJG93Hirysi4j+ysdK2Hmm00ybmhBgJvZUi8VdGbyXSehEQAREQAREQAREYIQQmu/C9ak6B5WamhLG+97xXYdU+XlFJBESgdwKMj39wQ6Ud8Mjo3EsfmltgWfg7JzjpPk4scKY+f8jr/S13cybRecjY7t5S4q+M3kqk9SIgAiIgAiIgAiIwQghk+lyjuDvfuKDIarBgbKqy13fXWoNcnkfIFaDTPF4CZT7/9dNbq+0Fd3MuyU63j51cbFOLMk4oMvrxlkX38fGS6/9+jOtdtb8udHjsrWq2y2bn23kufHuaxig6ioRvRELvIiACIiACIiACIjAIBJgH9Jq5hbZ8Sl6Y0/fH75TZM1urwty+g1AcHVIEkp7A/uom+/Xa8iB+mLrosln5dtGMvDBefrAKr/t44Mm3uOp9fXeN/eCtMtvo1n6CA37In529RXOOSqbpjCISehcBERABERABERCBQSDAlKPT3FL1qSXFVukRnlcfqLOfvlNuR3zc75U+ZnG0T3ukJAIi0E5ggwueh93N9fHNVT42vtUun5NvNy8ssiIPbDWYSffxwNJnTO+z26vtgfWVtmJPXXhmfsKt/IvdY8YdZ/qU9CTtEyZtJAIiIAIiIAIiIAIDR4DIzmdMzrVbXfgWrE8N0Up/uqo5RHnGojE2T022gaOvnIcKgU1lDfaL1UfsiS3VYa7eD80rsBtOKvKpbHqevzVR56f7eGBIV/lzEZf2H686YpvLGsN43uvmF9qFbuXP86BmfU16ivaVlLYTAREQAREQAREQgQEkgNUCC+9Yt/AyZvAVn5f0l+9WWKVbfi+dVRAa90SuVRKBkUbgiI/nXXeoPrg2v7izJkRwvnZeod3ill7G9SZT0n0cv9po8lgHuyqb7GWvc4KYEcH5lAnZ9junlISAVumY2fuRJHz7ASvRm6ak9K8yE10+HS85Cei6Sc56UalEQAREoK8EmJqDeUgz/fXyjlq7c3W5vXuwwbBwMKZtVE5acOtUM6GvRLXdUCTQ7KF7EbwHPWLzG3tr7b51lbbHRRDX/40ueG90S++E/OSVMrqPj/+qq25sDXWPhf9Jd2l/3q29BLU61Z+NnzltlJ05Ocfdm/uvk/p1tTQ2NlpGRoYfWDPMHX9V9m1PxEtTU5PxDu+Ghoa+7aitRiQBrpOWlpZw7s3N7hrn96ru0+F/KVDv1LWSCIjA8COwcGy2fWn5GBudU27Pbqu2d93atfpAvc0szrAr3Cp81tRcK85OMwL7kJjeA6HAe/+bg8OPn85o6BBAVWAlxXrnP2shNbqlb6+L3Od9TOcz22ustLY5WHmx7n7KrX2XuwdEYVbyez/oPu7+OqTeqW/v3zvmOVbd2GKrfJqiJ92dfa0/91p8drfC7FSPfp9jn102yuaMyjruyN0p3jjmuN0mGtFr16413mlk8VJKDAGqJqqe1NTkv7kTQ0VH6Y5Aa2v7vI+6T7sjNDyXR88JOiUXLlxo6en96s8cnlB0ViIwTAjQQGtobrN3fOqOhzZW2ht7aj3SM+K2LbTHphamW0FmWmgElrs79MGaFqtrbpXwHSb1P1JOg+u82ANTjc1LC1PSNHnvDVMV7a9uDtc2grjEO3ku9Q4f5ulF/DKWdqgk3cdd1xRcGNIxJjfNO/jSw3Or1p9fu73Dg+deqtdxlq9fODbLrp1fZOd6Zx9TFp1I1fcqfLE0bt68WVaFrutMS0VABERg0AnQ2VFYWGjTp0+3tLTBjWo56DBUABEYhgSw5DLWbY/PWUlU01d8vNumUvfs8X+RQQIzBt/5ryQCQ40AdjU3r7W7K/g1TOcO49mJ2EsAo/Om5Vl+ZqoLoRMTPoPJRfdxF/SPVvn7z7F2rxWi3OPVcvGMfJs3Oit4A2S4CD7R7o5ehS/WBFxuI8tjF0XWIhEQAREQgUEmgFcIVl8lERCB4UsAN+Yan9Kj9ugL8dvcrnityC1i49xykk3wK4nf4XsRDNMzq/CovYdq3WPBr20u3yJ3Y55ZnBkiN2Pl4zVcku7j92sS6/5hr/fSuuaOhbO83nme5bgPdJ53dvQ3gFVHRl186FX4drGPFomACIiACIiACIiACAwygXp3B4wMEzQOsYgoicBQJED/TaOLoBZUoSeuZ9xgR0Ia6fdxsIRT7+1VHyz9A1XvEr4DRVb5ioAIiIAIiIAIiIAIiIAIiIAIJAWB4eM3kBQ4VQgREAEREAEREAEREAEREAEREIFkIyDhm2w1ovKIgAiIgAiIgAiIgAiIgAiIgAjElYCEb1xxKjMREAEREAEREAEREAEREAEREIFkIyDhm2w1ovKIgAiIgAiIgAiIgAiIgAiIgAjElYCEb1xxKjMREAEREAEREAEREAEREAEREIFkIyDhm2w1ovKIgAiIgAiIgAiIgAiIgAiIgAjElYCEb1xxKjMREAEREAEREAEREAEREAEREIFkIyDhm2w1ovKIgAiIgAiIgAiIgAiIgAiIgAjElYCEb1xxKjMREAEREAEREAEREAEREAEREIFkIyDhm2w1ovKIgAiIgAiIgAiIgAiIgAiIgAjElUD6li1b4pqhMhMBERABERABERABERABERABERCBZCKQXlpamkzlUVlEQAREQAREQAREQAREQAREQAREIK4EUvbs2dMW1xyVmQiIgAiIgAiIgAiIgAiIgAiIgAgkEYGUNk9JVB4VRQREQAREQAREQAREQAREQAREQATiSkDBreKKU5mJgAiIgAiIgAiIgAiIgAiIgAgkGwEJ32SrEZVHBERABERABERABERABERABEQgrgQkfOOKU5mJgAiIgAiIgAiIgAiIgAiIgAgkGwEJ32SrEZVHBERABERABERABERABERABEQgrgQkfOOKU5mJgAiIgAiIgAiIgAiIgAiIgAgkGwEJ32SrEZVHBERABERABERABERABERABEQgrgQkfOOKU5mJgAiIgAiIgAiIgAiIgAiIgAgkGwEJ32SrEZVHBERABERABERABERABERABEQgrgQkfOOKU5mJgAiIgAiIgAiIgAiIgAiIgAgkGwEJ32SrEZVHBERABERABERABERABERABEQgrgQkfOOKU5mJgAiIgAiIgAiIgAiIgAiIgAgkGwEJ32SrEZVHBERABERABERABERABERABEQgrgQkfOOKU5mJgAiIgAiIgAiIgAiIgAiIgAgkGwEJ32SrEZVHBERABERABERABERABERABEQgrgQkfOOKU5mJgAiIgAiIgAiIgAiIgAiIgAgkGwEJ32SrEZVHBERABERABERABERABERABEQgrgQkfOOKU5mJgAiIgAiIgAiIgAiIgAiIgAgkGwEJ32SrEZVHBERABERABERABERABERABEQgrgQkfOOKU5mJgAiIgAiIgAiIgAiIgAiIgAgkG4H03grU2NJmz2+vttUHGqyhudVSettB60VABESgDwRafZsphRl23rQ8mz0qsw97aBMREAEREAEROH4Czc3NduDAAWtpabG2trbjz0h7ioAIJBWBjIwMKyoqsry8vB7L1avwrW9us7vXVNiq/fWGCJbw7ZGnVoqACPSRAE2O0blplp+Z2ifhu7+60UrrvbFiOKqowdJHzNpMBERABIYtgVRvlBalt9nEwmxLTem9hYrwPXTokDU1NQXhK/E7bC8NndgIIpDi9356erqlpaWduPBt8R6x7eWNAV92eu8PlRHEWacqAiJwggQO1zTb4dqWPuWyp7rJ1pc1WgotHSUREAEREIERT4Bu0DGZbTY2P9sy03rHQQOZV2pqqhUXFxtWIonf3rlpCxFIVgLczxUVFVZXVxc8OXorZ68WX5qY9KKpqdkbSq0XARHoL4H+PFvaUlKD6E3z55GSCIiACIiACOD7U9Wa2mcfICxCUZo4caLl5uZGX/UuAiIwRAls2bIlCN++FF/BrfpCSduIgAiIgAiIgAiIgAgkFQG6QY+3K1SW3qSqShVGBBJCQMI3IZh1EBEQAREQAREQAREQAREQAREQgcEiIOE7WOR1XBEQAREQAREQAREQAREQAREQgYQQkPBNCGYdRAREQAREQAREQAREQAREQAREYLAISPgOFnkdVwREQAREQAREQAREQAREQAREICEEJHwTglkHEQEREAEREAEREAEREAEREAERGCwCEr6DRV7HFQEREAEREAEREAEREAEREAERSAgBCd+EYNZBREAEREAEREAEREAEREAEREAEBouAhO9gkddxRUAEREAEREAEREAEREAEREAEEkJAwjchmHUQERABERABERABERABERABERCBwSIg4TtY5HVcERABERABERABERABERABERCBhBBIT8hRdBAREAEREIGkJZDiJePV/idpi6mCiYAIDHcCbWb+P7yG+6nq/ERABBJPQMI38cx1RBEQARFIKgKVLWY1/mr1FmcQwElVOhVGBERgJBBA8Kb6AyjLfRGLvXWqZ9FIqHWdowgkloCEb2J562giIAIikFQE0rx1ef+hNnurJsVS1NJMqrpRYURgxBFw9Ts5s82+NCXFMvQ8GnHVrxMWgYEmIOE70ISVvwiIgAgkOYFdDWZ/Mifb/mhWptW75VdJBERABBJNIMMtva+UNdtn36yRq3Oi4et4IjBCCEj4jpCK1mmKgAiIQHcEWtzKkp+eYgXh1d1WWi4CIiACA0ugxNUvzyMlERABERgIAhK+A0FVeYqACIwMAqmpluKvpEjeWGxra/WBuv7qZ5JHYT+BaXMREIEBIdDmtl49jwYErTIVARFwAhK+ugxEQAREoL8EfDBsa22NVb2z0soev9+ay48MYhhSbyimpVnGuAlWcvFVlr/0DEvNzkEF9/estL0IiIAIiIAIiIAIDFsCEr7Dtmp1YiIgAgNFIMWFb0tNtdW886aVPnSPtdTW+qEGT2impKRaWkGh1W1ab7P++TuWOTFXwnegKl/5ioAIiIAIiIAIDEkCEr5DstpUaBEQgcEk0ObW1LS8fMucMNnampssNTNzMIsTjt1aV2vVb6+w1vo6j86cMogyfNBRqAAiIAIiMKgE3nrrLdu6dastXLgwvAa1MP04eGlpqW3YsMHS09PtzDPP7Mee2lQEhgaBJBmcNjRgqZQiIAIiEAggfAuLLWf2PP+aJCPSXOympGd4cZKkPLpUREAERGCEEnjjjTfsrrvustWrVw8pAjt27LB7773XHnnkETtyxIfwKInAMCMg4TvMKlSnIwIikCACLn7bWjX3T4Jo6zAiIAIiMGQIpHnchUz3BEpNluCHfSSHNxPWXl51dXV93EubicDQISBX56FTVyqpCIiACIiACIiACIiACAwIgZkzZ9q1115rCPdJkyYNyDGUqQgMJgEJ38Gkr2OLgAiIgAiIgAiIgAiMKAJYVqurq62hocFnoGsNQjMvL8+ys7MDB5ZXVFRYQUFB2IbvxcXFlpWVFSyxNTU11tLSEiyzubm5lpOT44H826yqqsqampqCtZl3tiHfjIwMY5/GxsZghY72IR5EbMrPz7cFCxa0x4nw/CgbLs/sjxW4vr4+5Ek5yJdlHKPWAzxiIaYMbEs+WLzLy8tDefhOGaNtyaeoqChsS/5YxikLZSYPtiefysrKsIzjRHl2LnNs+fVZBHojIOHbGyGtFwEREAEREAEREAEREIE4EEDYIfYefvhh27hxYxCMiMBzzz3Xzj77bEOUrl+/3r73ve/ZTTfdZGvXrrX33nvPvvjFLxoW2eeee85ef/31IGQRw6effrpdcsklQVQ+8MADYdtFixbZ/v37rayszC644AKbPHmyvfLKK7Zt27YgMjnOZZddFsRo7Clt3rzZfv3rXwcB/pWvfCWU81vf+pZNnz49WIAp74EDB2z27Nl26aWX2rx588L3p59+OhwXYT1hwgS77rrrbP78+WGcM3necsst4fwQsk888YS9+uqr9vnPf95mzJhh3/3ud4OgLykpsV27dgVxTd6cK+ONOQ+YXHnllXbGGWd0dA7EllufRaCvBCR8+0pK24mACIiACIiACIiACIjACRDA8vqDH/wgiNBzzjknCMW3337b7rvvvmDhvPHGG4OIJcLymjVrjPdZs2YZwvDBBx8Mohdhe+qpp9qmTZvsqaeeChZjxGxzc7MRoGrMmDF22mmnhQjNiGQsx6NHjw5iFdHJsRCWJ510UrDaRqeDhRfLLZbZKGGdfeedd4LgRHhu2bIliGjWY8UlkNfLL79sN9xwg40bNy4cH3FPXpQHKy6fSSznO5bpaBnfyf/CCy8MrxUrVoTgWosXL7apU6eGqNhPPvlkEMGI6cgqHjLUHxHoJwEJ334C0+YiIAIiIAIiIAIiIAIi0F8CiDymC8KCe8UVVwRLLYJ2ypQp9stf/tIQwAhW3HkRjQjQz372s8HNF+st0yQx9hYLL1ZYLMV79uyxlStX2vLly0Nx2AcrL8IYi/A999wTliOoR40aFfLEoozlds6cOccI3+h8EKhRoiyFhYV28cUXh2MzRRPHZLomrLmRmzNCdtq0acEKjCs07sndpc75I9Qp/7Jly4Igxup88OBB+/KXvxws2/v27bPnn38+WKDHjh0b+HSXt5aLQE8Eur8qe9pL60RABERABERABERABERABPpMAOGLRZYxu7j5IkQZy4plE4vsunXrDJGHVZMAU4g8rKiMl0WsYillPaKQ/XAtPnz4cBC4kZhEqGLhjcbFRmNiEa+4DPPOMvaN9untBMiLPCkH5UFw7969O+SDqzUi+NFHH7Xf/va3YYzw1VdfHcR8b/lG6zkXxgxTLt45d8qGRRlBzbF5hx/vrFcSgeMhIOF7PNS0jwiIgAiIgAiIgAiIgAj0QCASndEmkYDkO5ZSRBwJIcwLYYk4xWrLvnyPxCkikGVYabHoEuyJdQSGYp9YC2u0D3mzT1SO2OWxn9mupxSbB4KZF+KcMjDO9/bbb7e9e/cGS/ZLL70Uxuzi+txZoPK9uymeYssTezzKFZW/pzJqnQj0hYCEb18oaRsREAEREIEuCeytbLAnN5RZS2ub3X7GREtLfT9K6Payel9XanPH5trFc0o69m/2bbeV1dmdK/fbZ5ZPskPVjfbu/ho7c1qhLRyf17Fdfz5U1PvYNj/eyRPzjSJwjDte3m2X+HEX+7K+pg2Ham3lrkqbWpRtF8wu7utuSbddXVOr3fXmfsvOSLFrThpjo/MyTqiMrd7A3l/VaA+/d9jrrt7SnPE5M4rt3JlFVpStpsQJwdXOw5IAYg0xyDhd3JZJWDYRilhNX3jhhSBYx48fb6tWrQqWYNYxnpcgUqRYMcjyGW4lJkAUCfdoxt9i/UWIRil2n2jZibwjzjkGZcIyjVWacb5z5841yk7ALCzRjBfmnB9//PHgksw5Y9FG4OPezb5sy7nGu4wncn7ad2QR0K/VyKpvna0IiIAIxJVAc0ubi9Zqe3Frud28xF3gctItkr6v76ywH67YZxfN8cijUwutIKvdPa3eRdlL2yrskXWH7ROnjrfNh+uCQB6fn3lcwre2qcXe3Vdtb++psoUT8lz4pgQhfu+aQzZjVE6/hO/u8gZ7ZtMRO3VywZAWvgj/NV4v2empdtHsEhttJyZ8a73O1h+osYMufku8jktrm+wnK/dZhitgOjXSYzo84nqBKTMRGIIEsNgiGFevXh2iEiP0+I7g/cIXvmDXX3+9PfPMM+HFeFjG7yJsGbsbWXI5bfaJRCLuvrgQP/vss/biiy92CEjE9JIlS8J2HDc2sW/si3XRd/LunFgXLedzlBC0jD8m8BRjg4kSff7554eAW4wvJsAV7s9YrRHvZ511VnBZPuWUU8I4YDgwPRNjjon6fOjQoY5y4L4cuTBzPI4fjW/mO+WIziu2TKxTEoH+EpDw7S8xbS8CIiACItBBYEJhpi2fVmT3ucjEWrpsio8tOyqCXnZx2+yNlqqGFlu1t8rOn9luQUWovr6jIlh4sUSyfUZaqqVjRjyOVNvYausO1tqhmqaOY5NnTobnmdq/DCl6ppcDQTeUE4L340vHh1MoyTkx0UsmYCzJzbCPeZ5Y8BG+v3v3e6HD4TTvJDhRi3IoqP6IwDAhQNRl3JQjQYdwRNAh/Fh+0UUXhXGrjI0lijLWU8QrkZZJWFIRuYjIWBfmk08+OViJsSIzRy6iFxHKcj4TeIp3LK0kjkfkaPKIxg1PnDgx5D1jxoxj8mZ7xhmfd955IY/ITRnXZPJjP6zNiHciLuNyzTosuZSFKZoQ50SXXrp0acgbKzAinymZEK9859wI0EWelAuRTKRrjk1CGBNIi6BfJM4HDvAgCBYslUTgeAlI+B4vOe0nAiIgAiLgIjHV5o/LtQkFmW7FLXfrap6LzTQ74JbBXRX1QQhn+Ta4D0fCt7yu2d7aXWVfPH+K5WZ6EBPniODE5fmdvdW+b4Nbh9Nt9pgcG+dWYNbXNrbYRhfWh13c8n1acZbNdGtujS9/ya3Nb+2uNKySj68vtVEu0JZMyrcZJT4GLbP9Z67Mhdom37/Mj53rgnhqcXbYv6s2FBbjSnedXucWzt0VPu7ORfDs0Tk2yd2fKWdDc6ttLa2zvZWNwaV6fH6GzfKyFnqZ630d+00qzAplhYPbbEJZOGaWC1Jchrf4/ku9jGvdxbvUzyk/O80WT8i3YremRokyb3BBX9nQHPbDej3d86DM7IcFvbGl1fZUNPpxW2xsXmYQpSxnGyyzdCgg4ikH7uAYcaqdGXkjjud4uSd6WUmNXvZNh2tt39HzyslICx0H1MU8F7tYwaNEPvm+PMfrz9u+SiIgAjEEEI+8ekoEheLVVcKN+bbbbutqVbAMYx3uKiFyeUUJkfmhD30o+hre2be7/RGkH/7wh4/Zni8IXKYbisRo7AbM6curq4SwRQTzik1EpI7StddeG30M753Lh0W8J1bH7KwvItALgfd/YXvZUKtFQAREQAREoCsCiDVcmV/dXmF/4GN28ap9bssRF6fZdtVJo+35LeUuBmuD+zEuuJtdXCFAT5/iUUZdhCJkEa1vuhhe66LxPRd1CLcL3UX3D8+eHFyXcWN+4F3Gl9YF4TljVLZ9atkEF29p9piLXdaTz4/e2GfzXaQhmj+8aKyL2+wgDp/eWGYPrj0cjlPkIvOs6UVhfHE6B4pJfGtwMbneBWdjy8EgxHHNPsVF6pcvnBZE9YaDNfaA58W4ZAT5WBfn1y4cbTctHhcE5f99doddMKvYjtQ2h3zK6prsJO8c+IRbS5c5J1zAv/HkNvvXD82xx3wMNMdCbN962ni7cv7oIH6PuDBl7DTu4IzXzXOBucjduG89bYIL1Ux3Id8bhC8dB3QI7HGBPs4F+C2njPeyjAn7/L9X9oS8/uicyd4xUG1P+LEQwby2uHt5k7upnzm90L503tRgHYf/vWsOBlHv1eSCuyUI/SvmubXHj5mdkWksP+gdFA+uPRSE8mIvUzwsyjFVoI8iIAJJQiByfcZaHbkbJ0nRVAwROC4C6qc9LmzaSQREQAREICKA8MHFGXdmrIoEQmLM71S3yp7hQm/u2JxgCV25q339Wy5ST3HLMJZGBB9ic8cRD5jk5tQvnDPF7vzkohA46ccuYrcfqQvCFXF4w+KxYd13bz4pWDl/884hW+KBq/7somlhHPHVLrLZ9x+ummWj3ep7zYLRNs2tvm/srLRnNh8JZbz39sX27RvmBYsw1tvOCTc6LLJVjc1hzDL5/b6L+TvfOhAsuU0uinGr5rz+5yMn2U8/sTBYpX/4+r4ggsnSN7Fn/XiXzi2xH3xsgf3T1bODuL3PhTspzY9xuLrJXnQL+Z+7mKZMN/m5/cyPscbHKpPue/eQPeqC/rbTJ9o9v7PY/u26OcEijsivdkGKJfd5ZzzeLe3fuXG+/b+b54dy/MgFMdZYEjzb+aYEN3LG/OJ2/jnvTPipnxc8YYyVFys2QnlCQZZ956aTwjEv8uBes9zK/DteBsQ9qd7d1O96c5/hxv7Vi6fZcu9AUBIBERieBLDY4trMtEqR6/PwPFOd1UghIOE7Umpa5ykCIiACA0QA11osqEjYV9zqi/Vx1Z5qd+/NsTE+hnfBuLwQ+RdLZ4Vbell3ro/3zUxvV54ItXluob3YLbyTirLchTbNlk7OD+7T5IVL7qfduovVFdfektz0IGhxKz7g1sfYH7IutGwQibgYY6nEDZlEXojCzgnRPtkF+YWzStxKmxdcjJdMKnBX52x3AW4wgnlh2T3fLboIZ/LF+sz4ZNyi0ZxYVDm/+b4/nzkWbsK4cuPiTEKwEthrnL8jYq9fNCZw2+kdAIyfXeUu31jDz5lRFNyu/bBhLPUb7jJe42OaPeRLGCONpT3bt8Ptm4jW2480BAEeDhLzh/OaQocqsQAAQABJREFU6fWBmGVbxj9TLqzyRObGEg8fOilGO19E8xTvuChw63iFu1pHqdEL8pxb8L943hTvSCjsGFMdrde7CIjA8CGAa/PXvvY1+9KXvhTGCw+fM9OZjFQCcnUeqTWv8xYBERCBOBJgHOhyd5t9bUdlEGrzx+cGccohFvgURbhDv+6W1+U+ZREuwl9zayHjg6OEpTXmaxBUBKhCkLW4aNvhLs6/dSvqCs+jyq3K73gelzFF0lHrZpRPV+9YZxHMv37noH35gU2hLDe6tfNmF7AI084JQRu7mHIhTikLh2MMMu7bjGk+VNMYpvdB4CPgSeTIPrG6utin/InG2bKeF+fX/s+s0NczlhiRybky3hbx+6X7NgYLOlnjmtx+iPa/CHfKGiXGUiNw4dVVABjKEyv2EbecP+fF8iVuhWeM9cLx+WF88Jp9NaEciOMoIfRvOHmszfIxz5RfSQREYPgS4DlCcCklERguBCR8h0tN6jxEQAREYBAJ5GWmBqvvL97abzvdPfk8t3gS4IlEkCWCI208VONT7NTYRLdyIoY7C6ejuvH9s3BdhZgkoNWfPrjJPu4W0r++bEawHjNGFrH2gX3e37vjE4IP8YsFlkBSjHX99gu7bLkvm+7W2lgx2LFTNx9wCf7bx7eG8v+xj41lXO3P3z4QpkDqZpewGMs0cx2PcRfsvW4ZJkVl5xyxJjNemPVRECyiJX/D3bYRwVFCa+J27FkdI86j9cfzzvGxWH/p/Kn2T09vt79+dEtwFSfw1WXzSoJVO8oX6/tHTxkXrPLRMr2LgAiIgAiIwFAg8H53+1AorcooAiIgAiKQlAQIvnSeu+VuK6u3Z90autjdbnFbjtJcF1FECX7Ax66e5ZZhglL1JSEW97lQ3Onz6+JaO3dMbojkvN8jDzPeFJsjoi0tJTWIWsQk8wJj4Y0S44eJwox7L0GmZvq4X6yviLj2EcbRlj2/kzfuwOQ1xy2eBJtCNOOOTXTpKDGF06ZD7VZblr3qUzdRJsQ/Y47Jh0jNBJPiBGp8PPGdb+63eV42IjcjbHEPR2Rvd+vvZOfIi/HT8MXyG88EQzgT/Isy/sn5U8L43dvPmPiBOZBxL/+5j0WmHOyjJAIiIAIiIAJDhYAsvkOlplROERABEUhiAu1jQrPDtD+IzvbAVe8XGNdYXoi9z3sAq1gvWVxzEXOxOorPjCdFGDIeFuvn//fUthDACYso41pZ3uTRRhGKjAm+4+Xd9vnfrPfAWfkhKFRmTnvfLgLyyY2lPgVQbbAg495LtGjmpcUaHJs4LmWJMbKGfShLq68kkBfjmX/hVt7fbjoSrLN1LsCnu6DFzZiEGGYc8ree3xmmBkIsnu1in2BSIflm8GLKpC/fv9HKPeozAvwPzpocxDTb4IrN+Nofr9hn//vqHreOc74ZYXwx+7a7Pbvrc/shQ7acC4Gz2pfBtNXPg8mU2svezvj9HdiO8wqu0Z4D7tZEayboFlMz5bgVf/7YPLvcrb4n+1RLnN8en6Lq7lUHXMBnBYt+TmxFhlLojwiIgAiIgAgkJwEJ3+SsF5VKBERABIYcgSIXTt+4clYQq0R0jk1EWf7IknFBQJ3p43xTYwQT35kHGGtulLDM/qm73p7s407He6ThL7pb8bqDNWFMKmNOCfpEUC2EaL5bm5n6CEHL1D9zPB+su1Ei73OmF4eIxYi/0T4e91QP7JQVs0207QIfm/w7bulkmygxLzDRl+cR+MmX/66vX+3Rl8mLAFC5GSVBQGPhxvLLqbEPrt5EYKacBKFCHJOQnjlubcbdG2bt+WSHYFVRuRH1TG0Et0Punp3hmTKlEO7HnOfHlo4LAjtyJydfOP7dFTODYEVIM/UR44aL3NWceY0JGjbF5yKOEnX0FT+vhX7O6P+3vVOCMdjFztR382md2oxgWrhh/99r5wRxDm8CWxH4i3IoiYAIiIAIiMBQISDhO1RqSuUUAREQgSQngBC6xKfw6SphpVzoQo9X5zTbLcG8YhOCLlbUnT61wMVjQewmx3xG3BJtuauEJfMMF3S8ekudj8v2CEamRooSgpVXVym4PLuyRfx+aMGYYwR4tD0WWKzCRI9mLHR3iYBZzIPcVcLq3DkRrZlXlOgciFJucVqwTkffeUecR+e1p7w+zC/879fPDdGjWX/ELdG4dUdjkrEoI/xv9g4MJREQAREQAREYagQkfIdajam8IiACIiACyUvARW+Tu0QzxBiX78iCG1tgXIzZJkSJ9s8IysFMuHdTCKZcesHHZ687UBsCj+EiPt6Dd8UK6MEsp44tAiIgAiIgAidCQML3ROhpXxEQAREQARGIIcDYY9yFg0syZt8uElbly+eNSprIyBSTMt12+gR7fENZGOOLOJ/mrtCUkzmJlURABERABERgqBOQ8B3qNajyi4AIiIAIJA0B3If/zMfN9pQYi8srmRJW5zOnFYVXMpVLZREBERABERCBeBF4P/pHvHJUPiIgAiIgAiIgAiIgAiIgAiIgAiKQRAQkfJOoMlQUERABERABERABERABERABERCB+BOQ8I0/U+UoAiIgAiIgAiIgAiIgAiIgAiKQRAQkfJOoMlQUERABERABERABERABERABERCB+BOQ8I0/U+UoAiIgAiIgAiIgAiIgAiIgAiKQRAQkfJOoMlQUERABERABERABERABERABERCB+BOQ8I0/U+UoAiIwEgj4/C8pKcn1CG1rax0J5HWOIiACIiACIiACItBvAprHt9/ItIMIiMCIJ+Cit7W2xhr27bbWhvqkwJGSmmqZEydbSlqaWVv/isTmGcml4ft3AtpaBERgWBDISvUJpZVEQAREYIAISPgOEFhlKwIiMLwJtLU0W3pxiY2/9Q/8RPupNAcADYI3e/osSy8stn5bfr2t+fiB5lCqJhmNB6B2lKUIiEBvBNL8ObShusWaeJzykgbuDZnWi4AI9JOAhG8/gWlzERABEXBlaanZOVZ09oVWfP6lyQHEG4oI3rZmF7Bevr4mtlycZ7amotE2ljeqrdlXcNpOBEQgrgSC1nWxuzTfTIbfuKJVZiIgAkcJSPjqUhABERCB4yTQ1tJivIZyavXW5k1jU+zmsUP5LFR2ERCB4USgpe99d8PptHUuIiACA0xAwneAASt7ERABEUh2AohfJREQAREQARE4HgJNTU1WXl5uLXQGH/U4SvW4E2k+BCcrK8tycnIsPV2S43jYdt6nsbHRKioqLDc3N3CFs1LfCegq7DsrbSkCIiACIiACIiACIiACIhBDYO/evfbtb3/bysrKLCMjw2c8SAmCt7i42ObNm2dnnXWWzZ49OwjhmN30sZ8E6FjYtGmTff/737dLLrnELrroIisoKOhnLoyGaguvkSiaJXz7fbloBxEQAREQAREQAREQAREQAQggpLBEtra22mWXXWbZ2dlWVVVlCOIXXnjB3nnnHbv++uvtggsuELATIIDw3b59u5WWltq2bdvs9NNPPy7hi8W4rq7OJk6ceAKlGZq7SvgOzXpTqUVABERABERABERABEQgaQhkZmbaxRdfHMQYIg0h/Pzzz9ujjz5qv/3tb4PQmjt3btKUd6gVBNfxhQsX2qmnnhpehYWF/T4FXNIffvjhIJ7/5E/+pN/7D/UdJHyHeg2q/CIgAiIgAiIgAiIgAoNDoLne2so2m7US6HCIB0xIdTfl/HFmuccX7RAXZ8ae8orS2WefbRs3brTVq1fb+vXrTcI3ItP/d4Tv1KlT7bbbbguMsaz3N2Ht3blzZxiP3d99h8P2Er7DoRZ1DiIgAiIgAiIgAiIgAgkm4EK3pdGsvtyF71CfBN3PxYVrW0aOpRyn8AV+FNwqqoixY8fatGnT7LXXXgtuuizHGrxlyxZbuXKl7du3z7BcnnzyyeHFmNXdu3fb66+/HrabMWOGrV271mpra8N44XPOOcfy8nwOPk9YLxHU7733XnDd5TjnnXeeccxo/Oobb7xha9assZqaGispKbElS5aEV8ig0x/KQ37V1dU2btw4O+2008Ix2ffJJ58M5frUpz4V8sG1+4knnghl4JgzZ87slFv7V86D8pEn54m1ljKQ9u/fb/fee6+df/75tmfPntAxcMUVVwSr7oYNG4yyHzlyJJzvSSedZGeeeWYoA2WB1ymnnNLBov1o7WxxMX/llVcCW1ixHS/Kwb50QNBJ8c1vfjOcJ0J6pAQfk/CNrhS9i4AIiIAIiIAIiIAIiECfCfjEwylpvjXv/hrSycvvc8G3W67jeyIITqI7Y21EMK5bt87uu+++INoQg4jaRx55xA4ePGiXXnppEKmMC0bAnXHGGSFg1uHDh0NgJ6ycCMD6+vog4hDFkydPNgJpEfiJPD796U9bfn6+PfPMM/bss8+GYzOeFRHJsRGRuGXHpueee85efPHFECl5/Pjx4dgIU6yso0aNMoTou+++ax/5yEfCboh3hOSBAweCCI3Ni890ADz11FPB1ZuyFBUVhXG5O3bssMrKyiDQGQf90ksvhfIxdhchj3s44hv3cMTy9OnTAzOWLViwIAQQe/nll4M7OW7PnRPW3LvvvjvkM2nSpMDpwQcfNCJvR+VA5FIf5E25EMEjJQ0p4cuUGyESmdfO0WjpoZ5wLIn9ngyV13nyda4pXqn+cBxB11cyVIXKIAIiIAIiIAIiIAIDQ2DYTScTfxEU2u7eUMcKi/hl3O+uXbvsc5/7XBBfCLyf/OQnQQRitUUMIyxJWCoRtojg73znO0F8Ivg2b94cLKII2ptuuikE1HrzzTftRz/6UbCgIlaffvrpIOqIfkx0aaJOI7xjE2UjWBQiFesoFlfcsckL6yiW6muuuSZYRGOtopFY5D2yLkf5Il4RzY8//ngQlox75rywtGIlRpAjvtmX80Q8I/BHjx4dtr///vuDtfbyyy8PywlEdejQoVAGjsV+0Ss6Ju+wXbFiRbCQf+ELX7BFixYF8XzHHXfYqlWr7LrrrgsWZ8oBn5tvvjkIZMT9SElJL3wRu61+USJux+WlW0l2mhVlp1pOeqqlesWzJss/F/vyZFG/lLm0jrnM2i+jZl9Q09hqFQ0tdri2xcrrW7zsLoK5WeL/fBkp167OUwREQAREQAREQAREIMkJRIITYYd1Fyst1kZcfrHgYmFFpD322GOGRRSxiyDFistUSCSsxswHjLW0ubk5uEojGMkT6zACEotpQ0NDEMW4TCM+iTK9dOnSYO3Efblz4ji4XbMt42e3bt0arMbkjSBHYJPYrq+JsjCuGesz0w5xPpQdQU80ZtyfsU7jko2AZUw0lm6ENxZptkHsc+5jxowJh50xY0ZHZwAL2K9ziizaLEcov/rqq2E7hDiu1JwPlm6+I3Y7W7075zccvyel8OXSQjyme52Oy0sLgneMi96TxmTZ1MIMm1SQ4ULXJ8Z21ch1mJ91VPgmUQ3tr262Fk7CU2NLmwveZttb1WxbjzTalrJGK/XvB2ua7Uh9Kw4yEsCBlP6IgAiIgAiIgAiIgAgMVQKdrZ+M4UXIIeoi8YbVFVfbWDHJ/L98R9SSEHZ85xVr3Yz2wXUXd2fyZ2wuYo7tGAOMWGRcLssQd53LFMuW/MiHd8Qi7sxYdslrwoQJwVIbHZ9torwiy2tsXtHn2Dw5r2gfxCbfKRcMovwQ9SwjIdwRzmwXa2GO8u7pnf3Yn7zpXKDcJKy7MKEzAOvxSE5JJ3zRihmpZkU5aTatONPOmpJjyyfn2snjs4MYxnJa29RqDS4mm44KS6youyqakqYeuc7y/CSOXm+WkZZiM/1cFo3LtlxfXt/caiv31Nlru2vtzb11dsAFcFVDq98Aw2CISNLUggoiAiIgAiIgAiIgAiKQKAKIN6yuCDAELOKUeXwRvrgaM0YVQTdjxoxggcQiitWTbRmbijDD+osg7Jxil3EcRClWUYJFMe4WUYngw6LMuFVco3nHgkywLKy5rKNM0ZhjjoEonTJlSjg2Vuerr746lCES1pGFFIst5cR6zVhZ3KMR15G4jC0vZZnpwa44H6zJuE5TXsqC5RUrNa7PkciPPTfG5WKZhg374taNmOVYWIyjbaP32ONSLs6T8dAErELwkjhvygQP8uWcYYUFmDKMpHG+SSN8ucRdH1peZqrNLMm0S2fm26Wz8m2MW3yrXezurmyynS5uNx5usO3ljYZFta7Je158n0p3Id7h6/xjUqR0L9ScUZnBIo2PdqFbpye7lXq2L5s7Ossm5KfbKRNz7AwX9JzLwxsr7ZWdtcEC3NDc7tadFCeiQoiACIiACIiACIiACIhALwQQYogpxspizUWo4T6MoEXc4nKM2EOEEQX5V7/6VRgDi0BETOJiTKTi+fPnh7GqXQm7SGQifHGTZqzq22+/HUQdYhHRjci94YYbwrGWLVsWxgEzVpcxtYhOROS1115rCEwSec6ePduWL18eXKYJKjVr1iwj8BTlQqSfe+65YRvG/TI+Fzdtzo1jcW6dy4rIJE/G7VI+joG4xv2Z/aIo0JEbdSxazoNyMxaYFyIWgYpoZqwx5x5xiN2PzwhqzgMuP/vZz4JoxmpMxwOCGGs4IpftcOUmf+rqqquu6rd1ufOxh8r3pBG+iMVJLgivnJNvV88rDOIQ6+6aA/X2xOYqe3lHrZW7wG1xTwA6gmLlIaI5WUQvFc+Y3o2lDcdcA1yklNENvjalKMMucVF/0Yw8m+yu2184c4xdPrvBfv1uua1wSzBjgI8as4/JQ19EQAREQAREQAREQAREIJkIIPSwRmI9ZPwqbV4EFZZVAjQhxhCLJMazIsAY28uUOwhN9iUAFHP+IvwYx8syRF6UsFLirotVk/wJanXLLbeE4FMIUqb+QcwuXrw4vCP4CHqF1RVXaAQ4+xAROhK9Ud68kxcilnywtGLhRSzz4vMFF1wQrLxEV8YlGvHK+SLwOf/OiePfeuutoczsg/jknAgwxb4ktuF8yT9WzMKCZUSapiOBcnFeM1yEI5bhAMfYfaL86DwgaBiBtQgiRj0gujkP6gOXc86F9XBh/DMWesoyElKK91KgG7tNiLBbfrnTjniwJr/OBiRhtV0+JdduWVRkp7olFHG47lCD/WJNub3hrsCNbgVtdCXYc0kHpGgDkimWbdyfCch18cw8+/jiYhudk+6W7RZ7emu13ftepW3xscADhHtAzkmZisDxEMDD4Y+Xj7bPnt7ujtNTHisP1NnGIw3uGaI7oydOWicCIiACI4lAlrenrp5ZYLz3lhAqjH3kHSGACDjh1FxnbXvfcovM+yLthPMcrAw4h4LJljJ6Tr9KgHBi7GisUEWUIVYRVLHjXMkY6UEd4E7MvmzLNtF2LGPcLSmqI/ZBZJInopl3jkcevFjPsigf8mQZVuhoPQI1Wh8y7/Qn2jayqlL2aIwweWEtptwkllNOlvO5O+EY7cN20XmyPYn9sYBTJgQq66NEmSkPZYk9r4gN+5BP7D7RvmzDcXlnPefNtpFAJ2/Wkyh352NH+QyVdzoqcD1H4HfVqRF7Hkkh729cUGg3LiyyOe7ifMiDPj28ocoe2lAZIiPXe8P4/csgtuhD97MPT/YbxwfTu7v2Q36ub+2rt9tOKbZzp+XZ9ScVBSvwXe+U2+s+BhhLuJIIiIAIiIAIiIAIiIAIJCMBBBWW2L6mSAAi3rpK5BcJ3mg9+3Q+BoIQ0carq8Q+Pa3vvA/iMBKlndeRF4K7v6mn43OeWKS7St0JdIRqZw6d9ydfLMLdpe7y7m774bR8UIUvkm7phGy7dn6hzfexryv21No9ayuCECx3CzOKd7jKvui8qtydG7foO1aU2mp36751SbGd5wL4cE2LHXRhvN3HLvehE3M4XZM6FxEQAREQAREQAREQAREQARGIK4FBE74YMuf79ESfWTbKFo7NDq7Nv1lbaS/5WN56N4mOFLGHAHbvB9tV2WyPbqoKwb1uWVRsV/hYZ6I/37W63Pb7NEje0aQkAiIwbLvCVLUiIAIiIAIiIAIiIAIDSWBQhC8abpRPV4R1c9mkHJ/ftsl+5YGdmN5nJIne2IpF6Jf7nL64PhdkptkN7v595ZwCn+e3xe5cVd4xdVPsPvosAiOJQKqPPfKgBNaakupDqXwckjqDRlL161xFQAREoBMBDxrqVoE2WQY6cdFXERCB7ggkXPgSrbjApyy6/qTC4NLLlET3r6u0F306H6YlGsljWhG/dAIwvnlUbppdRYRrF7973N35sc3VYeqm7ipSy0VguBPIa66x0Q0VlldQaMXFxSGgxHA/Z52fCIiACIjABwkgeAn8w1QvGa1p3inKeMYPRtb94J5DZwnn2N7BG70fLTtugvznXUkERKBfBBIqfLlFM13d4eJ804KiENn4cXfvfWpLlTGmdySL3qjWMtwHfHNZoz26scom5KWHKNfXO6t3fPzvAR/zq8dcRErvI41ATkudlTSU2kSfD3uKxwRQEgEREAERGLkE6jwY6ro9pZbemm6p1j4n63CggTMTbb2aukY7UlVrtQ1ELH7/zLIz0210Ya7l52Yes/z9LfRJBESgOwIJFb6tbu4tcTF39dx8K3FX581lDfab9yqCoJPb4vtVxEPv7X119mh+mk0rzrA53tC/fHa+/czH+8Y+/N7fQ59EYPgT4HffnZ2NqOhKIiACIiACI5sAHoS4OQ+nuT9o/7V4Q6+0otbWbT9oOw+UW3l1fYd1l5+/gtwsmzGh2E6aNtYmjC7ocjqbkX1l6OxFoHsCCRO+3KzMXTvLpyy6aGa+NXjr9RG3am4vbzKP4aTgTTF1hHdLXVOrvbm33p7fXmM3+VRPl7nwfdLdnQ96D6fEbwwsfRQBERABERABERCBYUCAtnJZZa2teG+Xvb5u11GbkDcKUcRHU2lFjW3bV2b7S6vs0tPn2LiSvk8jFOWhdxEYqQRSE3XiWHsnF2aEaMWM8d1d2WjPuahD4CH0lI4lkOYuz7sqm+zlnTXuBt5sU5zd1fPywwTtPBiVREAEREAEREAEREAEhgcBxvRWu3vz2m0H7O1Nez2uS3vwLtrINJM7Xiz3f9v2HbFX393hLtENwwOAzkIEEkAgYcIXsTapIMMumJ5nzF1LQKtyj1gsEdd9LWPZ3VTaGAJb5WWk2qWzCiw7PWFV1n3BtEYEREAEREAEREAERCB+BFzZ7tx/xN7csMeaW9wVsoeEGG5oag7id/WW/T1sqVUiIAKxBBKiohC3OS7YJuanW3F2mlW78GW+3kYN1outiw985sF2oKbZVvg0T6luAZ7g/MblpVk63X5KIiACIiACIiACIiACQ54A1t6qmgbbfciNQj6mty+JfY5U1dmGnYc7xgD3ZT9tIwIjmUBChC8BCMa7aFswNisEptnp0/OU+9RFGqva86WHvm32zoFDNS1hSiMiPi+dmBOsvmLXMzutFQEREAEREAEREIEhQcAbfBXVdVbq43v74wpJW7C2vtEOHKmW+B0SFa1CDjaBhAhf5hob65ZKohNXueBdvb/eevHiGGwuyXN879FjfmOmM3LdayePy7IsN/liRVcSAREQAREQAREQAREY+gRa3ErUchyNY9qDzUSJVRIBEeiVQIKEr1l+ZpqL33QXvq229mC9tcpk2WvlsAEVVOOu4TDD9XlifobmO+4TOW0kAiIgAiIgAiIgAkODAEFN03z2k/4m9khPS0hzvr9F0/YikHQEEnKn0A9VmJVqEzy4VYP3Su2t8sm4kw5FkhbIn2j17u681yM8E8VvSlFGmBYqSUurYomACIiACIiACIiACPSHgDeK83KyfI7e7P4ZhryNmJnh8XPyszWfb394a9sRSyAx8/j6DZ3lwa3olWp0V47DtRrf29crDmZNLnwP17UEi29hVlpweVbHQV8JarsRTaCpxtrqysxah4AbmLt0pKRl+cOy0Cc9zxnR1aaTFwEREIGRRIAhgYW5WTZxdIHl52RaXYMbO3Dz6yHhOZmXnWHTJxRbTlaGDEo9sNIqEYgIJEb4crSjrs0MX6j1uXuV+k6gxdnh7nwUYd931JYiMNIJNFSZHdnW8fxJdhxt6d5rXzDRrGhashdV5RMBERABEYgjgTQ3EM1wEbto5nhbtXmfj9vF4NG1+EX0Zrh784wJo2zJnIkSvXGsB2U1vAkkTvgOb44DfHZuCer62TfAx1X2IjDECdBbxCslIaM6ThxWc721uVjX7X7iKJWDCIiACAwlAm3uETmmKM/OXDDFmlz0btlTZlV1DR/4PUD05rtb9KxJo+y0eZNsgluJ2XewUl1jix2uZAom/XLFuw7wBMjNSrcxhe4NphQXAhK+ccGoTERABEQgTgQGsJeroaHB9u7dG6a9mD59ugdSSYtToQc2G378y8vLrbKy0saPH2/Z2dkDe0DlLgIiIAKDQAD5OmFMoV155jx7be1O27yn1Grqmzq8lrAAZ7hleP60sbZs/mQbXZw3qKIXRLsO1dgvXthuBOdSii+BZu/QWDi1yD563vT4ZjyCc5PwHcGVr1MXAREYWQT27dtn//Zv/2ZNTU3hvbDQxxMPgdTY2GhPP/20Pf/88/bZz37WFi9e3K0L4BA4HRVRBERABLolgPWWcb6XLJsdxO2m3aXW6BZgEuJyytgiGz8q3yM5pw266KVM+8vr7cEVu708Er7wiGdq9IDANfXNEr5xhDpE/P/ieMbKSgREQARGOAEsqEMptbS0BEv1kSNHbPfu3VZbWzuUiq+yioAIiECfCTCfb0NTS3hlpKfZ5LGF7gKda6MKcqwoL9uq6xptz6FKK6+us+bjmPe3zwXRhklCYGj9XicJtG6LMaItvvRN4VWYxp9OHVW0CxlHMYjDJrqtNK0QARFIPAHEYvvzwB8O0e9QeG6khEjr3QUhSXxJh98RMzIy7KyzzgouzkuWLLG8vLzhd5I6IxEQgRFNgN8YBO/eQxW2fuchK6uss9LKWmtobP7AFEe0UUcV5tipcyfZktkTLDMz3X+HOjVkRzRNnbwIdE1gxApfng+Fmam2dGKOnTM113IzUjvasgjhPT5v7ss7a2x9aYPPPRy1cruGqKUiIALDmwDPi237ym3b3jKrrKk3euRJaampYf7E6ROLbdr44vB9eJMYnLNLT0+3pUuX2oIFCyR6B6cKdFQREIEBJNDqvykbXeyu3LDH9pdVheBW/M60uEW3y3lQ/CfoQFm1Pfv2Vluzdb+dftIUWzxrgqVqnO0A1pKyHg4ERpzwpbma4Q+G+WMy7fZTS2x2SZaV5KS51TemOv1zo4vd82fk2so9dXbX6nI7WN3cIYxjttRHERCBYU4AS+7z3rh4b/sBF70N1sycwFFfmD8rmFJi3Y6DttSnlDjtpMmW7T3v9MYP1bRt2zZ74YUXbP/+/SH41ezZs+2yyy6z/Px8n16j2X72s59ZcXGxjR492t56663w+dZbb7Wamhp7/PHHbceOHeHU58+fb+eff76NGjXKNmzYYK+88oo3ylJt3Lhxtm7dOhs7dqxdffXVtn79eluzZo1VVFTY3Llz7eyzz7ZJkyYdg48xyS+++KK98cYb9pGPfCRs98QTT4RjUb76+vqQT05OTrAMYxVGLK9du9Zef/1127Nnj7EO8Uz+uEz/9Kc/NQJ83XzzzcGSvHHjxlB+8rv00ktDmTnmtGnTwrlt377dZs6cadddd5299tprtmrVqsCD8cbLly8PPI4ptL6IgAiIQC8E6FStrWuy1Vv22apN++xgebU1udjld8dXhRS9H5OVL8Qrsba+0Xa7RbiuYZsdcQvx8oVTLcfn9lUSARHomsCIE740WCcVpNunlpS4pTfPMo9RvO9DynEyRdlpVuIvLL7ff6vM6mX5fR+QPonACCCAgF29eW9olBwqrzl6xsc2Q1wKh6ibK9bvtsL8bJs3dYxlZnjQkSEoft9991176KGHggidN29eEJSIv4MHD9onP/nJIBC3bNkSokIjaHfu3GmnnXZa2P6ee+4xxOHJJ59sWVlZtnLlSiOK9OWXX251dXVBmBKVGZdlRDPiFyFcVlYWxHFVVZU9++yzIfDWhz/8YcvNze24wlq9s4EyrF692q688sqw/PDhw7ZixQo7dOiQzZkzJ+T53nvvBTFcVFQUynD//feHdyzFjAtGnCOSeW3atCkIe/ImVVdXd4hnllEehPbmzZvtjDPOCPkTXIsyI9I5fzoJEOAsu+qqq0I++iMCIiACfSVQ6xGbX/XozQjfCvcm4nHUH5dlBDIu0ocrau3NjXv8t6jBLlg6ywpyNf1NX+tA240sAiNK+OI2Mqkgw25cUGjnTMvtVvTGXgKjctPtstn5treqyR7aWGWNLW0dvXCx2+mzCIjA8CJAb/qhI9W20gUtY60ICHCs5I3Ot33pkao6W/HeLivxACQTRxeG+AHRFkPhHeGHJZPpjhCrWDERiojRl19+2U499VRbuHBhEHmIUCydF110kREZGqstQhdRirU0MzMz7IvFFcsv0yZhtUXMXnDBBeE74pN8L7744mCFPXDggN15552GsMYiGyt8g/UD00hMQmwiUBHR5513XlhTUlJiP//5z4MFGasxeSHEsfQihgmSVVBQEPKnTLHTOZFfbOI7L/ajzOyLsIfHRz/60ZAvwvjBBx80rMVXXHFF2D42D30WAREQge4I4Mb8uv9mvL1pbxC9CN5Oj7nudu1yeWVtg7s9H7CsjHQ76+TpQfwOtUCGXZ7Y0YWx59LsbXF+oxluRKTrvnALfdH+J3ZbOqhjv/d0fK0bHgRGjPDlgs/2uc9OmZBt18wrCGN6+1KFNLUmuli+aWGRrdpfb9vLG48GuOnL3tpGBERgqBKgUfLe9oN24EiNj+ltdz3r7Vx2HqwI44CL3fKbl5MVeuJ72ydZ1jPVEcIO8YjoZb5chCWfn3nmmeD6O2PGDG8kpARhi0UYMcz8urgx807E5cceeywIQNyLsYgiYnFrptGCi/RMdxdG9CJMn3vuOZs6dapNmDAhWJM5NlZi1vclEfSKfSdPnhw2xxX77rvvtl27dgWRvmjRouCy/cADD4TjIoLZvi+J8iLg4UAZKdfEiRNt69atNmXKlHBOLMcFHGsy63GnVhIBERCB3gjwfKGzlGEyFdX1/sw8tmOvt/27Wk8O9e72/La7TM+ePNry3OWZ5/VQT7TfczPT7OMXzLCCnIwQTNJ/nq3ap/l5d8cRf5VbbWNLNx3T7WePwM10DQDmBp8iiDwhk+denXW+L+uVRgaBY7u4h/E5u7HXxuX9/+zdB5Bex3Uv+AYwwAxyzgA5ACOYMyVGkBIlUsyiIiVRlJzek017/ar8tOtab23tPpfe1j7XvrXK+2xJlqhgyZKoQFKZIkVKzDmDmSCRASLHGQyA7V+DDVx+/CYBM8DMoA9w5/u+e7tPn/7f1P8+p7sbwqlxMqsJ4pi7IW6Uw8cNC6fFvMhzuUG6AV5JWhDohwh4IVom4qVFq9MkI11tPGjMLFy+Lmzc0rr7rdqH6171djKT7TZezmp9sycUCc5peGOFMxNk0+aYkGYEGNmdNGlS8sQiibylRJr8qYysO+9PByvp8u+OPqt52UjUDbEWMi1Mmbf5zjvvDD/5yU8Sca1Xv9p65zKzfrrlM3Y4lyNN1pXT5XzlsyBQECgItIeAJ+HS1RvSjM0dMrb2FHSw33JHb65Yl4bg5OdTB8n7/qEIVlMkvp+ePzecddTEMGlMU5g8tjGcN29yXN+2OZx6xIT4TN79bmmvMrzCZ8S8Zx8zKb7bd4WG+Hv2pBHhklOmJ0L89qupvexl/wBCoHsMsB9XXKNkyqiGcOSEYftUC+T3xKlN4a7XN4VNfb9Nu091LJkKAgWBvQh4Zlgn0RCJ7nSaG6fVur1tr6I++C2viyvsNxM2303kZJyssbSnn356Clc2iRPPp3G0CG9Onz95PJubm9OYV+N9zzrrrOS9FSbd2tq6ZzxvFQZ581bd393v9CPaxuPyurKbsJUHVp0uv/zyNH735ptvTiHZvNq5LqtXr05jh9XLpFx0dNRQzHXOdtb+zvvLZ0GgIFAQ6AgBz46lcS3erS3b07OwE97Wkap3H4vt1YXL14ZjDpscRo+MHZQdc8J35++DeyJcEau2cNvDi8OtDy2O3t7t4YozZ4UbLz4inBsJ8N3PrEhktlpVHdh+C4ke2dQQLj4pznodX+a/eWJZGBOHMZ7YPC5ceebscNfTK8K27bs7TaXd3X+6W5P3AdKcJR+3SwqfHb0zcr7y2XcQOISIbwxpiEsWGbO7L+LinhqJs16iIgWBgsChgACPZNfGDlXR2D1Oq+8+JzS4hBKbxAqh9RsRNsOyiaeM8eUdNWkUD64Zl08++eQ0prWpqSlVVR4bsU8Isc3kTyarQiTl5x01hjc3DPJnyhj/+J31VD/z95zO79p98iK3xvEqFwFm65wYSm1MrwmozE4tfBo55/U1izNPsHWAjz322DSm+Te/+U0iyLXEV3k8u1Xvbt6X7SqfBYGCQEFgXxEQVWROiNEjmuKzcF+11M9nnO9AFO9kIcva4pvibNjrY3RVW5x4dkTjkDBn6qj4ngjh1eUbU9V5dEc0NoTVG1tC85RRYcaE4bFTOg7fiV7fcSOHheNmjwvDoyf51Lnjw5LVW8Oitzan9FPHNaX926NneO2mlrB87bb4LhsU5kb9b21oid7mOJQp5tvcsiMsXr0l2dCdCckG4nnpT3UamHdGO2dAT01ef7OdJB3ubotdcrubeh0mKwcLAgWBAYCAhsiIxqFxuYjdPfJdrdLw+KIdEpc46otiTKwxq8KUzcicRagy7+c555yTxqkiviasEjIsVBgpNomVdMa5Ipw51JkOSxTdcMMNaXyvWZCRTLMeI9LK40mVzxhfIqw4e4qRZKIs42+VgZBXRXrlNzc37xlHi4TSR49xt8Yo8+SaXEvZjtPNC8xe44Atr4TwIvo8wcpiL9uERRujSydSLS97EGdin+9Ct3PdfcqrvBy2XbW7fC8IFAQKAvUQQJTOmDcrnHLUO5duq5d2X/YNbYirkkRSPZAmpfEMnjBqWDhi2qgEyUUnTktLjz726powa+LIcMNFc+P+QeH/+P7T6fl/+RmzwrzZY8Pdz64Ix8fPEw4bF9PvDH9zzXGRyMZ3yoihyRP8Z5ceHe59fmX42SNLwoUnTAnvP3l6GDtyaBzmtCs8E8cQf/t3r0eP8I7wP119XHj05fiePHZSGDtiWIL26799JfzysSX7copKnoOEwCFDfOP9EjbHnp7VW9rCnPHvbFR1BXthKMvjWr7Ib5GCQEFgYCPgLtezPGvy2DTxSEtbxxNnZDS8mKdPjJPnWUexDz4qeDv/9m//9l3eU/bzzhLkce7cuXvSqBNS6hNx/pM/+ZN0zL6qmP34ox/96J58jkmDEJrZmV46CC+xmZLNxpzTIJV/9Ed/lI7X6kaEkW+zRudjiC0CS6+1fZHtqq3IuDV6s8fWsUxO6RDW/YUvfCEdt9+WbXSc19jM1VWbP/nJT4aPf/zjCQeGWnf4pptuSmkyfqkC5U9BoCBQEOgAAc+VqeN3E7gOku3XIWX0wdfQPtdJyPF15xwePnT67skMeV8fj6R3+bqt8fldT2185kcMXl66ISx4c32YMnZ4SvtfIjGeNWlk+MT5zeHYWWPD//Ktx+OwptZwxVmzEum9/ZHF4acPLgqnHzkhXH/hnDi2eE742h2vhKFx+dN5s8aEv//Bs8nT+6UbTg0XHD8l6X9xyYZ3hETXs6bs6xsIHDLE18W/fGNbWPBWSzhj5t71Ibt6Gixj9MSyrbHXp3vj/bqqv6QrCBQE+hYCQyP5Oe3oGWmsVEucfbMziY+YMCaOpzpq1qTYk9w3Z3TWEEJeO5JMAttL0x7Bo7u9Y/V0IpeZxCqro/yO16a3D/mlm9TWi756eVLi+KdeeVmXNPVsrq1fvTRZf/ksCBQECgIdIeAZVKTrCIjY/OE9r8cxukvD2s3bw8lxjK4Jr4ZG7+2PH9gbwVSrMb4mktNq9/jcXaElOsF4funzDhH+LKz5pObxMax5a3gpkthtcabnl5ZsDM9HwnzWUZMSgZZeaPPqGP68OUaCrVy/LUwc3Zg8x8oo0j8QqNtH0j9M756VsaMoeWwfXbI1rIie2+4IL+/ra1vDwzHv1nizlEdVd9AraQsC/RMBHt9p0Xt73omHx/FATe/wZNbWyDOhadjQMP+UuWH6JGv4lqdELUY9/RvGBeeeRrXoKwgUBAoCfRMBJHVLnOBqXSS96ze3hsdeWR3eWLkpTI9jd6eNHx7f0V23+x1vaD/iNjQOUaIiNvmTILrGYetbza/0HZEgKyeli8dT1nxwd7byt48jcMgQX+fBhbpgVUu45bl1odUiYF2UVZvbwrefWhvWbY1rfXUxT0lWECgI9H8EjJM6fu60cPk5x6aw59RjHN96XsA2v8nk8SPDtecfF+Y1T4kE+JAJpDmoJ/iSSy4JX/ziF8P8+fMPqh2l8IJAQaAgUBA4MAh472ZP7ZHTx4TD46RVJrlauiaupR7H4U4a0xiHr+wKjfHdPW18096limI+odI4qk7t0XFZU98bItmlz2RZL8WQ6JkTR4TmqSPDjpjed6HQK9dtSzpTDTHdWinEoBaRPv37kGqhxes6rIuzsP3y5U0hRjaET5w4LkyLMzW3Jy7851e2hH+LpPfhxVtTqES9a769/GV/QaAg0P8RMFnVETMmhFHDh4XXlq4Jq9ZtTr3AaibEyjitWVPGhhnR09sQu4bLO/DAnHPrBNuKFAQKAgWBgsDARgBJ9S62bu/5x0+N8zvEyQ3jRFcbtmwPf4gTUy1atTn8YcGq8JdXTAj/zx+fkY6v2hCXFoxOroY4NvfNVdtSaLIljSxt9MqyjXHf5nDVWbPD//XZ08LTC9emCa7GR51XxbG+l502I5LmIWlG6FvueyOByyOcyPPbUNOLOA86pFyI/f86a5/19f+61a1B7NgJy6MH9/YXN4QNLTvD1ceODidPizPf1ciWyIzve3NLuO2FDeHRpVsjUd4d0lCTrPwsCBQEBjwC8eUWvbgzp09IJHf5mk3xZbsthjgZQzo49hwPC6PimN6G+JJMrDd2mBUpCBQECgIFgYJAQWD/EUB6hTh/+WcvhJGR/Ao9bovE1zhd5NXEUsboPh5Dn7/y65fD5DFNYWsao7shILJL47jcjdEr/OP73wwvLF6fxvjKZ1Is3l6Elsf4tRWb0qRWxvgi1cb5LlyxOTz75tpEgv/tntfC6g2tSTcCbD1gyygh3Wwq0j8QOOSIb/bYro+k91evbAzCmE+bvi2MHx5nH337IJK7aP32OKZ3S3ghhkabGMuNV6QgUBA4dBBI40fjjb963abw1votYfNWL7ztYePmlvhC3DtPgNAraadOGBXmRs/wlOgBHhQfJrv0shUpCBQECgIFgYJAQWC/EDAhVXUCKx5fQ42ELQtTRkSR25/HJYnsQ2i13eMciqmTWuFPvr42PPbq6vS+jknS8e+vWJjs2q1ncHg9kl/eYO91OSMnjtvgSLTbwm+fXJ7S+kP3o5FoZ/G7SP9A4JAjvq7l3eP0dvcYPR5nan5tTWtojkscDY8LVJNtce2u9TEk2kzOQqFXbdkR4/1d6Gn8e/84s8XKgkBBYJ8Q8BTwylu7cUt4c/m68MaKdWHZ6o1h05aW+GJtSTNAehZkSa/H+Ht4XPN3yar1kfxODM3Tx8ce46b0Ak7vz5y4fBYECgIFgYJAQaAg0G0EquRy8Nvt9aoSHdBD396PCNfK7tDkdy7D1zj4nb+HIMt18tbqKr/7LwKHDPF9u/MmjGqMY/JGNiQP7+j4fVr8Pnzo4DB77NBIfPeOz3PdC51YsnF7eDyGOi+NSyGtjN5hpFjHzrtvqf57ERTLCwIFgd0IuLf1JK9Yuyk8/cqy8NhLS8K2GGLlhhfa7LhxvfXExBpPvbI8vLJ4dTjxiGnh5CNnxFmhR8UxQEPe7j2ul6vsKwgUBAoCBYGCQEGgIFAQOBAIHBLEV8ThqGG7ye2JU5rCmTOHh+Pj59QOJrbK4AuXuKh5VHhqxbY4wdWW8OLqlkSCjS/QCC5SECgIDAwE3M9tcczQ4rc2hIeeezM8v3BlqpgQqK6IVEKct8Yw6EdeWBw2Rg/xWcfNDrOnjNuzTEJX9PRmmtbW1rB69eq03u7EiROjR7o+ie9NG/ZFt7CzrVu3hlWrVgV2jxw5MoWr7Yuug5ln8+bNYdOmTaGpqSmMHTu2U1Ocr/Xr16eOkylTpnSavicSKG/DhjjGbdy4MHr06KRy+/btgS1w70sCy+HDh6f1mvuSXb1hy44dO0JLS0u67tW5q9LWFjvst20Lo0aN6mqWkq4gUBAoCAxYBPpHq2c/4BeG2BRDH847bET42/Mnhy/G7eK5o7pEehUr5GHuhGHh2nljwn9539TwF2dNDPMmNcaB7l1rDO+H6SVrQaAgcAARsATCopXrw12PvrKH9O5r8SJMnnt9ZbjnydfDG8vX7ln2aF/19VS+t956K3z3u98Nv/rVrxKR6Sm9va1n586d4Y033gj/8i//El5++eW4tETXl6Prbdu6o/+FF14IP/rRj8Jjjz3WpWyIvnN12223dSl9TyR64oknwje/+c3w/PPPJ3UI15IlS8LTTz/dE+p7TAe7HnroodQx0GNK+7CiNWvWhOeeey68/vrrXbbSfbJy5crgnPbXe6bLlS0JCwIFgYJAFxAY8MQXPf3AkaPC50+bEI6LXt79EST4wjmjwv8cyfN7Zo0IQ+NvxLpIQaAg0L8R4KldEWdrfnjBojSmtydqw1Ns+aOHnl+UlkAqXWX7jqqxWxMmTAgnnXRSmDFjxiHh4dt3tPYvJ5xPOOGEMHny5KSIB/ill14KS5cu3T/FPZybB/r3v/99WLt2bQ9r7pvqdD50h/SqBY+4jqJFixYV4ts3T2uxqiBQEDjACAz4UOdTpjWFy44aHY6IXtuekLhsVzhqYmP47Cnj4njfneHBuL6vfUUKAgWBfoxAJFbrNm1Nk1PpzOrJWxqhfmXJ6jjrcwwb7QczXQkr5k3bPatlxCJiMySOU/ZJHMvCi2R/Q8PuV4lj2bNUzUdX3u+7Leer5hF6bctl5XLss2bv5ZdfHkaMGJF2C+GUzpZt8r1qqzJtuS70OO63/OzOZeW02QY6s53ZdnlJ1llbXjpY+SN/1qOsrKeSJJWR09ify892VdPm79JnXdLlPI7bb7NPuvZslMbxLOomz7HHHhuOOOKIMGzY7ncm8sTbSI+QZ5/5fOe8PnO5GeusLx/L+6UjjtNVrXs1T86XbZQ219O548kU+sumrNPxzoS+nL6qU77q+fI7lycdyXX0u6oj1yWnqWdzPiZfxoJ+ebPUlq+crFsHxLp16xJe9Gfba/NUbd6yZUsQ5QEvOBH6/PaZ8aIj25XPrfTS5P3V9Nne8lkQKAgUBPobAgOa+B4eJ6y64ZTx4fQZXR8P05UTGB054cSpw8M1x44NG+OySM+t3FZmgesKcCVNQaCvIhAXud8Qlylau2lbWqagp8w0CyVCvWjF+tA2b0dsSHbeMO+psvdVz7Jly8If/vCH8OKLL6bG8uGHHx4+9KEPhWnTpqWG8i9/+cvQ2NgYhg4dGh588ME0DvTGG29MDfG77747PPPMM8nTJN+ll14aZs2aFRYuXJhCZzWmNeBfffXVMHfu3PCRj3wk3HXXXSmMVmP87LPPDu9973vT+NKq/RrmyNc///M/h09/+tNhzpw54fvf/34iwUcffXRgk7HLRx55ZLj22mvD+PHjkz1PPfVUuO+++4I6GVNL/7nnnps8YN/5znfCTTfdlPYjEep77733hrPOOiuRP99fe+21MHv27PDoo4+mshDvHDqqPGVfcMEFKU3VXt/ZzEuqfgsWLEjlsCsTC2kQGJ484cxvvvlmwvW4445LNsK7nvB0Si/s1bhn6ebPnx/kQwTtV+czzzwzeUR5cK+++uo9Hlw6Yc2L+5vf/CasWLEidSq85z3vCaeffnqq8/3335/Og7S/+MUvwuLFi31NeZqbm8NHP/rRNE457Xz7j9BoHlj6jAWmD9awdZ0gYOoLU3ZffPHF6RoQxk2/8/PBD34wHHPMMenaolYoM1sQPmOc6VPPRx55JNx5553JA/qv//qvyRZ1POOMM6omveu7c8JG+Tdu3BimTp2a6qnenZ0LNj/++ONpY+Ozzz6brknfXRdwdm7odv+4zl0755xzTopUYIxQd+dGfd1Drkc45bHT8sCDZxduRx11VMIEDvaz0THeeNfdKaeckvC+4447Eq6urdNOOy3h5Pq8/fbb03WV87kX3XMwc58pWznSPvDAA2ls96c+9al0//63//bfwsc+9rFUH3Zfc801yd53gVp2FAQKAgWBfoTAgCS++mbHxBmbP3fq+HBGJL2mJ+9pQX7nzxkZXl/bEl6NyyG1xvGBPV9KT1td9BUECgK1CGj4bYjk9K31m2PDMnqjepic0rkpLoO0LpLqiWN3eytrbegrvxFUJAVBuP766xORQmi+/e1vhz/90z9NhBJhQCSFHGt4z5w5MxFkDWfjcK+88srkLRRiSZfGPa/RK6+8kvQhw/JpzMszZsyYcN1116WGO9LMo3vhhRe+AxL2IGvIoYl6iAmYEBHpr7rqqj2/f/aznyVihqggxMJ2lcluE/wgB3TQRWcWpBEBkI8grexBtNiH6CBhykPaeNOQQtcPIqgjoCr0fOtb30o4Oa6eiDgc5CFI9M0335yI0XnnnZeIDcKN1Ckje+SyXjYaI6wD4bLLLkuEiV2IFntOPvnkYAItHQsmQELinR9lVwX5VBfEDGmDLzwJbODA03vqqacm4uZc0cEmerM3OOtExpYvX57Knz59euroQPBMRIa8sY0OBNO5goENUTzxxBNTGcY9O1+uKyTyt7/9bSJ5iJxOEh0E8EMYeaVhoTPkiiuuCIcddlgqK9vT3qdrw7WLjKq7MdSuTdLRubjooouSfuSdDc3NzalcWLPZdY6I6nRwv7i+1Vv9bIin60356qOjApl37lyDCD9bkFv1+/jHP54whqtzzV5lL4z3J/Kvg8fkY8r/xje+ka5RJJVX9p577knkXhlscj255j/wgQ+kaxfJRrzdD1nY4PznsHGYSKNurn+dWDAucqgg0L1BfNPGNYWrzppVHEC9cHm0RW5x3OzOJ0LshaIHrMpOia/LP67gE7bHbVD37oU9oMm7Y9eBo4VI6TmzR4ZTI+m1VFFvybAY43zK9OHhkSWxJ3h59PoeoCq27RwUYpR1iB9FCgL9GgHPhn18rPRgveNC94MHhznTJ4QRTcP2kJKeKgCpGDuyKTQO3RvS2FO6e1qPRrsGL++ZxjVBeEyOo1GPSGlca8wjOLxdiKBGPRLLM6yhTBz/yle+kjySyJfGN12Oa1jzDMpzww03JCLB+/bkk0+m8pOCTv7AFbFiAyKCXNiQdHawEcmZN29e8hCzG4kg8pJMQNOP+Md1kPdJg1wgkwgzQvLf//t/T6REmerDE4x88dQJxc6CSMALmUBQESGCXMGKIMbwVh5cET5lIonICy/b8ccfn9L6AzPkUpk3Rg87Qs9e5X7ve99LxBIhhAE9PHo844hqrlNWhtQiUs4RUgkbJCoT2ky4/ZbGeUNGpa0nzgOMeG3lcU0giOoqj/LNZM0ehNB3XmudI85/Lvcf//EfEy5s0akhLfLGPucCIUcWefXZpW5ImfPfkcADqeONRRx1xuio4C1HoJXX0bngsdcZQw8s5OeBdp7dGzpJYKoMhNZ5Ey5O6HZOHn744T3j1PMM3ci8vEgoUuuc/+Vf/uWeCAK4wsq1x1b157VFQl3frgXXBe8+Ik/cv64z1577Lp8T93O+DtSjKvbnLe+HubIQddi73ou0h0BsjFkPNl4P/V/itccM/5EAAEAASURBVBGvh+7I7Mkjw+cvcb13L193yjhU07pXRzSWe68nz3+naA4LO8OHZ24N29t2xBDAfSu6LT6YT5104DwdJpU5J87iPH54fBD1shg7bGmkR5cZ67uPAHXDxiGDd4UPz9oa1oxv6dGQzG6YUJIWBHoEAXfLW9F5N3fU3nGGPaK4m0q0AZvii2XOjAnh8Gnju5m7a8k9k4Y19P7zqGvWtJ8KUdSQRlCyCKvU6NYwR7Y0kDWCLXVTDdHknUJk6JAGecpjQ+lCNOSRV6NdgxxhRJKI344hIu0JvVk0CIQOZxKhoa6hj2ho9NuPNCHYX/va11JYq0Z8Vz1X7EfmbERZ7EUAlcUWJMi+WpsRIl5VuNmyIHg2eRFcHnKEBcEh9iOvPL5wzJ0I9iPtiJKykeRMTtklPy8vYkQcQxozoUw7K39gwJvLRmGvbETO6a0V1wOsfbYncED6eHXZjQTChPc4kyzXSsYSYXWuET6kTpocKowkIvjOo2uKV90+9UfoYMuWbI9jnQn9CKa06pq988q28bZ2di7ogKt65GvOeXHdsss17f5QZx04yDKcdZy4xoWWw+nuOBzAeaFLmTBhm+sULtVzQHeWfB5yfeHLa64uOpB4zNlDD4xcCzqTMlbywbyrQpfngPOS8epq3kMu3eChYdD4SPx2xWsxXif9Wjxih3Zv2bLhw4aE2ZO6l6dfY1SM79cIdPoUHBJ2hAsmt8bu5tiTFW/ofbmld8WX1ORRu3vaDwRafLzHTm4Mwxt6z9ub6zFpREOYHccSH6hnnRqdPaEltIyIjCG+mIoUBPorAsa/boiPhRmjDn4v+ZDYCG2IwyPiTdVLcJrQqZdU96BajV0NfA3naiNZ4zkTrUwApK2K3xrqmcj6/b73vS+Ng0UOibxZHEfiqlKrs3qsve9VnciA34gFQnHJJZckcsDzaGZb5AT5Vo501by5frmc2uPySOOz1s6qnpzfJwyraavfHfc7e6H9JlmXYzl93qd8dci/d+fYmyfXIefLx2s/eYl5hBExHkJEU1irENv28ra3n26kDvF2nfAOEh7lah42V+3OWKbE8U9OK43vrg1EkI0wso/dzmuuZ87blU/6MnmsTU+3rd65yMdynmod7HOc0I3oIok8t8gsYooUC8eWzr3h+nN90mOWch1LuU50dCa5POl8z9d67kDQ4aEcHvFMkqt5sn7lZ6wdr8XUvtrrN+ctnzUI8PaO3D0Les2R8rMgUBDoYwh0SnzTAzM+ANtiqPK4cePTQ732wd9ZnaQfMfqdY4w6y7M/x3fEttVdr20OE4Zvi/7qvQ2t/dHZXl5LGj29woQ47aXo2f3Ox9gJk971gu7ZUoq2gkDvIuA6RoYad2wNw4f07j3a1ZrEx1SUvmFLV23e13TpuV4ns9BG3i/hpHmiIA14Xrw8CU+95z/CK5SSN03YbhaNfh4y4Z9dkXq6q/mqx9WBZ9emDJ/Ci3m52IPEaMyrh+3Xv/51GrPLI6ZBL4QU4UOmpEUAeWHbw6ZqR2ffkSyeXGGwymOTzgRe0ewFZfOc6FEzwRQ7hOyqn3HF7OO9rgpC5fyoE08tgmkfjJFMXl/eOWSrM+GRZQ/yS0z4ZOywjoPa+vvNLoSbyMv2ajpjXN3PxjK7BnQ05JDulKmbf+CF8CJvxrdmjyMPMbthAOPc0QFT+4SPS+P8I5hZ2MqTihw6z8LffVcXm7TtnQvlwJ1Ur7+sO38qI1+LwqLZpDNBiLNxzcLjHUd287llK3LqXLpOYLwwRlbkMGn3HVLMPvWrngd2ueekz+H8bIEBPfCTn11wkl5dkWI63ZPSOpe8w65BJDpLrmv+zPvLZ0GgIFAQ6M8IdEp8PSyzeAnl3vy8ry9+Ggz+/z74VmrC9jYf1Uw2trfhADHf/ALvi7gXmwoC3UGAh0jDazfh7E7OknZ/EMgkz4RImVBo3AqrNdGQBrHxlQiG/UiWhroQXOl5pWo9Z0jX+eefn2Zn1pCXTjka2sY7em7lfNl2uqXd14Y1ncJhET2kQSOfrSYKyqTm6aefTiQScRB2jVCxlS3qI0SUjUgF8lj1pkqTPWbZZp/stdWrU06HuPK8scM4TITaPnbKSzfiDXPESIiwDgaC+BoXi8zAMOPGRiG2SJU0dKqX+8h72TjP7EmsZ3e2zScCbhZrRNl5Vne2sDfXO58XZSCSwnLVhQjfzdeO3zyzdOZzofOE0JU/a891rldKUPMHGVMf59Os2Mg0ImnzHalDFtXXWGK2wcs1ABth23lcNdXOlTog+tLS6Zp2TWjjmFiso3NRHTtdi22uhzKcQwRSWc4PezPJ1iFk8irnWx3Y7l7T8aIuOj6ESuuEgB9MdR7A2jlwrlxD6qtMnmJk2rWTQ8zhpk7SspkO33VkGd/snNJnY6uy2OI7W+nPoox8DeR95bMgUBAoCPR3BIb871E6qoSHn4ewTw/oao9gR/naO7Zyc1u49YXds0e2l6Yn9g+JRBQZ9dmbmzKEbPamINfjmoaEjxwXx8DF8ooUBAYCAhrKiK9GrIZdZ8KjhKTwVmgodklaN0UXSBz32Mv3aJds6VKieLcPi960Xgqb4/kxTpSXEKlAmvKGCGhIa1BrPPNWOub8WMrEWFKNe+QNQRLW6RjxXuBR03jOE2Fp1CN/zc3NyePEu6URzrPmfeJcSmOsqQa6RrYGuPLzxFpVyJBStiM0iIWGPPLlWjCDMJsRdzMPa8CrKyJmvCVPsDy8h7x37JdPiC4CyG4TFsmng9e7znvPbySBIIiICHvpggWihcAiqkhHFseQUUQb0RL6qn7KVj/54aXe8rKDneqv7oiYdOxy3dPl3CBpMOWhQ/DYri46HRAspEx6WKsPslxPEGp1QWRdB86fWX/V23nRoYCIIdrqR490xtw6h859tVNc3ZFnpMyn64Kd6qfO7FEmT6a6O5fuf7rzBF75/Jr52T2uDDiqpw4M16xz5nywFybOsUmp2Ou6ohOWrlW/a8U+admZJ7NiJ6w7OhdwgC396pGjIZxT9XWd0O1T+cbbulbhKdxefdjkenBPOe66gIXzDS/1ESUAZx1PPNPSuz7YZnM90O/8s1l614U8+X5lA5yV7dqA1cLoFXYvKMd5da+7vt0XOdqAHte4DgCfdLqfnO/2rqNafA/0b+cC/rlTqCt29nSb9kDXuZRXECgIvBuB7rQnB8UHd4exfR6AHo4+9SBWX+7vLrrzPc/EsODP/3Rx5wlLij0ICN1uHjc0fO8jh4XGhkJ89wBTvvRrBDQANeA0jKsTurRXKQ1FjTQeCo23LsnGZWHX6pdCGFSfAHRJx4FMtCt6yCLpHTR598zIB7Lo/lbWP/3TPyViZFZgxKJIQQDZRBiRQoSxyMBGQCeGTiVkXweKz86kp9u0nZVXjhcECgK9j0B32pP9pDXY+6CVEgoCBYGCQEGgIFAQ6L8I8ArzAhbS23/PYbG8IFAQKAj0JgKdd4/1ZulF90FDgKNfzycRslYbIiSsy2a/40LOOhMhRHTKk3teNUKUJSSRDsf9rldmZ/rbO06nsunvCb102arBEHSrVy1O7dm0P/vhrvyeqMv+2FHyFgT6MgLVMaZ92c5i24FDQGhu9bl94EouJRUECgIFgYJAf0CgEN/+cJZ6wUbhYGbxND7myiuvTIvU54Yk4mXtxHvuuSeNIbr88svrjrmrNcvMnt/5znfSWLObbropjRX7r//1v6ZxnH/1V3+VxhUp09ghy5xUZ3+t1dWd39/97nfTeD9jrIyn0vjZV0E4hfYb+2b5E2NQja2i22Qrwv17U4xZ+9nPfpYmI7n66qtT+FY+L71ZbtFdEOhvCFh6hxgbWaQgAIHc4VrQKAgUBAoCBYGCQD0EDjjxtfzP+DhR07ptcTbPehaVfe9CYGgMSDe5VRecru/K294OE4kIC0PuzD5ZlXvvvTctscGTauIPE2h0RYy3McbK+CqCRBqTST/Pr7LMLolYGqPZE8QXgV+wYEEi0wa3mxBlX4kvG2+99dY006UJfDSijGk3oQibTTgyf/78gJD2lrBBOcYtCddTH5OLFCkIFATeiYCJgYoUBAoCBYGCQEGgIFAQ6CoCB574xrV/Jo6IxLdlx6GyZGZXz0XddDoHdBZMHL53Wam6Cbu5U+iurVbMdGldSesNXnbZZeGCCy5IM0PWpqv3u144cDU82KREZh41y2SXJyeqV1Blnxk/kWueWKTRzJUmTLJkSXcEueXhVndeVzOcmt3SbMM6CRBRZNjsnr0pyDbiLsxZp0PxZvUm2n1Ud+kR7KMnpphVECgIFAQKAgWBgkB/RuCAE9/hQwfFGYqHhdfXtoZIfYt0goA5t4dHl++c8cPiskmdJN7Hw5kAI5C33357Io8IL+9mT82WatyVpSsQSh7gnvBi8kjzjgrNFobM+2tmN0t8WLakO4IsCzHmBb/uuutSyDSinsWSEzzKlojoTbH8BIx4wy2rArMi+4HAkKFxEPuwEHa0RCW9dAPth3nvyuqG7wdmvsvusqMgUBAoCBQECgIFgYJAH0fggBPfkZHEHTu5Mdy9cHP0+BbXRmfXx64YEJ4wm9RY10PbWf7OjmcvLTL661//Ojz88MPJe2oMbpX40SOUmYcVSRTGzKt6wgkn7FnLs7OyEFTje60faM3AvFYnUmydQRvdwoutQ8grjAjWE3ksbyN82lI47OBdtj6iNR+7Q3x5exFmxFmdraFZW3frH9qqIqzbupbqYxyuPOqU15jlNWcPjzF7rL9o7Uyk1thhBN1SPjZreEqnwwFGOiHUxzFeYLhIz+vMs22f484DzzS85IehevBa81YLl4YjvBB347DzGpxIPht1brC7qyHtVQz6/PdhcZmb8XPiIqyIb/+QQXEd3yIFgYJAQaAgUBAoCBQECgI9i8CBJ77DBofjJjfF8N3YFo1LVhbpHIHRjYPDvIhZhKxHBelFkJAuhOnOO+9MBOqaa65Jn9XCkLu77rorpUXyhOLyuCJoyFpnnlBlIWa/+93vEnn+xCc+kciWfcKrf/vb3+4ZC6xcBPv8888Pp556al2vJ8L3yCOPhPXr1ydS2dzcnIg5corEsquWvFbrU/2O+CKwyCQC2Jk3Wr2Vcccdd6QxzX4T+U8++eQwP3rKlY1U/upXv0q2qOcDDzyQyC8ya1KxW265JZFS4d90Ifk818ZY33///eFP/uRPktcXYYUPTJShk0L9EGDlIbaI8UMPPRSeeuqphAObYKQ+zufUqVP3lKmjQKeFc++8qv8pp5ySxi73dih3FfcD8r2hKQwatddzf0DKLIUUBAoCBYGCQEGgIFAQKAj0OQR6mkt1WsGGGK972NihYfroob0WutupEf0kAX94U8PgMDvh1dCjk1tlCBAyEzfx9ubJoZA2BCvLxo0bw3333Rd++tOfJiJmludrr702eQiRYTMgkxwynfPVfjrO88hTiTgT3kkzPb/88svhPe95T/j0pz+dxhbzbCKDCHmt0JG9z44ZC8tryWPJk4xUIvNdFZ5oZJJ9vKSd1WPNmjXhJz/5SSKaPK1XXXVVCo3WIWCMsA4EpJQe9YQf0otsIvPwzfXn3VX3448/Prz3ve9N5Ddjn/Pz0sKCJ/wjH/lICsXm5YXj/EiyTzrppBTujYwjz8pwjmbOnBn+8Ic/pA0Jpg92meSfffbZ4f3vf3+qs/Obz2NXcSvpBj4CrhudKsa4e1a4T3xftmxZ6ljpCgKiMoy9d8/uq+jI0UGmwyd3NO2rrn3J5xnhmaQe7eFgv464rkqONBE54r6sFc8x9+qmTZtqD9X9TR+sRcIQOOks81x3HosUBAoCBYGCQEHgUEfggBNfgBvne/7hI8LQONHVu1/3h/op2Vv/nTt3hakjG8LZs3pvuQ5L9Zx77rlpSSOeSJ5FG3KXRSPXxE+IHQ+jUF75kEwED3HWSOuMMNKX0/jUMNOQ1KDlteSJROZ4J5FYDThkrlY0QuVDmufEZYYQQuQyhxtrKGrwaYh2RdiSySYvaL1GaNbDZo1LIcwINyKKaBqXe8UVVyQCzuuqwZrrSjdi+4UvfCFY1knd6FEOLJHPv/7rv06kP9uRy6MD8ZCWZxjJ5QX36Rj8NWqR3Ouvvz78+Z//ebLj4osvDhdeeGHCQIh0bvjKI/wZWb/ooovCBz/4wXDGGWck/IRhFykIVBFwD7m/v/3tbydSlzt9nnjiiT3XVDV9ve8iGEQ+iC7YVzE04Ac/+EHq0ELwDrR4LugYEqXhWVMPB8TYUJGuCh0//OEPk07Pz9rnjueIeQc8b7oinhM6InViEph95StfSUMkPG+KFAQKAgWBgkBB4FBHYK9b7wAiMWrYkHDZUaPDr1/ZFJZvKi/k9qAfjKRMGBYumtM7Y/40tHgeETHeRiG+GmJILiLKm4iIamjyGiCUGn5ZkCgk1ARMGsh+d0fo1Vijg+fzX/7lX1J2ejoirRpxGqEadpZOMqZXI1E+jWszISOeiByPbGd2IcxCtZHDpUuXJr3tLZXCLmXARR6fWZBYmzrBi/eY0J+9uTktmzJhRWLbE+fIuaBXnXQEaIQj/sK6jdelnzh/PHJ5HLBP50bIdVXozESY/dLA9GAQiqpd5XvfQ8B1assRCq5DHS86T2o7adqzXri9idry/dBeuo72mwleB031eu8ofW8cc6/k+70eDjoIDb+wlnhXBK7uO0u8GQKiE6r63HFceT67KlUb5elu/q6WU9IVBAoCtQjsCtvjJIo7dsUO937u0Rk0aHBoGDwsDIlbkYLAQEPgoBBfsxMLdUbobn9xY9jYGsMwBxqy+1mf6OyNs18PDefNHhHGNPbsUkb1TNOwNaEVsihUV8ju+PHjUyMXsUImNXT/03/6T8nbmxtjSCsCJtSY57Y7Qh9vLe/x/EiyeSg1cEn2ftSbVRrhFcqsbI3GnCfns59XxozPPMLqViV6qYDKH3XjvWaPsGOhnBrpbMtCp0YqD2tu/NKZ7ZTOb1tt4zPrqPeZcax3zD7lavAjsdVxvjDnYc5ecnbxwml4q4P6sxcRLlIQyAi4Xl0XOnDytSo83j2Sr0XHc+SD66p6jbsfRYjke05am/w+Xa/0OO5+8l20Ax3uc590Kt9390q1fDY5RpfjdNBlM5eAThrPo1yWeslTLTd3BNXqyvctW5WZ65ux8ck2m7yO05XrWk1XxYGd7jeTxbHLd2V5rtQrI+uRz338oQ99KPzyl79MURvudbbVk4xbVW8+j+3lqepRnvT0+J5x8Om3ji9452edOuS6ux5g4riyMpZV/eV7QeBQRmDHzhgNtu6xsHrzwrBz1/Z+C4UJVRsbRodpo+eF6WOO77f1KIYXBNpD4KAQX8YYu/qJE8eFx5dtCy+tFl7anomH3n5QRHjCGTOGhw9Gz/iBEg0gY0OFGCONJjpCrBBA41J5GRFjEzBpEGksrVu3bp/Mk1cjVlizhhZPprIRTsfypqFVFQ0w3l3lmsn5M5/5TPIm5YavfMar/o//8T8SOb766qtT41O4oEascba1jUT15pEy87KwTON3NVh5tnIjU7gwss37Kq2Gn/GGGotsll7Dl6eXN4g3mC37K8qBOezVF0b00q8eGR9jgG+99dY0I7dJsYQ+6xSAQ5GCQEZAp5EOEpOnuX5dq9brdm25H5EbERSImPGqriPHshin65pC0ITTu8bcF9bRFhItKoEeYfT5/jE3gPvWJGuuV2PWlc8W96NQf2PWXc+udePh6UXQdEjxoOqE+4d/+Id0/ZuITVnuCcLOhXEuAM8ppNzmvhE+rLNowYIFSRfirXzeanVW96q4r2DDPt5b97V5B+bHTrlayTiYoZ3t7j/j6dnypS99KXUEGtZQ7Tyr1ZF/e5bq9KPD81ZnXVU8W+Dnmaw+Oh+zXtE5olRElCDRHQnbPN/oYb9IH+dJx4Tn2Le+9a00hAKu8PVsVnfPVh2hIlkMt/BM9fzpiNR3ZEc5VhAYiAjs2rUjrN2yKE7aeuCHYvQ0nltb14aNLSvC9NA94usZmjstqzZ5Vngm28pzo4rMvn/PWBdcu4/hO1lF9/Pvcw5e3ylx/OpnTh4X/r+HV4dFG6LXoLh9E547orv33MNHhiuOGRNGDI0M+AAKgotcCY81S7Bxvx/+8IdTQ/Ef//EfU+MIMRZWywuJhGr8adS6AbsrGnnGyGrs/vM//3Nq6HowZu+xBuppp522R63GsvG1Hq7GG7M3NwJzoubm5kRQNexzA+6f/umfkvfTOFsN1VoRYqieCLU8X/3qV1PDz36NQroQZ41w+TVUNXS/8Y1vpMagMHDeVo11k0apl0lrekLoRqhhzRutAa/RbkMu4M9u50z5PoVjs2d/JhTqCduLjr6FgGvJ2Pgrr7wykTOk9e67706k6eijj05jVN2LJ554YrquEC7HkR/iZetazJEEiDKyy5M4P5KkSy+9NI2v13lkGAKd7h+b+xpBdd/wcgpbZg/C6xiy+Ytf/CJ1qn3+859P9xuyJq9ypXV9E/a4HxBnzwhhwsbX/vjHP07DG5RtTXIdVybMQwp//vOfp3vDvVuPJCK8iK97Sh73L9Js3Gzt8mgZB/eXDkI6PZMM2fCM8Sx0n3Ym9CC+5ghwDxsLLZIDKa2KdOoOA9+zOD+eicruSPIzFdbmAtDZhwSbWNBwEDrVxbnREeE5p94wdC186lOfSp5sxNt+5FcHR5GCQEFgNwLuyp2R/O6Oc+7fjVle39116d7Z9W7QjtPp6N1APHO0VbwLdJhyHhTZPwQ8rzlzvve976WOS9FQ9d5p+1fKwM190IgvSM3wfN5hI8Oi9dvDj57fEFZs2h7HFPTvB8b+XiptkfSeOLUpXHXsmLjsU/2Qt/0tQ/7ceOIByd/t10BCNJFaDUWNYB5O5EqDzsQpGpweahqVSKCGotA/jVENsPzAoy/vU4ZNg0sZOY2GK8KJSCOcGlaIrJuYZ7nq/ZCf1wEp5o1Rbi3pVSadvFS///3vE/kzARVb2aLseqKhytvyR3/0R8ljjFwjjyag0TBtjmQaofXgRoYRfV4otrAZjhrbPC+wIuxVzxx6WS3XfrbAQ7qqOEZfFg1MZdnHDg1dOGioa5gjEDxTzpkwZy8fnjp5NFqrjeWst1omG2zwKTKwEXBNIDY+XfOuTcQW6XL+eXt9SuOeQTrd/9m7WouO60g612Ue9+uedO8hxPZX7zlEzT0ln/vNp2cGO5BwaT1/kDEivTRIn2NVXZ4RPMIaVOriOndPiLzwPFkYSTaCTZfrXoNLpx0d0tcKIiiNe0ZDjQ64iCCpJb45L9sIWzyT3Ks8pd0R9nimIJM333zzno4B92StVOvvmN95q01b/c1Oz0Rp2Ung5PnhOaeujjnXSLdnmU5P5N/5hYsONc8a65GXZ0UV3fK9ILAbgXgLDRjZl6p4LniucBR4ZnoXaK8gwobQecZ7JmsnFdl3BLQRRUlyhBDP9n0hvt6vOjw9/w8l2du6Pki1HhnX9b1m3piwtW1nGu+7anNbIsQHyZyDWizSe8ykxvDxE8aG98axvb3ZCcBTKkzYhY8kVRtZiJ4eJJPSaHBqyOm1Q/rkM4bNA04jzw2TbxohiH/3d3+3Z4IWDaabbroppdWgohfJ1aj2myhXA5jXhn6NV41gD0yelNxIyyeGLQg4XezWWKsVjXpeE8TZw0CjUl3ZLE97ojHsOO/L6aefnh4ImYSyQ3hfJtpwkE4jHR7qoRw2qzeR/rOf/WzyhklftVVdlcW+qudEvXjjeME1QHnWeN413D/60Y+mjgDeNeRBOKqGvjTO1cc+9rHUiFV2boQ7v1489ML5L/7iL9J39mRRVw1duBUZ2Ai4Bl2vOrQ0TlzfPhEj15Rrxf2cr2Hpfa9eu7UIuV9dx7lTxbWn8wlppC/nVRYCJbxWxxJy7LrlLXWv6MH2nMnPBuX4TbKnN/2If9jrvlFWJrE8rDbXPGGDBhcb1EHHECIvT63YDweNAPnZTK/81fuzNl/+zR7b/giiOT96zc3knOuVsdsfvTkvbHSMIbs86eoL14ytsjzfPCsI7OGWf8NDByd89reu2abyWRAoCAwsBDwnvAvMGaOd4Xlh044xiZ9hE/ZXnRoDC4Herw2MvS+sLOIdui+k13tRO8Awvv/4H/9j7xvdh0o46MQXFpNGNIQPHzc2jI2TON36wobw8prWMCzGPb+b0vQh5HrQFO2ltvjn3Eh2r46e3vfOHtnrIc4aOMbltSdIUC0R0sDt6GGFPNmyePghw1XhFaoVDa4qga49nn9Lp+GFqHUk7EQqqyQ3e5A6ypeP5TDi/Lu9z3oYVdNqMBsTV08Q+HqeIQS6ijGSosGOFGio5k4GHl/74Ylwa5zW1rm2XOe83gzSyLqtyMBGALnzkhPO62XpuuFtzUvwuPa8UKvinrN1V3IHFp1ZEF/PBw0iIcGuZx5FnlbjhREt9nTVm1iPbGZblSvsWkNLOG8mu54dniG1ku1EunmQ6aFfw6L2OVibtyd/6xAzztkYZzboECC+Z5t8Zsn78+/2PtVFgxOxV0eNJnh7vlSlI0xzudIUKQgUBAoC7SHgWeHZpfMxi040w1l0eooarLZzcpry2TUE4Nvc3Bw++clP7nHudC3n3lTeBTzG9ZYM3ZtqYH7rE8QXtDPjLM9InxmMkd/nV24L2+P7dSCP+9V80IYYEdc1Rnavi+T/1OnDE+kfmJdbqVV3EfCyEDrNK6PHVDi4hicSoZcPiciN4+7qLukPLQS86IQs88QK29dBJGwV6XM96VRxTelQ4f31W1ovR4S0PdGbL7w+C6+isFjkCsnMRMnLWi+z9HncvuXTdOrYj3CKYFCeThzpdfDwTnb3GlemSAjkXp2QVzprx85mm2GhfARZgyx3BClbXTqT3GGgHrCEm7I1KhB55dYj3LV6dZaJJLntttvS/Z71OkeeBXAWmqwTi106D/J461pd1d/OvQanMG7RPET+js5rNb/v+TzW7i+/CwIFgYJALQKeg1XR0e8Za2JD74gs3jc6ZD3XdMYhdJ7BnnGeoyJUvDNErBmq4nnnu2F20hCdugvj0BYdqo57X+jk58TIz1DHletZ6FmqDB2b9SSn1YHr/aGjWLSSdpiOYxMKispD7D3fn3nmmfTeNFGg9149YZuNTtE3nBa5fPtMVMgZpTNS+ZwmhvLARbvPuyg7ONTd89v7xbuKPnWqiue1PDpR6fCOU6a6wFx5hurBw1hhWJorwzkY6NJniC+gxzbFXvo4i/HkkUPCL1/eGJ5cvi0s2RCXj4kNoIE09Bfh3RnDmoUyHzlxWDh75vA0kdURE+IyEXs78wf6tVfq1wUENHjNUstL46HpReCB5sHuJeLBWKQg0BUEvNC8qL1U747jepE8BNfLHMkkXtxelsJtkbVMjKpe2HoEyHVpYiQvcERWoyNHWVS9uHQjtxokQva9vI1P8tL1otewQcYd86LWeOIlZjc9uTHFBjbl32y3L6fxnR1e6ginOvKkKk+96nlxcwi2ejhOPz3Ktikr45HL80k0PNyTiK8JukS7nHfeecmbTQfvcy3xtb+2DnTRwxaklr3S0afh6DnAi22srQad+vmUhtBnI/ZlPPzWQNKRwMPuGDzY7XttWunVt9a+vM/xIgWBgkBBoDsI6EzVuWcIiWe88cCel4hZfpYjaiJzPD+9LzzvPKs4AJBCpNP7yrNNOs8uM9Wbi8HzyjGdp7zLJmpFXBFrES+eqXkYiTKR2TyUI9fD+8d4ZOTQM5tOHcaGz3lvIe6cEN5X3guO+82LTXc94otg5pnxvYcRdWTZsD9Rker1/e9/Pzky2Kg8ZbHdbP/y60j1HjB3hncY+3QcixLyXqglvjpJzdMjfa4jPd4t3q35/cJ++Corn4OMxUD97FPEF8hNDYPCuXHCq7njh4XfvLop/H7h5rB04/awcnNshMR/g/yLbbT+xg/jvRmtN+tfXCMturGnjR0W5sQ6XnLkyHBR86gwfOg7QwwH6gVX6tV9BDx8EYl6Ycrd11ZyHKoI5OtIw0EPMkKJdOq5RraI3+TRRx9NPe3IK9KGmHp5evGaTV2PexbkyXENBgTYi18kQg7L17OOeOaeZDqU7yWr99lEJ3kcrXw8k3kyLcf1iudy2Yno0W1/dWgFG9ivMaLxI53efx4DHUjZs61XXYOoVnQkKUcjSqPEd2WwX948Xq0eDtLSK3SbV0E+DTK2yJvrXi0TbtIhtGytijJNAqMjIBNm6a677rrUyNKQc27MYwBbDS4Yashlcq5xYwJANmhEOc8aaOqHOMvvk372qz885SPywT9jLA0MdI74XqQgUBAoCHQHAc9Czw7Pfs9mnYzmejABqfaNjlNkziSqnj+eeZ6jOgA9w7wrELZvfvObaYgOD6ZjJhjVCfi5z30u5fMO+cEPfpDeB83NzXsIoPkkkGUdvjoBPSszKVQPHZfIonckUioyCVk0n4rO4quuuirZrw65s7ha/9rnuGNIrVUOEO358+cnwuz9ZnZ8+9mnjjDxvEdiRf14NiPzNuRWXvbKWyWo7Ki1JRNrdfHOgJt9X//611PHp8lZvWt1QHh//If/8B+SjvwertZpIH7vs2+v6TH0+dMnjQvnxHGv90Ty+8CiLeGtLTvC5tadaSKslh2mW0cl+z4Fjlw+NMVwZksTjYqTeR02dmi4IC5XdE4k+FNH9dlTMBCv91KngsAhjQDCaDmbqiCyWbz4vGRtVfnEJz6x56dxRVXRY4wcaRTUEw2ILEiWnvP2hB5Eu55o1GRByGxV4dHMtmlsaDDceOONe+Yy0EDSqNIzX4/40qUhZasnGky2LLms/FsjrRZbMzW3J86FiezaE56A6hwJCGlnHWB687Mg1n/8x3+cf6ZGYO7Y2LOz8qX2/CHCtiyujVqb8rHyWRAoCBQEOkPAMxhB9exGuMwvoRM1hw3Lz0NpGTWEEwlECnXseVZ6BuoUNBREJ6sQaOl5LHOHHE+nZzGPsk5IZFoa0XHIo85TOuqJdCLr5Ee02YvkKp893l3sqSe15FMaBJUN9Kqj8ulVZ7p5c3UCI7+ZwHoOKx8JdkwHACKsU5PwNLOBt7w9oRv5R8R5h2Gu08H7FeGHkXcx++znTT6UpE+zLqHAR01sDEfGEGAzHT+8eGt4dlWM5V/bGpc+aosEOHqAB/X90zUmkt0ZY4aGI6KH97Q4hvf4uFyRybuKFAQKAgWB/oxAbgTkz75QFy9zjR2hW3q0hbxpvHjh8wobH1WkIFAQKAgUBHoPgVoiiIwhqMgYoqfDVCizjsaqp9Qz2vvEM7wq2cuJqBH5peOlReR0aNKfBXn03FcGEkxvZx5NaenNy7xlu5RNXyanuQyfuZ713oH2sS1H5WTvsgggxNP+PHyNHqSczUT91U0Is7TdEZ5hdeHl/e53v5vIrfzsQaTVq5693SmjP6ft08Q3A4vcjoqTXs2fOypcOGdk9PTuDhtOscM5UR/+ZD+a63OgjVfuw7AX0woCBYFeRkAPvBdzDo/t5eK6pN5LnffXTNHGEwv38pIXpmtSrzyxVpeUlUQFgYJAQaAg0G0EkE0EDJFE6gwfsU48L67IE+8MEw4KAeaR1FEpnd/In2d4Z+TMcfnoEQ2TI24QVeUiuosXL07EUSco3d5XCKc0iGgm0irIIypSxrAV4cB+Z13SebfIYx9vs/KRS/XMBLgKlH1sQ7qNyUWC2STU2m/7HZeutq4Iqo1nV+g1r6w0bM/kuFpW9Tti7X23MM7n8Z//83/eM+yIneqgXOReueriXBHnpF49qroHwvd+QXwBjTgmJ2k8UUUKAgWBgkBB4OAjILwsj409+NbstUAjRViyxpAXuwaDfV7sfYmk77W4fCsIFAQKAgMDAaTTGrHIGlKLuCFansWXXXZZei4jjMJ//+3f/i386le/SjPO81KaX0IocH5210MkkzPlCGGeE0OXhfYiiuaY4EU1wdUll1yS5jJAtIVVGzvsvWCcsPkYDKsRQpz1mffA0B/eY+OG5TMWmf1ClA0lod+7xCRXiCxijdTXm8cByRTWrS50IqxItXG6ZocWtuwdipRnG3J9EVf5br311jTZJA8wsv3kk0+m8cfeabV5cl6dATp5YXnLLbekuR4QbuXyHjumA0A6IdVmeHZu1C97pbOugfjZb4jvQAS/1KkgUBAoCPRnBLzIO+t9Plj1KyT3YCFfyi0IFAQOdQTMYoz4eQ4jW0ikyfh8ImyImEmXiAn3hOTahxiec845iTDm0Gj7q4Jkeu8ga0gy7ywiityaNIqnFuEUnqx842Z5cpFjY24RZHbIWyWPvl977bXpeJ7gUX4TTZkoULlmm0ackV2kEZFGXu2r9dqymZ3myDCngzwIOT3qiJg7nvGo2iKvNPbdHSfWMlmX1QaEhhu3i4zTg4TXCpuR6j/7sz9LeBgTbZ9Q6vlxnLH66zSgnxdcx4P0PL+HAvEdFE9U/ZHabyPJNW6AtU8XJBd5kYJAQaAgsL8IWIPOuEs9qF5AnYmXjJeLntA80UNnecrxgkBBoCBQEBiYCPAmIhLIQ57cqLOa9labdvuObeGppT8K23dsjSb078jEnbt2hEkj54RjplzSGZzvOC4MFyFDoDK1yOSXh5EHuJZYOYc8tMazInEmkpIOUePhzDMPZ88svbysCCEihxQjccYQ8xizQRn08NIqnyjDJq3jvJ3KqScmR5RWPeRnO12IJhGqrCxivzLZ6rty64n02T7Xq/LzsnryW34Pv0JKHc8CH+0ktsBEJwISzWOew6XpqebJeeWBH2wzuWaj+sCRN9tx9wS98KxHpLO+vvzZnfbkXnT7co2KbQWBgkBBoCBQECgIFAQKAgWBgkCfRAAx626nNLLXnkMN0TQGtioIHI9nVZA15C8Tyeqx/B3hs3VFkNf2CKz8iKetO4Jkt0e04dbeagLt4cOD3dzc3KEJCH57TgU4tqe7Q6UD4ODurpABUJFShYJAQaAgUBAoCBQECgIFgYJAQaAgUBAoCNRDoHh866FS9hUECgIFgYJAQaAgUBAoCBQEDhIC0SmXlgN5R+C0H1Y2iaGqHQ9UPEhGl2ILAn0cgUJ8+/gJKuYVBAoCBYGCQEGgIFAQKAgcWgi0bN0ZtmzcHra37Hx7Dc/d9W8YFsedjmkIjSPixEYdztJzaOFValsQ6AoChfh2BaWSpiBQECgIFAQKAgWBgkBBoCDQywjs2rkrbN7QFla8sSWsXdEStm5q20Nw8dym4XFM67SmMOWw4WHsxGH9fS6tXkazqC8IvBOBQnzfiUf5VRAoCBQECgIFgYJAQaAgUBA4KAhs2dgW3liwMby5YFMqP4U6V+KdN69vC6uXbwsb17SEo04fH0aPH3pQ7CyFFgT6IwJlcqv+eNaKzQWBgkBBoCBQECgIFAQKAgMGAWN6W7buCMte3xKWvLwpLkGThvi+y6Ob9sclk1YvawkLn9uQ8gwYEEpFCgK9jEAhvr0McFFfECgIFAQKAgWBgkBBoCBQEOgQgchohTYvfmlT2Lmjw5SJDLdt3xXWRPK77LUtnSQuhwsCBYGMQCG+GYnyWRAoCBQECgIFgYJAQaAgUBA4wAjw4m7b3BbWrzSmtzPWu9s4eYRFr3xzS5nh+QCfr1Jc/0WgEN/+e+6K5QWBgkBBoCBQECgIFAQKAv0dAcQ3TmJlUqtusdi4plHrtp1h09rWbmXr73AV+wsC+4pAmdxqX5Er+QoCBYGCQEGgIFAQKAgUBAoC+43AoLAzrlq0M87o/K5BvR3qjow5ZtnRdnDXNdoR7V6+dmt46vW1IVWhQ5vLwW4hEDs3hgwZHKaNbwonzxkfBnP1F9lnBArx3WfoSsaCQEGgIFAQKAgUBAoCBYGCwP4jMCjGYA4e3F1SEwlvzDJ4SHfz7b+9VQ3bd+wMry3fFL71u9dC246DS8Krdg2E77si8R3eOCScedSkcOLh4w76ue7vmBbi29/PYLG/IFAQKAgUBAoCBYGCQEGg/yIQyU1jXJ+3ccSQGLK8K3LZLhLZmGzI0EFh+KiGNAv0wQJgV/RWb9oWl2FatTlsb4s/ivQYAq6HEY0NYc7UUSWcvQdQLcS3B0AsKgoCBYGCQEGgIFAQKAgUBAoC+4JA5DahKZLeMROHJQLc2rKzUyIrz7DoCZwwtTEMbTzIU/ZEAi4Cd0j0WO/sttd6XxA7dPLs2jUo4VpCnHvmnB/kO6VnKlG0FAQKAgWBgkBBoCBQECgIFAT6KwKDGwaHCdMaw9TmEWFIw6AOvXtI75AY3jxhemOYccTI/lrlYndB4IAjUDy+BxzyUmBBoCBQECgIFAQKAgWBgkBBYC8Cu+KsUCPHDg2HzxsV1/HdGd5asi20bH132LDQ18amIWHizKYw66hRYcykxiBvkYJAQaBzBArx7RyjkqIgUBAoCBQECgIFgYJAQaAg0OsIjJk0LBx75viwcOTGRH5bt8V1fTOvFU4cPcNTZjeF2ceMCiPHDSukt9fPSClgICFQiO9AOpulLgWBgkBBoCBQECgIFAQKAv0WARNFDYsTXR112rgw++i2sGrx1j3LFZn5edzkxjB6wrDd4dDF07snJLys8tNvL/kDanghvgcU7lJYQaAgsD8IDB48OC73UKYm2B8MS96CQEGgIDAQEBgUmU5DQ8OAeydYy3dnXBLION7Bcazv2Eh0W7a0Rc/u7rPWsnVH2LmqJc3kbBbog72U0YG+liaNaQzDotebE7wtziDdGrHyuW37jmA94c4EQTZr9k4Avy0mjhJCvndPPlI+BxoCfY747owreO/YEcM6orgIiYcb0eB1fMiQeKO/3fiVxj6fHoBZsg7pfJcm65HGd3ocy+XkvFl31pvT5+PKyeVmvfLQty/S1hYfaG/XNeev6lNGtpPd2fZcH8dtys/7sp7t27cnXGr3V+333XFl2nzP5VV1SsdW9c/67JNWPpLt8D3vz8fsy+Xm8uwjGYN6tuxO0fW/bKAv25hzZruzDdJVy6ueP7j5XbU965Ev45PrkXGTJh+rXo85r/Lycfuq+fMx+6q25PTtnYucL5eR9UrvWBWLrNsnUZe8ZVuqZadEfeSPuowfPz5MmjQp1cvvIgWBgkBBoCBwaCLQ1NQUjjnmmLB27dq67+r+hopXWtv2nWHDW61hxZtbw5YN28PmuLW17ibB76hPTDtiTEOYeeTINLlVwzBtt3ekGLA//u7jJ4V5s8eGlkh0SWskvU+8uiZ87w8Lw6vLNnZYbxiPamoI40YOC4tXb0lpzUQ9Y8LwsGp9S9jauuOQwbFDoAbwwb1MsY9U8t577w2/+c1v9jTYt27dGkaNGpWIwIUXXhgeeOCBcPXVV4eTTjopWeyBd//994fVq1eHz372s2kfonD33XeHjRs3hvPPPz/ccccdKd+4ceP2NJinTJkSbrzxxvDv//7vYcmSJanxL7O8p5xyShg2bFjKo3G9ZcuWMHr06ERShg8fHj7/+c+HTZs2hTvvvDO89tprYcyYMeG9731vYN/QoUOTDV39o37f/va3w9KlS/fYgKhcfPHF4f3vf39obW0NL7/8cqrD8uXLk/7DDjssXHHFFWH69OmpmIceeii8+eabqa4zZszYUzTy9vd///fhM5/5TDjiiCP27PeF/U888USq46pVqwJsTjjhhDB//vz0/cc//nHC4kMf+lCqHxzeeOON8LWvfS38zd/8TRg7dmzSt2LFinDXXXeFOXPmpH2PPfZY0gGvH/zgB2HevHnhzDPPDF5Q5K233gpPPvlkOqcwI87Tz3/+81TP9evXJz3ynHXWWWHChAkpTXf+PPPMM+GrX/3qO/Iipn/8x38cZs2aFeDoOnrqqacC/OF42mmnhfPOO28P4fyHf/iH8MEPfjCceuqp7yhaevnuu+++pMe1edxxx6U6T548OaX9/e9/H5599tlw0003vSOvH64XeV944YV0vg8//PDwnve8J5UDh9tuuy1MnTo1nHvuuWHEiBEp/89+9rN0vi655JLguiXO2Ze//OV0LpTlvtmwYUN6+buGjzzyyHQ9rFmzJl3jzte2bduC6+PSSy9N5wsxf+mll9K15dwilM5JFYdUWB/6g5S7HxcvXhxaWlr6kGXFlIJAQaAgUBA4kAhob2m75I7cA1l2T5fFm7ty0Zaw6MVNYeOa7TG0Wad07JyO3sy6EndvXNMaXnmyLSx7fUsa7ztj7sggFHqgy9gRQ8ODL64KP31wUVi9sSWcddSkcNnpM8P1FzSH//P7z7RbfaS3Ic6Efe68yeHik6aHL37z8bRM0DEzx4TPzJ8bvnrHK+HlpRvCkEOlB6FdpAb2gT5HfE888cQwc+bMREiee+65YLv++uuTl5G3B2nQ6D3qqKMCEorEICJIAjKHiCBpyBUiN3LkyLBy5crU0P/whz8ckEHHGxsb08Ny3bp14eSTTw5HH310ImeOIW2IkvxI8S9/+ctERGfPnp2Ip3KRab+RCCREg7y7pNelxduG7FVtsG/ixImJeD7++OPht7/9bSJCSChBmr7zne+Ea665JuGwefPmoB4Ic1XUBTFFnquCDCHLyM4HPvCBPQQLab399tsT4UOUXn/99bBo0aJw/PHHJ2xfeeWVRJyQJR0PMLQPoYIZUqgjAsbI17JlyxKxQgidLxjZj+BlT6rzhyAjex/72MfSOUFs6IXrvhBfeKj7DTfc8I4XIjvU+Z577knn+qMf/Wj6RBhdL3C5/PLLU6eHa0Z9qiLdo48+GhYsWJA6OXKHjLy/+MUvEtGcO3duwkpHTFWcU/n+8Ic/BGT3jDPOSPi5vpxjZSOd6ovInn766em8qAuCJx3SjPjC23edM0QatiDLiC2M3Q8258D1+slPfjJhohNF/Z07xNe1xB71dl7Uuy+L86o+nhEwLVIQKAgUBAoChyYC2hE2baj+LK3bdoalr20OS1+OpHddWyK7nXKv6N2Nr8Mgb1trS9ge1/3dsrEtzgg9OgxrGtjsN1Y7bNiyPSx+K3YUvLU5NMRr4JS540Pz1FGxzbeb3IpZbhMuHtMiu5YWbm2L7YdhQ6J3d0SYNDa2geL+oTFkesbE4WHKuKbQNHRw2hfjKmPIdOx4iJlhTOgdHJXEj5SG7raYoCEeUIpkZZ1dSPV96XPEF7m1aewjURr8Qllyj96xxx6bvLtIEc8nwoeQNDc3hxdffDF5axEnDXgkgKdRYxlhkL4q0nloSsczmclYToMoIQhIoLzIMVE229jC0+lYLUnKOjr7zOGl06ZNS+Qwkxn5kBTey+w1RW4IzxzC6JjvCGWt7Slh/JNxy799wunpp59OBBe5zyG5yCtC7ThiwYuM/CK+SJH9CLpyYQEbJJhdyJPj7MhlOs7zqJPAOUVuSa4zwqbTAlHjZVQm8VtanRb7KkifsmuFd9r1cPbZZyebHddhAMNbb7011U9d6uGpE0B0gc4CxD+fKz3O3/ve9xKxzXkzBrl8JA055nlHerN3WJ11FPC+w9nGw4vcEh0AcGAjrHmHdfAgvvncKUvUgfpmjOV1D6mH8+qY70ij8+d8ykeXc4mwwwVhr1d3+g62sNe9Do9qPQ+2XaX8gkBBoCBQEDjwCHjHeS97P3IW9NV3V0fIIKwLn9sQlkXiu21zHHoX+3Pjq67LIi1ytnl9JIIvbYpEeEc44uSxoSmO/R3IYhw0Fjq8sSE0TxkZxo9sDAveXB9GxjDmy06bESaObgr//oeFySN8/nFTwvGHjQtvRpI8ZvjQcMWZs8LYkUPD/33j6Qnr8aOGhZkTR4S/vnpeeOyVNeH2RxaHxkiCr4zpjpoxJmyL4c8vLFkffnT/m2HTtrbw2YvnhoUrNocTm8eFI6ePDms3tYbfPLEs3PnUskSkBzLuA6FufY74ZlCRH2RBY9xDLXtThZUKMUZskQcNeMSY9zV7eXn1PAQREoLU8KppOCMZ8r3vfe9LupUh7JU3TrrmSKARCkSNsIMN0vkuDSKBDPM+I8DSC6HdH2Fb7UObt45+3rhMepXBK4gg8YbDoTZfZ3YIN4Yp77r6ZNEBABvEHhFC7LxUCJKKdCB2POBeOLDkqZQPJjCqCkIthJiH8cEHH0xe0lwem3Va5I4NOrJIk8O4876e+FRnIeVIq3pkYaffMBZNwBbno1bUFQ7Ifya90sAMEdPrLE3t+XD96GRRVxEC0mfRMaPjREeE840Yu7bYSSfvL3t0srgWEFU2IMQ5EoIuun/yk5+kOiD9ro85sVOGVK8tnRnuCwTYNa7uvNDuI2XkzoeUsQ/+cd3lToE+aF4xqSBQECgIFAQOEALaIN6LuX14gIrtsWKEMb/x/Iaw5JVNifSmdse7mx5dLq9lS4y0e21LaIikrfn40Yn8IsUDTbSpzp03JUyL43J3RAzHx/G666MH+P4XVoWhQwZHMjomzJo4MvzkwTfTBFY8vCfNGR/WbWkNS+O43jUxPFoT794FK1P604+YkIjzE6+tDU++vjZMHdsU5p80LY37vff5lWFMDK0+OeYnP7j3jXDC4ePD0ZEQvxzHE9/z7IpwzrFTwuVnzAyvrdgYFq3aknQPNMwHUn36LPFtD2TEgEcMwXj11VcTEeAFQzbujuN6EQOEkBerShYRDITCg5LHqEpsHOMxQ7gQglriUmuL9MJSlcPziqQgJ/Pj+FjHuisIozBjpAQRQWyRM0TNMXbXin2IeG0Yc2262t/y2HhjMwmtpoEDjLxIdB4gc7y+yDByjzQpW73tQ7J4nesJjB03Xtm4beQOscrYK4f9CJgHGfESkw6508nR3Ny8J329Murtc/54LhFB4jeyCldlO8e1Yr96KRc+teI8OB9ws9UK4s/29kiZeubrqzavc+5ade1KoyOFRxdWCCl7dezovHHNwRQBdM1JD7usQx1cg5mYs9t5MoYa+Zbe/YJUuw+MYbYP4XdOdQCcc845nd4DtXUovwsCBYGCQEGgIHAgEfDe9n7PbYoDWfb+lqXJIzR5xRtbw7ZNcUIlsbg9IG2tO8OSGDI9aUZsBzSZ8LQHlPZBFVtb28LqDS0p5HnFum3BuF8TXi1YvD7N7NwW2z4wVn0zPfMQr4ue2eeiV/ilpRuDeMDv3vN6DH1uSF7aSWOawi8fWxKeXrg2fOaiueGYGaPD3c+sCN/47SthcgyDvn7QnPD+k6eH2x5aHEOod6Y8v4+k95GXV0fv8JA4ZnhaOHLa6PDmqs2xzAEKeh+8DvbFpH5HfDX6ETIkQcgmMiKMU+MeKUMYhM/yhmXii8gIF85jZDNQiJeHpsmshJ8iD10V3jHjVnlEhc8iJX7XTiLVVX1CpXlUkRCkhW0+2ccziqRUBSHNaav7O/sujw1xgovvVWED8gsLZIt3WHivFwucEGJkiYccSUSghGm3J/LphHB+nBfl0oGs+VRHZeYXF5sQNN50x3lDa21sr6zqfnrgRi8MEc9cbr2wdPbANI9FrurynQ6YsN9WS35z6HB7HR/qyaZ6ZbuGXc/OMRsRX0TV9axTAJnV6WA8rugEnvrm5uY95JZ9QvlFMVQ95ZmEZyycM7rdL/l6Ei3hml24cGEav+xapt81kM8J/UUKAgWBgkBBoCBQEOg5BDasbo2zOGNnPUuUWrfuDGtXtoRR44cOSK+vtsnjcRbnm+96NRLNLWH6+OEp/BgxvTuSUXAivcRH2uIO+83gbPMdYbUsUv5tvG9D9BhPi/paI7ldFL3DDXFfa5xp+8XFG8I1Z81Oaek1qVZL3M/DLBTaDNNNkUSnwnr2dCquSA8i0C9HwCOdyAcvFW8YUsHjhtwiVwgMQoZEZMkexfy7+ukYz1hXBVHj3SPNzc3JQ4b8IVr7IkiVMa5mpf7c5z6XZmxmvw3xQXYQoyy83Tx/PK0IT7a9PYJYu1+orX08q0hXFuGyCCq98ES2ECCk3n4ECdZw5m03LlXaauhu1lXPT7FfAABAAElEQVT9RLxMvITAIVjINEHskGthu7yNHmZ06aDIY06rerr6HR5wgeWNN96YJrlCvl0rvKTqwo4sMBAeD2N1zgS5FjcdLgija6zqaRdubhIx9eNVVn6VNPouHw+ucdvKz4KcKhtGykau58yZk64lUQCuAWQWoXZO2C0kGoF13WSpdw0rVxrXponDTO6m7Fye68i5UE9k2Eza7MmEOesunwWBgkBBoCBQECgI9BwCqbM9LltkjK/vxvb22BbNXLM8ErMY+pwYXs+Z3Wc0xeZNmkxqaJygigd23ebWVFWTV/ntM63TG1nviPgdqc1kWF7clCe4Ia6TnHUJm5bIxFnDYrtocpwAi6cYGUauLXWU1/5NbTxK6PIZZfcUV7u/l799F4GuuzgPQh3qNeaZgcQgS0gCDx1BLOZEwmC8IlJQ65HTwBdKzJNKr+NIJZKCdCEkyIXfyAuSk8U+ebIgOXQhOtIhEsgD4tJdSQ+8qBv5slXJuvoI2TU5FJuyfp4/5Puiiy7aUwekTUgyj6IbUl3YRj+yRC/9cKJH6K+ZnQkvOjFjMZIFU+mVifjqSOA9z+mQMR0PvJwwyFgrq4qV71WxPJAJpGAtpJYtQrr9NgbYuFQ42hBB5VXJXVVXZ9/lrycws9yQusMMTrA0PpynEzbKVxcdK+rqmkGaXS/CgB9++OFkF0yk1QEABx0CfhM6RR/AwPlw3Phenmw4qz/cdDY4P7zpyDpRbwRdNIFzqIOAOI7EupYvu+yypJedRF3oQcgzdvQ4nrFQhmuV/bB3bSHCCLn6uX6Qa2Wmh3rSXP4UBAoCBYGCQEGgINDTCBjjO3z0kNAYJ6LK5KmnymgY+jYb6ymFfUhPdNgmr+yJzeMTIT0ihhifdfSksHBlnPhz+cbw6vLdv0+Oxw+bPDKNBUZetWus+StM2jq+xvaaxGpbDA83SdYJh1saK4Q3op5VMWz69CMmRp2bw8RRjeHMuGTS46+tSV5eetiQEI5NsN2/I4HevacPIVVMqYdAnyW+LiQNd+TL96po/CMYCAFySPxGTDTckbpMxhzjRUR0/vVf/zURAWQAibgxegPp4MFDXghyaEyqNXQJco0IVPXxUprBGIESlsuG+XF8L5LUXUHs1BHxqK2nsk0OpU7Ir3GyCKnw309/+tN7QowdZ4dZg4l8zc3N4SMf+UiySV4TTCFAvLbqd8EFF6RxxXQiP3DQYaAemWjRxaNraR0ENQubeQfVGzZZMjlko/OhXmzJ9aLL2GiEEeEkMLPsEDtuueWWRKjpRyJ5IXPeXEZXPtmRSWRterg4l7zoP/zhD1NHAbJfu46vawxJ5e2GG0IMN8TXdQlPHSbqYiwyIprL1FngfOTrjZecR5/XG+G05q4OGqQYAc7r+GZb1RlJhZH0WWAl2oHHN+MuLXsQX5OOwY69sLOGtWOZyDpm/eevfOUriQBLoxPnpz/9acIdAbbEUybvudzyWRAoCBQECgIFgYJAzyHg3X3YsaPCzCP3vuN7TntsE0dP5vDRDdGLvNdp05P6D6aupWu2huMiMZ0bCa/QYp7bl+L6u2Zd3tyyI/z2yWXhjCMnhj+99KjY5g/h98+tjGN714VtMRx57aaWOI53Xbjg+Knhbz58fAqZvuvp5TF0eVu48X1zw7NxDPC3f/da+OF9b4RPXjAn/G8fPzF5ep+P+2++85VEmt/asC1s2toWtkfPcjyNYePW7WHl+m1hS0uMoIy/i/RtBAZFEtjhXYEICqv1qdFdbYj3dtUQAxvyVCvsIRrpmRypiv32aeRnsS973vI+eaRDEmohkDc3/h2TploOHfbR6bj0ecv6u/PJvo7yKyfbye5se653Pl4tM6ehm41+Z1tzXap1cDzbkPXSR7ctH8tlZHuyrmrajJ001ePVNPX0KSdLPl61JR/r7DPjgYDXEzjkemVslJftlidHBlRxyzZl/dW8jmVbHYd7/k1f1i9Pxs73rNNnVXKaKn7S0+2zek9ke6r5lS1vzlNNn21Tprw2kvNU7a7q7OnvwuV5nXUq8HB3JrzVOht0SugwKFIQKAgUBAoChy4C5hkRAef9JmKs+p5rDxXvv95o027fsS08tfRHkQxtjUV3jf3EV3mvSmwG7JPs3LUjTBo5Jxwz5ZIu5xcGbIbj//KDZ8L26FXtTRk1vCGu3bu7ctuj11xoM34vVDmHIhu72xTH8CKnNr8RZONyjenlAcaaNX9SyHMMmdb2kT+FPMejQ+K+3Wvz7k5nwixEe2Qsn2yNJNt6vk3DBif9vMn097S4TkY0DgkXnjA1/K8fO7EsmVQH4O60J9/NKOsoPFi7MimoV369B5yLth7ZqZc26+zomDR01kuDVFSJUta3L5/19Ff1dISDdB0dr4dH1t2VOrSnu17da9PWq1dtmu7YktN29tleGTmfc9pZ3TvCrTP9jvPy1pP2rqfatPXwzXbXpu3IHnkcr0r1vHSGQzVf+V4QKAgUBAoCBYGCQM8gEF/PRfYBAd7WDF17fQdIqC1LW3TEZEF0d+zc+9v+1rZ3a9pZZ5+0m2P5RA7nENk1Ada7NaRk5U8fQ6BPE98+hlUxpyBQECgIFAQKAgWBgkBBoCBQEDiICBxMklmv7Hr7DiI8pegOEHinK6iDhOVQQaAgUBAoCBQECgIFgYJAQaAgUBAoCBQE+iMCxePbH89asbkgUBDoGIHNK8OuLatjLFLsh80xUR3nODhHdRPHWKlBjaNCGD4phKHDD44dpdSCQEGgIFAQKAgUBAoCAxyBQnwH+Aku1SsIHIoI7GrZEAfirOwnVY8Tz7WsD4MGx8nYepn4mkzMDOomTzPre55dva8DZUKa559/Ps2mf+GFF+6ZQb2v213sKwgUBAoCBYGCQEGg7yBQiG/fORfFkoJAQaCnEMjTZQ7qJ6M5tm8Lu9paet05bX3p3/3ud2m956uuuqrfEF+zrFuCzBJylg2z5Fp7E8j11CVU9BQECgIFgYJAQaAgMLAQKMR3YJ3PUpuCQEEgIdCX45vrnKIDNL2nWb7NWJ6XsKpjSZ/cxW7rc1sb3EzklukqUhAoCBQECgJ9BIH4SPZY3j1jcnk+9+RZ8b7bsTMuP1neez0CayG+PQJjUVIQKAgUBPoPAohkfxJk/YILLgiHHXZYOOmkk0JjY2N/Mr/YWhAoCBQEBjQCgqtGNTWEwyePTGvbDujKHuDKIb7D4zq+k8Y0peWTDnDxA664QnwH3CktFSoIFAQKAvuOwNatW8OaNWtCS0sMvY4EecSIEWHSpEl7PK1Lly5NXmNkdP369en7jBkz0rjht956K2zZsiUVPmrUqDB+/Ph0fPPmzWHdunVpvxDlTZs2JfI6efLk9H3jxo3BON6RI0emMOZaYsuOMWPGhMMPP3zPuurKYiv7eLDp5A0WBj169Ohku3LXrl0btm3blo7R4bjQafUwxnnatGlprWtp6aRv4sSJIeeVxpho9WIfm9VF2LgGCZ1jx45N9dx31EvOgkBBoCDQfxEYOmRwmDttVLjhornRM9l/69EnLY/vmSER32njm+K7qn91WvdFPAvx7YtnpdhUECgIFAQOAgKI5KOPPhruueeeRGoHDx4cpk+fHi6//PIwZ86cRDC//vWvJ/I4derU8OCDD4aZM2eGP//zPw9vvPFGuP322xN5lM/+Sy65JBx99NHhpZdeSscQ1COOOCK88MILiURee+21adKqBQsWpHyzZs0KH/jAB5JXt1p9RNWkXL/+9a/DX/3VX4VTTjkl/X7mmWfCvHnzEsmlg/6zzz47lYtg33fffeGRRx5JRB6ZPu2009IxBPdLX/pSOPbYY8MXvvCFRHbZ+K1vfSucfPLJ4WMf+1h4+umnwy233JLqrT6vvfZaIr3XX399uP/++9NxZFv5H/zgB1O9qjaX7wWBgkBBoL8i0F3uOiQSspkTR6Stv9a52H1oINBPZn45NE5GqWVBoCBQEDiYCNx7773h+9//fiKQyO75558f3nzzzfDVr341rFq1KhFMJHThwoWJ6PKMHn/88WHFihXhG9/4RvKCXnPNNYk4Ll++PPziF78IixYtSt5WXt0lS5YEnmCEmBf2pz/9aTqunDPPPDMgr3fffXfy0tbDQZ48PpkXeNmyZYmQmvCKTp7en/zkJ4lYv/rqq+G2225L+z71qU+Fyy67LHmueW/rCX2tra3JG+y43wgym5B3+emED284sms/Yo0IFykIFAQOdQR44waGRy4usneon8xS/wGKQPH4DtATW6pVECgI9CwCwlrj/xD/+rNXYvsASRoct/4syOtTTz2VvJ88sTyZPMAmlbr55pvDk08+Gd7znvekuvJ0IqrnnntuQGh5VhHdG2+8MRx33HEpHPmMM85IhDCTXYRTSPSVV16ZwogRaR7iz33uc0FaHmUkU2iyEGph0lWBf63w6ioP6UVahRw/++yz4bnnngvHHHNMIslClHlsTzzxxBTaLHRZKHc9qZbhu7rTM3/+/IQFfGxf/OIXwwknnJCwQoZhp/wy03Q9VMu+gsDAR8A7oLFhZHzmbN/9jujHVR40aEgYMnhYP65BMb0g0D4Chfi2j005UhAoCBQEEgIo7Yq1m8LCZWvDynWbQ+v2Hak/XGNneNPQMHPSmDCveUpoiONw+qvwbtp4ZBHUhoaGROyEHyOBCCxPJ0EweXuN80VoET9klTeUFxcuCKd98vDE0oGA0osgIqDG9fr0G8nM+uzviiiHPnrp4fklyPPcuXPDxRdfnMKxv/zlLydvrzWA7euq0M8m9qmncGke50xwlek4e9vzJHe1rJKuIFAQ6L8IIIpHT35ffM7t7L+VqFg+xLryRQoCAxCBQnwH4EktVSoIFAR6DgGk97mFK8JjLyxJ5Hd7285E4lIJ8eCQSI5efHNVeHXJ6vCBs44OI4cP23u858zocU3IYlVM0mTyJl5eHl3EFlnNkziZFArJJCaRyvkRP/ls1gZubm5Ox5FGgkS//PLL6Xv+Q6/jebM/p89puvqZ8yGkeQIttpqk6tJLLw1nnXVWCtc2RviOO+5I9UKQ2S9Pzl+1paOypWN/rdTbV5um/C4IFAQGJgJCgxsbRg3MypVaFQQGEAKF+A6gk1mqUhAoCPQsAvjNkrc2hEcXLA4Ll68LbYhS8vVWy9kVtrRsD1u2tYZxo4eHs+bN7vPk1zjdhx56KJFDhM3WHAmr8boIorG5lg8SxowsIsWWEeINzmNsMwKOyWecq7BfSw4hnUKfEWjHM7nMeXzmcqv7uvOdTvpfeeWVtJmF+Xe/+10q69RTT00k2FhkHmt1Q8yNCVZ3Hluh1Ai5Sax4bu+OY4tXrly5h9B3x5aStiBQECgIFAQKAgWBvo9AIb59/xwVCwsCBYGDgADSu7WlNTyyYFFYtGpDXEB+ZzvjeHd7Nlti+PMTLy0NU8aPDEfNmhSGNQx5x1Dgg1CFdxWJbCJ+CKOQZJ5bYt8NN9wQhAKbQMo42R//+McpfBfRve6669JSQrykCKd9mQDbd+SRR4YPf/jDaaxvVa8ZnLNnVfoqAc6/2USqn1l3OvD2sXr7hB4LpzbbM9Iq5PiKK65IMywL2zbW94EHHkj1FHKtfsYuI7rz47hdY4zZywNsFuoJEyakerFFecbt5rBr+4Qz59/Z5mx3trV8FgQKAgWBgkBBoCDQNxEoxLdvnpdiVUGgIHCQEdgZx2otWrk+vLZ0ze4xvZHwdSbrNm0NCxaujOR3VJg8Loa9vU3qOst3oI7zcpp12fjb6phU363VK7zZbMWzZ89OE0AhxpYzMjFUHudqIinkz3JGWXh4zzvvvOTd5VWlj3cY8VWm3wipdER4NAL68Y9/PHmIkWMe2fe9732JcLKlKkKsLTNkrLDQ6SyIL4+uCajYaU1ek13RhZCaNMt6veyl0yzMOYT7nHPOSfasXr06jVmmX34eanXlJUbmcz3ZLI/92T7pP/ShDyU9jhcpCBQECgIFgYJAQaDvIlCIb989N8WygkBB4CAisGPHrjhud03Ytr1rEy0xlUfztaVrw6lHt4TJ40f3OeJr7Cui1pEghpYXqieIcHvHEL/TTz+9XrZEKJHELNIiobYsmTzn39VPxNcsyrYs2QOLmF500UV5955PJJk99WxynkzQxQNcFeHdWZB/WxY2Gy9cFWVnYlzdX74XBAoCBYGCQEGgIND3EHjn7CZ9z75iUUGgIFAQOOAI8O3ujB7DdRu3Rg+kiZi6bsKGzduSh/hdQ4G7rqKk/P/Zuw9ovYorT/SlLBRQAAkEAi4555wzxoBpTLeNbWxDw4zdxs/T/aZfvzfz1syaXq9Xv55ebq/X4/G4PXb3NM4RMMlEk3POOQiEJJSFctY7v5JLHD5u+K50r/Tdq72lc8/3nVO1a9e/zjlf/WvvqtMEAoX41j3XTWSLJIFAIBAIBAKBQCCwlSIQxHcrbfiodiAQCHSMwPpZp6man9oNxvsHdfJ0hyh3bEWc6QyBCRMmpL333ntD2HFnaeNcIBAIBAKBQCAQCAQCEeoc10AgEAgEAu0ggLxuM2xIXtAKEW6WAg8fOqRPv8+3HSha8tA555yTbCGBQCAQCAQCgUAgEAg0g0B4fJtBKdIEAoHAVofAoGrBpZ0nbFstxFStfFxcwE2gsNN2o9OI4UNbbn5vE6ZHkkAgEAgEAoFAIBAIBPotAkF8+23TRsUCgUBgUxAYVIUs77PL9mnCmBGVB7c5f68w54P33DGN33abIL6bAn7kDQQCgUAgEAgEAoFAoIcRCOLbw4CGukAgEOgfCFj5d9Q2w9Jph++ZX0/UVa2Q3uMP3DXtOXm7NGzI4FZ7k1FX5sf5QCAQCAQCgUAgEAgE+jUCQXz7dfNG5QKBQGBTEEBmJ08cky48cf+0/24TEi+wVZ6tKFzfRlRzgc87bt90zAG7pG1HDNuUIiNvIBAIBAKBQCAQCAQCgUAvIBCLW/UCqKEyEAgE+g8CgwcNTDttv20648i90t6Tt08z5i5KS5avzO/sRYzHjByedp80Lk2eMCYNGxqP1P7T8lGTQCAQCAQCgUAgEOhPCEQvrT+1ZtQlEAgEehyB/Gqi6s/EaqGriWNHptkLlqR5f3i/78Dq+PBhg6s5vSPS0GoRLOHRPMGtKgsWLEiPP/54Gj16dDryyCOrhbuGtKqpH7Fr7dq1acaMGemhhx5KRx99dNp1112rV031vYCld955J02ZMiXtsMMOab/99vtIHdv7or1eeeWVtHr16nTSSSe1l6THjynv1VdfTQcddFDac889s/6FCxcmtsC9VcR99u6772Yshw8f3ipm9Zody5YtS/PmzcvX/aRJk5ouZ8mSJWn27Nlpt912y8+npjNGwkAgEAgE+iECQXz7YaNGlQKBQGDTEUBivcNoydIVaeb8xWnJspVpcbUtqr4vX7k6hzwrJdPcqhM+qgpx3qua37vrDmPToEGD0rqKrLWa6AQ/9dRTaeLEiemwww7rM8QXyVm6dGkmgQhZbptWA7cJe2bNmpWeffbZtP/++zdFfBcvXpzrvHz58s1GfNn4xhtvpF122SXXCOF66623kuOtRHzXrFmT7r777vxKq5122qkJ9Pt2kpkzZ+Z2QXqbJb4rVqxIBlu0n/b0XArpPQQ8p95evChNW7okraye/80tidh79mysZr9pw6trZfLIkWm3kaM3Vk3kCwRaEoFuEd++2tloSeTDqEAgEGhpBJZW4czvzlyQps76IL1XbQjvgsXLK9K7KhOveqdGR8HzccachRX53T7tvtO4ajXokWnw4IoAV52hVhE2Dh48OG+tYlMzdvDu7rjjjun888/PHfi++ltUsG+WgKintPJtLtljjz3S2LFjUyGTBhzee++9hES1kiDkr732Wjr11FNbyaxes2Xu3LkJ+e3O4IM203YffPBBkN5ea5kPFa+pPj48e2Z6ZcH8THw/PNO3PvnF2qZ67hw6fvsgvn2r6cLaJhDo1q/pokWL0qpVq1qqI9dEHSNJIBAItBgCOvSeJa0myOzaiqh+UBHcl6bMSk+88l6au3Bp9cxDbNeT2yEVme1IXp82N705fV7ar1oI64h9dk677TguDa/m/bYS+e3I9nKcd/H999/Poa1CjIVF62wPG7Z+0a5p06blTrQ25AVEyvbee+8cginfnDlzcmiufJMnT07bbLNN4rkULksf/T6PGTMmtbW1penTp+cQThgJAd5+++0/5olW1tChQ5OQVp/J22+/ndMpZ+rUqZmY0Smks4RwC89lE0+3/BMmTMjebmRO/n333Tcfpw85EBK63XbbpW233TZ/ZveIESNyPeXnNUO41BGpGDduXLZZHdsTaeA1f/78bDv9jSHa8BCy6/cVyR0/fnzWWfBuTy8yI+xVCPTIyiuDpMKBF7TUA46wpUf7NYYDawN6YOGcKIBSd/em+tL14osvZqzg/swzz6RRo0al3Xff/WNEqmBNH/wNVMBbu8Jr5cqV2T7lsnPnnXfOungktQ874Ut/wUg+ZA9G2oFObezYSy+9lK8je2XLq85dibyuW3XUbqXe8nXWFmyGubaENSKqfbWX61yd1dVxYfnOqYtr2kAC/LSxc+qrrZVtK/XVnq4FuJMyAEHn888/n9vTtcl2erUXXF3/cKUH5s6pi7bjvWfLk08+me1uq+65N998M6creDnv2qRX27IDrj7DqoS50x3SMQLaf+aypWlNtR/SB6di1GvGYz1r+dL6ofgcCPQLBJoivh7YbmgPV/uQQCAQCAQ2FQHPlbJtqq6eyq/DMu+Dpenp16enxyvSu3LVmj/Y2FwJ5vySF9+emRYuWZGOrVZ53nfXCWmbatXnvvDs1AE2v9M8YJ18nWod7WOOOSYdfvjhmZzce++9uYOtUy9sV8cfidFZv+eee3IHWqcbQTnxxBPTgQcemDvs5ufSh+D4LZH/j//4j9MjjzySiRVSYE7paaedltqqznldEGb2/Pf//t/Tn//5n+cw4ZtvvjljetRRR2V7kSRE4dxzz82EVp4HHnggewWRMSTniCOOyB1+hO+73/1u+pu/+ZtMHlyHwkFvvfXWdPrpp+cwcHlfeOGFnKfMsz3llFMy8UFOkBF1YC+9jYIoCSu3IQ9IMoLJriJINKyffvrpjB+yicwce+yxGTd21UVetsMZoUdQ6NQ22sggBMLyu9/9Lh1//PGZ+CBB2qhOfJEkdsFem7Pt4IMPTscdd1wmSrfffns688wzc9sjTMgposZeJBrR872I9lYundqR3UjTJz/5yUxYEWZkC0lHorSlOeYGTIQrazt1U28Yayv4Pvzww+nll1/ORFleAxXa26CF60k+aaQXDVCIXLGrca8d7rvvvtzWykNgYec67awtDjjggHztPvHEExl7dhpUUL7748ILL8zXru/sQlLd70itKQVshhFbEVH3Coxc73TBFOl8/fXXMx4wRGK1HQxhqx3cP9rL/XPCCSdk+9nkPoSp9hcG7Zz88sCd3Hnnnfk+NXhw9dVXp7PPPjudccYZOR0y75qy/8Y3vpEHQ77zne+kz372sxmrKdW89IsuuijfO42YxvePIlD9qn30QB/+1p/q0oebIUzvYQS6JL4ezkZa/cj1hY5bD+MT6gKBQKCXESjeuV4upin18yrv7iMvTc2e3qYydJBoUNXpnDb7g3Tv06vSimo+8BH77pysDt3qooOtc460XHHFFbmjjRz95je/yV5FHXS/BTrZSManP/3pfFxnHFnS2f6zP/uz/JuBzCF12tdviDzI4OWXX57J74033pg7+ebsfupTn8qE4LrrrkvPPfdcamsgvgU3+cvvkE4+UoRYf/WrX83E5bbbbku//e1vc+edV01nHhFG4hAu5IL9SA/S6PetiM/O2dt4e9m811575Xmk6vLggw/m75deemmuy//4H/8jk0cLValjETYibr/61a9yKO6XvvSlTJKRD+SQfmkQymuvvTYTDESQfb6zG24IaV3Y9POf/zzb8JWvfCWTrsceeyyTLec+8YlPZL0+qy/igjzVbaMPyWeHMmGj3EJunS8YIZo+I6ds+ZM/+ROnPya82jDVjjzuBgp+8YtfZC+sQQH1VeZZZ52VLrnkknye3doAseNJNKACH0QUkTWwgYwqU/g18uU8AozkI60I4p/+6Z9uWITrY4bVDijrmmuuyZ7sL3zhC9k23lc4ddUWrjXXAfKK3Lr2EW3X/fe+97306KOP5sEFBB+O2sEibOzjYXbdGkRxb7lnDDK4ttwDrin3lQEN9smHkBoEcS/AH250uD9dz+aIw5v97k06YeL++8lPfpLLufjii/Nx9wRdn/vc5zaEzCPQ8msXYi+vrS7a6JxzzsltZPAkJBDoCgHXlQEUz5TyrHZ9uY5dh55FrfSb31V9Wvm8Z5pBNHh6LsI4pGsEuiS+gDQqWS7grlVGikAgEAgEmkegdL6az9HzKdmwuJrD++JbMzeZ9Bbr6BQm/dRr09OI4UPTwXvu2PLPUXMmkSZeKJ1gXkLk6P77789eJd5I9fJ7wMurA07k43W68sorcwedh3WfffbJZJiXra0isn6YkSckB2FAkK6//vrcsVYOYoFgIATNCCLAY8ibxousU4U06eirA/t1CHhGeeeUzUPbrPjtE0LM20eQwH/913/NJADpcl4dEGydjzq51OlD/JEFHj9eQeK7vAQpEoqK1B1yyCG5DurB44k0wpTXtohODnJk++IXv5i9287x0hoAQIp4LqVTdyRUuY1kRh44s5/diJl02mhjO6TqgLwpG1nVFtpZ+GwhWLyf8HIOGXcd8VzyJEoDZwMFrg3kElF27bnO6ESGeZqRam1O6GhGXK9IIk+xKANh0YT3k4cU+e2qLVzPsJQHzvAr14D8bNR+ynINq4NrAq6IpoET16t7CIF2LboeDJC4RhFm7XFaFUEAI9LZQm7Kc43BBP7KhaP+moEI14moi40VdXVtaZf6tb2x+iLf1oGA6/Lb3/72hoE015HniueeAVUDNK7rco1vHaj0Ti3d536TPANEnXjGdlc8N2zt/U50V1dfSd8l8VURPy7N/sD0lYqHnYFAIBAIbECg6j+b1ztt9sL8I9BTzzt6rAj9xntzMvHdUF4LftBp1vFms5DhIkgSEqMzj5Q4ryNTJ0nIH4KLdDpe8JMe4fTD6lg5bl86PuUHVz6f2dGsSF/y06mDbo/4tlWEg8dTuKewTSSAd5NHrdjBrs6kpJOGfdLX64f4ONZos+/FM4iwFaGvbLBBeuAD4yKwll84crFPHqQSkUSYCnYlj04lAquNpIUJLAo2JV3ZFxJ3T+VZ1knlwfS6JCR9Y0SZwr95Pu0RO1IWyPK51NvnQhp9Js4VfAt2bKcPAYaDDYHcGDInL+y0RWN7KJ/eztrCfcGuUgf2E9+1nXPaB1HUNry4sDUYYCAD0UZuecLsS7sgCdJoN2W474pu+ks6nxvFwI82p+OXv/zlhnzq4npwfW2qwFq7hAQCzSLgXjPw5xngeYuMGQh13Yt6EBUhIuKP/uiPOr2+my1va05ncMvvLsw9vzaG+Hp++K3yjPI82xrkw1/braG2UcdAIBAIBNpDoHrgL1q2Is1asFhvtr0UG31szZq12fM7fc4HadJ26z1/G62sFzPqZCNVfkB10HmmiE69jjnPj069H9lG4bFF4C644IL841v/AdV55mlrT+rp2jvf1bG6LYgAO9nLFh12YdC8YTpeyIj5kMVrTTeyQkexo66vseySxr58Lmka8zkPS8REGY0iPSxhwxPJ5iK8h9qCh7yUIz1CxEOobRp1GniQBnHiRe1KlM37iJgi2Lz1wm5h1RnZ6kjvHXfckcvlcT/vvPOyh/2uu+7aYH97+Urdyrn6d7j4zjt0WuUB1ZEuAocyUNCIe0nTuKdLu+vktUcIXSudtYW2hEt75RW7nYMrDEQH6EwKFb7hhhvSVVddla9JJLeEaRdd8tCBGCC/5XhjHRq/s8d17tp237G/5IWR60enuD1RnvvFVrBsTCdNqVvjufgeCDSDgMgh90IJexa6byqHZ4PoDwNtG/O8aabsrSGNKCnPG4RXJEp3xbPDmgT3VIN0/+W//JetZpDroxM6uotapA8EAoFAoD8gUJFTHt95C5dV79+tPHhVJ7YntyXLV6XZC1prhUyeobIVMoAMCdcU2uwcgoUU6cQLT0MASue63uw64MJ1hYvyNCIZPGvCNxHpnupA18vWYdKxF8ZMEAfzkQ899NBcNjJYVjUWzsp2xIcOdUQShQj7jvzxRCCVPWErMgFLCxlZLAyOSA08lEV45RBzHk1hykiIdoA9++Sv1xc5E9KGrJoriiATdsNYB7OEVOcTnfyBm3JhIJTYvnROG7MVYsSLjqA3EnXpi5d39yqUka4yCFG3v1FvZ9+FQrPLQIZ2dD3BC4Y8twRhdM51aoBB6Dh8XQNCAOuiTV0DNlhLT1wfrm8ksbO20MGsD07UdZfPrkc4wNb9oCx6tSkMhW27FrSb8+qkPq5b1yaPi3tGRxR+xDxs54n2Z4N6Oq9O7kl1lkbb08nT5nqQFgG2yUO0nXbWSfYZvtrIAlhCyHvi2s8FxZ9AoELA9exZ5vp2//qNME3B/ee51dU9FSB2joDoIGsgWBPAwFd3xbPCM8vzYmsagAiPb3evlEgfCAQC/Q6BNVUncYfxo9LpR+xZ/QD0rMe36lnmVZ0njh3ZErgZ5UUOdHZ1inV8bULPkEadanMHLdqDsOlwW8gH6SLO2+qkRofbIjj0/vCHP8ydbwSYBxEZkpYu+Yro9DSSLT++nXW+G88hP8iEhbX8iPvxt9APDzSCwcOLBMmnrjpe6iGt0F4rN+uAsR/ZQoSKjfZsrkvpHKgPndLY6lhILx2PhjLYYJVfREgeZdErTVsVjm1xJ7hZ3AnW6mQOKSKL5JUy6EVuLA7Few3nIrzxvCsEro12l3RljyyyiedFWsTMAko6qKXepVMqDJqnUlorYZtDKoSRnUWQdGHJ//zP/5zrp5Or/gWXYlP5bl+vV9FT8LXnOYYdD5H8bIShcGLnfUYWzQtmo/BJbc0Oc6MR57qw1zw42P3oRz/K1wg7hX0711VbsLfUo6631EOdXFdC6w2gOO4ecF+4Hnm3EHVt7Xp1TMfVNUlcl+rMfjq0hfZ2XRJtYNXnm266KQ8wIRDaQh7kHWGmU52UpU7uB/efVb4txOaztrNyORz+5V/+ZcO1rw3ZXcR1UdqrHIt9INAdBBqvH9em3wTPYtdyOY98GeSZUi1g5xno2ee3yP1hcMhz2rXpuLUPDNi4H9znJbzXoKZBLfeCZ7+8J598cr6vyuBdeWMBXQalLEpYnieN9VKOiA1luQ/Zw7vqvvYsNMjrd9F945i0PNpWVLd4XXvCPr+tdBoUKOXDw++yhQvl9RwRFm4w7rQq4sUglQFRvwfqAkO/LQa0RNuIBFIPA2p1gS9S69kAW3mty2EQjg2ifNgM47//+7/PmFx22WV58LKup799DuLb31o06hMIBALdRgAhEYY8YWzzix91p5BKfers/b/d0bUpaXnj/Fj7MfRjXcQPJPKgs6wjrsPMcyWNH1M/0EbuCYKFOJUOuWM6KzrVfljNO/LD7YcdmdBpQFR0tosOP/R+vJE454k0VqzVeW8U7cMmP8oID2Fz6UjZ08kbinARHRseMR0jBBvhdI4N7EUundNhoputzkunHs4jKkWQGCsI85axh+jkwELHoy7OKx/pEeZNDxyLN7TgII05oLDUGVMu/Tp12kJ6dpS2UkedP1jx8qkX/GBJv3Q6NmylqyNhrw4WzwsyR4cOnDaDATJVcGajlZnt6Uco2VEXnUI6dKaUTT9d0qsHYq6OJRxPe+m4wY6U9rWSOPyJtOZj68DCjx46fFd/OgxyILvKKgMK2lHa9gRRlFc4OGIHszKg01lbuCal1/Et6emnCwF1DSlffcuKzerkWOnoa0t1dj2IoICh+hR96kC/styfrlEYlGtLOp4d9ZUGDvK4Bt27dCpT+jJfTzr2uBZgrU1h476Q1z3uWtSm9tqPOOdecy00tnVOEH8CgY1EwH1r87zzO+H34te//nW+d8rzEclDhi3Q5zkvGgFBk0de0Se///3vcx6v5XJ9G1ByzDXufkAWDZr5jXF9G+C85ZZb8rPEde1+oNP9YZDJvVMEeUYo2edZ7PljlXlp/Ba6h8sAmzxsZK9jnqPtCWJswMsz233vfjUgpU5+k9kjv7KQYLiINPGssggk/eVZYtASKZbOonls9Az2PCvCJgMAP/3pTzOxLc9zA6yIrmeyZ4Xnga1EnHT2u1F09/V9x7+Mfb1mYX8gEAgEAk0i4Adt2JBBadjQ3nok8qo2aUwvJkNK2nvnbL1IaZCnsmJz/ZzPyEN7ggToUNgaBbG0FdGZRjrLaL3j2kAnpD1xjl1IYBE/7H6kEW6dgEbR6ddJsTUKW3WObHUppMuxxg6MzgHiUpfGNPVzPrdXRj2NehViWT9ePjvXXhmOtXccrsi/rTOBJQJta5RGm9mIZNk6Em3b2cJYOp62ItqGp7UubGrEVwfR1p6wq7EOiJxy2sOm6HC92Bqlq7ZwrbVVpNpWRJ5GXR1dw/J0hRPy2RGOMGuv3R0vXuNiV9mzT2cYOa4LUo38NkrpHDvf2BaNaeN7ILAxCHhu21ybBpO8V5sn1EKEfpscQ/QQOs+xsoK7KQOe5e5500W+//3v56iVkodXWF5RHZ7jIpr+8R//MUcEua+UY7AQUTagZrDK86JxYAepRg55VxFS3lHkEzmno5BPzwO/I3VRp8ZjziOgSLm98j0jRBchwgi27wg9YaM6uf88y0S9IOinnnpq3pTBHs9LdfC9bFnBH/4g0gi8aTFep8c7Lp1oF8QZqbbeAM+7wU+4+Y3zPOnv0lu9vP6OW9QvEAgE+hkCmZe2AjvtZ7j2VnX8WBNetpBAAAIIm05v8ZIGKoFAINBaCPA2Iq4GvhBg5MxgG49liQgxkIPsWYMBSSVIGfLGOyufAR3eUV5ZERLWU0CUy7oNfh+QZXPgkVQeU0RSSHAZ8GyrDWIVlJBKG+IoIkaYsJBi34VKb8zvzZQqzFj56ihiimebDSIsTFlhcxmQ9gxjIw8sr6+QawOgiHCJDimDiCVCo9he38OlzKOGuYEEJB9Z5mVG+rUBnBBiRFrZW4ME8d0aWjnqGAgEAoFAP0PAiDXRqQkJBCDAGxMSCAQCrYEAQlUXBKzM7RW94DxyKhKinhZB4zlFNuvH66TT8eI9dhzRQ+jMFS4eZWRSGDByJw1i19XvBXukZ6sQ60IGTeUQESF/KbvUja3teXrLebbRSVfxMNOBzLNVmUWQ4pJGWLTNd2m7I8ordUGeTV9wjC5ecwOEvm+NEj2GrbHVo86BQCAQCPRxBCwKFRIIBAKBQCDQmgjwlAodRmCFIfPiIqY8l0gpImgAk8fTnFxeXESQx9W+rfLI2rcn5bg9sigtL+q//bf/NpM85SlbCDEPM88tL6cQaPNbkUIeY2UihYVgl3n1jn/mM5/JeguxlkYosPTKRY55UOlHuouORnt5b9kmvNn8YHUWSs1LzYNtukQhu/SWuolcgZV8MFKXUq7Bgs6IK6JMr7Dmiy++OE+TYB976UDkrRegXPVTF58dL7Y01qO/fA/i219aMuoRCAQCgUAgEAgEAoFAIBAIbEEECnFDNnkbkS2kU7gvj6kV5M0xR07NXUUG77nnnhxajJAKf0b4hDkXctdIKst3pK2tIr3mxpuDe8011+QwYWUilhaEE2Jsru6tt96abrvttrywFFIsDNrc1jrxRHyFI1u52Qrq7OR1FfaMDBtwld5n4cMWmELwzVNWt1L3OvxCk82nvfvuu/MCW4g3om/lZrb5zp5Sp5K3rAmA9JoLrE7SGECwij0S7ntjPvmRc/VgoznT1sFAsoVPC2u2XoY01tmAv/rSY4HJMt+42NHf9kF8+1uLRn0CgUAgEAgEAoFAIBAIBAKBzYwA8oRg8cIidoT3EYlDZBHAsuAgomg+r9XcvV7rzjvvzGmRNAuymbpg9WNzXMtq7qU6iKf8Qox5KRE24btWd0acpbdAY1tFiqU5rXotEKKIYCORzltUyvlGDyeyzH6LXCGEPNNCpqVXF3Uwr9jCUcpTL0QSQS2h0cXOsr/gggsyWTYYYNVqpNOK/ghsqQevsLrWw6YR70svvTSvAM0WdglV5jU2xxcOiGo9jzJ9N3jw9a9/PRN+K0ZrG8Qe5si4QQWvfDIogSDTi+T3dxlQjU60H0fQ32se9QsEAoE+hYDRWSseenC3t3JwvTLr5r6R0qJpKQ346KqL9TQt9XldNddmbFsaMPbjKyK3lJ1hTCAQCAQCLYKAUFXzMBEHZMm+K+Fl9A5WewQM0egpWVURie+8/EKavXxZGliRjF4T3fb2uu7K7KFy11T620aNTl/d94BuVQOl4AVFqgq9QLhs2qc+z7Uo1hYIl31jOnp4gXl2tZXzRBn0W7GZXp/psMmD+DmOqJY8zgm7LufZ4nx7wpaS1nnkWNpCkp2zkUJ25ZGmfM8na39K+QWXUj77HHM9069OdSJLb5mvW6+Xepg/7FhjnlJsHT/HpGVjuVfquh3rSE/R16p7IewGI5D9rt5q0PVTolVrGXYFAoFAIBAIBAKBQCAQCAQCWwsCFdFJc+amAfOqOaUrK+8cHsh9NWhgWld5A9fttCMXa48R4O7CisR1dzAB4SpErLE8RI13tFGE69ZFuQidrSNBNDsipY15OrNJ2vbKQho7k87KZz9PeXvSkS1IcldYd4RfKacj3eV8f9wH8e2PrRp1CgS2dgSGVO+iG1z9CK22WmIvjrz3JM7VD19IIBAIBAKBQCDQLgILF6WBr7+RBsyZ5z1uqXJdfpjM78fsOWnA9Blp7cGVl9Z7YeM35UN84lMg8AcEgvjGpRAIBAL9DoEBIyZUQ7LV6OnaPvSO16EfHcHud40SFQoEAoFAIBDYOAQqT++At95OA96flaoY2/WktoHYDqhCedPyFWnga2+mtfvtk9Kongvj3jijI1cg0HoIBPFtvTYJiwKBQGBTEeDttYUEAoFAIBAIBAJ9GYFq/ueAd99bT3qR2yr8t11BhKWtyPGA0aPSut12rZb3raKfqmMhgUAgsB6BLomvCeUmDNuXCdkBXiAQCAQCPYGA+SVWJGxvDk9P6A8dgUAgEAgEAoFAn0UAaV1avcZm2ow0oFrkqanw5TXVIlFT30tp++3SuhHV/Nggvn22+cPwnkegS+JrFTLvm7J6WRDfnm+A0BgIbM0IWOzBsvpBfLfmqyDqHggEAoFAINAuAkjr/GohqxXVolY+N4Q3t5unOjhg0eK0bvGSlMaPazpPR7rieCDQnxDokviWyloZzIpjPDQhgUAgEAhsKgKW7rcUv+X0QwKBQCAQCAQCgUCgAYGK7A5YsrRar6J50ps1IMhWgLby8/Bq2k94fRuAja9bKwJdstg60d1ll11S4xLiWytwUe9AIBDYNAS8dw3xDdn8CIjeKe9B3PylR4mBQCDQagh4nYr+XlevZGk1u7cKe8qc3or7duslBchv9T8kEAgEPkSgS+L7YVIDRu66kEAgEAgEAoG+jIA1G6ZOnRre9r7ciGF7INCDCHgn6JgxY9JOO+3Ug1pD1aYjUDHXoUP+EK7cTeYrQrNq183p7V1beaZnLFhWvWkp+MKmt/3HNQwcOCBNGrtNtb5ZjGh8HJ3mjnSL+DanMlIFAoFAIBAItDICPDv77FO97iIkEAgEAoE/IMDrG9JiCFQEZ93YMWndkMFpgNcYNSnrqvUz8uuM7Ovv+20y/8YmW7hsVfradx9N8xevbHY68sYWtdXl43scN2po+tH/fmIaO3LoVlf/nqpwEN+eQjL0BAKBQCDQhxCwbkNIIBAIBAKBQAsjYDCiWl8nbb99NV93RkpeZ9SVVHnWTd45rRtZvcd3C0Rqrli1NtliHKWrhureeU0J15BNQyB6PpuGX+QOBAKBQCAQCAQCgUAgEAgEegeBKlx57T57pnXbjV8futxZKUhvRZLXte2S0sgRW4T4dmZenAsEtjQCQXy3dAtE+YFAIBAIBAKBQCAQCAQCgUBHCIwYkdYefEBa27ZbWjesCnMVvswFWN+qKJ51e7SltQful9Lo0R1piuOBwFaNQIQ6b9XNH5UPBAKBQCAQCAQCgUAgEGh5BKrQ5XV7tqVUeX7XzZu3/jVH4olt1QJY67bbLq0bPzalbbZp+aqEgYHAlkIgiO+WQj7KDQQCgUAgEAgEAoFAIBAIBJpFoJrvu25UNXd37LZp3aLFKVUr9Od3Fg2uVm82p3do5Q0uk2u3wPzeZqsR6QKBLYVAEN8thXyUGwgEAoFAIBAIBAKBQCAQCHSGgFfXrK4I7gcL04ClS6sVjqrVna3wbCvENwl7rpRUqz+n8ZVHeGK1GJaQaMeCAHeGbpzbyhAI4ruVNXhUNxAIBAKBQCAQCAQCgUCgDyBQzeUdMGd+Sgs+SAPmzk1p8ZKUli1PAzpZ3XndmCrdwoXVStBV6PO4KvTZK436GfldV9UHp6+GBJJXBq+p/hgfGFTNcy4O765aFyT1tI3fu8of5/smAkF8+2a7hdWBQCAQCAQCgUAgEAgEAv0VgcqjO2DO3DTgzbfTgHkV+cXwMD1srZPX0Q2oSO+Aiiiv225cShbD2nFi5f0d1m9QQnoP32N8mjR+/VzmtRUuy6vX/MxdtCK99f7itHTF6i7rCsIhgwemVavXvx4I6R06ZGAm0PSF9F8Egvj237aNmgUCgUAgEAgEAoFAIBAI9DUEllde3ekzKtI7ZX14M/u5NJsRrG7QgDRg/oI0YMWKtHbZsrRu1+r1RiP6x6JXvLuXnbFnOnKv8Wna3GVpZRUGPmzIoDRv8cr0mwffSfe+MDMT2M6g2m70sLTvztumh1+dUy2QvS6NGDYoHbTr2PT2rMVp1gfLK6ibxLqzQuJcSyIQrzNqyWYJowKBQCAQ6D0E1lbhc3OrsLn3338/reokZK73LNh4zcuqTtycOXPSUnPdQgKBQCAQ6G8IVGR1wLTpacBLr35IejemjshbFRY9kMf4zbequcErNkZLC+ap6lX9v/fFmen/+uFT6cv/+FD6+2tfrKK516UvnLp7Fe5ckf7KaltdwMGXO7gaFDi0bVz6+vn7pSHVZyR3z0mj02Vn7pn23HF0JsIlH09wfSvHyz6f+8OX8BMXVFp7H8S3tdsnrAsEAoFAoMcRQB6//e1vp//wH/5Deuedd3pcf28qfPTRR9M//MM/pAcffLA3iwndgUAgEAhsfgQqJpXDm19+LQ3IC1f1gAmrV6eB71VE+q0pPaCshVRUTBO55bGdvWB5emfWkjRi6KAqCnxAGjtqaNp+22EVsa3ebVylGzl8cP6+7TaD09iRQ9MuE0Zm0rvD2OFpx3HD0x47jkrbVHnH5XzD0/DKg4xAj67SO2YbPWJwPgYB3+kcVZ2fUHmPeZDlD2l9BCLUufXbKCwMBAKBQKBHETAyztO7Qhhc5f3tSzJ16tRkQ9jnVe+yHF+tYBoSCAQCgUCfR4BLsgpxzqs3V2T1IysvbWrleJGrecLrRMqMGLGp2loiP4K7TRWiPGHMsHTo7uPSPjttmx56ZU4mu585cbfsvf2nW15Nr05blI7bZ0I645Ad0tQ5S9KSag7w509py8T1/7vy6OwpHlaR1jEjhqZ/96n90on7z0u/evCd/Nv45Sqk+sBdxlTh1GvTWzMXpx/c9np68/1F6Svn7pPmLVyR2nYYmQ6ryl6yfE2649kZ6fu3vt6jzdYSQPczI4L49rMGjeoEAoFAINCfETjooIOqBUsXpkMOOSRIb39u6KhbILA1IrC8Iqjez9sbUkX6DJg9J63bbdfe0L5Zda5Zsy6deuAOeV7uWgO51ffXK4L71FtzM5HlfR01fEjl/RXYui4NrRayGr3NkLR4+epqDvCsNHn8yHTk3uPT/3n1U9lj/Ikjdsr6fnrv2+mBl2ZVHuDR6aIT2rK3+N99//E0svLsfuGU3dOVZ++VvnntS9kjfPQ+26WbH38vffd3r6Xzj9o5nXzAxPT0m3PTE2/M26xYRGHdQyCIb/fwitSBQCAQCAQCWxCBAw44ILW1taVttukfC7VsQSij6EAgEGglBCqP7wAeX68iyhNG85+esbAihwOq9/+uW7ioZ/RtYS28vc9OmZ+uf3RqXuBKWPNJ+09Inz1pt/Ty1A+ydetfePQhhj4hyAuXrkofLF1ZeXHXpXdnL60Wwlqb5lcLY62oVoaeWYVMT5u7NJ1y0A5p4pjh6e7n30+vTV+UF7+yaNbXPrlP/qyB6Hl75pL02rSF6eDdxlaLbq9LO43nTQ/iu4Uvj06LD+LbKTxxMhAIBAKBrROBDz74IN1///05rFg49E477ZROPvnktP322+cR9XvuuSfNmjUr7b///unFF19MixYtSpdeemn11oxh6b777ktvvPFGDqXedddd09FHH53zz549Oz300ENp8eLFabfddkuvvPJKJrBnnHFGWrBgQXruueeSNDvuuGM66qijMsFtRP/ll19O5vkeeeSROc1LL72UHnvssbT77runwYMHJ+eFch922GHp4IMPTsOHD0/Tpk1LTz31VHr77bezB2DPPfdMxx13XLb1Jz/5SRo5cmQ699xz03bbbZcX/FLvAVUn9JxzzknmQ998881p8uTJOTx8ypQpGYOzzz47zZgxIz3yyCN5oS31OfbYY9MOO+zQaHJ8DwQCgUCgawSq59Y6YcheQdQbU1Aq7+e6bUd3bUcfSFE9ntOcKtT4xXcXpDdnLM5hyyOrsOevfXLftMv2I9fPxcV0/8B7/SYQc4Ll9Xz3uZoCXP1eVJ/zQQtnr/88Ytj6+bzIrVOyz/5gRfYcI91k+co1afWa6j3L1VcrTa+uSPVgCkNaGoEgvi3dPGFcIBAIBAKbH4GZM2dmsodUIq46BQir43/0R3+UJk2alN588830zDPP5LBjZNNc2zXVYixI4hNPPJHJ69ixY9MLL7yQ5s+fnz75yU9mIuy7vMcff3wmoUgz/VZp1jlZXnk8Hnjggbzq9Oc///m07bbbfgQAZJMtEyZMyMTXCs8WukJq995776wL6X799dczsd1ll13SnXfemRBWn5WBXCPqwuCefvrpxM5TTz01l4OUP//881mPY+xCtBHnww8/PB9XnroSxBhpV560n/vc5/Lx+BMIBAKBQLcQwK5GjqhePTR5PTvrVuYmE3fy/t8mNbRMMh7dindmT+vIiqhOHLtN5rmLlq3K83jHjBySvxtDsNjVqGoxKnnQVmQVFObuymshq8HVgVWVQmnmVK804sH1yqObqnBmZNdc3kXLVuc0QMhkuQGN9fS64WB8bSkEgvi2VHOEMYFAIBAIbFkELHqF+D388MPZU3vmmWdmgsiLyxPKs4koDho0KPEK8waff/75ady4cZlQ3n777Uk48nnnnZe9n7feemsml3Q6jniurhZuOfTQQ7MX+Pe//30mlvvtt18mn85dd9112YuMaDcSX2S13uFgBxscQ0zHjBmTvbNXX311JuYIKs+ycnmJkXbkVh0IL7Gt6LRv/KxMenihEXxEFx6I8ac+9an07rvvpmuvvTbX86KLLspe5i3bilF6IBAI9EkEqudZ9UDqPdOR6z4v6zJRPWz38emKs/ZMC5aszKsq8/Q+/MrsNGPesvRI9X7eE/efmL542u5p3qKVCQleVnloeWSXrlxdeW+Xpx0qovy/Va80mrNweQ5bHj50YF70aq+dRqeps5dkXcftOyH9H58+MJfnVUe3PjUtp7VatNcilff9Is7mEduHtDYC4ZNv7fYJ6wKBQCAQ2KwIWCn5tddey2T39NNPT8KCd99993TaaaelIUOGpFdffTV7Y5FDhD5n4wAAQABJREFUhJBHGDkWVszT6v3AyDNPLs+s7zys77333gZCaX7uEUcckQnqHnvskYkkD66yfBdWjAAjqF0JQou4Tpw4MR144IE57wknnJBGjx6dCan8dLIJcX/yySez7hFVSGEhuO2VUT+HXCPM++5bhdFVXmN4WGBLaLSBAJvwbB5fHmA2hQQCgUAgsFEIeH701rZRBrVWJmTTAlTPV3N8LWK147j16z08+tqcvBrzitVr0rNvz083PDY1e3e3r1Z9fqma94u0vlWtyIwAP/HmvHTrk9OqlZyH5MoJmb71qen5nFcVzaqI8S1PTs/leP2Rch5+dXY1p/i9yuu7qlrAam56rCpvfkW6kempc5ame6r5wG9XKz+HtDYCvTis1NoVD+sCgUAgEAgEhHt9dPyTZ3PlypX5OKJbZOjQofmYc0gpQWARTIJYIn28r+bUIoF029ra2jJBrhNC5ThXCLS9vEWkracvxzva19MW0kofQmyu7qhRozJpF5ZtnvIll1ySdt555w3kt+QpNjWWQz+biyDDjWXSUT9W0sY+EAgEAoFAoGcQEHb86wfeSb9+8J2s0PzaVdVCVZytg2pe2J/fN6UKXx6Q598aiuSllQZxfn36wvT//PL5nL/6mj21FqmqVG3QUx1OV9/1Zh6DkFA64dD2N1SLavngec/T+9LUBdWiWguqIOmQVkcgiG+rt1DYFwgEAoFALyIgbFfIMlKHuPGe8mDy2JrjK3TYcZ+RXh5eYcJ+8MvGPCRZPkSYx9VCWD7LY7OAlMWwekPYjmjzwhJeaXOF2YqgIr3mJrPDHOQbb7wxL6RlwS6e3yVLlmSvs3rxTvM0yxMSCAQCgUAg0HoIZIL5B5aJyA4bgqZ+VBBdIiS5CGJL5Bk6+MPj+VjDd8eG1PL6XiTrqX4Di/j44bdyNPatiEDLEF8dDV4EHgSrgvYV0WFaUb0YXCeJR6SviY6rDqJOY5m311UdtJPFanSIN0edeZLgTMq8PHbDvXihurJ5c51nK9s2By6bq05RTv9EoJDWe++9N5NA393b5t6aK2uF5TvuuCM/GxBfqxfznpon6z6se2chhPiapyuEuax0LL1QZ/cvnb43inLpL+I7qR8r58q+fs5nhPadd97Ji1yxy+JaCK05ufTdddddWR+i61knRJm3l83Cl52Hg0W33nrrrbyy8z777FOK+wjBd7DYuCFBfAgEAoFAIBAIBAKBlkegZYivBU6summxEK+h6Cuis2ThlAsuuCDVO0p9xX4dRquVwv+qq67KIYCd2a5T+f7776dvfetb6Wtf+9pmqfP06dPTbbfdljubX/3qV/NeSKXVWM3pK2S4M7s31zkryyLk5juGBAKtigCyaLDOvWM+byGSBm54ab3q54orrsjeUfcZjyrvqQWr2tra8j0oHQJZD4f26qDLL7883XLLLXk152effTbrQ3rNi0U6lSvUuJRpkMj3Mue22EY373OjSO8cDzJBQuW1uJY5xu5BBPvKK69Me+21Vw6/5vX1nLMas8WpLr744uyVVpbVptkFB97es846K+tC2J0X+qyuyis2qyfsyiBtScOukqbR7vgeCAQCgUAgEAgEAlsWgY/3KraQPTpWvA2NXoQtZE7TxepgFY9v05laKKFOI8xh36wXQ7oyl29zVEVHl6emdLBdK7wyOrkWw2klEQ7qNSlBfFupVcKWRgQQxb/4i7/I937jfV+iFXhEL7vssg3zWpE7RA+JJBdeeGEmwoX8OYb00W2lY4SSbscQWHpFiXzlK1/J5bqfneMhNoDlvGP0CUu2UjSC2SgnnnhiXm262Om8cgrZ9Xyo20rfJz7xibwAl2edc8op9ZAPyfcMdI5eNklbCO5/+k//KZ8TkUTY5j2+pe6eTwi/PIXA54TxJxAIBAKBQCAQCARaBoGWIb4tg0g3DTnooINyeF97HbRuqorkHSBgtVeryxZPis6ld3cacGglMRhgjqGOd0gg0MoIuJeKx7QjO5HAQvTaS9PRM49uhLCQwnpe5xDDuiChtrp0pFsaxLROeks+9jbqLuc6ssf59urZaE/jfN9Gfe3pKGXHPhAIBAKBQCAQCARaA4E+QXyN5gs7u/POO7Onz0i9sOJjjz02ewKdMx9N2K4OiNA854455pg8F9V8M95Bna79998/h1PrIHm9hhDfvffeO4crW+TFoiyIlndOmu+lw3PSSSdlD578jUK3UFzeDR4D+g455JAcNlfKFDZo3hxdQunkeeGFF7I9PJZnnHFGDq3zHkjvrDz66KPzdwTPqzdsf/Znf5bnyX33u9/NZck/pQoN915MdWKDdPKYg3da9eqR9uxlv4VfYGme7g477JDr31ivZ555Jtvp1SZsEqrI09KRwFK9YMYG9eIREQ7Iju9973vZi2IRnUcffTTr4zUpoo15Ss0pZJ925AXSjjqhjz/+ePYyw+qGG25IVmaVXtg1j43XqWjHupg3Th/vsGuDPm0p1NF8wNdffz2vRKvdYSkUk6dJ+LqFfRBYcwRt5V2iCLew66lTp2YvlrD8448/Pi/aI5/XtxB28Zh9+ctfrpsUnwOBQKCHEfDscK/GgFMPAxvqAoFAIBAIBAKBfoZAnyC+CM6Pf/zjTNLMAUZ8EdO77747ewJ9nzlzZva2CaVDMsu7IW+99dbstUCYLOKEsNx+++2Z4ND78MMPZ0IqtM05xA0pQn6RRwTommuuye+GNIeskUwiQu+++24mVogvsotQIr/e9+ichVOE+iG05pkhbeaR6bDxWvKq0OsVIL4jaUWQekSQ6Nj5zDaeZuF15tCxEalDNM1vUydz5hDixjlyCLN5buasIZXKNUe53ml84IEHMnE3p08aJE4+Hk2YNIoyH3vssXzYa0MsZINs/uIXv8ghhLwjiCXSz05k0eqvdVFnOCHGCDaiCYuyWJT21V48QUi4dAirQQXvz0R+68IGuCDNbKZfvWFNv+/CkpXhmtJWrikEG2ZWpHUdGERRpgERgwtsJNoPOTdAwHPWVs17VDd5pD/33HPzvm5TfA4EAoGeR8Dg3ze+8Y0Ng1M9X0JoDAQCgUAgEGgGgapbm1auXltt698S0EyeSNMcAjgDbGEcsvEItDzxRUwQRZ5HXlWrhhKkA0FDPJAzXkbkjXcOIURwyoqkCGeZc8nbeN9992147YULifcYGeMxvPrqq7NuxAaZQpyQVaQNqS7zwgrkiKNjhRD7jAghQbyddLIfEUSOvM4DmXXceWSyhBPKq15FlzLqn32XBvGlXz56kW/eRXVEzhFZx9WrTnyRSF5hxPzTn/50rh98Ee5SDnt4bidPnpwJobogkffff3/G0wABzOpCJ3zMoyteV3X70Y9+lIk6Aq5edCHsSGbdLrq0HQKN8OrIqqOBCnaxV36b9lAvdfTdAAOS3yj0uw4sbmPBGWLQAHlFmOWlm51lMTVhysix93saOOEB/p//839mMov4GtTgJbaoF7JNYGNRHHVSFg+6ehp8CQkEAoHeR8D9Xe7x3i8tSggEAoFAIBDoCIERwwanv/r0AWnFqmrKV9XHCulBBKq+97AhgxKMQzYegZZHj2cO2UAsEJkiyBQvI0+ikGbEF5FBVpAagpAgcry4iJnzM2bMyHtkkfBGFr1IF3KIUAqHJYiREGUEp5Hw5QQNfxCuSZMmZfLjFJ2+C7ulw6szlH3TTTdlvYhiIYYNqtr9qm7lNRwSIFkIOsJLEMNCqBvtNXiAROok1j2k6lowgw9bETu6iT0iKMSY57UQ9Xyy+sOrDSNpiiDOytAG5bi20Y6N+eVht0ELbf273/0u4w+bkrfotUeStbf68bK3J9pVWfQZHEGi1V1dtDGRBm7mC7rO4OI64Q0ncGGXwQFtp+6w4SnmAVc+ncK8nVcvdtlCAoFAIBAIBAKBQGDrQuCjboGtq+5qO2zIwHTeUTtvfRWPGvcZBFqe+CIXheTUUS0eu0IykFrieyFxSJH8xXPoHOLDA2yOL7LjfD3Ml56Snz7nHbNvVqStp6ffdwSLJ1DZyJPQat5WhElYcalDydtoSym/EY+Sr5y3L7jUj7FD3RoXhqnnl6+9vMWW9s6V+ha7S5nKkr4cNyhQx7aks0cweVW1D88sMg0fbWTgoFGKzsbj5TsiipzysNOB7NrTX5e6HnVkY+Mx6UsbSiPkuqQR1szrjCS3h029rPgcCAQCgUAgEAgEAv0TAb3QQVUfYW3V37OlvurwrEyP4fv+eY1GrVJqKeKLVNjqgqTx+pmryxvHg0qEnSIyzjXmKfnb2taHFgtlLSHSyDCvHa+eeaI9LcgP0lVEWC1PocWe2I4wCdUV8qs+FqtSFx5WhFheHkYi9FbejupXymhv314e3k1l8PyWEGt7Xt5C2pBMnlDlljRlbrTjQnm987IuPNB08KzzaBOE03bKKadkfYUoln09v8/K1x5CqW3Cnn/yk5/kkG36G0XINzKLSJcBDuS5iLKvv/76PJdbKLxy6VOX7oh8Nh5t4de86eYE2xM20FlwVY/ihYYTzIS227vmOiL+3bEp0gYCgUAgEAgEAoFAayGg33Xg2HFpQjUgjvhWPdrWMrBJa7h5WL5j1V8MCQT6GwItRXwRBXNTkZriheVRM+fznnvuyfNTpXHevFJzbpFaaRGORlJldeMbb7wxz9FFUOhCRBFLiyKRxjztNXB7uks6+Z0v4jOiU+phwSQeXXVAjpBc5xFMxNY5ZJKn0RxR9eKpROoRY4sl1Ulsoy2N5bNDmrpNxTZlKUOIODyFEgu75lktZI1HFFFkp3m9BhaQWiHLp1WLRMEcIa7jhqiab02vcmGtDubeqrfBi0a7i01lr3xYCTdmpzJ9RjZL3lIn5NE5c6fZiZTCU9q6SKetpUFOtX3xdhfc6vVo7xjsHacLdlOq0HrYmWPtHPy0ncEMdrDdMeHV8sHPXHPh9K4550MCgUAgEAgEAoFAoH8hwNt71k6T+1elojaBQD9DoGWIb5lfa+EphKsIQvMXf/EXeXVgqzH/6le/ysSXZ9HqvEKEEQ2EDAGpi3mmF1xwQX7FjHyIE7KH2BEkqJDOks+8VAS5CC8iQlU/Vs7Z8+IhYcUDyQaEzytvkDefy6JcyB1vM4LIZnUWdm2OL1vY5bxVmaUR+uv1O0888UQuEvmCB1sKGVY+olm8nezgjURgS5q6vQYD4GARJysYKxtGt9xyS66DtBb2Yps02sJn5NYrg+RVR15YXkyC9Ckf+f3lL3+Z0/Bwe5VPwQ2ubG3PJjoch4HXQZW5uIiiFZwNdrBB3YjyecwRX/OBlcXmusAdfvTRa34xEg4repQHJzYR35FSbV2/jthd5k+bM3zhhRemm2++Of30pz/NZBihtZI10qt94CQ6wauptCechLMrF/ZBfOutFJ8DgUAgEAgEAoFAIBAIBAKBzYPAgMor1enkVWTNa2HshQs3zpHsKTM78toiJEgVM8s8S2U6XgiMcwiZfZ20SNdePgTF5px6yUMf8b3o9r2kUZY8jVJsosMiRz/72c+yFxphrZPRkped8hRxvBA6xwoOPtfzFF2FuJVzpfw6Fo7V60BXEfVhg43QY5On6HC8MzsLJnXcHCu2yF/KL7iyWzn1ukpXl2IXXURaeYrN9qV96+U1liVvyVPqKU2xhU7SiFOpc71e7V0PndWz6KCf/Tz35nM7jqyXgQDnt3YRGi/6wQBVWWCuM0xEP3i1lmkBja/D6ixfnAsEAoFAIBDofwiYGuYND36zRWGV/kFnNfWbvjn6tJ3ZEOcCgUCgZxHoTn/yoy7SnrWjW9qQhM5IEdLS0UOtEJ/2CuwqXyGUJW9jGfI3pilp7Rttlr4QtPbyIV2FeNX1lM/t4VAvo1Fn/RwdndW3nG+vjMZ6d2Zne5h0VW6j3aW+9X1HZdLdU/Wsl9dMnRvTdFXPxjogvsLe472+deTjcyAQCAQCgUAgEAgEAoFAILB5Efi4C3Pzlh+lBQL9GgEh0N5v3FuREv0avKhcIBAIBAKBQCAQCAQCgUAg0EMItIzHt4fqs0XVmA966aWX5kWsmvFwblFjo/DNggAPcJlHvFkKjEICgUAgEAgEAoFAIBAIBAKBQOBjCATx/RgkG3/AIkrNzFXc+BIiZyAQCAQCgUAgEAgEAoFAIBAIBAKBQHcRiFDn7iIW6QOBQCAQCAQCgUAgEAgEAoFAIBAIBPoUAkF8+1RzhbGBQCAQCAQCgUAgEAgEAoFAIBAIBALdRSCIb3cRi/SBQCAQCAQCgUAgEAgEAoFAIBAIBAJ9CoEgvn2qucLYQCAQCAQCgUAgEAgEAoFAIBAIBAKB7iIQxLe7iLWT3rtavUh97dq17Zxt/5B3/S5fvjwtXrw4v/e3/VSb5yhb2DF16tS0YsWKtGrVqjR9+vQ0e/bspus0b968NG3atLRs2bKNNhp+bJg7d27ykvnNLXD44IMPct21qa0RhzVr1mSsNrdtUV4gEAgEAoFAIBAIBAKBQCAQCGw8AkF8Nx67DTmRo2eeeaZbpA/pfe2119JLL720RUjeBuOrD8gcO/75n/85zZgxI82fPz/96le/Sr///e+btu3hhx9OP//5zzNxrevuzmdk98c//nG6//77twi5RPifeOKJbMOsWbPSggULPoaDY48++mjGrDt1i7SBQCAQCAQCgUAgEAgEAoFAILDlEAji2wPY83Q+99xz3dLEw/riiy82TSy7pXwjE/N4klGjRqX99tsv7bnnnskrmpoRr3GSZ9ttt20mebtpBg0alA444IA0efLkpsttV1EPHWwPhzlz5mRi3h3vfg+ZE2oqBFwjtpBAIBAIBAKBrRuBAQMG5N8D+5BAIBAIBJpBoKXe44tM8D4W0cEdOHA9N3eubB5yjtt8RtjqRKR8bi9NOdf4wCy6C/mrl80ex9lWztd1L1q0KAn15bHkNRw8eHC2q1GnPKXTvnTp0hxKvPPOO+c8pS7yFN31cou9dXykLcft69JYdnv1KeHE9qVedIwYMSKdcsopG7AvdWcXvSVtXSfCus8++6Thw4dnM6Sr21pPK3+xT+JSB/rPOuusNGTIkEx8SzppfG6v3JKGvroUnY24SFPKLvqUW9ql6HCuEQdeesS3tLO0pa1Lvtj3HgLaZIcddkjumcb27r1SQ3MgEAgEAoFAKyKgv6HfIequvd/6VrQ5bAoEAoEti0BLEV8hpA899FAOMd1uu+3SMccck0444YRMNF5++eX0wAMPpHfeeSeNHDkyHX300XmTDhl58skn85xZHeLXX389hx0ffvjh6eSTT07jx4/P80YfeeSRnA4h03lGstra2jLpefzxx9Njjz2WhLhKL99RRx2VW0d6c09vv/32XP4222yT6D7ssMOy1/a6667Lc3z/4R/+Ief9/Oc/n7bffvscyvzggw+m9957Lw0bNiwde+yx6cQTT0zvvvtu+sEPfpCJL2/x3XffnY4//vi0yy675M9HHnlkTqtwee+9995srzQwEm7rgc/LPGnSpHTGGWckHtci5qbyJpeyR48enc4+++x0yCGHbCCmb731VrrxxhuzDRMmTMh1KT8cyLuwZSTjggsuSG+//XbG/uCDD84h0W+++WYmp8gxDLQHG9Xroosuyh7jZ599Nh9buHBhGjt2bDr11FPTQQcdlGBn7jCsn3766WQAYI899shtoQ7f//73c91hP2XKlIyhNjW4wA4eaNfEcccdl22g/7777kvKQ0zZIs3EiRPTeeedl9uj1Kvg8+qrr2Zs2IvcwvvMM88sp/NeHjjCAcbK1E7q+f7776f/+l//ay7nqquuymV8JHN86TUEDFCYh+1+bGzXXis0FAcCgUAgEAi0HAL6Qfov8VvQck0TBgUCLYtAyxDfO+64IyFjCCUihNwhRUiYubA33HBDJkSnnXZaXoDpzjvvzATq4osvzp5ABNI81fPPPz85Zq7q9ddfn5A+xPCpp55Kr7zySvrEJz6Rxo0bl0kSzyJShfQiYUgc8olsssU55HvmzJnp6quvzsQRceXlQ354/pBR6ZHQz33uc5n0jRkzJhPkm266KR1xxBGJzerzwgsvZC8oey688MJ088035zodeOCBCYG3qBMSr95F1F9eOtljES32IHiw2muvvTLJLunty/xh5FD9DRog/X4kkF84mL+LnJ977rnZswsfRI8oRxnwIWxAOpVNp0EHbfK73/0u1/fQQw/NxJT98ho8uOWWW9JJJ52U8WQPgunHyfxhbc1DjlSzSdi3RbFKXuXw7ikXrvKdc845uVxtfO2112a92oou6Z3XruYaI8wGGYRdN/4gagODBzvuuGMm22zW1kittq0LG+CASCPv2lJZrpVLL7004wPfkM2LgHbdfffdN2+hUVogEAgEAoFASyFgINRvfOPvfEsZGcYEAoFASyHQEsSX147HFolDPnhHkUokAyFCTHndECyjewgJbx3PIwKGACGjzkmDRDp21113bSCSyCOyxZsrNAbJQqwI0rP//vtnImle56677ppJKZsQRWRLOCwyxVNMECeEiAeTZxSxYz/brYzMo6ks+XkfCXJuY7+OO/Iqr3z0w6G9h3g5Vh7ucGHL3nvvncsvx3Mh1R82wZGNcEFwv/3tb2eyzh7kD6G75JJL8rni0a6H+zbqVFe2msdb6qxdEGLH2G+TD9E18ACLfffdN5sFE99hivzy/moreaTXFnUdpS6IsXqwmw108Lqy3zXBu1+8784bOIAjbAtxL7rsDQAoB3lXn7bK489mgxRIfaM4p72I60tb0g17ekI2HwLaQvtqZ9d0SCAQCAQCgcDWi4B+hb6gQfvyO731ohE1DwQCgWYQaAniy3vqAYZUIDYEYePlFBbLI8dLWhZO0gFGFqdUnj0hj4iq9IgmzxxBmHxGcBErYbo8qTydiBNCJpxWucKnkTmhzIV8IXR0yOPBqox6Z5ttRZThoVvmtCLtCDl777nnntxRp1c5CDLiV/LYy+d8sw9u6ZEwutoTWCB9Qp0RROkRbmUhhQYBYFPqo1y2dkbk6DOgUNpH/bUXfcKQtQlRBr2nVV5unubnn38+Y4eos5l3XFpe/VIenG1lIKLUiV3aRbnIDjEwwVZtWuzWRgZIpIGt7/I1SsFB+wibL6PF8jQj6mZTbmmzZvJFmp5BwHWjnQ38lGu3ZzSHlkAgEAgEAoG+hoA+g/5M6R/0NfvD3kAgENj8CLQE8UVAkAlbo+jsIkgecPXz5XMhXPIVUtKoA0lBdJEm8zuRQOG+0vMkkkKoSl5EmXdXOc2S0rotPiOmQmE9lOlRFhLnuA48acwjXf2YsuvfS55S/6yk9gdOiDqPM3KgXtIiw0XobPTuKqOxnJK+o71BAyS0rgumQo6FUCO+bDE44bh5viWt780I2+tpG/FBsHlxhV0b+ODVFzpeBkDqZaif/PBH3Mt3baS9i231PO197i5O7emIY91HQNuFBAKBQCAQCAQCEPBbrD8TEggEAoFAswh8yIaazdEL6YSyIiNW5uPNEUrKo4fE+My7KzxXeKzwVh1gpIrnrq0KVa0To/bM83BENBEyC1qZU3rNNddkEmxhI6/tEfYq1BVRJDyZwmd4DnfbbbfsKeaZ9pkgdNIiW4VAsRl5QjIRbTqQ3RIezTPKZvnUzQMbeSTqoCxlmndK1FNop8V8mhU2IPe8y+Y7I6Zw5ek2AOA70oeMltBvmPOqlzm+7ZXFbnYU0mfwgG2FZJY2cF5aZVkQymYRLWHpsNBe7GEjLGEAF6O2PMLdFR5ouCnfpgyh7O39GDrGc6+NEF1tTlwb9bp1ZIP86le8zdpXW6oP7HjAy/XTkY44HggEAoFAIBAIBAKBQCAQCAQCmx+BliC+yK1QWGTIvFzkBDlFMMxVNR/zN7/5TZ4fihwVr6Z5vEgxAlKITx3CcgxZQdSQQeQEyULMzE3ljbWir1WBrSjNS0o/Mogomz+KxDpnE6orLNfeK3xKeDU9999/fyZv9AqjNm+U57XMB1Yu/fQibD4LiaYPoVc3e2HWwrGRKJ/Zqi6IsL3vHXm/kDP56LeycyG+wn8LaTU/dUoVJi6022c4C/dFWIs06lcu+5955plM8rQVQq+u9Ba75Nd2pd5sRbANLvCsqjuSLb/BDqSVbSVUvdSVnlLfRlvq9ee5RzpdM9pCWqReO9fD0ekjrifzjLUl4q3O6g83bVbqUcose3m1MU+y60N+drhuLaiFOJ9++ulBfAEVEggEAoFAIBAIBAKBQCAQCLQYAoP+upLObEIEzLO1R9R0/ntDCgmxii/vLnKB1CJXCA3vHJJj9WGrBlth16rBSB7ig3ggkGWhJTbyyrIZKUJuLFKF9Jj3yiuIqCBcyKY9/VbsRZLlQ2wRMwSNfUiq8/IjcjYEEya8hoimcuiTHuHl6VQm0o2IqRMyqjz56ESi1UNdJ0+enD2+dCHfXvGD4CONziGf2oL9BgwahU7kUnlIqrZjCyl4skNeZVgcii3CkBFW+DnHiwlzdSwrH7NFHm0EFx5ltiG+2sRefh5V9X7iiSeyfiTUHG3tqI18h5O2RILNHza4AWdE3/xfGMIUBgYElENcF9pHGvYpV1kiAJDpN954I39HpmHUKNoV1vBhnwEAbWihLcddR64ngx3qWMcBOXZMG5i7DGuYus6ca6u82e2R7UYb4vt6BAy2aGP3g+u7K9E2rlHt1F4oe1f543wgEAgEAoFA/0FAf0Dkmd9f/Qr7rmRz9Wm7siPOBwKBQM8h0J3+5IDKo9XpxDkeMWTHvpCinjM1NPUFBAwICFdGTr3fuNm5sL1dNz96f/d3f5ffUey1UkTYtFcpIdXetRvSuggYsDCoYkCn/h7qjiw2WGG6gQGlMpjTUdo4HggEAoFAINC/ETAwrn9i8N60K/uuJPq0XSEU5wOBvodAd/qTXT8l+l79w+IeRqCESPew2k1SZ7yG57V423kDeY4dQ8x5bEMCgUAgEAgEAoFAIBAIBAKBQCAQgEAQ37gOukQA8TWS2kwYUZfKeigBm6yQfVq1qrP5xHfccUee3+uYedlnn312D5UUagKBQCAQCAQCgUAgEAgEAoFAoK8jEMS3r7fgZrDf3NXLL788z89tlTBn1UbEy+Jj5uUSBL3My84H4k8gEAgEAoFAIBAIBAKBQCAQCGz1CATx3eovga4BEE5sa0WxMJUtJBAIBAKBQCAQCAQCgWYRsG5EK0WyNWt3pAsEAoGPImDB3GanZQbx/Sh28S0QCAT6AQJzVy1Pt89+N90/b1patqZ6TdeAFq1UtbTgqMFD0vHjJqXTt5ucJg37+ErtLWp5mBUIBAKBQJ9EANm1Toi3BIQEAoFA30egkN6y76xGQXw7QyfOBQKBQJ9EYOaKpenuue+l3858M63tfOH6LV6/YQMHpccXzEpDBgxMn5m09xa3JwwIBAKBQKC/ImC6ljcJrFmzJpPf/lrPqFcgsLUhgPR6LWpXEsS3K4TifCAQCPQ5BCYOHZHGDB6aSS9i2crifXIvL5mXpixb2Mpmhm2BQCAQCPR5BHSOx40b1+frERUIBAKBjUOg67d9b5zeyBUIBAKBwBZDYPuhw9NOw0emddW/VhdR2IOrztjAlo3HbnUEw75AIBAIBAKBQCAQCAS6RqBlPL7vv/9+mjlzZjJBmRiV817WkSNHpgkTJsQIXddt2VSKOXPmJNv48ePTxIkTm8pTT2RejHfmWjnZglfNxNPX8zf72Uvmp0yZksvZeeed8/t5p0+fntqqFaabCWVothzp1GnhwoXJQhcHHHBAXhnaccfUcfjw4b62K/K+8cYbeYGtHXbYodOFtrqTtt3C4mC3EGj1EOduVSYSBwKBQCAQCAQCgUAgEAhsEgIt4/F9+OGH07/8y7+kn/zkJ+m3v/1t3m644Yb0u9/9Lt11111p2rRpae3atZtU2chchVS+/HLG9tlnn90oOLw26JFHHklz587t1fZYunRp+vWvf53uueeebOdrr72Wr49Zs2b1+Lwcc33efvvt9J3vfCcplyxZsiQ999xzyYBMZ4LM3nTTTenBBx/MRLmn0namJ84FAoFAIBAIBAKBQCAQCAQCgUD3EGgZjy+zd9ttt3Tqqaemo446Kq1YsSJ7+RAe5Bcx+eIXv5h23HHH7tUwUn8EgZ122im/+9Z+Y4Qn9vHHH0977713r74GoHiSEUviu0UpyvGNsb07eQy0vPXWW2ns2LGdZrM65CGHHJK23Xbb7J3uLHF30namJ84FAoFAIBAIBAKBQCAQCAQCgUD3EGgp4sv0Qmy8m1UorpBcIaTf/OY3s6fxzDPPTKNHj87eRt5HRAw5Gjx4cA5LRY7IqlWrNngkefR4ixEPoavSFqGjpJVXuUUHvfIi4SW/8GtbsbPosZdGWnmIdCUcuOjwveiXbtmyZTmcuz19ylc/NrZXvmPOEfnVo5Qpn+/KqNd7l112yXhK15E0YlIwU96iRYtyqLS9TcgzPOv2l3rBsm6D7wV7ZbBR/pJXWltnocXF5kasS/ura6MoB/70FuwLPu3hIK2we15f7SP8Xj52Fj2OaR9h18ccc0yul/oRtpW6SCNvwbCjtOyRlv31a5Ce0v70sLc9mxvrHN8DgUAgEAgEAoFAIBAIBAKBQOBDBD5kgB8e26KfCglihM86+ZaeP/bYY9Orr76ajj766Ex833vvvSQ8WjgqYrDnnnumk08+Oe23337ZfueEqSISM2bMyBsCzaN82GGH5TRIzd13352E/Zq3ygt6zjnnbNCB3Lz00kvp97//fZo9e3b2/rHjuOOOS6NGjco6yh+khZdQ2Cvb2H3ooYem0047Lc9Pvu2223J48BlnnJE928gRL/b3v//99J//83/OdSq6yp596sfGefPm5UEAtqun8hcsWJBuvvnmjBMC9sILL2Rv7llnnZWeeuqpPFBgXiyvJTtg9+KLL6ann346HXzwwRnTUlbZI1rK49VF/GBy0kknZa/mlGrO7b/+67/m+v34xz/OZO7CCy9MRx55ZP5cdEj3ve99L/3xH/9xtoPnlEf0/PPPz+UigQ888EB68skn0ze+8Y1MSJXru5DhSy65pNM53bBTrzvuuCN7ZX3ndT3llFOyvcUOeyRc1MBvfvOb9OUvfzm1VXOECVyfeeaZPKcXGS2CgGor+LkmzN+988470+mnn55J+rXXXpvtu/766zPx//f//t8nWOyzzz752tIu5lA/+uijWYd5wrvuumu+rvbaa6/0gx/8IO27774fS8sW7T1p0qR03nnn5WsEmXcdw0Rbi3Y48cQTM9Eu9sZ+8yFgEaoB1X1uvSyfi6yrvqyrjtiHBAKBQCAQCAQCgUAgEAi0JgItR3zbgwkBQAgQXyTXPE/hzzxjV155ZSaZzz//fPrhD3+YvvKVr2TSIB3ScPjhh6cLLrgge9MQmhtvvDHtvvvuOQ+Ch6T9yZ/8SSaH5r8ihcjPQQcdlImk+cZnn312JjaOS49MNQoSe8sttyQLMV100UX5tPKQueOPPz7bjdjU8yJ7SBLi1p6YS3v//ffn8tmMfKs3HQg84XVFuIWHf+Yzn8kEE4m69dZbM9Hk4ZWGpxImymSHfXuC0CFZSCqSiPgbGIC18OYrrrgi/fVf/3UmtXvssUcaM2ZMxrKui33aCMmGHVJunrb6IIaIH1I9f/783C4lL5vMse0Ij3o6xNUgB/0IqnYyUII018WAhHZTXiP27eHAq/qJT3wie2m1qYGOAw88MNsNV+2PtBtI4EEWfbB48eKMr3Jh57p6991302c/+9ncHuqpTjZ2aAvCbu2r/b70pS9lr/Gbb76Z6/Knf/qneYBBPQ20GETR/uoSsmUQGLdkZZq0YEUat7SKrFi9NhNdhHf5kIFpzqihacqEEWnNwGC/W6Z1otRAIBAIBAKBQCAQCAQ6R6BPEF9VQH5Lpx8BQWiQAeSL+M6z98QTT2SvHxK03XbbZQKLNBJeYYQM2URYEJhPfepTmQjTzzP6v/7X/8peRAQWCUG4eUqtLq0M738TnlsXhI1XU3gsAsO7SXhV2YrotReCKw2d7QmvMfKEuPKoIp7KZj+yRDfSiUjxKCJi7GcDooqs2dQT4UN62V3Kq3vWix0WrJKXx9iAAWE7vBBgKx5bYRs5FILe0XxrZSiL3eZt8/CyBRlXRpFiS/neaFM53rjnTTeYgFAjnzAyyIFIIp5dzctt1Ff/zgbth6DTrZ7lnX+IqzJh79pjh+uGyAeXV155JeN1xBFH5MESx4Tsu0akr6d1vWov+tqqQQbiOrvvvvsyyVWfQtjZxI5CmnPi+LNZEHCH7j5nadp/xuI0fsmqNGhNFZJee1HS2qrtd5u7LE1esDw9use4tGxo9WKi9m/rzWJvZ4WIfvnpT3+an6WiLVxvfUHcPwbODCRefPHF+ZnXF+wOGwOBQCAQCAQCgUCgdRDoE8QXQUICkDjkYerUqZlM1YkXsoNk8QoXgoykyFNEJw8JE8KMqCCWiCmC63sJi0aUeelswqxL51Caur6il0cVoWMjj3IhdEiLcGtkRd7uCO+e/MJjkV7CdkTUasfOIb5IrX0hZ7yYPIiIayHoyFf53JENbGarDqYwX6HEdMMS8VUGKd5Y6X3uiNAXclyIIdykp78u3cVFXnlgUdoOvog5j3Rp+3oZG/O5tGGpb9FRiLZrq1HYpd1cX65FGBDXbCG9JY+0cHUt+wxvZcJcmQi8+ri2RCLwnrsWefbpDtl8CExYtCIdMH1xmvTB8jRQcMbHbuV1aXjlAR6+ak1aOHxwenmn0S1Lft0rwvcNhLnW+oq4r0XjGOAqA3BdPdP6St3CzkAgEAgEAoFAIBDYPAj0CeJrniRPrtBWnjhkSgeuTqKQBZ05hAiRIIhEITCNcCIl9CC5vHpEPnM12yrvGxIrTb2MRh3le9GFDMlfyJLjdPIaC1mti+POdySFMCJRdVFH5wrhLHUtaRxHspqxu+Qpe/nk5+3mHdfZpN+x4sUuaR1vLLucs4d7waF+vP65nqaU05nOkhfpN2fXnG0kkN1lPndJU98XnWXvnDrVv9fT1z+3l0a7sb29c6VtmsGfDQZVEFqDOPCikzfZNaN+wpzNs+YZNqhjrrfVzaPTX2+l3vuMzB4wbVGauHBFJr2dzeMdWnmC931/cZo/Ykh6b7tt0qoq7PljHLn3TG1as+vXtdeXhL0iOzyXRJ00DiT1pbqErYFAIBAIBAKBQCCwZRBoGeJbiESdDBbvpdBP3gneLp5D5FK4r7DS4v3iMeMVO+GEEzaEn3YEKXKBQCPSOlDCUktHih6dLJ0rm7nDSAcSgpjwvilT/iJsQlSQGHtEhiBoPHY8tkgxso64CM9G5tnbETmkg5cV2eF55tGlz6JJyHohonCrC7vo57XlHVYH5arX9ttv32GHFyZsV6b6WCyqYMKbXcqRDj4Iufm46uVYd4XnlB6hlzqz5sm+/vrrefCiM13wYg8cLCzlWmCLMMj2PFjKgAm8hYnDBh7Kdawj2xFY6dRbmc14kqXTbkKYeaPVy0CMclxDrptSnrQIrfZht7BwtpJ33nknh+lrd21QFmNTb14veUN6H4GBa9dVhHdl2rma1zuk+twZ6S3WjF6+JodFzx85JNlaNeS5XIfF7lbfuw8s6ueZ5vlXBgZb3e6wLxAIBAKBQCAQCARaB4GWIr5CPx966KENYbYIQQkjNhdXpwcx3n///XOYssWHzBvViUMKeG6F+OokyYusFMIG8kJg7JEhCyPxxFq1WR7HbciUzhViLAza6sEIChIjBJV3rk58ERZhqYgVku48mxAyhBlJdR7Zeuyxx7IOHTd1q9tXvywQXQtsIcrK950+obQ6gOqKeKonm4soC5G32vO9996biazz6uec8hrzyMte562MbL6yhbqQYOSPrQgj4gx/2Fj1Gf7mp5pjDJsipYzy3d4x7VFs5b3hWYb9lGrBKOIc2womvpfPJb+9usDYIAQ8eFdhCeuSPius/qgXu9lsMED78Za61tSr2COfsosgpcir9lKG/KRuX0nrWNmQW9ePAROLmynLOdcLUgyDkpZOhFiYtkXLYKhu2pnNbESC2ei4gSBzpcPbW5Dv3f2g6pqYPH9ZGrrmw/urqxKR452qub6vThqV5lULXlUXZFdZWu68aBfPAAM2nm2uRc8v94tr1zoArkGDXqZVGMTy3HUfGvTxzHI/uR/b2tryedeyqSX0yee6N8Dmme7+MjDnWeM563lSf74CiD72GAxy7ytfyLb72bNQ2Z6/7iH3oLLd++UeUif3kPuafveSQSRTZNxT6iatwTdrQ3jelbzSuCeVDQu/C+qi7uwyYOh5BoeQQCAQCAQCgUAgEGhdBAb9dSWdmafTrWNi70e/TnA6y9fdc4gLj6YOCoKIyOrM6Ah5lQyvl84J0cHQgXGeR1QnSjqr8eqEELqQNB0YHSyCKOqoOKZzowNFkFsdGZ0h5xASnSQdHmkQMyRPeTyhjhVbsoLqTwlZ1YHTIdNpghXySo/Ome/OW7jKMQSVzrrHueizhzc7i306nRba0snkRUai4AULnT2izkiyjd3KUobOHeIFAx1CpBNmjaIDByMdX6RLh49+nT265VVXeulSLzbCq4gOLA8uUlw8wo7Bt63qCFvsScfWOXNctZ/PvPXKNq9Zx1anVnuqm7x0wBMu8C+hvwh6wUCHt94BZS/cHdcm8PedHTBgPxzoVtfSFgYBlCk93EvHVjr1UgbdRIfbeTaoB33scx2om7bi0XUdupdKWnVkF3sQBli4z5AMx312zLVHj/YzMFGu54J3X90jEjCGdTN1cq27rlw77p+u5OH5M9L986enwQM2Lqx38Nr1ocvbVl7c7nhuzfd9e8LI7PEd2CTvXb1ubTp5/M7phHHrn19d1W1jz7unDC66pj0vy/oBRZ/nrgEzA1KuO9cwMiida5J4BZtni+veoJxnt+eigSUDZvK5buV1P8jn+r7mmmsyadbmyLMBH20pn+gXe2U55t4sERDKNMXj9ttvTz/72c/yHF/PBYN7Bj7VyX2FyJbBLfe3Ojpv8IpNbPYsRHyl/2//7b/lvCKJPL9EEHkzgLIMrrLpRz/6USa40hc73d8iTpRnsS119RwpvyfsDQkEAoHeR8D97Hfds0K/ov7M6P3So4RAIBDoiwhUr6WsmEYnglzpANgjP0hPSCAQCAQCm4qAAR1EC6E3aNCVGIgxlxvBKAM9neX51ltPpf/3zcfT8IEbF9gytCKwp75a2Td/eRpUkeBmxbt+bztoYkV+RzSdb/na1en/3vPo9Jd7HNFsMRuVDvn75je/mcndt771rTzoUBT5KbjhhhsyeeWJ9co0Aw0IJ3L5l3/5l7md/vZv/zYPuAnlR4gNqhmM+u53v5vb0uvjDAz94he/yB1Rr1kzSHb11VfnAcny+jgREUiwtvfaMB5U5fudufzyy7POYpsBJ+/Qdv6v/uqv8gDVz3/+80xsDRR5P7oBJO+8tgDW17/+9Ryx8p3vfCcPllmpXifZJr3O8t/93d/lsq666qpM0EV4IPUGFi+99NIc8fFP//RPeZDlC1/4Qh7oUgfEV51Fdshj2o33a/+bf/NvirmxDwQCgc2AAAeHASsDzSVyYzMUG0UEAoFAH0Zg41whfbjCYXogEAgEAs0gIGzZO3rXrnfsN5Mlp1kxeGD1Pt+mk7dMQsTzhRdeyETvwgsvzOTS4mre6Y34InmIMK8Kr6jok69+9avZ2ysfD77IHN570QwIpoEKm+gIEQw8tUiolZl1VEWW8BaLojjmmGOyp1cZwpqbEcSbLtEiojVMX1GWzjAb2UIXj63IFKRahEgX4725aGl4rA0CeH0aO+XnyUaOlWcvukZ4t4iRkEAgEAgEAoFAIBBoXQQ2zhXSuvUJywKBQCAQ6BEEvJ93djVPd9fqHb1WbG7W5ztndPXKtCHVtIBmM/SItZuuRCi5sGVkr4SSm94gjJeU6ScIYVkEz3HeWKQXYfWqNZ5Xgug6V6YE5IO1P2XqBG+NNL4j1UKU5W1G6rrlLSHzPMw80ueee25ed4Gnlhfa+gg80vV8XZVT0hYb2VnEZxt7myHTJV/sA4FAIBAIBAKBQGDzIxDEd/NjHiUGAoFAH0BgbfU6oqnVa4n2nL00DfM6oyaILLL8ZjW/d+E2FZmrCGKrCpKGrBXChtQhu8V7KRQY4eU1Nb+clPnoPktfCCGvq7TI8OVViDKvKDJbyKs53BZ760qKvq7S1c+XejhWbKXHfD82ILq8tebqewWasGSh9ebZOy/0uRBt+00hr5uSt16n+BwIBAKBQCAQCAQCvYNAEN/ewTW0BgKBQB9HAG1dNnRQenK3MenYt6oVfRevSp1FPSO9L+w8Kr03fnhaNah6T3QL1x/hu+uuu7IXtJBHYcq266+/Pl133XV5ji8PsIWuzGsV1mvhqUaCh9gKA/ZKsbvvvjvXmudV6DQvsHDp3lh0BsFln9XdLTRlvp86WahKGDYPNcJtMStebDbYEHXeX+RYSDS7hWZb1MuCXXWPbgs3YZgWCAQCgUAgEAgEAt1EIIhvNwGL5IFAILD1IJDDnbcdlh7YZ7t0+DsfpF3mLa/e6VuFtTbQ2mXVXOAn2sZkD/HSoa39WOWJtaiUV2gVL6vFC3l8LWiFHD7wwAOZAGtpc2OFDPP4Ir2IofR1Amyxscsuuyy/wote55BJZBkJRkKVxctal/r3otu+rlv6ckz6YrNjdLMFOefVVYcvf/nLea4wr7U3BHj1mjoju+YrI+l0fPKTn8wrTd9000157rEFtsqrmEp5vMC2YkPxkOcDf7ALXvV6lHOxDwQCgUAgEAgEAoHWQuCjvZDWsi2sCQQCgUBgiyOwpgp5nlPN9X1i97Fp6vgVabslK9M2KyvyW7l0LXy1ZNjgNH3s8DSrmtu7qlrYqpWFl/NrX/taDguuk0uEzmvckEMLRbW1tWUPKoIohFl4MHIn3ec///m898qhIub1egUQImohrEI0lccjTLdVj8v8X15Xi1kJOUaakWnlXHLJJZnkNq7yLR9SbiEruoognb6zmXdZWfKqBy+1VzaxB3nlrbYiOEKu7rzbQrTl4xFmC++wvDZlfeMb39iw8jWbLfrllWKl7soW3s0+50MCgUAgEAgEAoFAoHURCOLbum0TlgUCgUALICDkeV1FAGdXxHbBiCFpzNJVadvlq9PA6hVHjq8YPKCa0zskk15kuJUXtULweDw7E6+ssyJze4Joeo1Pe4K8IrHtvWoKqbUVkZYH2VYEeeysXGSzEE55kFcEm972bEJeO7IHoUeArdhcl7oepNhWhM110u04om0LCQQCgUAgEAgEAoHWRyCIb+u3UVgYCAQCWwABJFZI84iVq9O4Jauq/Zq0zaq1acSKNdUqz2sz8a2bZT7w1HHD08wxw6rXGVXzSStiFtJ7CPDimqss1DkkEAgEAoFAIBAIBAKBrhAI4tsVQj1w/qWXXsqhfMLoeBn6qng1yeuvv554hIQ+WkSmLu+9915+Z6cQQZ6lkECgLyMwvApn3nHh8jRx4co0oVrVeWRFfEctX5OGVaS3PUqLKG+/aGUVDj08hz7zDq8ZNKClPcB9uX14a3lu99prr75cjbA9EAgEAoFAIBAIBDYTAkF8NwPQVhpFeL0/si8TX6um3n777XkunPlzjcT3xRdfzO/MNMcuiO9muLCiiF5BoOKvFcFdnXabszQdMH1xGrNsdeX35f0V8pzS6mrOb0cyef7ytPP8ZWnK9iPSq5NGpfcr7+/Kat5vK4c/d1SXVj9ujrAtJBAIBAKBQCAQCAQCgWYQCOLbDEqbmMaiMOaH8U70ZWF/qUt79YjVTdtDJY71JQQQ1DHLVqV93l+c9q9I75A8j3c96W2mHohxNcs37VGR5lGVh/jFnUand6p3Aa+oVn0O8tsMgpEmEAgEAoFAIBAIBAKB3kGgpYivV2zwKpq7hWDxjhbPoTBb51auXJlft+G48wil9PKWxU6kld+iJz4vXbo0p7HYiTBd58wL8+oKaej1nT4LrCiDPkRPOfIUca7Y4XyxkR2EDcuXL99QD/nNQ5OuCHvpYJvFWXhOrYba6EEt6aVRB3rlZaMFVeplFuykVT/lqm+dbHvnpfzqU8qSni3stuopscqpshyrY1bsaXYvP7vZplxlKoP9xHl4Kg/+iHPB0+eQQGBzI7BtRXoPnLYo7T9j8SYV7TVIE6oQ6cNXf5CGVKHRr+44qpr327cHvjYJkMgcCAQCgUAgEAgEAoHAFkagZYgvEvjQQw+lRx55JBOhcePGpaOPPjqdfvrpmYQ99dRT6dFHH03mkSJ1hx56aDruuOPyXFPva3zwwQdzPni++uqrmRh+4QtfSK+99lrW+cEHH+QVQ88666y8Mqc8f/u3f5u+9KUvpSeeeCJNnTo1HXTQQXm+mDKee+65TEqF0nmHJdKGwDrOxilTpuTXVxx44IHp+OOP37DaJxLnHZhPP/10QjTNQ5s1a9ZHVjT1vsl77703vfHGG5kUWtn07LPPzmkLKaxfF17Hcc8996SXX345zZ8/P4caf/rTn857xNaxxx57LOOjfK/sgA3bC8Glz7suvdcSBmX1VOmvvfbaTEjLqz+U9corr+T6mz934oknpv32269uUpefkVq6hXkLgV64cGG268wzz0wwQ2yR4ueffz7XzXs+kXmvRPHaEqHUIYHA5kKAp9aiVXvMXrrJpLfYTOeYpavTvu8vScuHDEpvThwRXt8CTuwDgUAgEAgEAoFAIBDYzAi0DPG96aab0syZM9N5552XyQ+yaOMRRI5uueWW9KlPfSoTNoTpZz/7WZo9e3b63Oc+l72ayCEiiciaS2suKiI9adKkdMUVV2TvLuJ39913Z5KKmPF0IngXX3xx9r7+8pe/zMT2/PPPT//xP/7H9Pjjj2fihkgi2tLeeOONmYwj1Wy77rrr0m9+85t02WWXZeL25JNPpttuuy2XaTErBPvtt9/OaXlo33nnnUz0ENw///M/z15PpP4Xv/hFuvLKK9Mee+zxkUvAgABceEK9f5OwQV3OOeec/HqPO++8MxN8ZNjrNpBMxLxRkN1p06blehTiC4Nnn302ffWrX81k9Mc//nF+BchVV12VyTC8br311oxjo76OviPj9LILydcmXgvywgsvpGeeeSZ7f71D0yDCDTfckC666KJM+rUhLA0wIMjeARoSCGwOBKzePKoivhOqxamEJK8PWd70kukZt3hlmjxvWSa+m64xNAQCgcD/z959B2tWlPkDb5iBIUoGkXSJKgJKlgFkSBIlI0gyLLumsnZXq7bq959VurtVuivGRShXUEGQIEEJAgISRKIICKsEh5wzDDND8Pd+Gp/xcHjvve+duXfue2eep+q84Zzup5/+dp8+/e2nu08ikAgkAolAIpAIzA0CfTGflLfPzsdrrbVWQYhMr/W+Ru+bRHJ5ZDfddNP6rkaeYNe23HLLSiaRUd5Dnk0kd2BgoCy//PI1LE8j77DzPJcrrbRS9ewGUKYES8N573s07dluxfSzQTzpIZ5ILo+z9zzatRiRQ4g333zzOnUXOUc4fbNt/fXXr3YgsryXSC87kWCklJeYbnq23XbbSmwRQ+SvKQgyHR/60IdqeHmTF4QaubzvvvsqqWcTj7Up0+zeYost6pTnpi5heFXtzCyuA0Y2o5IXtsMR1jCAh7TYKZ1eJYgvLzyvPY+26dVwkab8K3NYKC9lLl+wl0+e7ccee6zX5DJcIjDPCCCoXle0wozZo0Z6w6jJnUE264ZX7kx9TkkEEoFEIBFIBBKBRCARGB8E+sLji1gS5CfWpCKKDlOUTT02Pba5ThYxQxQRJGQUqUQSY2qvsNaN0kGmTJlSrzsXIi3hxCXiIsPCEr+dQ3qtUTUdeocddnjLml+kDkk2hZgXlZcakYspy+CjRCMAAEAASURBVHQH6eXJtK7YN7IZEuScBxsxhENI4IEMIqbiW5eLZBPpyRPvaOTDdxOrpi4eYeTagAEb6ESS5RnObDMNG8knsT7XdGoktRdhn3i8vcgvL698OJQXnNjgUI6BN5yk4Xzkr5f0MkwiMK8ILNrZxGrpWa/VHZx5f0dTeJC9/3eFDvl9etk317ePpv6R6DJgZjaMwSyzKqKdGomO8Qir/Z3eGTC74IIL6lINS0iibR8Pe+Y2Te2uwUYDrVtttdWwajwTDPxql/fbb79hw49GAOmZhWS5jIFhYqCSLSNd8jIa9gymw3PGcxGWsT/FYGEXhPOWDnl+6pd4TvYq0YeyjCj6CL3GzXCJQCKQCCxoCPQF8fXQQt483NuioUYMNfoedCGIFUE6TVsm8e03ktVLI9+ME/F8t4U+diCmOmEhSDG7gkDrSDavCyeudHTUkDy/6Wl2OuWP59lDrSk6HDoiwvOYBgFHWOmRf/pNie5FkM577723rlPmdaYfUUfw6ZJHHl9eY2nRzc4mGR8uHbiLI6884jze9Dhc411G4OVVvpvCw88WR0oiML8QmNS5l55ZevFy0zrLdTy+o0x8O5mY2dnV+dnOe33HW7QTljtoa5vt6XjbNVz62g7tp+eEdmUikl551N4ZJDWbphdRXgY3e23fe9E5XJgY6I1wbDZLyKBJPxFfdcEeEvvvv/9CQXwNJCuHgRGQXv0kz/vpnUGjfiq7qFv5nQgkAonA/EbgrSxrfqf+t/QQIVN+rX9FxBBAD1sdNATMFF3rbXl9je564Nk8SucNkWuT19HOBv1ImtFvm0jxNrBJxxEB5Q01RRf5DU80wqdz44FjpNx5pM+36cbWH1uji+BZmyyvNqOCQ1PotlmX0doYfed5RkrZxYPLOxueW54c5JFXIQhtUx8PNU+vDbp0wEyjRmrZJk9G+umGq3N2d9bhMVU5Bhua+gb7Lbyp18qR5yAGKJQxncpc2caGZaY5089DDCNkWfnKu06u/KckAmOFAC/v08ssVp5bamyaRGR6qPf/jlW+2npj8Mm9PZGE3dqMgw8+uC6dmEi2N23VlsG+V/zHo7wQJMuOPEuI9tqsLM/dfhLPOc+wiTSAMy/4mQWlf+TZ3KsYxFB2ynCiDhb1mtcMlwgkAolALwiMTS+vl5QbYXgH7d6MdJ177rmV+Hrg8wQjdqaEmeJz9dVXV8ImKg+oDacQYQ8DD2WELcTDcCivBtIojm8HCTIZ/yOM8wgqjyuCioQjmoTnkofUml6dGbbaDOq8886r+ZA3eUGc2WPNrKm81jTLqzRMRYo1zG1PJwyQQAQQMbSGN3SyC7mGA5tstOU6kukhF/mohjY+BjojxqaJs8FGYOxz2IzLtGdk3WZbvL/OG4hgQxOPhro5P5uYsxuxV6Y2Los06ERiEXDEWLleeumllVjTj+ibTo6cw8VAg/zqjNGRkgiMBQLW+M6e1CGDY9UidpqYiVJ77UZvN3xLH9zT7n0DedEeaDu0U+5H3iQeWPesNkc7pf3Q0bb8wmCdgT6DZzrg2iz6eTERWXsAGKR74IEHavuiU6/N14a1RVz6tS2ua/N8s89yCoNs2g3tNJsIL5k42mn2a6cd2mBtix3kDVjKi7ZIfjxT2Oa3Z4s21h4H0oKDdsn+BNIzYGepjTx2E2HkD5bS14Y3CYg2Dx7sh5HnhHYYDgYPBxMbAxoARWwQVIOW8PZMQwbZO9Bp57Xx9LDbsyFEugZk6dHmuiZNaXtOec4pY2TLIC0MYWQzwpVXXrmWW/tZJV1TuWELU7gYWJUWvBBV9qkH0jCQrexsCKl8lKv64lwMDKhL0va8Vw4GnQ2YGiw2E0o9somiZ5Q8yvNwwmsab1Qw6OuZLN/DlQWbYa4s2ajOsksdYLf6QQebTcGWXwPZcDCYCz/2yo96BT+Yw0i5E+XpmQkjoj4rW/jZaFJZCeM/veqqdJSjOHBTv+mNsmOLOPoHcHLPXXfddfU+gxe71FM63beum2EAV4PxsHIfwZetKYlAIpAITGQExqqbN2JMPDg0/nYY9hD0ENcoIz0eLHZ05uXVuHvAeMWOh6CHhw4FYqSx1vBryD1wpk6dWvWEMR4GHq5EZ8AaN52GeMh6wJAIozPDLp0CnRVkDVFkY3QMdLLEYxNB6nRu4mEtD9OmTavpCUO3B4uOmc6JB5IHuWnHbW8vffGg0knTQYJRrMmNEXn/2ajzpNNBHyIdD1N6muJhakMtHRUP/ci/8F6r5MGrc6AcPOB1Atmr48mLLN12p4d+nQf5gK1yQ2zhpvOls+i8DoCyJR7advGWN2m5rlzhKT3lqRNMhw54s8NYFeRHIjCKCCxC15tjYKOodWKp0lnWviG+7nH3IEKow+01aAiN6+7HmNHiftbmIQQ61O59bYU4RJvh/vaaN/p4E5EuxIEOHW7tFuKnXUUeoi0O9Jxj25lnnlnjaxfNWtEmauelhUwgJsLqsCMqpsIKoz0RH9HxHEBAvMZNWyxPRHt4ZedVbrvssksld9pBeTWbh25pyBeyo932H6lAGhBoz52mSN/u+/JEpI1YOELYZs21vGuHtcFwdN4galun9JEcbb18uo6UyFvMGJreIV52/pc3uHseiNcU+JttA3vPT4RUup4NvuGmvMWlOzDUjsNL2k2BhToTAxjqDD3adM815IndniXyCGt1wfNHmak/4tPjmeA56flocMM5abLD4dkFQ3lTDvD3bPB7OEHM6UQWPY99qxueXUOVhWes8vEsU17KW/myzbPSveJ5p6w9z9QvuMJJ+cARdsirNAnM1Xt6DAI4r84ZVGebPDnHNvkVX91zsFU8GBo4Vn8IbJWt8+5L4WDGdt/0unetlff6Qs9gdQiG6hRMg/i6P6TvoN99k5IIJAKJwERHoG+ILyB1dtodHuc1zMivo5sgqB6GTfGAtfanKTpgDqLD5ZVETUG6mqJz5QHXFA8wx2DiAciWtj3N8DoDCKJjOKFP58DRFPkL0dH04HT0ItLXWewmOgGD2eZBrlM4mCD9zSnJym2wMqXDwxgR9hqmbqKMzARISQQSgfmDAG+uzjfvDsKnk8wjd9ppp9WOrwFGnWtEUIfcq8gMjumUI3naRq+H02nnMTX7RXuD9OlAaxMQKu2amSA20pOOdgIJO+WUUyq56PYcaCPADh11nXmvtUMOeKm8+g4JkR6S4/V0Zp8gA8KwASEJ4hh6nWeXdslv4ZEptniXu4FXHk+EFDkT/9vf/nadPWMAtOlRhRvCg+gIO60z+Kmd9p9N9COjMOJR9To8g6zIkDSEQf4Q0RDpIUpmCmmj6ZR3HmWv0JNfbalw7HbNf88x+WoKUoq0K2eDnQQBhWngQI9BCm2w3wjsYG01guU5LK/qgyUtP/7xj2salrqoD8gT7NiN5Cp7Nigbui1zOfvss2t98KxB6GBmejudMTtIHfUckidEk00I3HCi7NU5dfSQQw6puCCuMIX7UGWhDhtMRjbpMSCrLwHn73//+5XUwwqxZpM6La/CG6ynH7FE5g899ND6PEf2kUv3mzpm0MD9stdee9UBYPkxYKAc6WKnsoYxEqpM2GxA6cgjj6wD4uJ41SOM9H+UrbTh2OzvqJ9EWce3MlL+If6rE+q+Qf9wCMT1/E4EEoFEYCIisOhENDptTgQSgUQgERh9BHTMET4eLoIEGlDjPdLpRnB0lh0G35Bf3jgEgjfM4KTOskOHXWcdKSbIg+sIovgGvXjLkBr/EQcddGkMJsKF6LybeomQOM8OhBepowMx0mFHRJAOnrBmx76pK3Q2v4UVf2BgoOLgG6GTpgFC5CymsLZtRnjCwwk/+SLIYRAIcRAlU1bNXmIPmw1KKgNl0bQRgZE3WCsf+BL6TT8WHtYINdKCUCqjNukVRxkgmzyTvNrKy/8mPsIR+mDd9hq/efXNT/WAHcgYAofkGrhU/kGylDO8SMy0QgrVLfaaossriUw6b+BAnZEu++SN3cgeLJyXnt/DiXD0ya/BG4MBhB1IrHSHKgtpKgt2qhPhAYatOo3EIsT0shkG7gc4yDcbEVz5lz/lCBvx1RX/Ha41B80NeMORRDlEfnl+lR0iry6Ir64rR+I/7OOIePViDx/ufbMIlIt8qfMpiUAikAhMdAT+Prw30XOS9icCiUAikAjMNQI6yDrwOvhIZIj/PLamQ+o8+48gIQEhOv068qY6N4kWEoAoIB4kvoNENIlWeFojTOge7rsZnj562IMQ8K7xnvKssYsnrjktuRmXTU1pXnNefsPuCBvfQe4ivrjIFNLSzGNcFw+WyC8C3RTkTnwe3LBBeMQH+RM+0o14zsm3NF1zNMsnwsU3MgOPKztTu88666xKKHl/rdVu6444Q32rNwYxTNM1jdl/mBjMaEozP1FWcT3sFUY+/TfYYsAi8HUNWR2pjaETQWzWz0i7l7Jo2hDxfMOdfjpME5aG/UgQXaQXeTQo4P4woOE74tDJWx1TmKPsm/oH+y0unOjkHYcXOxzqnTTmRWAc9Wpe9GTcRCARSAT6CYEkvv1UGmlLIpAIJALzCQEdZBLfOspIBS+VaaXhndOx5oHTqef1ifBNMxFcRNO7ZpEdnXAdc2QAETBlcywEGXQQ3jKkC6HioZKfgY6XlkePHcgBzy8vqGsOBE1+HOIHuZlXW+nmeeN1Q8JDwmsnPVgiRggjjOFEYA+/JsETXr54RxEnpDgkCJA48s072oso36OPPrrqsl7adGkbJQ5GKgMn6UmrKda98qiaFs17zQbrjAfT1Yzb7bd8yC/SaLpupB1lLX262eIa8e2/MK43bRTWAAycDeCEhL5eykKZRloRv/3tOo+yqcum4Vsrbeq9/+4PdW/HHXesdUNY6YdeBD+IbJBz3mDXI7/SCxuckyf5McCjLhF1nahPPMDyHnEiPdiq7/SbjSBOxKuR8yMRSAQSgQUUgXkbElxAQclsJQKJQCKwICOgk8s7iETpbPvWKdZp53Wy/tJ5HkkeUx4ppIgHKDrRTXyQPB5D6w3FQUDo5/VCiHTee5GRECU6EXLTSuXHNGQELl6fxg6kUj6QAOHp99uBRJqOjEQi+9bwIiu92jpUfpASBHB6Z6MpXlBYsNU6ZnYROJumDR+EHIFRDryFpkOLD8cQZMW0WlOjhUFqkGprhOm3RjimUUecwb6Ra95U5IcgWgYvuuGPGMkP2wwUwDsIY+i35psgrGwypRim3epKxOn2HekjcaaUy6NpxspEHVSe/hNlyB64wVU5u8aLzcam0It08nTLd+hQPnaHlveRlEVTd/xmI72mnMNHmgi1ewaGSLy6YBAIRspWfmyEKZzp4u4j68DlCSm1AZnBHCK/8IQrLMRX5gYZrOl1jg3yzgbYKFeHspOma/QanIKtQzhrrtkR+Eee8jsRSAQSgQUNgfT4LmglmvlJBBKBCYnA/Oh0SkMH2EZCiF6kqRNtgxykUefZ9W9+85u1k2z9qGvhUeoGrg67TXAQsh/84AeV3JluaVMe39LsRRCE8Ha1w7PVdfYRJAB5RDZMZfYfsfEGAEQCoUVsdegRY/mQP51+nX0bJF3ZIUmmZ9tECvERJ8hmYNO0A/lwXlrdrkdYRBFJtfkX8o9cmdLKiyv9SEOYo446qg4Y8JrKn+veOGADI8SkKQia8LyzP/zhD2v5wFe+eORDbzNOt9/sh4vdfREhdsHNGmRe6qYYILDWlAf3v/7rv+qmTvCSxxCDIrA87rjjaj1x3XrrKKsI1/5uYug3fCOO2QMGMrwa0GCB6fcwgY20eawN1Jx66qm1bGFtEMGuyuoQT39T6LVRlk3YfvSjH9VLvLDqaAwqDFUWvMVNe5u64zdcDUT87Gc/q3UEDvKhPqpfsFYfbGDmnPzEml5h2cdDrE4axJCH2NjSQABCKy4dpu2bQn3MMcfU+w7+6o882agTXnCCkd3Qv/71r1cb3MfWf5sBccIJJ9SytyklYt4s++HyGnnO70QgEUgEJhICi3Qa6jfnCQ1itQ6DEVLfGlAP3pREIBFIBOYVAYSFp0jnX6dvOOHR46niuRluF9enZr9S/vPem8r/PvjHsviif++gD5fGeFzXBK86Zany/9bfqhy1xnvG1AQePt44BK/d9MMViRLGBkrhVdKBRn6CkCozHi0kCVEJoY9niefN80J4a4ORUzqdRzB4BYWlny5lL6xzytdvJLUtSAMiaHonm773ve/VOHavdU1HnU30Ezbw4PKeIYQ8bwieuNIKT6+48uGasJ5xworL7qib8sxjBic6CO+bdBB/pKMt8hh66JQOW+AAayIN01yRceQMXnCDQ+DGXmUQIt3wrCNQ0qefbnlQfjyIg5GX0Css3XTAzTdclFVsxOW6fLDRb3bDKggqm9guTXHZzZYoU+HZ6pp4MICZ8DCFJ1EOiBdCG1iKJxx7YYYMymukrS7zdksLPrzqCL06Em9wqMobH8pDPYWVcoR19GuGKgvh4QIzgxMEHuxjOz3+0y2vBA5wZR8JnOApD/IDn7iP4BL3J9LqetQF1+L+og+WrjsfXmDlLU+uRR2VJlzinoWfvLj35AWuyto3u5VH1HWYysNg9ahmahw/4GhTMrYbBPCdkggkAonAUAgk8R0KnbyWCCQCY4bAWBLfV15/rdwz4/ny8MyXSm+TbMcsm8MqNvK41KTOa8uWXq6sPiUHFocF7G8BEF8dcq8CCuLSa9wMt2AiwMOPHPLiImwpCzYCSXwX7PLN3CUCY4FADo+NBaqpMxFIBMYVgSUnTS6bLrtSPcbVkEx8zBDglSK8VymJAAR4enlYk/RmfUgEEoFEIBHohkBfEV/TnExTMp3I1B9Tnqw9iWlP3TLQz+dMf7JJjE1KTI2yAYfpmqZ2xrqdfrY/bRt9BKx1NE0t1sdN72yuYrOTqCOjn2JqTAQWTAS22267mjHTc1MSAQggvimJQCKQCCQCicBgCPQN8bV2yqYU8ToK61as97JOBUmMNT2DZaQfzyO+NgRB3BFfG2/Y5ISnIolvP5bY2Nlk7ZdBD8TXwIe1WcS6OdPzrLuKdWNjZ0VqTgQWHARs5pSSCCQCiUAikAgkAolArwj0DfG106KNFey0aWdOG1DwhNmYYaIKso7whAx03inJ2zfU7qgRNr8XPAQMeiC8sZmLHKrrZjc0zy14Oc8cJQKJQCKQCCQCiUAikAgkAuOLQN8QX++i4/GyfT8iYCfN2E0zdiDkBeYZix0SkWMeNDuA2s3PRgd2KhTOf2ERDVOn6XDOLpFeS8ALK560YsdCOxzaGINOYe2MaMdFcengqUVkEXRp0G3HxZhq53rslEgn3c31Z3SxPdYfxQ6S9EnPzorC+O1c5M9/56VFr7QjHdVHvNj5sV2dpGHHR/kVD0am2cJGvJBIz0CD6/TFTo8817GDqPwI6zvSZV9b4BRp02kQAJ7iwEneSBA++uzYakdTR0wFpkOZ0NecxkaHWQJ2nbSxDZuEi7TgJY/iKW94KQ+/hVEOUT/YIZzyjx065claMbphTrfdQ+VBGHrMRjCIEeVPr3BsEQeG0mCrKc08vuqcKe/sk6Yj6pnfygc28s0GOpp4sDUlEUgEEoFEIBFIBBKBRCARSARGhsDbGcvI4o9aaO+eQ3y8W3LjjTeuRA1RQYAQLy91Ny30wAMPnEOWrJ+1M+wRRxxRyYH/4iMlyIL33G2xxRb1vXriSkN406kRmqlTp9b3HyKFyO6NN95Y/vCHP1TigdR4HQIdxPspTb1Gdn0jUkgXD7X38yFu1ihffPHFVT9i5d2GyBASRLy8/uabby6bb755fXefl8Z7dyPb6PUyeu/fQ4SEveqqqyrhRhZd23333asu66C9KxDxQygNFniPo9dNNQWR8mqEH//4xxUzYZEuYpqgd/mxE1EzzVzeYYOYb7TRRvW9fjyS8soWpI6d0kWEBzoebO/u7DZFF3Gjz/sI2aAsrWPdYYcdKqHzHkr6jj322JoeDLxbcaeddqo7csarGJBNmErvs5/9bM0vrL2ewa6un/jEJ6qt0uJRRfLlyasNvO9ROZtiTrc8KQ8EVBhYSw/BlA5bvbrLIIf0vddwyy23rOTz+uuvL5dddlnNr7KhE3n17ku4q0PKRR1SD5BdNriu/M8+++yqW9mqg8rCefY69w//8A+VRCtX+UCAo46qw+pASiKQCCQCiUAikAgkAolAIpAIzB0CfUN8p02bVi644ILy05/+tJI0RA8BRuoQuMHENSQCubr88ssrCRaP9w5hRpxdRzYQusMPP7z+v/baa8tZZ51VN8/ihUNsvQ8OEUJ4eaCRHS95RzjpQqq9YB6ZQUxOPPHESgiRQ15AZA7pRtCQIi+ZR9KaEvYiPOz1PlLkDxFDKH0jxOJ6uf1+++1XSRkyRRDAn/zkJ5W0HXLIIdXbeN5555UrOy+vR+yl2xTpBZn1vkuDBPIqbzyocEYaTTWXN+QUET755JPLhRdeWD72sY9VDBHDO+64oxxzzDHlgAMOqDq/+c1v1rLi9URsQ6SJGJ522mnl0EMPrQMA8KMTwd5rr70q8TeYgfjDHHZwZE+QXvqUDWJ9zTXXlPvuu6+ujaYLwbRO2uCD38rGgAIyixT/7ne/q/YfdNBBtf4YVLG2du+99646kWkYi0+P+OIg0nCEN1zli04kVRkj68KQc845p25eRgebYbTtttuWT33qU7W+qTvypwy/8IUvlO985ztlvfXWq4MpvMnqJjKN7NKvbGEemBmMUZ/C+10TzY9EIBFIBBKBRCARSAQSgUQgERgxAn3zikuE4DOf+Uz54he/WMkPUsKjh9S0yeNguTSVF6H0bYooYsebx/uGnCB1pp66hiQhwnfffXclF0gPwjPQ8WJKz47S/iN7BPlgI2LGm2yKLlJOEB5kiy4eYGTN9NdNNtmkekgRwbYgOtJBoJF05Jw+uiM8vfLD88dbKR+8gUgTcs8LiJghbjyxptN2E95IHl76/Q6CbLAAyeWF5tlEPGHCfgSOHXfddVclZdJhgzwJAyeEVHx5aAq7bdjkOm8oLNhnh26eYCTUeTbxsCLezu2xxx5vI+70rr322tVm5JTQwWaedmWpjsBI+cKU/cqKDVF32G8XWOXKHt/IKnx5eIU14CGuspamskB24Q4LBN8sAYML0pMHnmoE1TmYsYH4r/7FgIV6qIzpNrgRZDa+a6TOh3TYhNwrXzrgnZIIjBcC7iH1Ud10aF/dE72KsOKIOy/ChpGkOy9pdYvbzEc3HJyL9qZb/Pa5bjqaYegaCW70sbGJEcxGYlMz/fydCCQCiUAikAgsaAj0jccXAXAgVNb2Ikm8mLxhCM5Q4sGOzPGUIVG8aEieabjIHJJJN/IRgvwgNjx4sbYXgeIdFZ4gdM2NqMRHWkL8FpZXDtnzjewhOM4H2Ynw8c1eBGvfffetHsPjjz++khzEDPlCMJEpU2/jGsIFB/Yhfueff/4cW4Rli3x0E7Y07Q6sdZB0jOg0LRspDjFQQJAw8UNHYEiH8N06e3AwHRwpPuWUUyoedMETIWQvQS55YX/5y1/WacnIcTcRRvmabo0c2/QMxsgtu5Th9A7pl3//CRuUXfz33cyffMgDDODJ224aNE8/ER7phYPzRPgoc9fVoWbHEgk2YGMARBzYqGNtcb4t6gQSz8N+6623lv/4j/+o94Hp6Mh04N6Ol/8TgbFEwH1kar8ZF2Z7uHdN29c+m6nRbFcGs8PO9u6l3XbbrbaPg4Ub6rx7+4QTTqgDdAbMDDzNT3E/m61iNo7njLatjYO1+Wa6DPe8Cru1F9o+A5meVdqTpkhPW6ft19YNJwYyPTO0Zx/96Edre3vcccfVGUoGSnspq+HSyOuJQCKQCCQCicBERuDvTLBPcoFc8MTxqPJ26RwQRKNNGJyL87xiOkSILhLKO2hKrw4SktQWRENHhVdNXMSCF9haWTZIi+62t61pg+tEeJ0W/3UUQ7qlG9fEQc6lz15kydRn6z2tDdWxRPZ0GHmdTbs1ICA/CKJOJ2KHuEmX/YMRx0gzvoV3yAs72BAbgEWY8OJKL/Ic3xFmsG+2IHy8FYgqbMSFh86X9Ij1xqYvW0etY83rjGiyrSnimxKug2iK9vQOyYWRNOiTno6dKel+S4sO8fwfSoSFAdxhrtMaOtgbeAvnaErY6duAC++4MtIxRsYRhqi/4kX8iNfU5Tdibj3vwMBAnfaMAMuv86a9pyQC8xsBdRbJMwCmrXFPaWfi3uvFHu05MjbcvTiULveidKU/VLs6lI55uQYHbaL9DgbDwawVg3O9El/toxkhZhtp97R/zcE56WlHms+UofJAXwzACucZhwzHINxQcfNaIpAIJAKJQCKwMCDwdkY4DrlGfk4//fRyZcfDi+h5UBtZN9ptOiliwhvGixheTSPrrusUIBI6Z7x1iIc4OlvC8si5jtjRTcRBjHWgEGVheTzp0MHhteWNlK4pzL0I4oSIIkCEZwSZ03HpRnTkkf06PKYqm3rrHHvZipQjevLCHl5ZnT6dKjbp4BgcYKcOoTyxdyQir/JOJ4IlDUIX7zdbeJ+FG4mwh5eSF1WHN/CEt86Zzh3Sa3oxAmuKMBwQf2XQTQwC0MkLYnq0ODEoQQcbYR5pmdqsvgxnu+s68UivOgeP0MEWGJCh9ChfeVXf1D9loi5EfRNfGPmmEyY6pW1xfnqH1CtXRJddOr9skBd1ttf62Nad/xOBuUEAWVV3g2xq58xUseShVzGYaKM57dncivvZxobS1Q6OhzRx8Dxq4qB90NZrl0ciBtYsn/n5z39e732kOkR6ccS54b7b4dv/h4uf1xOBRCARSAQSgQUZgaHdYfMp5zyAOjM8ZnfeeWclGTpaprjaWAhh4NGz+ZTNf3S+Yi2mjgNBeqx/NXqOKCARPMAIFc8bQmNE/tRTT60dFB0VGx3FdNidd965kj3k20F0bhAQYXVIggTVi50PJC4OZMmOxQikjbTYp6MnXzofBNmhhz66eHnZHPby9iFOyA5vH5IjrjTYZ5owm3hI7SAMLx1CaZgKhzy3JdJqEi2/6WSL+DwNPJPybZMr2IunwypfrkX4pv7Iu7BNUV7IPHKK/NtITDrO86rTJ9/i6RArT55hgx/SY4/yaoowPOTIMWKo3KIzDndrfpU9/OVPnYKJNBwwbmLgXNiPYKorcLfBmrDqlfNsIYGZeCHOhd6BjpdW/brooouqfcpKWRrUEYetBjFMhT7jjDMq0d5qq63m2EanOmvgRB7oNQBh6rt8w8tghDIxEyIlEZgbBNQxu5prE3kv1VN1StsRA2fhhUTi3Hf2RQhxz6iH6rs2mS6DPtpqA3kGJA1IqdvuZcRZmy6e9o1oH7Vv2mz3qfPim72BPApPl3vAIJLr7kftiPuB/umdASJeaPegOAaGhHHdYCYxkOh+cw9K33VpyI/72gBdW+g1w0YbJTyiLZ9t0XbCQRujPdL+mGEk/yd3NvHTftlMULs3lGgT6ZAHba9nRrcBAvYbLGSb51aQf+VogM0AZbSHg6WnPRHfs8Nvg4naY+2JesF+tihTaWljXVcO2iQDe66rL/IVz7XB0svziUAikAgkAolAvyEw6csdGcooHQudAN/InAf1aIuODILq28PUt86+Do9OhQc6EoL0IRFsMPVVGN/COBdExG/ESyfIA9qDXifIg17HR6eEh8/ravwn9OsEEp0anR4dN3roE46NzkUcdklbp1EHToclOgOwMpLvmw7XhZcHnTzfRAeEPp0P5CsInY6OwzX6rf+lQ0eSDdKRXx0gcWER9lfFf/uQJjzDBqfFlT92SE8HEDbSgy/bYK/DJ+8EjsIgc5FHunVMpR+Y1MB/C09/6IS5fAx0Osw62NLRifKfHp3R+IZje1qkNNnAbp1WaQpPnGOzMNKTX3bqDIojnDz67xoRFp5slJ7fsBCf+M8+emBAh+vORV6dk65z7GGzc5FXRJce5RVh6VJm6oX6JKy8D3RwYKu6p6MpDXrVYfkzCwAREZa+BUFidgeM3H/DCQx0vpVl3D/Dxcnrb0UAhmZNuP/UV1Nhte/qojJAegxWOa+Oqp/imA2C8KjHdpUX1v1k8M7u7GYyqNvuK3ENUqrTwtlB3WwcMzOQVTu4S1s50qf81WtE2CvpkF513n1Cn3vWvXHSSSfVuu+eRJ4NgklLuycc0ildbTv9iDLSyy75YKt8IMZ0xH0cCCHw1sjKi/qFDKqjdLERNtLTNkovcDA4ini77jmj3WSzdGIwIdJoftvF3ewV2BsoMKPD/a+dlXfkE170SN9Ap/0rdtxxx3qdLoRUvrQ/0pRfOtjIfhiZ0SO/wtFJ4G6Aw4HcC2vfCPmTX4cyc125EM8q+uWJjUPlrUbIj0RgjBHwrHSPqM/uI98piUAikAgMhUBfeHwZiHw4hhIdLcdgovMwmCA0CINO0WCCxDq6CRLTlvZ0P508ntmm8GiGIFmOELZ0s0eH0NRrRzfRKUKSHUOJzpkOkw2SmtINax0nRzdhDxLfFh3hoQQe8R7kdrh2WelETZs2rR3sLf91cK3j7SY66Y5uwmvlFUpNaZc1rHQOHd3EwIEjxANW588RIk/tfDXrE/va9QNGBm9CeFgcbUEE1P3wZrWv5/9EoBcEEBptkLZFO2JQ8OSOh1I7pC6bNTG94/W0OZL6jvQgRE1xr4S4b7WtBuEQMm0F4vrtb3+7kiw6g0gJi2Qjp5/+9KcrIdNxRRaRUEsfkDNLGmz2JLwlH8JIU5jo2PpGULVZ9juQLhIoL8itgUDE16wTbRDiLB/IMQIeA2CRD99XXnllJYDShpG8I/WOo48+uhm0/maTAQSkGtFkq7yZkj0SgY/nC5JtjbB7HZaR19DlPwza+IvfDhtxmt/wlHdtiPBItEGJffbZp+JDj0GO2ITMAAUMDUrwXht4MyWbp1sb1R44aKaVvxOBRCARSAQSgX5EoG+I71iCo1PmMBKekghMRATCk83rnJIIzC0CBlp4JE3L5z3nxUPYePwQG8TQQFEM8iBZBoNMke0miB/SaXaCb4J0IrwIKK9mEDVtsMErA5AIovQNBsWMCB5NnlYeSiSNIF2EnqZI1wAeOyNdJNj9IR/SClIapNC3A5Fui/uL95X31hRw6bEBPjxKw4lni0OaI5WIg+wadPAmAziwabREGkGuecthII+84aZZG6BTTgbhDJYSZRUzAVyDh7rAExw2j5Z9qScRSAQSgUQgEZgfCCwUxFcHyYO+2yj//AA500gE5hUBXrCURGBeEEAGeVx5Vn07CAKEEPK8Ijc8jiOVJhHym/cQEZRmiP9IMY+oKcX2a0BseWTNKOFhFa9XT6J0mvqlg6A5Lz+8sEie/CDHpiP77jYzxPMB+TddOfIS35YbzA9hs/W7J554Yp1uzm54jJbwpvPGw8Ggg/KX7xiYkE4MGPjtfBz+E/+bYd48m5+JQCKQCCQCicDEQGD0nqp9nF8bZKUkAolAIrAwI4Dg2iSNZ/PYY4+tXkXeTIQIKeXh4wEMj2l4R5GkIIHd8EOEEKiQIFUIo8HGZlzEmlfRtH3eVO/4RYJ5fXkTrSllUywhQEbZNlKRjmnO3rVrSi8vpsEjNslXW2KtvSngu+yySyXI7JYv6Tfz0I7rf5BHYeHBW4vAm44tLv1sGk54rA0MeL+vXeZjYy020wczBwIvLb+lN5zIxznnnFNxPfjggyseprXDPyURSAQSgUQgEVhYEHh7D2BhyXnmMxFIBBKBhQgBZAyRRAIRNbuY20Xct//WwdqszjpPBBkBNvXWzshNYtuETDyeYtOahTdN2AZVvJWmDSNrQRqRN9Oq7eiMHDsQN9N6kUJeX7qkTZ+w1iBLvxdy17QLKUR4TeH1Xu3DDz+8eoCtax5sCrHd4U31NjBgkED6pl/bdGo4kU+DBvJkN/7YOZkNl1xySU/TpSMNZNdgLWxNK/ZNP+84/aads40322ZVUX4Rv9u3eDAxjV05yydiDf/hJMpvuHB5PRFIBBKBRCAR6HcEFgqPb78XQtqXCCQCicBYI2DJh02JfvrTn5b//M//rB5W62l5GRErwkuKGJ533nnV68gza2M4r/lCwBy8uEgeQYp4H53/7ne/W4kvb+1hhx1Wd3EXBqk1ZVcYBBpx49FExKwNtnES2xA7G0tZ4/qd73ynemalb3M+pJmO8Na2/0uH/gjjNxJvgybkk70IH8/y1KlTu24caI0twm7X63PPPbfqsi42NuiLNOkmTRx4dHmUkfT//u//rp5aG2RZS82mbgMHYW83TzAbbXZlajIRlj5Yee2RQ3oDnZ2zDWYoB2HoaupTruxGeG2855VF8IU7++mI/LBT3Pgf+Q19oZ/OCFONy49EIBFIBBKBRGCCILBI54E55G4cOkFGwH3rBOgYpCQCiUAiMK8I8FjxEOrQD7abdjMN6y+tT+TFa+6E3QyTv4dGQDvOo+sb0UHYTMe16RVvKM8qr2tM0XVOGB5DU6ERHpshIZGIk/fX8vAiVXaGRmaRTF5l+glPcBBk33Qha4R+aSNZBEGUdngiXQ9izcvpt3OuWxMc9kVcacUz6hvf+Eadtowcslu6l156afWQfulLX6rptT/olT77xKGfPuQvzofHvIlDM33YiidfPMeE3YFHPdH5EI5N8IJxm0xGekGwYadseHj9lga7mr/F8Z+NytL9FWULL+k5L032CCttemDnnPSUh/DwCPvEc87BSx9lFvnJ70RgfiPgXrBRnnprx/L2PTa/7cn0EoFEoP8RSI9v/5dRWpgIJAKJwKggoGPIu9oURCcEmUH0gjzG+dhd2f/m77jOCzjYjuNIWFOQpsGEHgS7mzQ3pUK8HU0RV96QOQMkSCfCGa8UQ+66EcymDmTS0U3auLRxiPSbcYfKq7IY6rpyaZYNYtw+10zLbyQ3RFk2y0TeHYNJ25Y2xvQNl/5guvN8IpAIJAKJQCLQDwgk8e2HUkgbEoFEIBGYgAjwAvJc+u4nQbZjaq+pzkHo11hjja7vTu8n29OWRCARSAQSgUQgERgbBPqa+Nok5Iorrii777579TK0p4KNDSSpdV4QMBXPpik2T7E2j5dlPERH3DS9pofD1MSrrrqqeN+n3VvbHqPxsDPTTAQmMgKmEVuX657qF/Gc4J21Ntf0eFN4Ce+vdb/hAe4Xe9OORCARSAQSgUQgEZg/CPQ18bW5x+WXX143XLE5RxLf+VMp5iUVZPO+++4rt99+e9ltt93GjfgiudYf2h01pjeqPzabQXh5gFISgURg3hAwlbY5nXbetI1u7H62bXRzmtoSgUQgEUgEEoFEoBcE+rr3j6hYB4WkJFHppTjHPwwPr2O8N5mwvu/aa6+tXt8YMLF2cI899qg729qwJSURSAQSgUQgEUgEEoFEIBFIBBYOBPrG43v33XfXqWgILq+cjUMQFodpq3busyMlb51XUsTOmorJ9NqHHnqoXhffJh3C+G13Thud2G0UIeNFtvmJqXleuxFiN1HvjrQLputIkjDiPPDAA9WrQS+ddHnNBC/0qquuWnciFc/UbNd4GO1S29ytVDrWwj311FN10xWbhNilVLo2ZLGzrbToMTVPWvQTOxdO77xPU55M1xMmXmEBE/k3tU9+mpubyLf0Ysqv6/QGEazKOx90eV8kLykb2CNfNnlhHx1PPvlkzRu7TRdUDqHniSeeeAvGMOpF2BV4i+M3jGxiA3ubxcifXWiJa2yErTDskrZdRtnlvHKD62233VbLw3tKm3UlypY+4aQprdiABxbewbnuuutWrOFO6Fc/2ARHefffLqowVX6DbYpTFeRHIpAIJAKJQCKQCCQCiUAikAiMGwJ9Q3zPOOOMSrZMTzNFdeONNy5bb711JVsI3J133lnJGRJs7dY222xTyQri4XVL1113XSUhkEQYd9111zLQWX/G83f++efXa/4jscgU8nbggQdW0iIOHTfddFMlM0iYTVCkgWh676V1xt5x6RrCdsopp5Ttttuu7L333jWOV3pYT4YQSZ+N3pHYJIEI6jXXXFNuvfXW6nVE1hFxJJ8tiK13XCJt0pYeQbB++MMflk984hNVp/jW0SK5SB/yx8O6xRZb1OnF4jhnfTTsYIS4TZs2rXhvZ9Mbi9gieldeeWUlgkj7hhtuWPNmLRzid/3111c9SKE0lYv3gSJ6yKe8Kx+kEAGUVi8i79bcKg/kU1qILfx4ZtlhEES5GFBQ9rAwhdpvWCLskb8tt9yybLbZZvUcby/bvLeSXUQcdh599NFVv8EU+d5nn33qml+kGMn+n//5n/LP//zP9fVd3l+q3OhVLsg3u9QL5W2wwyCAd516nYuBg5REIBFIBBKBRCARSAQSgUQgEegvBPqG+CIMyKeNUv7xH/+xeu6QCsQOydt///0rIUJEED8eSWSERw/x2mmnncoHP/jB6i31rsYzzzyzHHnkkZWoIVPIqvCHHHJI4V0+/fTTy4033ljjIU5nn312JS6f//znazoIsrQJ28K7GcWHACFjhH133XVX+eQnP1nWW2+9St5cb5Je4ejgveVpRHL322+/GvaEE06o5JK3UhxHMz2/mzb4j6zuuOOOFRdEVn4R3SCkF198cfXWInm8o/KDACJ3TUE6raNGPD/+8Y9XQicsMoc0//a3v63E8rOf/Wx9nyPieM4555SBziACYvyLX/yiYn7ooYfWwQpk/txzz20mMehv+UCmpYPoK3ue5e9973u1bAyCwAKWCLqBhH333bd6t6WhXA877LDqgeWBN/ihnBFjefUez8985jPVg02Pcv7KV75S02RUG9cwVFpIMhGPTTBEhg3K/PjHP655/dSnPlWvH3/88dVeAxi9vI820snvRCARSAQSgUQgEUgEEoFEIBGYPwj0Nid1PtiCaPCYeQUFbywSiKTxHiJ4vIDI3wYbbFDJDU8ukmMjJeSE9xWRMWWVtxB5Q8KQGCSIB/k973lPDWtqKoKC0CBViDT9PKYxxZoNiFabKHaDIgglbyS7eE0RJfa2ha10I3ri8Ryus846lcQhgfLQi9DBewsn05wRbrqQamQWqZ86deocjzaijahKsynS47lFyBFQcWNKNDLJK7vJJptU3GDpGh2ws3MzAi5t+BI2SKtXgQeslA299KsDSK00XDcAwdOsHgjLjt/97nc1TQQdoeVplhde47b0imk7nv/qpfyod+wzQGAq+Pve9776X/quswmGKYlAIpAIJAKJQCKQCCQCiUAi0H8I9I3HFzRIbrdpsshPkBfkAxlFSKyFNQ011mfSEUQOIUSeXHcu4gtDH1LKY0uXacHII8Ia0gwf5wb79mocYkowbygCbwo0EteN/DZ1+81jy85eSHbYIJ58hEjHfwQMeaWvSb6baUYc37DjTect5sm06RPiiWQicqYSI+Q8nYSN0qKfR155NdcVS2ewtKqC1keEjbz4zyYEFuFVLs7FdemzCyHn6f/9738/R6PzURZzTo7CD2lH+r6VV3NzLHioj46URCARSAQSgUQgEUgEEoFEIBHoPwT6ivgGCeoFJgQI4QrvYzMOL661mggUj1w3Qhlp+ebl5b1E8NoSpIvOwQTJth6XBxYhMz3417/+dV232yTlg8Vvnkes2Du3JEp8ZJEXFwZN8ttMJ34Lz4v5kY98pE4R5sFFgnk16eFJlTce2cARJggvjyyi7QiJMPF/br6tzWW/NNr6pG2AwjVTmnliEdEIp7x7FbocQ5VtL7roSEkEEoFEIBFIBBKBRCARSAQSgf5F4O8uw/61satliA6SY/ddnlveVmTRtFdrVnlbbVDV9Mx1U4T4Iay8vqY8m6pMrAO+4YYbKgFDbE2pRpCQY2tJeTvFJQhg7EQdazyRwSBjNVCPH6Zh81zST5BX3lZe3F71IazWMyPg4hHTvpFaXvCm8KraUAvRtG4aUZYO+01hNrhg7bUBhiDD9957b1UBX1PEYRP2/uUvfym33HJLJZTKw/RvG1jJRzeBKZsMGBBT1JUlMg7LbgMAbDVV3FRsYuDCAIMylE+ibBBiek3/7qbHtGz5mt7xLsuzsmerOpRktsKYH4lAIpAIJAKJQCKQCCQCicACgUDfeHxj194mqshIbCAV551DloLIfOADH6iXkCXrPhEWZNcuyYgZ4tcML3BbL8JnV14E0MZKPIrOWbeK2Fkre8kll5Rvfetb9TwvY9OTa8o1wnTRRRfVtBCqnXfeuXpMw+74lh/2NEVewsb111+/rh9lC0JmXS4Sh3SGRHj5CIlz9EtffmL6sjDyhCy61hTxkHb4IcF0GghAeqVt7TTibVdppB/J5AUWj1277LJLHQg46aSTKlYIq/WvdkwWxrrhX/3qV5VQG0BoS0wTFsYAgvKTvh2a2dzMV8RFfG2EZQDC1HLTrhFYa21jqrO07L582mmn1bSVByLN5iC11lYLbwdoZF5+6aA/wkifBNa+o6zCHpg7Ikycz+9EIBFIBBKBRCARSAQSgUQgEegPBPqG+NqtFylremgRkWOOOaaSviAiiJXdkHl0CQKKJPFM8hwiUnYD3mijjepvU2K9rqa5DtVva1jplB4yhBSKZ8qz89K2gZTrCLAwpuCKi1DxqiLHRDw28CyKyzbEMWyugTofCNX222//lk2QEDZTiXlY5UUYu1PLJw8kwots2mgL4ZQ/xJJ9jpB4xQ6yz9M50Nl1edq0aZXUhm75ca0p8kcfT7PNwsKLzvMrz3CUZ6/uQYzZyA52EtjAGG5sk74wsRlUkE26ugmMlLt10cJKH3YwJfKItEZ6ztElrAEJa5DhJB/SDkxgpp7wAIvrP90HHXTQnHKTLxuaKUuDF8IYeFAmocdrsYi4RHkccMABNS35Jcqelzji1JP5kQgkAolAIpAIJAKJQCKQCCQCfYPAIh0v1d/dhl3M4t0y1dW3dZ5IQkoi0AsCvKCIqVc9IfeIZVNMj77sssuqV/7Tn/5081L+XggQ4GV/+umn60CKgYzhxOCLGQQGGHjrUxKBRCARSAQWXgQsCzO7zIC+Afz2wP7Ci0zmPBFIBAZDoLsbbrDQeT4RGCECpkdvvfXW9bVL7ajGXJBjgyqOlEQgEUgEEoFEIBFIBBKBRCARSATGAoG3znsdixRS50KLgKnApkoPJqYP89xZo9ueFj5YnDyfCCQCiUAikAgkAolAIpAIJAKJwEgRSOI7UsQy/KghYF3xTjvtNGr6UlEikAgkAolAIpAIJAKJQCKQCCQC3RDIqc7dUMlziUAikAgkAolAIpAIJAKJQCKQCCQCCwwCSXwXmKLMjCQCiUAikAgkAolAIpAIJAKJQCKQCHRDIIlvN1TyXCKQCCQCiUAikAgkAolAIpAIJAKJwAKDQBLfBaYoMyOJQCKQCCQCiUAikAgkAolAIpAIJALdEEji2w2VPJcIJAKJQCKQCCQCiUAikAgkAolAIrDAINA3xNc7XR988MHy2GOPjQq43g97zz33lOeff35U9KWSRCARSAQSgUQgEUgEEoFEIBFIBBKBiYlA3xDfZ555pvzxj38cFeKLRD/++OPl9ttvT+I7MetlWp0IJAKJQCKQCCQCiUAikAgkAonAqCHQV8T3ySefLK+99to8Z26RRRapxBeZTkkEEoFEIBFIBBKBRCARSAQSgUQgEVi4EZjcD9m/++67y0033VQeeOCB8uqrr5bZs2eX1VZbray//vqVCP/pT38qTz31VOHJXXHFFcuGG25YllxyyWq66dEI88DAQLnrrrtq3GWXXbbcdttt5ZFHHinXX399/V5nnXXK6quvXl5++eXy5z//uTz33HNl0qRJZZVVVikbbbRR/U0hr/Niiy1WlllmmRrO91ZbbdUPMKUNiUAikAgkAolAIpAIJAKJQCKQCCQCc4FAXxBfBHX69OmV3PL4vvHGG4XXdq211qpE9IYbbqiE1vlFF120vPTSS2WzzTar5PSOO+4ol1xySdl7773r1Gaked11160k+oUXXij33ntvJbvLL798ecc73lFuueWWSorpckyZMqWS63e/+91l8cUXL1dccUV58cUXy6abblroRsCT+M5FzcooiUAikAgkAolAIpAIJAKJQCKQCPQJAn1BfHfaaadKaK3J3WabbeYQTZtTnXfeeWXatGllxx13rB7fa665ppJT+E2dOrV6am1g9cQTT5RDDz20eoJXWGGFcuGFF9bNsvbZZ5/C20uuuuqqIv6ee+5Ztthii0qIL7/88nLOOeeUo48+uhLmyZMnl4cffrgS62OOOWaOZ7kqyI9EIBFIBBKBRCARSAQSgUQgEUgEEoEJh0DfrPHlfTWV2TeZOXNm9dqamhwEFylFgk2Hvu+++2pYcUxX3n777auHeOWVV67xnW/q48W9//776zRmpJcsvfTSZddddy2PPvpoeeihh+o56a+33npl6623Lu9617sKEp2SCCQCiUAikAgkAolAIpAIJAKJQCIwcRHoG+LbhhDxNVXZel3TnptiyrIpzaY8E4TYWtyhBPGdNWvW28KJu9xyy9Xpza5Ly/TnWEM8lM68lggkAvMXAevyHSmJQCKQCCQCCzcC+mueB+0+4sKNSuY+EUgEhkKgL6Y6M7DdcC2xxBKVkD799NN1Da4Np4j385ra/M53vrOu2eXV7UWQZYTWlOgQcZFd+pBf151jS9jT9BpnhzuQy+9EYP4j4F605n6NNdaYMzNk/luRKSYCiUAikAj0AwL6iTYntU9M9Nn6wa60IRFIBPoXgb4hvhowJPSVV14pM2bMqN7cgc5OzaYu//rXvy4777xz9ez+5je/qd7YDTbYYEhUeWx5hHmGn3322bqG2G7QdoG21ne77baraV166aVl7bXXLmuuuWbVF8Q3lNNhx2l2mRaNHKckAonA+CBg8MlAlfs4OzrjUwaZaiKQCCQC/YCAfqOlbvks6IfSSBsSgYmBQN8QX68usouyTalikytrcW1YZaflb3/72xVR63I//OEPl4033rj+R1QdTbHz83vf+95y6623lp/85Cd1cysbaG2++eaVAF933XV1kyvhrOGVBi8SCX2hE3H2miXrgOlI4ttEOn8nAvMfAbM37NyekggkAolAIrDwIhDTnJP4Lrx1IHOeCIwUgb4hvgjoHnvsUcmp1wqZymz9LS8tssnLg4xa8+s1R0FAt9xyy9oJ1hkO0QiKf/DBB9f39SLL/ovjNUXSsuY3iC99fpN99923fscaX+nxNvP4Gl1MSQQSgfFBwH3tfd7ah9jEbnwsyVQTgUQgEUgExhsBswQ5Jjgowlkx3jZl+olAItDfCPQN8UU8eV3D8xqwGdEbyruz6qqrFkdbkGa7M7cFoUWmBxPTq5uik20qdEoikAiMLwKIrwEoO70n8R3fssjUE4FEIBEYbwS84eO5556rg6HjbUumnwgkAhMDgb7d1XliwJdWJgKJwPxCIEf05xfSmU4ikAgkAv2PgMHQmK3X/9amhYlAItAPCCTx7YdSSBsSgUQgEUgEEoFEIBFIBBKBRCARSATGDIEkvmMGbSpOBBKBRCARSAQSgUQgEUgEEoFEIBHoBwSS+PZDKaQNiUAikAgkAolAIpAIJAKJQCKQCCQCY4ZAEt8xgzYVJwKJQCKQCCQCiUAikAgkAolAIpAI9AMCSXz7oRTShkQgEUgEEoFEIBFIBBKBRCARSAQSgTFDIInvmEGbihOBRCARSAQSgUQgEUgEEoFEIBFIBPoBgSS+/VAKaUMikAgkAolAIpAIJAKJQCKQCCQCicCYITB5zDSPUPEvfvGLMnPmzPLBD36wrLXWWnNiv/HGG+XRRx8tp556ajnyyCPLu971ruLdbdOnTy+LLbZYWWONNeaEzR8jQ+Dll1+uOK6zzjpl6aWXrri2Ndxwww3lD3/4QznooIPK5MmTyznnnFOWX375sttuuxUvjz/zzDPL+9///rLtttu2o85ioMc8AABAAElEQVT3/6+88kpRX+SFqE/XX399+eMf/1g+9rGPlRVWWGGebHrqqafKNddcU1544YVyxBFHVDzaCv/v//6vpgfTrbbaqn15rv57f+1DDz1UXn/99TIwMDBXOha2SLNmziiPPfDn8tQj95XXX3utr7M/ebHFy0rvXKesuub6Zcml39HXtqZxiUAikAgkAolAIpAITFQE+ob4Pv744+Wll14qyEtTdPoRGORlxowZcy7dcsst5R3veEcS3zmIjPzHc889V6699tryzne+cw5ZbGsR5v777y+zZ8+uRE95ILy+nTMAsfbaa7ejjcv/m266qSDze+6555z0J02aVJZaaqlReck9Uh15n5NA64c6bKBmueWWa12Z+7/PPvtsueuuu2o+kvj2huPsmS+X5558uDz96APlr50oi/QWbb6HYtuiiy5aXnzuqTJp8mJlzfU3me82ZIKJQCKQCCQCiUAikAgsDAj0DfHV+UNSeHOb0u0/z9cTTzwxKmSmmdbC9vu1jicMqe2Ge2ABf9cJT+qHP/zhivuSSy5ZByJcU3b9ILyis2bNmmPKEkssUT7wgQ+UjTbaaFBiPydwDz+Q2R122KGGDEza0QKP0cSEh/npp58uU6ZMaSeX/wdBgOd0yhJLdwZo3iiLTuqbZu5t1kZr98pLz5dZr7z0tut5IhFIBBKBRCARSAQSgURgdBDo3x7hIPl7+OGHy2233Vb+/Oc/V/KLmK222mp1inQ7yoMPPljuu+++Yooqr9/GG29cTEElPJYIhWm8Tz75ZJ02zZu23nrrlWWWWeYtqnjxrrzyyjp19U9/+lPhgVt//fWrp/Sxxx4rf/nLX6o3FMHaYIMN5ui/4447Cht4rHlV3/ve99bpttKmQ9oIDdvok/7iiy9e7r777po/8VZdddWy4YYbltVXX70gqrfffnt55JFHqrfVNO/3vOc91fP9FoMbf2699dY6TZankg7hTVVGeC+++OKq68ILL6zE0DTzVVZZZVAiK32eeaR3pZVWqqnAHz48ksoE8WPvu9/97jlWGKSAm7yanu46nE2dds50alOlf//739cy2WmnnarHVJx77rmn5lt64pnq3hY2wcUB2/PPP79OeRZOGsqTfr9NVfYfibz33nsrUVYnNttss4q9OGYdKDtEmsBZ2vKtzjz//PO1zkXezUYQVjmKCwPXlJ888BRvuummNX36TL9GymGEqKvTBnN40HmL5UF66oT6K7xvdY1HGwYIfcrgCExebEpZfImlqrd38FB9dKVTX+aHX9oMjt/+9re1vhnEmiiDKe4P96u2duutty4rrrhiHxVempIIJAKJQCKQCCQCEwGBCUd8ETikEcFAHnTkll122bdhHWQM6UUuENAXX3yxdvSQUL9/9atfVeKFqOgAIhwIVpv4IjtnnXVWJTN0IVrICgKJ7JiCjdwhP6Zf0+E30uMamx944IH6m8cQIbrxxhsrUZQHOoVHsBBSRFC+6Eag6ERIXaOTPnH893vLLbesWDRB0FFErJFJgnDCTXgkzzcM4Ch/wjsHg27CDmERR7asueaa1Tbx5I2tbIY3rP2XH+euuOKKmnd6kWfnpPW+972vDjqcccYZNX2EHl7yBh/kU3i20+v6tGnT6iACe0KEQUaVOXLrN7LpvHKRz0022aQSVwMYvLGIKDsMerBXPLjIz69//etavrBQL+ji7TUIYSBBfjfffPO3hGWL+qBsHexDUk3JZ4cBB2kQ08uFRbhhj4gYADBoAmO/77zzzvLRj3604iEMXAyKyNu8rlWuRiwEH4PV5YUg64NmURtw7rnn1kEWA0wThfhqL66++urym9/8prbP22yzTW0XBs1oXkgEEoFEIBFIBBKBRKCFwIQjvgMdryiyyDPGK7bffvu1svSmNxd5QhB4B3zzyiE91oHutdde1Xtw3XXXlY9//ON1cyZEhUehW0fQNeQYodl7770rOTz++OOrhxE52WKLLepvGz8ha9tvv30lKDzMvHriIs42PuLpRKQQKNc/8pGPVPsRX2kjq88880zZddddKzGUpv8IGWLH04dEkZNPPrkSJCQ0PNnO6/AjdTyfbEEWkUdkkmfWQAE9sEOkDzvssJ7IFByQt/BoSotdxAZXPMryKF1YH3LIITWfvJWHHnroHGL385//vNx88801f0goPAwm7LHHHtU2ZYcsWzu8//77146u8uOhphfmbAhBsHXikVjTsY8++uh6CeFE1B0h7EcuBzr1CPnlRWUv8skjr17pXLPlQx/6UCWbBjmCREmXDjaLy051AsaIqf9wJlFvIm7TBjpcl39ljJzbDEs5Su+rX/1q9fyrB+ILr76wKSURmFsE1Dltgfo7kcQ94DDrwswI7Y58pCQCiUAikAgkAolAItArAn1DfBGA6Nw0jXcuOmlBdhCa5vlmeL917nhdkSAeMp5R3jdp+I9kIIBIKRIpPDG1dDBBPBAl5IYdPHbhiRUHmVx55ZWrfmF5D6WDHOmkSdvBe8dzyGvK+8IjyFaHjpzziC6yKB2k3TWkGLkUH0mmky1Iorw1BT7IEy8pfUglvNjFc+Ia4hs4xnfg0NQ13G8289wivYQ33YAEYs82HmfEVGeV3fIkDvKJnBPe4e22267u5g0j5NE5eIf3fd11161e28suu6zuMB11oSrofMBDPYm64ry8Oi/vIa43p6RLx9Rhdgpv4MFAgjzBl7Cf8MSGwMyUe/lthlUnwuYIO9Q329RTNsXghan7bECIeXojX/KSkgiMBgJzc6+PRrpzq8O9aNBHO6PtMviZkggkAolAIpAIJAKJwEgQ6BviizAgfDr6TdHpRxCRJaP9vUpMdeaB5MVDahwIK9KCLI6EoEi3Sap0HJGvZgfS7yApSB3yZ70usi09JBbRQbR4nS+//PJy3nnn1U4corzjjjvWg12mw5ryjFhZe6uzh3ghaNa9yp8DiW7aEHZKE9E1bRdpDvKHPPE6j6aEbjqlKT1E13llh8DBA6l1Dka8ucrDf/YjoCHIPT3KPETHF0GU53klgNJ0EGlHuTknbba0iXXYEXHkQVhToNk6NxI2iNv+HVg19bbLuXktfycCo4WAe1d75f5U59x7BvaiTrqn3R/qvQEs57Vt7gmDfeIT7YC2TNgYoKMv/otPr2vaCPe1OO6/5r1PlzSQXvdbtBWRljjSpod+7QRi7HcMHskLHc67Lq14rngmCCs+nZFfceHgP/3y5bdnleeUvLtvQ+dQbYY8pCQCiUAikAgkAonA+CIwdz32MbBZp8Z0VustefqIzggC57x3+0ZnyHkdjiALOjHNTof/CB8izUvAWzi989odnkQdGB0l3lnndGbCe+A3PU1dI80q23SITjrppOpRNi1Xx4qn0lTqsFn6phhL0/Rr0215n3UEeXZNn+YtvuSSS2rcgc7U3B/+8Id1bekxxxxTBwF++ctf1jWsoTNsZT9Pr47lwQcfXL2Hrsk7bIKosdXhvGNu8i1tAwkhiCmCzmtJn3JF3pF6G9IIzwbpKgdl1BbhTcEOj7DroRfRj3rQjEcfCSzkZ6SiYyxtAxbNAZjoNIc+aQgrP7zYOsgh8hZpsynIQdMuYfwPmyPucN+h17f0UxKB0UZAXTeTQftpxoh72EyEfffdtw7YqbsnnnhiJbrucctF3DOf+9znantlIM9afGKAzQZaA522ywybiy66qJ6nT5uuXfR+cL9tTKfd0Fbvvvvuc5Zz1AidD+2kpQ7a0c9//vN1Ro1N+ayFt0SBXfSwd+rUqWXa35Ye2BiOjWa9aOctffEOcnn7+te/Xtvof/qnf6pk2iCp98V7/mg3tQPyIx/0G3A0E8M7wS2fMFtHWy88nTFjI2zO70QgEUgEEoFEIBHoLwT6pvfMq6nTY62lzoZOhk6NzpJzOhZIIdGB0RExOh+bEzVhRSqM5vMQC4sk6Ojo/BB6rJc0nVjnhR5E56qrrqrktKlrbn4jJkhrTFFG3qXNe8AWtplSy8NAkCNeCN86X8i//AU55OFALm3UhPgJRwedOl5tAuW6DpqDhxiBFAYG9EfHVCcR+WRreMVHml92GUBgCwJIv92dbT5Dt46mTq3ydB02sWv1YGnxfrNXB9y0bDjRqz7o1HYjfdJS7spSB9ruryMVuBl0kBdrkOnR4Yah//AKEdZU+emdvMsf76940mUDYRNPmPKkS/7pifINXUN9y5N6HPXdAABMUuY/AuYIdIqjvNH5aB7OubYgiLb2lFNOqW2VNtf9axAK2TVI5b7UVrqf3efquE3ZtMP/+7//W+8Bs1kOPPDAusTkggsuqPXVPSu+NtfAlTX57hkbbRkQ1F4gkNpFA5TazLZoa9xbMdCmLbHRHFLNE0yne/TMM8+sNtNr3wXt5+GHH173TeCtRe7dV75Dl7Sc00ZHu+ycthIBRmp32WWX2gb97Gc/q3ZIz8wVmDlSEoFEIBFIBBKBRKC/Eegbj68O1QEHHFC9BzYH4gV1jsfw2GOPrZ0i08wIQmldpV0+dW6sD9UxEZ7oZOmwIc0nnHBC9czpVImjs0V0WHhceQN0zhAUO//yQnQTOkN/t+vNc+xE0HgoeGwRUHp5rXWuHDpsl156ae1kIeI2U0JqkUL5QkSlx04dScRY5/Dss8+u0+2c5zXWcdMBbIvwNnmSxve///3aydPpoyM2x5JnuOjo8l5Kh/dEZ7ZXideK8L5M75BAeeHd5bGGAxLLRgMMvNp0WwPs9UIhbWwRPZth6UzqcIsvr2xX1k0CGjp0fA1mwPy4446rO13DkzTLze/m/4jvmx3q1lFHHVU9Ol/72tcq6YSXdJVbxBVWuaqz8qa+qoMwVc6Iqg63Hbd5hdVD2CDWrisL+gaTSEeYgY7HzH1gYMYAgEEiOlLmLwLPv/xqef7l2WXWa2+Uv/7tllNOSyy2aHnH0ouV5ZZarFM/5q9No5magTF12aCOje+0hwbW3I+nn356JYDaVXnWjmqz3JOIovqvnrt31HnkVhvG42qgxr3gnuAd5j2m12CQnfWPPPLI2h7YYwGZRqIN1rmn29K+Z2IAipcYkRXnW9/6Vt1kMHZJN+BkyrW2TXi2GDjsJvRHGr4NnNKz884714ErmxcaCPvXf/3Xio/72B4SCLJBsnhGddOd5xKBRCARSAQSgURgfBHoG+ILBp0TBAPR0IkgOinIVbtDYQqzjpnOCVIZREEcpAS5cl6nDFEKQht6dWjsojvQIRU6YTpEwiAnbUG6/u3f/q122ugmOm8k9CImpu3p8NFtN16vvEFKw/MsPOLn4C2I6/4jXNHJkh6bpIXAyr/f0dGkJ3RG58y5psCDTl4bJJMdbGOvdAiSZkqfTqb8Cy9MU4Iou0an8MJKn93INdvo5wlyrpmGtOQTzuHxVs7RqUXgv/SlL70FW+k7ryyQPLrpoVd9GEx0ys0a0MGmX1hlzDMb5WSaOBsDA2HsfI2Qypc8ItCmcfKuypvOrfiu6QCrUxHW66mEV6/oope9rhNlyfvFg6UesgsecIaDOFGXIl/iwtU1YdigPhlM8DvyEuHze2wRwGUfeHJGeeqFv5He1njFop0AT784u6y6/JTyzhWWKJOcmIBiRonDfed+VZfV09iJ3mCdgTIijIEl9wbCjPhpRwxumY5M1HnXtAvaMW0VfdoOom67b+hyji5pGuhCYnsR90O0Re5rg1FEujy0nhNmWXzve9+rbYxBOfdsr0I/m9yL7n/5YJv/7lN58GxyTruTkggkAolAIpAIJAL9i0BfEV8w6Vg4hhMEIshTt7A6I7Ebb7frOjE6NNFR6hYmzumsIVRNCW9inNPpQpZChrMPkXS0RYfK0U0QVcdIBPFydBMdt6Gui9PORzOPiBzCP5zomEZntx3W+Ta2wuhwDoZRW0f81wl1NKVtf7tOxKBIk0yqO4PlKzzckcZw9VU+hsPYeuymqJttO+em7Js68/fcI/D4c7PKE8/PLq/M7qzN7qhp01or3F/tkJ5Hn5lZpnS8vyss09n5fQKQX3W/KeqydgwZ5SUNQVyRVvdWDOhoEyO+b22pA7FUd51T9wlPLq8ooSdEPXeMphisIsi0e9+rxgw0Te/MRrEu1ywg52Mgiz1hp+9e7BEu8tEMH+dGMz+pKxFIBBKBRCARSARGD4G+I76jl7XUlAgkAonA3COAo82Y9Xp57NmZZearb3rzutG0ODfz1TfKI5X8TirLLtnfTSuvqrWryC7C5jAN2Wwb77HmteUZtabWRlfCmWET4Zuo8tSKZ2kCr68d6IUzZdksj26e0EhzXsgi0kk/Us0bjaBfeeWV1TRLLHicTbe2i76BI2vxTaVGjg1cIsDW5Fs+gLSz3/TrIMLNPA72e17sH0xnnk8EEoFEIBFIBBKBsUGgv3tnY5Pn1JoIJAKJwLAI2MDqqRc678nukN83OiQ4CO5QEV+Y8VpnHfCrdd3v4pM7nsGhAo/DNUTNtFzkz8ZP4cF17ogjjqhTg5FdZNB0Yeet591nn33qlGfh6TCd30F4d72Hes8996zTim1YJZy4vL8DAwNz4jSzHPGDPPoO3XEuwjfPN69Jh532UkC02WqKs+UNSKxpzvZx4KG2RMHSCbYi5rEPg80Uzcrg0Tbbhl2RHu+3QQLiHBIf/+Nc5KMGyo9EIBFIBBKBRCAR6FsEkvj2bdGkYYlAIjCeCHR4Tnn2pdl1B+deSG/Y+vyMVzvTnRcri3emPfcb8+WdtU697YlF5iw74B21sZVNrhBKpNZGatb6mwYtHMKI1DaXapha7NVFphDbtVw4aVn/Lpzw9jVAOAnCau2wDfV4mnlZpR9r+nljmyI8wmrqciy3QEQRVf95cNlqYy1r4ZFYhNSGVrzBCKw9AHiCpSfutGnTap7sxm4Jg7QtO5AHRBkW1tbHchg22AvAdQeRN+uIm9PAm3bn70QgEUgEEoFEIBHoHwQW6XQAhnRK6MB4P6Jv09mi49I/WUhLEoFEYCIiYEd2XjnEAskYTkxp9eotxKWXd6bee8f15e7bru0Qorkb33v19TfKzfc8V157fcgm8m1mLzVlUtlg9aXLcp2dnoduXf8e9fXXXysbbrZ9WX+Tv+92/ver+asbAj/96U/r1OZ4fVK3MHkuEUgEFlwEDOCZnWJQyls7fKckAolAIjAUAm/uPjJUiLyWCCQCicBCikBz86JeIbBf09zE61V/hnsTAWO2jpxqnDUiEUgEEoFEIBFIBHpBIIlvLyhlmEQgEVjoEOjsOVwmz8XuzJMn2a14oYNrvmfYVGref9OsUxKBRCARSAQSgUQgERgOgZwXMhxCeT0RSAQWSgSQ12WXmlxmv/ZGed3uVj0Ivrv0lMllsUk5ptgDXPMUxHpfG2qNZBfmeUowIycCiUAikAgkAonAhEYge2c9FJ/pdNY4x2s5TK3zP6bYtXf67EFlBkkEEoE+R2DRDvN95/JTOiS2d/etDa1WXLazsdXkRXpe39vnMPSteTazar5PuG8NTcMSgUQgEUgEEoFEoC8QSOLbQzF4RYaNVLzP0rsi77jjjvKjH/2o3HnnnfW1IOeff3456aST6u8e1GWQRCARmAAI8Pgus8TkssbKS5YpHUI7nM/XFOe1V1myE2exXOM7Aco3TUwEEoFEIBFIBBKBhQuBnOrcQ3nz7D7zzDN1R2u/Z86cWf/75nGw07V3RHq1RkoikAgsOAgs2lnju8o7plTi+8ATr5QXX3nzna5zXurbYcMIsp2cB1ZdqrxjqcUKApySCCQCiUAikAgkAolAItBfCCTx7bE8rCOLnVp9+28KtHdbbrvttnXqc6416xHMDJYITCAEENnlO68mWnz1RctzL79aZszqLHP4m/sXMV66Q3qXXXJyPaKNmEDZS1MTgUQgEUgEEoFEIBFYKBDoK+L75z//udx2223lxRdfLMstt1x573vfWw8E8+GHHy633nprefTRR8uSSy5Z39n27ne/u3pZn3/++eKdoNbdvvrqq+XBBx+s3947vMkmm5RXXnmlxrX759Zbbz2nYE1h/sUvflE+/OEPV6+ttOmZPXt2WXvttcsHPvCBstJKK80J3/4Rndz77ruvPPnkk1UPG9h60003FfrZuummm5b111+/LLHEEm0V+T8RSAT6HAH+W7s7ey/vUktMKi/PfL3MfvWNjqu3FJs+Lz550bJY50CCSae5SkkEEoFEIBFIBBKBRCAR6DME+maN7x//+Mdyww03FC8kX3HFFStMjz32WN1QCpG8+OKLy3PPPVdfXeEl5ddee2357W9/WwmuKcdI64UXXlgJqCnHCLD/Xm5uExTk9Prrr69rdClHbv/0pz8V6cZvpHrxxRevh3W8V1xxxbDFhZRb68sW8tJLL5WLLrqoIOPLLLNMfaE64i2NlEQgEZg4CJjC7Jgx+/Xy1AuzyyPPvFIefWZm5/es8sxLs8szL86u5x9+ema5/4kZ5aGnXikvvfJ6zaB4/SgGFbVVf/jDH+pAYT/a2M0mS0wef/zx+hzwPIiNBbuF7edzjzzySLnxxhvLX/7yl57MNHiqrG655Zaewo9GIM/Kyy+/vDzwwANz1HmueT72k3j2wtMyo4VB5NM9YJB9JKL/4Z6BV0oikAgkAgs7An3h8dWge9Aiih/5yEfKyiuvXL20TzzxRF1Py3tqje1HP/rRMjAwUEntT37yk9oh8J93WEeInve///1l3XXXrST53//936sH933ve1/1uP7+978vvMo8uR4GOiA8wMsvv3x59tln63lxyVlnnVVuv/326sUdrpKE51c4enVSjj766LLjjjtWu3QaTIlOSQQSgYmDwCuz3igvzHi1PN85Xp75Wue1Rn+trzZ6o0sHsr7ztzMlGvFdfunJ1Ts8ZfFJc5YC90uuEamrr766rLrqqsWMGYOIE0F02g0mXnfddWXNNdcs73rXuyaC2W+zEQGRB7OZ4lnztkCNE8rL88SzbYsttmhcGbufZkx5NnpPsplP0p4+fXolXauvvvrYJTxCzd6mcNVVV5Vp06bV9zmPMPqEC64/ZEbaKqusUo9eMmDAXXmK553XnAApiUAikAgszAj0hceXZ/epp54q66yzTiW9CsQUYf95c3llN9988zkPNxtK6QT4vueee+raW8RSR8KDmiCzOkemHiOeG220USXIyC95+umn64j2ZpttVqcgI8ce9LzAd911VyWwHhI6HiMRdmy44YZVt4cyfYhxEt+RoJhhE4HxQwCvfalDdHl473ns5fLYs7M6m1p1pjd33udLvOaofXRO1Xf9PvH8rPKXx2cUXuCXOhthdSPJ45ezUtsiZHeiEN7Ayv4JyPpuu+1W1lprrZqPuDaRvj1TYN8rAfHsmN/l5RmKTBpgIJ6f999/fx0c7iesY6aXNy0sDMLTy8M9knsXRsqO4yD3IFkYaknmMRFIBIZDoC+G+z24NOaIbFt4cl1vX0OMCQ9reFyFbU7nifNGhtdYY41KqhFfDwLk1ggocqwTglwb1UbCpWdkHlkNHW27BvvP+/yxj32sjurzYtOx3XbbVaKOWKckAolA/yKAqCKsD3emND/dmd5MkNpeRdjXOjtfPfrszEqUV19xic5Oz5MrUe5Vx3iH4yUyA8ayE+2ptpaXKdpgg4bRieaF1X5qR7WV4plObcDRkhOzdywf0U5rV+mj33/XV1tttToIKQ4xYKmdbHfu6bZ7vsHQGEQ07VPa7EMKIk0EOeIjbWzitXRO+ywNhEB85C7Cyq/8SJ9tfrNTen4LBwe6DIhaTmOW0gorrFDz2K3chIEXO+BAT/uZAg/2Swuu9qJgY+DdTa+BYph55rHP8iA2+9/MB8JDD7ul3xTlQY/8uAYbeVcmMPVbGNOyH3rooWqbadCuCRN1IHRKV3ryo1zgQqcyh5fyiee5bzZH2SkPdqovzgVG4ik/OMonneqBc2Zvsc+UbOHtx8Hm4cSSKQd76IQ1zMlQZcFmmCtLNvoddYDd6kfkNWy2r0dTP3tdk1/4uQajwFJfhWdXuKjzcJImry3iG+UTeqOORZyo485P7/Rp4KOMOQninjNtHVbCEmHVTZjoF7FDPGk5r2zVoQhfI+VHIpAIJAITEIG+IL4aV+Jh5MGhwdfwaow9TJBW03VMY44NomLNirji9CIbbLBB7exYu6ujsf3221f9Ohynn3562XLLLcvhhx9eH6y/+tWv6prjXvQ2w3iAeQgeeuih9aDH+mMP5Y033rg+0DzgIx/NuPk7EUgExg8BrciLM14r9z85ozPF+W+vLZoHc6wLfq3TWV5zpSXL8sss3nfTnrtlTcdXB9s6YG0sIqDDO63jAdR+absuvfTS2m7q/FuGgox88pOfrG2bwT6dbZ1wbfMuu+xSbDIY02d1wLXXyBSCavlKzIwRx2aE0tLmNwXpQCC/9rWvlS984Qt1mvbPf/7zShjMBvrNb35TSZypuJbLDAwM1OimFdsU0bMFSbUD/4c+9KHaqf/ud79bvvzlL1cC5plz9913l0suuaTstNNO9Vlz5ZVX1v0b2KQNF8ZGiMgi0uUZEnkUpi2eYQZUYYlEBMlphoOHJTXXXHNN1YeA8mhPnTq14tYM6zfspMtOOCsfZMTg6lZbbVWvs9Vzhw7lA+cDDzywlmPoQ2SsHZZHBM7zyfPvgx/8YJ2ldNlll9WyU8beXx/E18AwbD3fms8wz2r7YsAbsVNPzKLaY489Krk0dRoG8kcHMuX5a3aUPTEMQnjWK3tlRDe77OWh/Dyj4aesHdJiIyJ4wQUX1PD7779/xSDy2O1bup7/9uWAPVK5zTbbVKyGKgszxpBV+4Sor7B2n6gLiOIBBxxQB2XoV972K1E2BoTohy2MlAfcxTM4YONLZUeHew9G9jNBfvUleN/33nvvcvPNN9f8qlPuAzrUY/FjjxFkFu76OTvssENNH0bqCVFvDPQccsgh5fjjjy+77rpr2XnnnWs6BiyUs7L7/Oc/X4nu17/+9TqIT797Qzz1IyURSAQSgYmMQF8QXw8f6800+h5y1j9pxP33gPHQsOZWGA8gD23rnoz8CuuB0oto9D1IdBo8ZE2X9q2x16Fgh//SNbLtwdWL6BA5iAc0r7KHPl3+63A5bLQlf/IhXymJQCLQHwi4fV/ueHp5akeD9MoVnc+99FqZtMjMznuAJ9V3/fZHbge3wkwYHXcE8qijjqrkQGf/1FNPLf/yL/8yx7Or477eeusVZANJ1VZqV5GDz372s7Vt1kb/7ne/qx1rnjXkRufe/gcIEMKCeNnxfq+99qqdaxsSIjht4stibbR0kGCizUUs2fG5z32uPheQ8nPOOad85jOfqf91/HffffdKErTz4mqXfbN1MKGbtxFJQ6QReOQNEfMcgY3nzoknnlhJqzwgiSFsRYJOOeWUShYOO+yw+gwwMOAZEM8LAwKwRZyCHLEfCUGMwhMZej376ESoPv3pT1evnfJxIIrslDdpe4YiK8qyrQdpQ86kiWzKi+cessV2oqwMdrBDORngQKDZDsOmIFeedfvss09dcuRZ55nNTntqEOcQLTriWSiNPffcs5JygxdInzQRX/XDgAVsPOeRL3bAGZnksYTdscceWwl0055uv+Fy5pln1vwZ4FZm8gwrMlRZwGWgQ/gNziDb8IS/OvSDH/ygEn72qPP6DuozbNUhhBNhdW8pf/XJQAkCa4ACkTYARO8ZZ5xR8//xj3+83iMGMaRNn3Khw2ACPIj70H4ncHdfCXvaaafVdfxwVv7uS/ebwQrEWHmym01RD6uy1oeyYZs6ZYmBAZSURCARSAQmOgKL9ksGNNw6MOeee275cmcU3muGNNKm5vD0evgZFf/KV75STjjhhPoQ8gDxMPZA0Ji3H8b+Ox+Nu5FxD2IPVcSTftd4aG1y5SH01a9+tT6ckGojpyQe9KHLw4Vu38RDhZ3Ew8TD9Fvf+lbV5beR2XU76489pHhRdF5SEoFEoH8QMGw1c3ZnKuMoeHrbuXp51uvl2c4u0NLod0FIdNZ5dpBVnXlto/YQYYvplEgEcqpt5hHmMTLgF946baZr2jzk0X86DDwiYgYCBzpEQhxEEpHgGdbGitOLaGu10dpyurXjBjPlwdRQzwVheM+QQgObbCVB7oZKR/vOVl419iJkiDYvJXLumvwE0WzqQiTlTb54KHlU4clGmBI28Vyavi2MNDzPPC/Yb3+IeMYIj4h4fiCZvLnyQifvHp1IknhBaDwf4eNaUw9dhN2eRQ7PMGF9t0WZiO/wzGw/Z4X37Oa5lBdl7VkrrwY7pOMce5W5svIcVgbyIl04wVl4pEx94lVXNwx2y5PygzfyR1/YFc/ibnmMvEhLPUSeY7NL1+j3H/ntpSykyztr40r5UA/k2T2D+LNB2Stb/+ULwWa/wQl5kSab6YER/JFjWKj7iCbdsHYPyTeJ/Pp28FCrY+ohIqwP4jCwzg51hQ6/HVF28tBr/XfvI+n6L+pnSiKQCCQCEx2Btw7bjmNuNPSmmOnEeFBqpI3saqSDqGrcjfhrxDXwMcLu4YE4i+eBEGJU3v8gpc7rXH3xi1+sOiMsfUY0dSY8EDz8nSPi+n3EEUfUh5U0PSg96F1jnxFYDzsiH2yhjz10efgRDxEPd/lJSQQSgf5BoLMst8x67fUys/N+3s4tPWpCF528yK+v+Ne+XuurveJhI9rUEOTKlF6dc51tbZ6Ou/N+E4SLx4rHleeOuKZTr/3Trvofba7f2sFmm02fthZJ6FXY4VlBxEXy6EQ8EJKDDz64EsLjjjuukk+kApnoVdgbeWQf28JOOqRtMKBtMxsQLWTPMyGEjfQ5YAlTpLhJOBEi+mImkrjCI76IIX3x7HONTkSTLl7EOAcL+HQTBIyNBpO/8Y1v1PJFoD3b5kbghGghd/bQQProNzgSJIudUf5BwuKa/MFVHIfBCtd4penz23l65T/i9Wqr8LCTRpPAsYn0UhbSZ6c4UV7++6289AEM/Mgju3lL1UEDGcrUdHF1XjkFDuopjJxT3sqRjSGDlZ/r6oN7ju082aETRuqHehl9j9A30m+km82B00jjZ/hEIBFIBPoNge5PxXGyEpFsktSmGR4GzQdC85oGv1sDbzS2LR5SzU5dXPcwbXZQ4nx8N3V5EDhC2g9SHY5uMlT+uoXPc4lAIjD2CKBuszrk1OuL3uxQv0nmRitlOu0IPavjUV5yyt8H5kZL/2jp0bnVYeZ14sGKNo/9CDESpyPuvw5/U7TN2j3rBnktXY9De2saaTdp62n/7xZnsHOICc+dbwRCW88DbJDSeesrERL5klf5QB5Chks7rvuO3xGXrqa4rr1HaJrXIp5zsPTMQVabYQwiCKcsmuE952CsLOSxKUiOc4M9e5ph/fb84sFGyHhXecnNsrK+eDCSE7a0dfmP5CGoCDXPL5JpWvhQcdrXmv89U/03SGEtsAFv/x1Ic5C8brZ0OyeecudNjkHqZrheyiLqTDOe33QTZajMDd7z8ip7Xvjzzz+/TsdWNjzWpn7Ln/KKe05+kFhEOPRVpV0+4rq4+j3quoF2v+l0HUbOK1sScZrqhHVI2/V2GP8HqwtNPfk7EUgEEoGJhEDfTHWeSKClrYlAIrDgIICy6Lsuv/RiZWC1pcrAqqN8dHS+c4UpnQ7mW8nieCKoU8tLFUcQQB12nWabFLmmY2xzGx443kCd6yZJizwgFa5b2hFTgHmJEc4gchF2qO9uupvhm9d1ypELthG/eRzNDEIokUEknkcVIfPNHiQKKUZE7HRLeKZtMsXr1iYANcAIP5AJWNLvgKM0DAAgNwSWbLXe1rReeVMO1lizD2Fv5hc5M03WQIL1xqHH1F/kWXhkpxlnMLPhwkOL+CLABjUMdijztgTJZD+Bt/w0xRRi8WMqLwLofy+2NPXEb3Y5eC/VR4Qx1n07p4ycj6ndCB775Mn0X8S7KcKrl/KJ5AchVGfUb/VluLJo57mp32/1EXlVx9hqynEMVCg7hNfgAD3KUZ6IcnT/OCdPyjbE9Ouo33REPYKr9NxzPMnqeug0CKWOKzdhHHDyLb/qGBzMSGArmd6ZZq0Mm3V/bssubM/vRCARSAT6EYG+8vj2I0BpUyKQCCz4CEzukNLlOsTXq4fGQnQoJ/XJMKNOsl1ikYMgNTq5lmzwsOk0IwM/+tGPKhHiIZs2bdqcjrqOs6PZMUYqbSLFq2qHfHGQN+TXIaw4TWKlEy9cU0+z491LOejMIzKm7AbBth+Ezr9OPRKBFCINCBOSh5SYHmpa6tVXX13XjCKMiCgva9jom81tYa+DrRGmmQfh4bpuZ10kssMGxBZh5XFEhugVBjnm0TTQgLSzk202b7IsBxEX1iE93vSDDjqolh+c6aAT6ZUfYQLXtt3N/7CwZhtuod9SI55IeVIu9BDTXZFGNqoT8DN9V/mGmNJLn82Z2IjARbkLEziFTnhJ1/mQwNR/ONhBG4m174f/kX/roZU7/cjxeeedV220cRbiC29r1F1vCi+3TaJctwGUvMoDAqq+DFcWbO2GbeSN/ci+ART4wpDN7h36zT5QJ+Go3jmnziHIhLed59Y9hPAi48oXKSZwV4/sRWKwxLIptpuiblMt97Q8yhMSjwiHl9kmbyeffHItR2VnjbJ0bIyFBEtLGbM7RPlEecW5/E4EEoFEYKIjMOnLHRkqExo+o4S+PbibD7uh4uW1RCARSASGQkCnXkdL50wHcDjRaURudFijMzhUnGefeLg88/iDtZM8VDjXdFAXXbSzdrVzTBqDg25pDCZ//esbZaXV1i4rrrrmYEFG7bwON3ICR4dOr2/kBVlAYnWgdegRQQTO/ge8eG/itGglHDYocp0gJgiSMOFtkgYPIJ068NLReY/dYaNTj3DEc4WesKOdYWnTQad0EBgEC5mVpvQQTZ1+xIgEgZMWcrjZZpvVuiM9HX46penZJi7b2KhOOh/e67BFuohKEwthkAy4htDrP4ykTZf02ICsSIe97EB4ggAqB5sJOeSVwJge6ciX7//f3nkGy1Wc+buFAgIJSSCBECJcEWQQOeecgwkmGpuwa9e6dre8W7V82U9b/29bu+sNBWa9xjbG2CSTo8k5iJwzAiGBhEASCigL9D9P41ccxjP3zpVumPB0aTQz53R4++kz5/av3+4+1Ju/yaQnP0QVnBFflEcbsmlUcAi74p3jxIUbbY39iG3K5xwDAeQLB+rBccriM/ZSl3LexMdO8iQN+cEJrryoPzaRZ7ALPvCGV7l9sYnfOPcF2pBAvqTneqSOxOEY6bCH6waxhvjkWsTOygD3uLajfWkTyqmnLUhDHtgQAVtgTz2oWwwkwIy8aRvK5BxCHUa0Hd+pD3bDjvLL52l/0pMv54hPnthAvbkOYEs9I0/K4XhHR0eOy3USdeMzcbGVF/xpQ/Jkwzbai2uS8gic5xjpYdyIgWuD2QvUg3YpX5ONaK82SUAC/U9gQHHD/PbipAqbuImzkyXvjEDHH+OKaH6VgAQk0C0CeC3wxtFJpmPfVWCaINPz6BzSWewqTHnt6fTuK08UneTe8eJ2VX53zn/55cq03S4Hpm122rc7ydo67qWXXpo75BdeeGEWBW0Nw8pnAtxTmBrMYApCyNDaBJjezowPBgOY9s27QQISkEBnBLxLdEbHcxKQgAQk0JAE8JrhiQpvaUMaqVF9SoABegbnFb19it3CJCABCTQNAYVv0zSVhkpAAhKQQBCIKZlMNTVIAAJMzTVIQAISkIAEahFQ+NYi43EJSEACEmhYAmzyZJCABCQgAQlIQAL1EmgY4ctOlkxdYwOGynUaLENm50pG9jnfqBst1As9llVX1iOm7sVxNm5g8xHqzOYWBI7BoVE2ccA+7KbNsIl2JMSmN/lLD/xHGVEWm3wQOMaLchuFR9muyus4G+1/EpCABCQgAQlIQAISkECfE2iQB2ykxHb7v/3tb/M2/pUUEL1XFFvxP/HEE/lZfZXnm+079WEnwhDA2M9nNvrhXIRXXnkl/fznP8+PPuAYopfHFhAPwdcIgTbhsRo8A3DmzJn5MRFXXXVVj5vGzuI33HBD+s1vfpM3WoMXj654+eWXVz+LsMcLXcMMeZYjj4Mx9DeBTvft62/jvlV+sadtMaD3rUN+kYAEJCABCUhAAhLoQQINI3wRdTyzDwE8bdq0b1URkcOzJ/H4lcXityI10Rfqd/vtt+dHs2A2dUIsUXd2rY3AIxl4NAePLCDACKHJI10aJdAm8cxCPJw8DoFdd3s64OXmkRns/otHHOHPsw7nzp3bMIMAUef3338/TZ48Ob763g8Eli1dlJYtWdQks0NWpfWGF4+NWX94P5CySAlIQAISkIAEJNAeBBpmqjNCZs8998zC784770znnXdefr5cNENM/43vzfyOiEf8Rp14xwM8b968b4k4nvHH8wnLU2bxqrKLaaNM7Y06IN7ZSfOII47oFdt4puOhhx6amx0RTHk8tqKST39fF+wqSjuWPff9bVM7lj94yNDUscOeabMJk1b/zhqZwzrrDFT4NnIDaZsEJCABCUhAAk1PoGGEL0KGh7LzKILp06enhx9+OJ100kk1ATOVNKb9Ior23nvvNGnSpDwNlumvPN8NDyneN8QZookHtZMv02bxoh5yyCHZg1gpIplC+8EHH+R0CJm3334727H77runXXfddfV6W7yNL730Up7WiueTh9rvu+++OU/E6b333pufUYoQwiYeRo8X94477sjC91e/+tVqUbtgwYJsF3F5YDwB+4m/3377ZS433nhj+uijj9If//jH/P2www5LO+20U64r06JfffXV7BnnIfWk4Z2640kmH9bfYgce2eOPPz4/oD4X9Of/Fi5cmB5//PH03nvv5SMdHR1pjz32WP1AewYn8Eg/9thj2Q5EJ8cQopSDJ5r88QAfe+yxOQ/a9dFHH80MEYNjx47NttV6Ditx8GrTvqTddtttsw0w4RgDBNT7mmuuyTME8DC/+eabeTfPvfba6y+8zbQL5XMdkDfPd6SNaH+EM1O04YzttPm4cePSCSeckOsBT9LzfEAGZbg+CVxbDz744OqZCXjl99lnn5zHk08+mfkQ55JLLklcm9///vdXt3POwP96nQBCcv3ho/Kr1wuzAAlIQAISkIAEJCCBhicw8P8VoTMrETYIRd4RC7HJUmdp1uQcDyFHMCEs2byIaawIVUQawuS5557LHkW8oLNmzUo8qH7dddfNwhKR8c4772TRMnTo0CxannrqqSw6eOQFYhJhiYglIJaYWoyIRCyXPaqcx6v67LPP5jWkeDFHjx6dRSPTVxFGpEckIn7IBxFHPMogHQIY2+67775cJ8QTwhDbSY/9pEOMM3UXARlTuXkcA+KMeiPGPvzww5yGeiDcEJYIN0Q0+REQitQfOxCWCFyOcT7EPgzgiJgkL86VBT9pENTUC8FMPsEI0YzoY20xghNeiGLqTF1oN+yhzrQT4hghSHkPPPBArgNlUncGCxjYIG5M4c6VKP5jsABRPXXq1Fx/bOR643pggy+mwtPu5A1ThCp2Tpw4MdtDfuQbgTiIYmykbNqRQQyOw5324jpB/NJmiNSYZg972hmbYvCEOs+fPz+3OwI82gl7iQcjfidwg9GBBx6Y67H55pvn9g+7fP+awOeff56vHbjFYE9nbGBPu3BN01aG3ifAb5jrn/sJvxn485vmfsV9q3wPqWUNvzHu77QzA5trErjHsDwEe1jyUHnPXpM8u5Mm7iXcg7iXcJ+s5AAb7jXYV0/gnsxAI/dE7vf8jSgH7lX8HeRvGtd8V4H8GIjlfsS9k78XN910U75/8vuqp626KsPzEmgkAtwP+FvMtU1/xGu8kVpHWyTQmAQaxuMLHkQZHVqEAp3ie+65J3sqKwUSnZ7tttsud8ToFCD6br755txBQ9xw8+OGiLdw5513zuLooYceyuLkxBNPzGKKjhxCj0dikEc50AFByCC6dtlll2wDHRoEEl5H7ENQIZzxuDK9lzScY6MnOh8HH3xw9oQiyrfffvssJul8YDueY+IifMs7FCPMEbUdhcAiEB9xhkcVEYaHGpvxblN/Ah0xOqaIXrysxKXjQ4eJc4hWygw7EHh0osodR+qKl5f6ffe7383CEobPP/98FqLPPPNMZkhHDCEOwyifPzoIWQIMKJ8XApBzDA6QJ/WiTOLSVnT4yKP8h4r2pwzSU0fEMh1euNCexOUc7QILBhkQ3HCsJpywh7oilMmLgHjHBry9iGnK5B1vcXTK8drCkranDr///e9ze1MO9X/66afThRdemAU3eZIeQY4I53rjMyLtsMIzbZBAMxPg3sBADuKVWST8rrlXcN/it1hPID3387V5xip2cJ/n7wMDTn0duAdxX2VmDfcK7keVHBgwZeCPGR71BAYP4Mq9mUEB6lVmyn3q9ddfzx16hHFXAeHNAAOC96CDDsoDfMxwYiCTQYvyPb+rvDwvAQlIQAISaEUC6zRapejgIF7333//LKRuu+22b21ghFBhxB1vAwIDkYKIRHzwh5+A4EHwkQ+BzhL5cj46bORBh4Pj1QKdBPLgRUB44h3Gm0nHgk4YoorOHOUR6FwghOmshHeZfOi0kD46HpyjHnSeeMcGOpS8Ih35cZzzESI+cYhLgAHlMx03Ok2MfDJFGREZjxfiHMepT6XXnvwQ8tiPMA4xSt2IjyDGw0FZCE06UhFggJe1bCfnyJOBAcrHIxt1Jy0DGXCkM1wO1APGtCXCmMEKpp2XvbgRP1jAgc/VAvnQmSRfRDKDHdQD22hDAiy4lhDO5IV4xTbqRaD+XDN0UklDJ57rCC8NAwKIYEQuafC4kEe0Z87A/yTQxAT43XI/4LfE74j72FFHHZXvN3yvJ3AvQojFvbSeNJVxGJw87rjj8v222v2gMn5vfOceGvexahyYGcUgZHdCcGX5C4Nx5fso3IN/PXnSHmUb+U7+5FNvW9VTjnEkIAEJSEACzUqgoTy+ZYhM1cLDhocTEYSY4I83L0bWEZ6IDcQrXlEEVvmPOx2I6ERwnA5BCLrIh/eIUy47PpfPxecQnEx9I5TL5DMdDWwhPt+joxR5lt85H+kj//L5zj5HOkQfNsV30vAZQYcdYW9ndlA2cSs7SNHpoq7wp6wQhGXbqtkeecK9MpAvNlJmORAXTzmeVzwreDwQ73iLEeSVIcot170cB7sR63RGEaqUhweXqYjlNJEPaTmOfXGM7xEXwQwDvjMYEMfhxqABHfvgXbbDzxJoFAL8jhmg4d7JbAoEJYNRDPzE/ZH7Kb89Bnq4n8VvgTrwnTTxuyYvBn7wWDKbgoEl4jDDgt8ZefKd+AhWyue3yD2c3xPH+O1EXMpEAMYj2zjOee5nlMu9gTwpl3s/tpGGconDgGYIbPJn4IwBNn6XnCctzxjHPr5XBvJldg95c56BMAbGKkNw4F5B+SyRYACW9Ow9wXnW/nO+s0B9mCXCfhAspTn66KOr3mOxn3pgW3kgke+0IzbG/ahWebAnPvdA2NDmsMUGzjGbBUFPHSiL45znHNcD908Gk7leuqpXLRs8LgEJSEACEuhPAp3/Ve5Hy+g44D2lU8Uuz/wR5o8/HZe77rord3iYcktHBxH8pz/9qW5ryx25WokoC5FDXDoUePkQUXgQo7OIKKNjFdNosZXOAyKNjl6tcqKDQv50QPhOvehgEKLMStuIx4t4pKVjRseEjmKUS5qwNdbIVuZT+R1bO4rp1WyCRYcTzzAhvJtM7aazSKcHbzadQhhgA50u7Ik6Rd50jLCNTiGeENJSR9LSqcKLWjmFnXqTHxtJMdWZztZ1112X1zVXm94YzGgrQiU32oM1yYcffng65phjcmeUadZ0/robyBsGsKHDyLVX7mAjsunEIxoItCuB+sPKIIFGIMDvj9kP3DP5rfPbZ2CJacyITK5fZjHE47gQfvz+uf4JzHy4onimOuvX2QSOASBmUrCcg/sQ90PuB4i+I488Ms+2ufvuu/Pv4Nxzz83nWBvLYBS/WwQz3uDYa4H7C0s0+I3yG2IJB4NhCLtf/vKX6fTTT89LF7CfeNjPvQYhT3xEIUsr+C1iG1OJOYf92M59iqUm3I8qhS/imVkc3Ne5h/I3iHphX2Xc4IBtLKVg7wVeiEaW6PD3intWVwIRu7iPsZEjm/Bxz2afi3I6bOb+wvIVPMP/8i//ku9BtAf2MrOGQeK4H3G8WmCwgfhM0ea+xCDmbrvtlu+PiNpbbrkl86MO/D2h/pyHJawRzNyzufcx8wf2BglIQAISkEAzEWgY4UsHIF4BkM4DU54RYIgy/vjTCeCPNMKJd/6YM9pOR4X0EcqfOVb5PeJVe6cMRB1/6KcW67roAITIPeWUU3KHgfWfHKOzgxiio0KnDXvoxJCmVpkIIV6kp7PCCDqdTkQfHT46hEzPxo5yHnxnRJ76EodOEh0zOnjYQT50UhDo2P3Xf/3XWawRl85VrYDt1IcOKeuTsR37WK8GBzq58KYjh2eCThAdW4QlnUriRMBeXnSKGJSgkxmdaGwnfzqorJOr7EySDk8vnVx44Bmic0ZnKzhE/sGCOPCgs01c7IxAXK4RmNCWdPbonIe9kVfkXU4Xn8vv1ImOOEKATbioA6xgQN7w4ZqlPAQE7UBnGo+OncQyST/3FwHuoVz/iFB+jwghhBqDVFynLB3BY8l0ZsQw1y+CiHtIBD7Hd67r+A2edtpp+b7Fb/yKQhyzxwL3Me498WJDOoT3X/3VX62+h2AP9yDEMMsbuG/8wz/8Q74/8HuNQSTKivsYn7nHYfdZZ52V64JwvP766/PvksFIBkgRaNjF/YTZQ9wHEOQI7spAeuxjoIxBV37XiHruedWeMAADbOMezsAatnFP/+d//ue/GAisLCu+c+/hHnLAAQdk27gHc/+gfO5x5cB36l0+HlzLx8pp4jPnGZSAF21LmQwWMyjBIGNwZSf7M844I/3gBz9It956a3q4WCPMfe5v/uZv8rXAkwVooxgMjfx9l4AEJCABCTQDgYYRvvyxx6PGH/ZywLvGBlR4DREVdBQQYnQQfvGLX+T1sx2FtxIvIX/MCQgqBFD8MeedvMueN+IisCJOuUzKID7Cjs4To9+s073gggtyR4o0dM4QwXgUeCwRHUqEz/nnn589vpEH9aosg84Ha3LZcROPCp4TNnpCvNLZoFPB44aiHuV6HVZsmMTUbzqKbKpFp4ROGR3W3/3ud9mrgTjjOch4P0hLveFayTbqTKcI0fijH/0oDzD85je/yZ0rOo10EvHGEKgfHhfKQvghfimLzjF15EVZ0VHlMxu9wJAOKeKQ+tKxxKtRLWAj8Wlv2NGudArhyXfaFXspC08VcfEKI9zxepSFL3ViEyziEJ/rhMEB7OM7ZdHO0WnkHa6kK7MqTwPlOjj77LPzDrN4oOj8UiemKNLJJx2dVgYjLrvssuwxgVM5v2r19pgE+oIAnk5EGgNFDLTx+2UGBp5gfp94UmPAEXu4B/G7wUtYLfC7RFRyP2OAit8Qv0V+E9w3Kzew4/fFb48BQu6D/KYRoRzn/sdvCA8qvzkC90ICA5vlQLmUgVjnncD9ChvwZPM75f5NGfH75Rz1xFtLOeVAfgwCUA/ygw1x+BvxyCOPVBW+5fTxmfrH/SSO1fNO/fl7wt80yqsmzOvJp1Yc6sffCu59MUOHetK+DAYweEu70F7RjhwjDu3LfZV0XC8MfMbAR63yPC4BCUhAAhJoRAINI3wRDvxxDpFXhkXH5e///u9z54jzdE74A80fYgQFr+hscB6xgzimU0XgDzkCLOLwjgBiyhidvGqBP+x4DU499dTsIaEMOgl0UCKQBx0DhCe2c444IXIok85EZZ3oUJxzzjk5X85jJ2l++MMf5o4JnzlGnnhNokzyZrdhhCOB7+RNp4TpZ3RoSVNpKwMHET9/qPIf9mtmZAAAQABJREFUTBDziLoQrpFPREckMrUPT1DUF/ujTD4zzZDvBPLENo6xMQ2BONhdLXCOjXDozMKf9NQv+FE/jgcPNt9iWnkcq8wXe7muEMQE6sMrbCd/vEEROEeeF1100epBkogTdSIuHWK8TMEJu6MNOY8X/p/+6Z+yXdheaRdxDBLoDwIIOjayY9osHkACs0y4hpniSsATXA78BjoLnI8X8ciLezZlMSAYgfs19zN+c4hMlrDwnYE/fscIVn4rIXpJV6tsfo+co6wIfObeEMKuoxDseHCZGcN9fmrhIca7jJitDNjKAB7eaGYYRWDGSIjvONZb79wrEb+//vWvs1cVm8v1W9tymYXCrCResGbAA47le1u5HbkfwjNs4Bz3M/iW06ytXaaXgAQkIAEJ9BWBb1RcX5VYo5wQqdVO8weXTkEE/hiH+Ilj5fdKocEfbkRQOfBHHc9eZ4E4eC15VQvkW+sc8SvLjDwiXWXaavHL9YQDdausH8fhV4thZTlhR+V72FV5PL7XKj/O817Nhs5sK6flc1noVp6rzLur66AeeyvZVMuzMg75Vh4r21otj/J5P0ugPwjgNWX5Ap5VBqO4/+H9RAAzeBRCC8/v2gREETM2ELX8TkIk8U4ZzOJgFgRCk6nEDxfTafEqMmUYcYZXdm0Dv0HqyPRmZsIgpvH+smY1BtLKZWAn9xe8oqzpJU7YXXm/Lafr6c8MADDbh1k98IEhgXsO92faKezqTtmkY9YNf2MYQIQ1nluWEHUVKLsc1qT8cno/S0ACEpCABPqLwDfD5f1lQQOWyx92Ogq8DBKQgARagQCCFkGKqMMLyswTphxznHse4pBjrKtlfTqBda6s0Y918ZUcEEWI59gwjnsmm2MxG4KlEWXhS1ymH+N5xavMjBqOkTdeRGbysF6Y54djE8eIy/fu3otJix2UcfLJJ+clGizb6Ci8wNUCohJBjicUGxGG2MhgQbColi6OIbSpC2IV25nmTb1YEoKwp171BAZbmVHDrBc88GxcRb60GdOfaT+82PCg7WIfAeJ0FhhQID71QlyTH1OcaTuDBCQgAQlIoF0INIzHt5GA01liam5fjvQ3Uv21RQISaD0CeFVZ98863ksuuSRP+WXNLyII4UfA44kYYt088ZkWzJp1Nn4qe/pCaHEMcYvYY68DxBp54bVkPSgBEcqLNHhzEdJ4GhGGpGUpAiKT8li3zzTs//3f/82zehDi2EQgfghgyiXP+M55jiG4OUZZeJcpi6m9zBjifs69nQ33wjbSRWDPBKZgI1TZ+Il6sJSFNcsEyovlDZEmOFBWRyGqEdsXX3xxLoclMGzWRxwGARCd5VCtDpzH83xYsZcDIjd2ycYWbGezR6aI0x6sY8Zrj03YRuA9Ppd5YB9LMPD2M5gQ653Jg3jluDmj4j84lvPjOMcqGUR83yUgAQlIQAKNTkDhW6WF6Ex0NQ26SjIPSUACEmhYAghc9kZgnwC8mjH9F9HJxlAEPMEIQMQRYgjhi+BCgOJxxCPJBncIwggcQ0iRlrWy5MdU5liewp4LiCXEF6KOdfx4VsmffBDj5EHA60qZeJ0JfGYvBYQfeyYgLvGu4rVk2i7lRuAz64eJT8Abypp97uWkZ70xm86xtpVdpSsDwpQdjrGJOCF8qReimQ35WO8b+VVygO2ZZ56Z2cKLurInAvnApDKwVwB7EFAudSoHWDP4iqeYvRcIxEdM4/GFJ2xgjDglD8pjb4sQvvBhd2ZEN/FoB+xn3TLxaQ+ELPmQluuCukW7kQ47wnbiMAgS8cv2+lkCEpCABCTQDAQGFJ2Pb54BVMVi/sAyYs47I8b8sTRIQAISWFsCCBMEEJ1x1l92FZg+ytRbvFTVPHZdpfd8zxNgGjIeUnZexxvZKIFpvP/+7/+ed6pH/BKYtsw6V8QkG9gZJCCB5ibADJK33norDxyxVKJyAKm5a6f1EpBAbxD49jBzb5RgnhKQgAQk0JIEYjos740SGMtlejFebKZNs04WrytTpfGa4o02SEACEpCABCTQfgQUvu3X5tZYAhKQQI8QYBosHlXWCjdKQPQylZcp23ikEb8Epuiyvlfh2ygtpR0SkIAEJCCBviWg8O1b3pYmAQlIoGUI8LideOROI1UK8cvaYV4GCUhAAhKQgAQkAIGWeZwRU+1Y78GuorFsmbVcHOvuNDzi81gKNjjp68COqmw8wwYkPR14pAV8mPJHoJ7sxro2gY1U4ASvvg6sO4/HnvR12ZYnAQlIQAISkIAEJCABCTQPgZYRvmxc8uCDD6bf/e53eWdRmoBHYnCsu+IO8XnHHXekyy+/vM9b8sknn0x//OMf09tvv93jZfOIjquvvjo/IoPMEdjPPvtstwcGyoaRB5zuvvvu8uFe/8zgxvTp0/PjObDBIAEJSEACEpCABCQgAQlIoBaBlhG+CCG8j3gBI8RzH8MDHMfreSefcl71pOmJOFGH7nqp6ymbx2KwG248roKdT9mRNR5/UU8elXFgC+e1yaMyz3q+w4fdxhW99dAyjgQkIAEJSEACEpCABNqbgGt826j9eUYlgpHnOyLqmaLMsy3XZGCgv7FhM8/65HmZBglIQAISkIAEJCABCUhAAp0RaBjhe+WVV+adODfYYIO8EyfTjXku29FHH52F2gcffJDuueeedOqpp6bx48fnOuHx4xlu2223Xero6KhZTzY6QeC9+uqr6amnnspeQnYhPeSQQ/KOpAMHDvyLtDz+gvXBzz33XGL6MVOpw57wmM6aNStPFX7zzTezoGSTF3YS5ZEZCMtLL7007bPPPvm5kZSNHfvuu29+5uW6666bvaQ8aoPp2NOmTUtjx45NgwcPTthD+Z999ll65ZVXcjw8quxOetBBB6U99tgjP8+UukydOjU/u2633XbL+Q4ZMiS9//776ZFHHkl77rlnmjx5cho6dGg68cQT0wsvvJDXDu+8886ZG3Eo/2c/+1ki3Y9+9KPELq3lQHoYH3PMMYmp0h9//HF+jupJJ52U8CBTJ2xFRD/66KPpmWeeyUKasg8//PB8HpHKORjgoeW5rQceeGDeFId1xy+++GKenk7d+Yx91JNntlJHpjQj1qk3bca1cdlll2WPL6xJM2nSpLTrrrvmNMTvKK4HbN9yyy3TCSeckN54440cb+bMmat3fHV313JL+1kCEpCABCQgAQlIQAKtS6BhpjojwBA5rMc97LDDEkIOUYfoREQiQhG/S5YsWd0abKg0Y8aMLKYQYLUCwuzDDz/McRFVRx55ZBan119/fUJ4VQsITaYCI+gOPvjgtN9++2XhhnjEBjaJeuCBB3Ic7CUO3tS77rorvyP23nvvvWz/8OHDs3BEjCHWX3rppVzknDlz0lVXXZWFKQIfUUw6hB02s8EV4g8O1JVHcTBVGUFMOYhV0iGuEXQPF9OW4UBchB6iHeEHy5EjR+b6I1wR3QwW8OIRH+Rx1FFHrZ4CXeZBPWkX8kJYEo9w3333ZUGPnUx1Jl/Khi2PN0EAI9oZcMAW2g/hetxxx2U+jz/+ePbYwpn6IPzx4DK4QHrqTNsjeBGu1B0WTzzxRBb6hx56aLZ9woQJic8IbTgzGEEbTZkyJe20005p++23z23I9YU4ZgAAFqxtfuedd8pV9bMEJCABCUhAAhKQgAQk0KIEGsbji2jCC4sXDrGGwEN04eXEy8d5PKG8R+Azwqt8LM6V3xGTPNcRAbjZZpvlfDbddNMsohBbI0aMyMfKafiMQEIoExcxioDDm4qA4jOieK+99kpMISYgam+++eZsNyIMe/GKIsDGjBmTvalsAoXgwpbI49xzz00dhSgmINApC5upF6KfOiK8wyN85513ZvFIHltvvXVOhxAlX0QvaRGjiEhe1C84kScea+yhTLyj1KEWQ47jMcbLTnnUCS6/+tWvsuCGDXGwbZdddsnnmH6M6H/33XeziIU9bUtcAvVDnCKWEa7Yi8innWl77GMGAKIZD3p4+BHT999/fx4gwBY85WEXdURckwZhT524hvjMcYQzcbGf+jz00ENZHPu4k9wk/icBCUhAAhKQgAQkIIGWJtAwwhfxgzCKNZtMe2XaLZ47zq1NwBOL8OIdzyWCFU8v+SLCOI4gKgeEIuWHWOM8eSAsiY8AJg88iQgrAvmSDk9xTIdGyCEUCYhhjhOfcvFqIvyiDOJwnrpHwCM6aNCgLAg5hqBl6jFxENp4wSkTO7CLRzhRL16IdgRhZeAcccmbz4jrcpnl+MRj+jkCOxhts802q73eMOE4wjfqiSeaKcjUkYD4xyONlxd+CF7KxXOOaA57YIFQpUzYcI7p0dSXz3iGmREQNkc67CfEcTjj6Y2A/aTDywsfpltjR288MirK9F0CEpCABCQgAQlIQAISaBwCDSN8QYLg4UVA6FQL5ePhxawWr3yMeIgnPKx8xivImt0oqxw3PiOieEXgc7lsRCPpEU8hhhGoTFdGeEVc4kQ+cYw8OcY5vI+dBdKU0xEXoUdZCMcQr3hV8V5GftXSVSunMu9qcThWZoX4Dh6Rvnye+ByPOuK1R5gjhLEdu4kfaSM+dSFEOj4jWHkRqBtTrRHaUW+Ol/Op/E48BgfwQNNWlB2DHZXpSGuQgAQkIAEJSEACEpCABFqPQEMJ31p4ESis9US0xJpcBA1ToTnWlYBBqD399NN5Denf/d3fpWHDhmWPLWtQu0pbtglBRuB9iy22yAKaqdlMoyUg5vAm4ilGXFeGcnpEHOtr8UBTJ76HiA4PZmV6vmMv3le8xqzt7fjzFGnS8sJjjEeVEOXlLxX/kQ8v7CQe+cGYgYFyiDjYiHcXlgwgwJDp0rU8xeRBWtqJ6d94n1nfi32PPfZYnupcLqf8GWGLl5i4rJ2mXEIMWJAvAVthFaKbesS5HKH4jzSUx0ABG3LRNmxGdu+9964W2Ex3J+C1rkyfT/ifBCQgAQlIQAISkIAEJNDUBBpG+CJaykItviNqEDiILMQWYhURQ2BDJMRepIs00SLxHfGDQGMaLdOQ2RAL8VP2GkaaeCdtCKrKY5xjoyfWx7KjMPYh0vAiM92ZzZYIpCduOUS+xGcXaDbIYu0qG03hiWTDK+yKQPxyHohCBO+tt96axSNlRr04xwZSUUbkEe+RF+/wiCnAeGQpm7TYVQ4IQc4xtZv6MNjAbskHHHBAbpMoi/dyIG6ISPjwnfbCRviXxX3YVU5P/qwDpiw2uyI+gwq0Nzs+kzfT4pn+TFuynpc6hT2RF/FCnNNe1IXyeccu2otNwcj/nHPOWX1tRXrfJSABCUhAAhKQgAQkIIHmJ9AwwhdhyxpRxAgBgcSUYY5zjHNnnXVWfkzPDTfckNfG8lgc1sfiLSUOQo4pvyG4SEserHNF1OHl4zE4pGPtLZtSIaYrQ5QXU2w5T56xSRTnyfv444/Pwuymm27KnkU8sUx1Ji4vbCP/sAfBTj1YA0uYUKxpPeOMM/ImW+z0zLpU1s8iZokT8SM9afhMupNPPjmnu+aaa3LdScsGWAQ8t3gvsbMcKBtWsCVvhDeCm92teWcjrErhi5DkGHlde+21WSAypRrvLbwRwnhky2uJyZ81vqShHKYn8+ikl19+ObPHW04aBDtxSIugLduLh5jz7OzMwAD1xkYGFfhMXFizWRjtSnw875TLLIAIiF4enXTbbbelW265JZ9HVLMLdLm8cltHWt8lIAEJSEACEpCABCQggdYgMKAQNt921VXUC08YmyjxjriqJhQrkqzRV/JH0CCaIoRHFvFEwGsY3lDi8iKEEKqMX86TtLyobqTlM+KnLIByhsV/lXlxPI5hI3mQPvLlfNgR+TEtmLjxPeLzXq1OES/yIj/yJ5S58J08wh6+EzfsIg3nwtPJeULEj3jlPMrpv4799f8IS6YK/+M//mOeJszRctzII45xnmNlu8OeSEvc8mfOkyaY5JPFfxyPcxE/bOd7+TzseEX8cl7kzbUQeRCPYwQ+w4VQTpMP+F+vEmDjOmY4MBDFbutdBXY855FWDCjh4TdIQAISkED7EmCJFvu38LebgXv/hrfvtWDNJVAvgYbx+Fa7YVWKvRA3tSpXGb+cZ1dpK/OszIvzlcdC7FUej7wqhWfEj/O8d2VXrbzJq1y/evKszKuzPMr5hZ2V9eF4tTwq67mmdewqXbXzlXUMG6vZzjlCLY5fn/V/CUhAAhKQgAQkIAEJSKDZCXx7Lmyz10b7e4UAAtMgAQlIQAISkIAEJCABCUigWQk0jMe3WQG2ut2sG2YKEWtnDRKQgAQkIAEJSEACEpCABJqRgMK3GVutD21G8Cp6+xC4RUlAAhKQgAQkIAEJSEACPU7AOaw9jtQMJSABCUhAAhKQgAQkIAEJSKCRCCh8G6k1tEUCEpCABCQgAQlIQAISkIAEepyAwrfHkZqhBCQgAQlIQAISkIAEJCABCTQSAYVvI7WGtkhAAhKQgAQkIAEJSEACEpBAjxNQ+PY4UjOUgAQkIAEJSEACEpCABCQggUYioPBtpNbQFglIQAISkIAEJCABCUhAAhLocQIK3x5HaoYSkIAEJCABCUhAAhKQgAQk0EgEFL6N1BraIgEJSEACEpCABCQgAQlIQAI9TkDh2+NIzVACEpCABCQgAQlIQAISkIAEGomAwreRWkNbJCABCUhAAhKQgAQkIAEJSKDHCSh8exypGUpAAhKQgAQkIAEJSEACEpBAIxFQ+DZSa2iLBCQgAQlIQAISkIAEJCABCfQ4AYVvjyM1QwlIQAISkIAEJCABCUhAAhJoJAIK30ZqDW2RgAQkIAEJSEACEpCABCQggR4noPDtcaRmKAEJSEACEpCABCQgAQlIQAKNREDh20itoS0SkIAEJCABCUhAAhKQgAQk0OMEFL49jtQMJSABCUhAAhKQgAQkIAEJSKCRCCh8G6k1tEUCEpCABCQgAQlIQAISkIAEepyAwrfHkZqhBCQgAQlIQAISkIAEJCABCTQSAYVvI7WGtkhAAhKQgAQkIAEJSEACEpBAjxNQ+PY4UjOUgAQkIAEJSEACEpCABCQggUYioPBtpNbQFglIQAISkIAEJCABCUhAAhLocQIK3x5HaoYSkEBvEBgwYEBatWpVfvVG/uYpAQlIQALNQ4C/B1999VXzGKylEpBAvxNQ+PZ7E2iABCRQDwE6OSNHjkwbbbRRPdGNIwEJSEACLUxg6NChady4cWnIkCEtXEurJgEJ9CSBQT2ZmXlJQAIS6C0CIXzp7MyaNSvhATZIQAISkEB7Ehg0aFAaPXp0Wr58uX8P2vMSsNYS6DYBhW+3kZlAAhLoLwKIXTo58+fPt6PTX41guRKQgAT6mQADoQyCDh482OUv/dwWFi+BZiKg8G2m1tJWCbQ5gaVLl6YxY8akiRMntjkJqy8BCUigvQkgfhkEdZ1ve18H1l4C3SHgGt/u0DKuBCTQbwTw9n766adp5syZ/WaDBUtAAhKQQGMQWLx4cZoyZUriHRFskIAEJNAVAYVvV4Q8LwEJNBQBOzgN1RwaIwEJSEACEpCABJqCgMK3KZpJIyUgAQlIQAISkIAEJCABCUhgTQkofNeUnOkkIAEJSEACEpCABCQgAQlIoCkIKHybopk0UgISkIAEJCABCUhAAhKQgATWlIDCd03JmU4CEpCABCQgAQlIQAISkIAEmoKAwrcpmkkjJSABCUhAAhKQgAQkIAEJSGBNCSh815Sc6SQgAQlIQAISkIAEJCABCUigKQgofJuimTRSAhKQgAQkIAEJSEACEpCABNaUwKA1TWg6CUhAAg1LYMXilFYuTWnVqoY1cbVhAwakNHBwSoPWS2kdb8mrufhBAhKQgAQkIAEJ9CABe1k9CNOsJCCBxiCw6otPUlrwcfMI33U3SANGbpnSehs1BkCtkIAEJCABCUhAAi1GQOHbYg1qdSQggYLAV18Vord4DWiS1RxL56dVQxemAQpfL18JSEACEpCABCTQKwSapFfYK3U3UwlIQAISkIAEJCABCUhAAhJoAwIK3zZoZKsoAQlIQAISkIAEJCABCUignQkofNu59a27BCQgAQlIQAISkIAEJCCBNiDgGt82aGSrKAEJSAACM2fOTFdddVVauXJl+ulPf5qGDRvWFGBWrFiRJk+enJ5//vn0ve99L225ZbERmEECEpCABCQgAQl0g4DCtxuwjCoBCUigmQksW7Ysvffee2n58uXpyy+/bJqqINRffPHF9NRTT6VJkyaljTfeOK23XvH4J4MEJCABCUhAAhKok4BTnesEZTQJSEACrUBg4MCBaZ11muvWj71bbLFF2mabbbLoHTy4eO6xQQISkIAEJCABCXSDgB7fbsAyqgQk0HoEBgwYUDz2iFdRt1W8VhX/+FBf+FZ6knzVvfT1ldKzsbLNPZtlr+aG0D344IPTd77znTRhwoQ0aJB/unoVuJlLQAISkIAEWpCAvYcWbFSrJAEJ1EcAgTtn/uI074slxdTfVWngwAFpxLChaZMNh6F/c/gLYYswLsQtgfRfLF6WZs79YrVYHj1ivTRy+Hpp0MDm8qrmChX/zZ8/P73//vtpwYIF2TM8ZsyYtN1222WxyfTol19+OU8zXn/99dPHH3+chg4dmnbffffEOtx33nknzZ07N7MYO3Zs6ujoyOdnz56dpk2blvMj3axZs9IGG2yQhexnn32WZsyYkZiGzRRm1u8OHz48zMnvcMaezz//PG266aa5fKZsz5s3L2200Ua57E8//TQNGTIkbbXVVomyaTfK/fDDD3OdEM+bbbZZzn/JkiV56vSoUaPSjjvumOtG3HfffTeNHj06bb311qvTEmfp0qW5bFhsv/32uS7UHbvGjRuXvdFwMEhAAhKQgAQk0LgEFL6N2zZaJgEJ9DKBxUuXp5ffm5HemjY7rfzyqzS4EKsdm26YDt9zmzR0yNe3x/mLlqbZ8xal5Su+zI7hUYWoHT1y/TR40MC0dPnK9HaRdvIb09JXfxbDHeM2TPvvuGXaeMPhq8VwL1ejx7KfM2dOeuyxx9Jzzz2XhSPCDkF35JFHpj333DMfu+WWW7IwRaS+8MILefoxntiXXnopPfjggwWHr4oBhIFZhB5++OFZFCN6b7zxxixQd9hhhzR9+vS8xvi4447LYvOTTz7JYhjBe8wxx6T99tsv5xEVQ1Szvveuu+5KF110URa7fMdOyibdBx98kMUxa4BPO+20XP7999+f1zSzRhghTNkIW0Tu5Zdfnr+HqMfGP/zhD9ne8ePHZ7vYCIwp1htuuGG2mSnXZ555Zq7r1KlTs8hH+J5wwglp1113DXN9l4AEJCABCUigAQkofBuwUTRJAhLofQIIoZlzFqYpH89NM2cX3s1C9CJel6/8Mm27+ei0TfH6shDDL787Iz312rS0oPDsDlynEE8dm6RDdp2Qxo8dlRYtWZ5enzorzZ6/iBnOOcxduCSNHzMijdpgvSyk65803ft17qwERO7jjz+e7r777iwmDz300PTFF1+ke++9N+8EjacVjykhPL077bRT9pgiZK+77rq0+eabp5NOOimL5WuvvTY98MADWaTibcVrumjRoiwkd95553TPPfekO++8M+eJsCbP2267LQtcxCze1Qi0FaITUR2B6c54fPEw77bbbnnTqyeeeCLdd999aeLEiWnkyJFZiGPjUUcdlUU3Apq8eGFTeco0+cOAF+cR79iLKD/iiCPSHnvska644oos4PESn3zyyVkAM1DAIIDCN1rGdwlIQAISkEBjEmjOuXiNyVKrJCCBJiPwWeHJ/aIQrwMKQcsS3+Ite3E/mDE3i148va9M+SQtXrbiz1OXByTOvfXhZ8Va3q9y3E8/Z5rz10uEyePL4viMOQvSgsJTXCiopiGC8HzttdcSU3sRdQg9PK8nnnhiFph4dBHCCER2hd57773TT37yk7TLLrvkdExDRoAyhZkdl/GkIhp5ISQRrXhHEaF4ZRGPTKkmPUJ4n332SXhaKYNpzfWEddddN+d1wAEHZHuPPvroXNZbb72VbcQW8mI6NZ5epikjiBG3XQXiMC0bEb7//vtnO0nPFGumdsOHd7zBiG+EvUECEpCABCQggcYloMe3cdtGyyQggd4kUGjS2cX63i+WLMti6euiBmTBu2jpijz1+fUPZqWFhacXmYSERccuXrYyfTx7fpo+a15xbnlaVEyXLgfiLSni4DlevWFWOUKDfmZt78KFC7PYQ/wS8HqyhpbANGg8pghCxCOiksDaXEQvgvX666/PU4w5jtDlHKK3WiBvzuF1DQ8ropp1xGXPbrW0caycN2nDpsWLF+cp2EylfvTRR7OnlinbbJCFR7qcLvKq9R5xw0bsjsBnXthbj5iOdL5LQAISkIAEJND3BBS+fc/cEiUggQYhgCd3+cpiTSqu3gh8LF5fFQIPYcza39LZ/Blhy7kvi/nNtZyHX/uQI9PGekekIdZCsCHqELvhvWQNLIIXzy4bURHYMIrNowjED0GI15W4iOELL7wwe1URsyFeR4wYkV599dWcrrP/Ir/O4lSei3pwPGwln0022SQLaoQu3lo2z7rhhhvy+mWmY7NuFxsR8iG0eV8b8bo2aSvr5XcJSEACEpCABHqegMK355maowQk0AwECjfu2GIDqmnrzyt5fYvNnIpNrbbYZGQhcAfUFEKsBV538KA0fP0hacjggXnjq6gy3uFNNxpe7A697tePR4oTDfSO4GMjKrygIR6Zpszr1ltvTTfffHNijS8eYNbpsoaVab1sIlUp8BC2TFeePHlyeuihh3It8bwydRovMNOl8cb2dEDgYt+bb76Zd2hmPS51Yu0u07DxUCO42SWaKcvYwAuhTr0Rx0yJxm6mZj/yyCOJnaHLHt2ettn8JCABCUhAAhLoPwIK3/5jb8kSkEC/EliVtt9y48QaXdbs4tkdNGidLIa3Kza24nFEm208Mn1YTGleUXiFC52VA55gBO8mhWhG9O627bj07JsfZQ8xESYUu0Kzs/N66w7+C5H4dQ79+z+eWB7nww7JCEGELLse4/FF7HKMTa4QwATWxjJlGI8vcRGGxC8LYB4hdMEFF+QNq8iXc4hJxDIiGBGKUC1vJkXe5e+RN+/lvIkXx4gfnmGOkTe2IM7x6lKH888/P68Vxms9c+bM9Oyzz2bvM2KX9cqIdPI4/vjj80ZVd9xxR157vO+++65+FFOUhxeYV9gQHvJ84M92watcjzjnuwQkIAEJSEACjUVA4dtY7aE1EpBAHxEodFPxyKFh6cCdt8oi9tNiI6sNhw9Nk4pdm3mWL57b72wxJr0zrXjObLFZFV5edm4eWZzjkUcbFc/rJc6+k7bMInfeF0uzt5j040aPKMQVgq2PKlNnMXg5//Zv/zZPCy6LSwTdhAkTsieUjaI6OjryjsYIRKYwMz0YcUe873//+/mdjagiMAWaRwUhRNlpmXjhVcUjTN4//vGPV0+VxuvKZlZMOUY0I6Yp5+yzz84iN3aPLuePKGdTLPKKgOjkOzbjXaYs0lI2Xupjjz0224N4xVsdzwCm7ni3maJNOjzC2IJ3mLS8KOunP/1pzpPysJlNvw455JAsrDlG2Uzvpv6cN0hAAhKQgAQk0LgEFL6N2zZaJgEJ9CKB7IEsBNfSYr0ur0HFOt+BhZDihXMXUbXxqGHFo4s60jOFR3fOgiVp2NDBafutNk47bb1p8fijgcUa0ZWJ5/zy/F/WCSOo2CWaxyANLrzBjaZ8EXh4PDsLw4YNyzsyV4sDEx4VVC0gXhGxvCoDopZXBOLiQeYVAfHITtDVAuUitMtiG9YIbPKtZhPitZY9tD0eaXZsLodyPohiXhGwuSy6OY7Q5mWQgAQkIAEJSKDxCSh8G7+NtFACEuhhAgifhYuXpvc+mpNeendm3qhqnUK4Dhm0MH0274u8xnfbzcdkT3DHuGKTp2KqMwKX6cus/92w8PYuKnZ7ZtfnN4rn+LIL9LJCBOPhnf7p/DS3EMk7bz22iLd+FsM9bL7ZFQTw4rJWmanOBglIQAISkIAEJNAVAYVvV4Q8LwEJtBQBxOncBV8/n/fFd2akz79Ykj28VJKZybPmLkwfzPy8WPO7qngs0Yo0bdb8/LxevMB85/m8PN930KCB6d2PZhevOYV3eMDqPD5fuCQ/AglhvcfE8WnT0V8/9of8DT1HAG8tAxjbbrttz2VqThKQgAQkIAEJtCwBhW/LNq0Vk4AEqhFgiuwbUz9Nz7wxPU9LRrSuDoXyXXfdgWn0yPXTJ3MWFqL38/R+IYKXr/gyr9klHmJrTHF+6802yvHGFcL2s0IIRxhYZMezf5kePbgQxxtusF5e+4uoNvQcAdYI8zJIQAISkIAEJCCBegj0/DMm6inVOBKQgAT6iQC7Mk8rdmpmajJuWoRwvPD5jhq+Xtppwtg0t/DcTpnxebGOdFXe4TnW/65TCN/Z8xYXm17NzuuB995+86+FbaFsv8kn5V2i2TF6zoLFqOV+qq3FSkACEpCABCQgAQlAQI+v14EEJNBWBBCnS5evzOt1h5UEKR7ZdYsNqTYpNrSaPX9x+rRY60vcagEv8bxiyvPbxY7Ph+22ddpms9Hp49nz05eFSA6Ji8Am+aJis6t8sHpW1bL3mAQkIAEJSEACEpBADxNQ+PYwULOTgAQalwBClJ2Aj95r2+yR/VqRhr2rCuE7KC1ZviI98PyULFrjTLV3BC4CGgF8+B5bZ4HL446+CV97ikcWj0jqMrNvEvlJAhKQgAQkIAEJSKAXCCh8ewGqWUpAAo1JAAfvkMGD0/iNR+aNrCqt5JFEH302P80pPL58/rYwroyNiF6V5hZxR01ar3iub7GDc0WUnEPxXw3HcUVsv0pAAhKQgAQkIAEJ9BYBhW9vkTVfCUigIQkgftmgqlrg6KYbbZB+ckq9myYVj0AqpkcPKp7ja5CABCQgAQlIQAISaFwCCt/GbRstk4AE+pgAHltE7OiRw7pVcq21wN3KpA8iz549O917771pww03TEceeWQaMmRIH5S69kXwzN6pU6emO++8Mx111FGJRxkNHDhw7TPu4xzeeuut9Prrr6etttoq7bXXXl2W/tlnn6XnnnsuP6/45JNP7jJ+T0SgvBdeeCHtt99+aZdddslZzpkzJ2HL9ttv3xNF9EgeLFl48803M8vhw4f3SJ6NnMkXX3yRPvnkk+IxaoNSR0dH3abOnz8/ffTRR2mHHXYoHrvmAF3d4IwoAQm0JAHvgi3ZrFZKAhJYGwKxO3O972tTVl+mXbZsWfr444/Tp59+mtc692XZa1MWHnqE7sqVK4vHTa3blKKX+iNeZs6cmebNm1cXDtqLtkLw9FVYvnx5YqAhAja/++676b333otDDfHOtfDggw+muXPnNoQ9vW3EjBkz0ttvv50WLfrm0WldlblkSbEz/ZQpOV2zDM51VSfPS0ACElgbAnp814aeaSUgAQk0EQEEJF6fZvP8YPemm26aTj/99DR27NgmIv5tUxHv3eHfH+2FV3eLLbbIswKwfunSpWnWrFl50OHbtenfb4sXL86DCHh+2yEsWLAg4Xnfbrvt6q4ugxi0HW3YjDMk6q6oESUgAQnUSUDhWycoo0lAAhJoBwILFy5M77zzTp4eiajYeOON0+67757WX3/9vDb6tddeS4OLDcIQZXiT8MAedNBBuWONR4opyXS0N9lkkzxVdsSIEYkp1nTA8SSSP9NmEbB77713nvo7bdq0YgOwVblTP2HChDR0aLETdkUgLfkzrZXzzz77bH7Hvpdeeil7UzfbbLO05557ZptIHl4yvILYv8022+QXHtdnnnkmHXrooWm99dbLdcGrSn2YhozI5jNCY+TIken999/PZcGBqaMffPBBLm/zzTdPEydOTNSxWsBbytRmpppSPh64sgChzvDAfhgxjXXLLbfMHIYNqz3d/pVXXknTp09PCBumrU+aNCnzxguKRxl7O4rpsG+88UYiH+zeYIMNVptIubQB+Xz++ef5HIKKslesWJFnBdDGiK0nn3wyc6e9b7vttjRmzJjcbpwvB8plKjdsYQqXrbfeOrcrvBCq2Md1QBk77rhjvraef/757LWlXZlaTXvGwAzXUng5aQemuI8bNy57n5mSjTf8/vvvT6NHj851pM5dhfBe0xajRo1K2267ba53V22BzTCnLbGRaxbvK9cAdnNNkgc2MwWb+m600UaZw/jx4/M1hr3Uh+sKfjCHEe1OoD2ZZg4jAtczbQu/hx56KLcVcfgOX65VyqEdSQM3rnHyjbbDFtLcfPPNmRO/uaeeeirxO4MX7cp1Sp78bjnPTAO47rPPPpk1vyOuIWw1SEACEmhmAgrfZm49bZeABCTQgwToLL/88stZ+NIxpwOMIEQcsbYWQcN5BDFChE4+AhcRgSCgQ826YUQqaQi77bZbFjaPP/54zg9vIqLrww8/zHnQ4UYsIfyYho14oLNfDhzDtuuvvz57IxE6kydPzqLxgAMOyGUhJhAmxKXDjlBhKizCEnFOeoQOogABctNNN+VOPnUiINwefvjhdMQRR2RxhwChroccckgWKtSHeiF2EBJ8R1QgGhDQCIhyoPwHHngg14njlI2w4BUB21hzTd0RLQggOHKcNcCVeVI+IgehTD05jyihbtQZoUWb3H777bluCH6EIunKAf5PP/10FjsIcgQp5SK0eIcb7U1a8g6GiH54UXY5wILBkhjA4JohH0Q3NjFNGrsZUKCOsObaQnTSZlw/pCefE044IQ9uIN4Z3OAYZWIHr3333TczpG60A/wZTOBzVwFhTp6IRYQq71wbCP7O2mKPPfbI7cNAAu1Fe9O+2IaQ5rey00475bZmQIXrC65won3gCDvEK2USYM51Tz4MAnCca+7VV1/NtlEnjmEb1wzpufZ4YSvpYHjffffl64c8YUvbcpzfJfFgxrXFO3Xmt8ta+WOPPTYL5xC+XFMwDeHL74PyeXF98rsxSEACEmh2At0SvpV/hJu98tovAQlIQALfEMCbS+cb7w6Cj04yHrlrrrkmd3yZBkvnGpFJh/zUU0/N3i865Yg8Ovjf+973shDBY3r33Xdn8YPoowPN3xAEFULhjjvuSI888kguJ7xaf/jDH7KXslL4fmPhN5+wg446nflzzjkniwO8VH/605+yCKE8RM6JJ56YjjnmmCwGEBDYgCAJ4Rg5chy7EAl8RjwgprDluOOOSy+++GL2eCJIEWekv/jiixPM8DKXPapwQ/AgdIh72GGH5QEBvmMT+SNGYYRH9YILLsheQ8QQXlXi4AFFiEagPITSLbfckvbff/+cJ3XHo3zPPfdkvqeddlq2C7s5x3cGCahXOSBKEe2089FHH51PIUBhGhwoj0GKww8/POeJgCW/agGBhdebuuINZVDjyiuvzGWwSRYiDvEEO1ggcml7bKBtyPuJJ55IN954Y74eEI0IOgZRmN5OnohpjsGbwQnqxEAJNuH57CrQ9lxzXKNnnHFG5oJwhSncO2sLBPzOO++cxSb54C1lQAfO//d//5dFPawQ1tjEb4e6Ik7xxJI/whIxf+aZZ2bBj9hHXPJ74xpj0IDfy/HHH58OPPDAXB0GDGhH8sJO2hrGiFDaB5sZUPrBD36QEOeEq6++OjM65ZRTcttSNhzPPffcfJ7/uD4JtHW800a0fwS+c01w7TM7ox02EIu6+y4BCbQugW/ucnXUkY4EgRuuQQISkMCaEqDDRYfM0FgE6Jgj+KITjQjEG4X3iE53TNmk/fDeIX4JeBnxhuEtorNMp5kOO511RDHCN7x/CETKIC9EH8KG/BAOdNARUbVCdNQ5T+edqZcIEo7jFcTrhngiD8qnw44QQXQwRZdpwRHKecWx8jsigPQdf54+yzuC7qyzzspeQthQBzxplFcWvgie8HDCj3oREIchIEiDUGLKKlN4sQcxhwcbYUhbkH8Efi8IVsQa7UP9COTP4ATxYY2ghj+CMrzZkUe8YytiE88kXm0+8yoLn4hLfrCu9BrHed65DrgeaG8EHCKXGQF8D5GFeI360A7wQxRybdGnYIouLBGTHGfggLpRLtcU/Q/sRuwhLDlOunruI8QjP+qLkGcwgIAdvBhA6awtKJPpzHDlmojfB+3FVGfqiyAmX65zGCDeyZt6YyMCl/pTP9qRvEiPx5rvvDiHRzsCHvEI0Q5RXzy/tB1CnmuB9FxDtCP8+I498OdFumrtG/lXvtM+zCKgXfCKGyQgAQm0AoG6hG90EPijb5CABCTQUwS4t8T9pafyNJ81I0DnGC8U7VEWTHxHuNJBp/PMdzrQdNwj0OlH5DDVmc58BEQAQiEGS+OdPEhf7ojT0eZ4xIk8unovxyc/8sEeBAHeNbyneNawC8FUnpZcTkvZ5VA+x3HsDbsjbryHuIv0pEXEIf7KdYzzpIMl4heBVA6IO9Ij9MIG4iN8ELbEj3IjHceoN2Vyjle5fSJevCNm4PFwMbX7hhtuyIIS7y9rtSvzjjSdvXPdMOWXabpMY+Y7TBjMKIdyfaKt4nzYSxzqyXcGW5i6G3w5h5jsro2RJwKxfH1G2fW0RdmGSMc73MmfPBj4oYzHHnssC11EL+IRAc/vgwEf3iMNeeKtjinM0fbl/Gt9Ji2cyBNPOLywgxfXHWWsTYBxXFdrk49pJSABCTQSgS6FLze/GFnmhmqQgAQk0JMEosPbk3maV9cE4n4e73SUERV4r5hWGt45OtZ4kOjU4/mJ+OUSELgITZ41i9ihTemYIwb4+9Fbj8JBDPIi4C1DdCGo8HRRn47CS8u0VOxAHOD5xTPJOV4INOrDi/Qhbsp1W5PP5I3nDa8bIjxCeO0oD5YIIwQjjOPvLOzhVxZ4xKdeeEcRTjH7inxDAJGGeuMdrSfQvuedd17Oi/XSTJfedddda4rK4ER5lb9Z1r3iUcWbivcaG1hn3F2BGnZTD+qLaGQqdpQdbU355I0tnCPwznficL5sI3EZgIEzAzgRIr962oI2jbIifeU751kOwNRlvMislWbqPd/5fXDtHXzwwfnaIC7lR74I/BCyIc6ZOcD5qC/lhQ0co07UhwEeriUC1zqB64nZDtQ90kR5sOV6J39mI5Am0uXE/icBCUigRQl0KXy5uTI6HDfOFuVgtSQggX4iQMfO0LcE6OTiHUQIELi/Mw2XTjvCi/WXrI2lbfCY4pFCFOEBqva3AJGHx5D1hieddFLOi/yZPtpRiM9627g7Qok8EbpMK91hhx3yNGQEHGtK6fTjTUV4Ig5CCJN/CExEJNOREZgISdbwIlbqtbWzFuPvJgKQ9bp4QSkDkc1GXthFwLvHNG1YI8hZJ0y74C1kOjTpEXIRECuxizRx+E692N0Y1kzFjWnUkabWO23MtF/KICC0GLyoxh9hRH0Q3NSBQRCmNnMsAmu+CdiD0CdvBlDKa5QjbmfvUT4ijmnsCDemGTPllzoiqGkf7KYdsQfhB1cYU+7UYto9a2AZ8IhAvohO+jJ4kflM/sTFTth3py0i3/I7dmEr4pKyKRNBzW8Ghoh4NpVCANNWMGfQg0DZMOV3xDpwBhBIywZkHcXvh3anvvz2sJffI9cG+TxceO1Z90z+XFP8HriOsIEyeDE9nnZBXDPgweAUbHnBgqn17DYdg13levlZAhKQQCsR6FL4UtnyH7hWqrx1kYAEJNBOBOiM0wFmIyGEXggNOtFskINopAPP+f/5n//JHiHWxnIuPErVeNFhZxMcBNmvf/3rLO6YbsmmPLyXvZ7V0scxBAId9WoBWzkfwhQRQEcfscFUZr4jbL773e9m0YCYRdjSoUcIUA/qR6cfwcQGSYgGpmcj0BAfpAmxGWzKtiA+OE5Z1c5HXP5mIlbY/Iu1nYhTprQizig/yiDOD3/4wzxggNeU+nH+yCOPzOINYVIOiFPi4529/PLLc/vAl3rhkY98y2mqfcZ+uCDE8PphF9wY/GCwoBwYIEB44sH92c9+ljd1gle5X8CgCCz/+7//O18nnGe9dbRVOb/y5zJDPsM30jB7gIGMW2+9NV9PTL9H0MKGshFpDNRcddVVuW1hjdeZXZW5hsrClzLJl/XkbMJ2xRVXZDMQoVyjMajQWVswSFS2N2dQ8R9cWbd+3XXX5WsEDtQDEcv1BWuuBwZEOEZ9Yk0vcbEPDzHXJIMY1CHW+SLUWcdNWvJg2j5TqM8///z8u4M/1w91YnMseMEJRuyG/h//8R/ZBn7HrP9mBsQvf/nL3PYMHCGcy23fVV0rqu5XCUhAAk1BYEBxo3b+clM0lUZKoL0JsMcAnio8FF3t4rpqznspLSxEw4Am8SavKjx7ozrSgFFb9WojM70RrxgCr/LWD1dEFHHwEIVXiQ404icEKd49vFqIJIRKBPLDK8h0TYQm8VkbjDglT46Hl5K45E9edPiJyzHal8+I1MqAaEAI4sHFpksvvTSnYfdaztFRxya8jgRswIOLRxBBiOcNgUdayoIB3jPSUg/OERdxSVzSYjf2Eagz3jQ4kQeB9JSD8Ed0VAbqGPmQJ+VgCxxgTaAMPHGIccQZvOAGh+CGvbRBBMrFc0xeCCjKJ3++UwfaDw9iLfES+RKXvMkDbrzDhbaCJeKL89QDG/mM3bAKgYpN2E6ZpMVubIk2JT62co50MIAZ8WEKTwLtgPBC0AZL0hEPe2GGPdQ1yuZaxhNMWfDBG42g5xph1+VqgfbgOoUV7RgbrxG3s7YgPlxgxuAEAR7Yh+3kw/fyVHQ4wBX7CMEJntSB+sAnfkdwid8nopXzcS1wLn5f5AdLznM8vMC0N3XiXFyjlAmX+M3Cj7rw26MucKWteaeNaI+41mFKHWpdR7lS/fgfHJlVgu0MAvBukIAEJNAZAYVvZ3Q8JwEJNAwBhW/DNEVDGILwpUPOo4AQqwYJ4OFHHOLFRbAZWpuAwre129faSaA3CDg81htUzVMCEpCABHqVAF4pAt4rgwQgEOu5Fb1eDxKQgAQkUI2AwrcaFY9JQAJNToAVHK7iaPJG7NT8/fffP59neq5BAhBA+BokIAEJSEACtQgofGuR8bgEJNC8BAYWa+oGFLvOsna2GUKxNtDQPQJs5mSQgAQkIAEJSEAC9RJQ+NZLyngSkEDTEBgwdGSheYvnWa4sHtdTrANt6IDmLUwcMMR1qg3dThonAQlIQAISkEBTE1D4NnXzabwEJFCVwNAN04DiZZCABCQgAQlIQAISkAAEmuRZHzaWBCQgAQlIQAISkIAEJCABCUhgzQgofNeMm6kkIAEJSEACEpCABCQgAQlIoEkIKHybpKE0UwISkEB/EOBxQStWrEirig24eK1cuTLFo4TqsYe4pCHt2gRs6E65a1NWtbTlelTjwLHuPFqpWh7lcsmrO9zIDxvLjGDWHZvK5ftZAhKQgAQk0GoEFL6t1qLWRwISkEAPEVi2bFl64YUX0qWXXpo+//zzNHPmzPSLX/wiPfTQQ1kM11PM7bffnn7/+9+njz76qJ7oVeN88cUX6eKLL06PPfZYWrRoUdU4vXlwyZIl6fHHH0+//e1v0/z586tymDt3bnr99dfrNuOzzz5LV155ZbrjjjsSnCvDM888k6699tr0wQcfVJ6q+v3TTz9NsL7xxhvzeTj927/9W3r11VfrbquqGXtQAhKQgAQk0CIEFL4t0pBWQwISkEBPE8CLuHjx4jR79uzsSeSZucOHD08bbLBBGjy4eGRUHWG99dZLw4YNS4MGrfleiuuss04ul/L53NcBDgjJOXPm1OTw8ccfp0ceeaRu0/DmMhhw55135sGF5cuXfyst5c2bN6+qKP5WxD9/Ib8FCxZkYc4hPL2IYUQ79hskIAEJSEAC7U5gzXsi7U7O+ktAAhJocQKI1QHF46BCbG644YbppJNOSuuvv37dNd9vv/3ylF3E8pqGoUOHptNOOy0hohG//RHKHEaNGvUtDghLRCrCszuBAYFddtkl3XTTTWn06NFpm222SQMHFs+fLgLlxavePCvjV36vNx/jSUACEpCABFqRgMK3FVvVOklAAhKoQgCv4ocffpinv+K9HDlyZEKYjh8/frXgwgs5efLkLOIQuhtttNHqnPAqPvvss6mjoyNNmjQp5zVt2rS0+eabp/feey/NmDEji+K99torbbHFFtnL+8Ybb2Thu8cee+R8pkyZkl566aW0dOnSNGLEiMRx0uNBRjwSn7xYn7rlllvm8wjEJ554Iu222245/6lTp2YvNF5N0nzyySfZq8x5xCMBTyfTtN9///1cPnlQBvXZc889swc5Ryz9R76vvfZaYhoy8Xfaaadcz1KU/JF1tHDYeuut06abbpqef/75PA2b+l9xxRVZoJ9yyikJwd5ZGDJkSM6DOjzwwANZ/CKAKwPcmfKMbSeccMJq8c80ZqagT5w4cfXgRGXa+M50atK//fbb2Ys8bty4tPvuu6exY8cmrgumkVMfrg/K2njjjTN7zj399NOJ6eac53qhXohqgwQkIAEJSKCZCPT9nLFmoqOtEpCABFqIAOIFsYSHEg/srFmzsuBhSiwB0fPoo4/mNayIUryriMDYIAkRxHnEJIF0CCaEEeKMadDEZ60p7wTE1osvvpjFFsIQgUc+lI94Ykov+WMbeb3yyisJQUheiGMEOqLt4YcfTkwnRnRSLvlQLgIZDzTnbrvttiyEseWpp55K77zzThbflIWYJm88quHBzgb++T8EPIIfEYo4ppw333wz51GOx+fggIiHEYKaPHlnMIHyqpVRmQ/1xp6TTz45C3nKX7hw4beiwYj6UD/WGVN2BAQq7QmjzoQo56j/9OnTs40I13fffTfdc889uZ4wZJAAxpRP25P3vffem956661cR+pDHF7YY5CABCQgAQk0GwE9vs3WYtorAQlIYA0JMHUZ7+quu+6axQzePzyUO+ywQ8IDiPDC63nWWWelbbfdNgtPxGQ5lAUWog0RhIA7+OCDs1hFYLERFcKJPCmTF3ERwwipn/zkJ2nnnXfOohXPLIIRUYoY+853vpOOO+64HJ8NoxBllBniElsQYaw9xlt56KGH5nIRwdSFDbgmTJiQPcT77rtvOuSQQ7KHknogvHfccceqU7URfYhKyoYRoptNvHidd955ZQT5MzYxgMD0a7zW2ErdmJLdnQCb7bffPntuGVTA0wzLSuHMdxhU8id9Zdxq5cOfuuMRJ/7999+f7r777nTiiSdmPuTDxl1HHXVU9tYjivGyMwiA95pp3EzJxtONpxhbDBKQgAQkIIFmIqDwbabW0lYJSEACa0EATyRTlPEe4mHFk4pgQ/AhbBCGTG9G9BIQWZtttln22lYrFuGHZ5YpsLwTEJ0IXgQo3sMQaohjvKFMgUYgUv6YMWPyd4QY3lXWziKIEWmEmGZd6QWlXKYEY2eUiwhmei71oKwQpSEKeeeFkK4MiHd2ZN5uu+2y95TysAE+bOzVVcA7zIsyuxsiDWKXQYcnn3wyc+hJryplhLjGSw0D6ohnHQ8307Vpp6222ip7e6kDbbXJJpus9szDg2sBr3HY3N26Gl8CEpCABCTQnwQUvv1J37IlIAEJ9BEBxCAeVzyrvMdUZAQQghDPK+IGj2N3Q1kI8RnvIUKQMiPwHVGMR5RpyHfddVcWtnhk2eAJDyvp6vUkUk45f8pBvHGc+uCFReRRH8Qx64B5R2xXBoQg4p+p3lGXeGfdcF8EbGb97mWXXZanNGM3PHoq4E3HGw8HBh1o//CmRxkxYMB3WMYrzvO9HCeO+y4BCUhAAhJoBgI991e1GWqrjRKQgATalAAC97nnnsuezR//+MfZq4g3E0GEKMXDhwcwPKbhHUUkhQishg4hVPaihqiKjajKaRHWeBXZjAlvKmuBEcF4gfEmsrEWNuExJiBGsa27gXKY5swzbZnSy5pVplBjE/WqDExXxrvMFPAjjjgiC2TspkIPwbkAABGLSURBVF6UX65DZVq+IwgJxIUH3loEPNOxSUv+2NRVwGPNwADP9mV9Mt55AjaTH8x4IeApi8+U11WgHjfffHPmevrpp2ceTGuHv0ECEpCABCTQLgT+sgfQLjW3nhKQgATaiABiDCGJCESosanUyy+/nN/5zoZH7KLMOk8EMgKYqbdsZlQWtmVkpMNTzLRm4rPJEs+yxVvJtGHEWohGxBvTqtnRGXHMC+HG9GZEIV5f8qJs8iMua5Apvx5xV7YLUYjgZQrvmWeemc4555zsAWYjqlpTiA866KA81ZspzwwSUD7Tr9mYq6tAPRk0oE5sGBY7J2MDG0TVM106ykDsHnjggbmNmFYMY/JHmJM/m4VhG95s1lHTjsTpLJAOJkxjp52Z0o6whn9XIdqvq3iel4AEJCABCTQ6AT2+jd5C2icBCUigBwiwJpZNia6++ur0r//6r9nDynpavIwIKwJeUoThrbfemr2OeGaPP/74dOedd2ZxhcBiB2VEHgFRhPeR4z//+c+z8MVbe/bZZ+dHJBEHUcuUXeIgoBFueDQRYqwNZuMkbEPYsbEUa1wvueSS7OWk/GOOOSZ/Jo/w1vJe/k455B/H+IyIZ4MmxCf2IvjwLB9wwAHZs0uacmCNLYL9mWeeSbfcckvOi3WxTMUmRJnkTShzwKOLRxmR/p//+Z/ZU8sGWaylxqZqAwdhbzVPMDbymCKmJhOIS36wYjdrXpTX0dGRBzNoB+KQVzk/2hW7Ebw8Yopds+ELd+wnj6gPdpI2vkd9I7/InzwjTjbO/yQgAQlIQAJNQmBA8Qez+7txNEnlNFMCEmgdAqy/ZH0iXjymyxq6TwBRi0eXd4QOgo3puGx6hTcUzype15iiyzHi4DFkKjSCh82QEJEIJ55fi4cXUcXO0IhZRCZeZfIn4AkOgcw7eeF5JpB/+dE/CETKDk8k50NY4+XkM8c4z5rgsI+8SEtZiFfCf/3Xf+Vpy4hD7MaLiwjGQ3rRRRflOJX/kS/lYx9pyJ/8EH9xPDzmZQ7kE+XDlnTUizIJ2B088oHiP+LBAl4wrhSTUV4IbNjRNtjPZ8rArvJn0vAdG2lLPPDRtvCiPI5TJvYQl7LJB3YcozxEL/HhEfaRjmO88NITxyCB/iTAb4GN8rhu2bG88jfWn7ZZtgQk0JgE9Pg2ZrtolQQkIIEeJ0DHEO9qOSB0IiBmEHohHuN47K7M9/LnOI8XEM9xtYAIKwdEU61APgjsaqG8KRXCm1c5kJa6IeYYIEF0IjgZKCFQ92oCs5wHYpJXtVDJpZJDlF9O21ldsaez87RLuW0QxpXHymXxGZEbgbYstwl151UrVNpSyZj8uiq/Vt4el4AEJCABCTQCAYVvI7SCNkhAAhJoQgJ4AfFc8t5IAbEdU3vx8oagHz9+fPZMN5Kt2iIBCUhAAhKQQN8QUPj2DWdLkYAEJNByBJhGzLpcnqHbKAHPKN5Z1uYyPZ4pvAS8v6z7DQ9wo9irHRKQgAQkIAEJ9A0BhW/fcLYUCUhAAi1HgKm05em0jVTBRratkThpiwQkIAEJSKBdCLg7Rbu0tPWUgAQkIAEJSEACEpCABCTQpgQUvm3a8FZbAhKQgAQkIAEJSEACEpBAuxBQ+LZLS1tPCUhAAhKQgAQkIAEJSEACbUpA4dumDW+1JSABCUhAAhKQgAQkIAEJtAsBhW+7tLT1lIAEJCABCUhAAhKQgAQk0KYEFL5t2vBWWwISkIAEJCABCUhAAhKQQLsQUPi2S0tbTwlIQAISkIAEJCABCUhAAm1KQOHbpg1vtSUgAQlIQAISkIAEJCABCbQLAYVvu7S09ZSABCQgAQlIQAISkIAEJNCmBBS+bdrwVlsCEpCABCQgAQlIQAISkEC7EFD4tktLW08JSEACEpCABCQgAQlIQAJtSkDh26YNb7UlIAEJSEACEpCABCQgAQm0CwGFb7u0tPWUgAQkIAEJSEACEpCABCTQpgQUvm3a8FZbAhKQgAQkIAEJSEACEpBAuxBQ+LZLS1tPCUhAAhKQgAQkIAEJSEACbUpA4dumDW+1JSABCUhAAhKQgAQkIAEJtAsBhW+7tLT1lIAEJCABCUhAAhKQgAQk0KYEFL5t2vBWWwISkIAEJCABCUhAAhKQQLsQUPi2S0tbTwlIQAISkIAEJCABCUhAAm1KQOHbpg1vtSUgAQlIQAISkIAEJCABCbQLAYVvu7S09ZSABCQgAQlIQAISkIAEJNCmBBS+bdrwVlsCEpCABCQgAQlIQAISkEC7EFD4tktLW08JSEACEpCABCQgAQlIQAJtSkDh26YNb7UlIAEJSEACEpCABCQgAQm0CwGFb7u0tPWUgAQkIAEJSEACEpCABCTQpgQUvm3a8FZbAhKQgAQkIAEJSEACEpBAuxBQ+LZLS1tPCUhAAhKQgAQkIAEJSEACbUpA4dumDW+1JSABCUhAAhKQgAQkIAEJtAsBhW+7tLT1lIAEJCABCUhAAhKQgAQk0KYEFL5t2vBWWwISkIAEJCABCUhAAhKQQLsQUPi2S0tbTwlIQAISkIAEJCABCUhAAm1KQOHbpg1vtSUgAQlIQAISkIAEJCABCbQLAYVvu7S09ZSABCQgAQlIQAISkIAEJNCmBBS+bdrwVlsCEpCABCQgAQlIQAISkEC7EFD4tktLW08JSEACEpCABCQgAQlIQAJtSkDh26YNb7UlIAEJSEACEpCABCQgAQm0CwGFb7u0tPWUgAQkIAEJSEACEpCABCTQpgQUvm3a8FZbAs1IYODAgYmXQQISkIAE2pvAgAED8t8D3g0SkIAE6iEwqJ5IxpGABCTQ3wRWrVqVxo4dm8aPH5+++uqr/jbH8iUgAQlIoB8JDB06NE2cODHNmDEjKX77sSEsWgJNREDh20SNpakSaHcCeHvnz5+fpk+fbken3S8G6y8BCbQ1AYTvxhtv7N+Ctr4KrLwEukdA4ds9XsaWgAT6mcCIESPShAkT+tkKi5eABCQggf4kwEAonl69vf3ZCpYtgeYioPBtrvbSWgm0LQE6N7Nnz05DhgxJY8aMaVsOVlwCEpCABFJatmxZmjZtWlq+fHliKYxBAhKQQFcE3NyqK0Kel4AEGoIAwnfJkiVp0aJFDWGPRkhAAhKQQP8RWLFiRZo3b15auXJl/xlhyRKQQFMRUPg2VXNprATal4Aj+u3b9tZcAhKQQCUBBkPXWcdubCUXv0tAArUJeMeozcYzEpCABCQgAQlIQAISkIAEJNACBBS+LdCIVkECEpCABCQgAQlIQAISkIAEahNQ+NZm4xkJSEACEpCABCQgAQlIQAISaAECCt8WaESrIAEJSEACEpCABCQgAQlIQAK1CSh8a7PxjAQkIAEJSEACEpCABCQgAQm0AAGFbws0olWQgAQkIAEJSEACEpCABCQggdoEFL612XhGAhKQgAQkIAEJSEACEpCABFqAgMK3BRrRKkhAAhKQgAQkIAEJSEACEpBAbQIK39psPCMBCUhAAhKQgAQkIAEJSEACLUBA4dsCjWgVJCABCUhAAhKQgAQkIAEJSKA2AYVvbTaekYAEJCABCUhAAhKQgAQkIIEWIKDwbYFGtAoSkIAEJCABCUhAAhKQgAQkUJuAwrc2G89IQAISkIAEJCABCUhAAhKQQAsQUPi2QCNaBQlIQAISkIAEJCABCUhAAhKoTUDhW5uNZyQgAQlIQAISkIAEJCABCUigBQgofFugEa2CBCQgAQlIQAISkIAEJCABCdQmoPCtzcYzEpCABCQgAQlIQAISkIAEJNACBBS+LdCIVkECEpCABCQgAQlIQAISkIAEahNQ+NZm4xkJSEACEpCABCQgAQlIQAISaAECCt8WaESrIAEJSEACEpCABCQgAQlIQAK1CSh8a7PxjAQkIAEJSEACEpCABCQgAQm0AAGFbws0olWQgAQkIAEJSEACEpCABCQggdoEFL612XhGAhKQgAQkIAEJSEACEpCABFqAgMK3BRrRKkhAAhKQgAQkIAEJSEACEpBAbQIK39psPCMBCUhAAhKQgAQkIAEJSEACLUBA4dsCjWgVJCABCUhAAhKQgAQkIAEJSKA2AYVvbTaekYAEJCABCUhAAhKQgAQkIIEWIKDwbYFGtAoSkIAEJCABCUhAAhKQgAQkUJuAwrc2G89IQAISkIAEJCABCUhAAhKQQAsQUPi2QCNaBQlIQAISkIAEJCABCUhAAhKoTUDhW5uNZyQgAQlIQAISkIAEJCABCUigBQgofFugEa2CBCQgAQlIQAISkIAEJCABCdQmoPCtzcYzEpCABCQgAQlIQAISkIAEJNACBBS+LdCIVkECEpCABCQgAQlIQAISkIAEahNQ+NZm4xkJSEACEpCABCQgAQlIQAISaAECCt8WaESrIAEJSEACEpCABCQgAQlIQAK1CSh8a7PxjAQkIAEJSEACEpCABCQgAQm0AAGFbws0olWQgAQkIAEJSEACEpCABCQggdoEFL612XhGAhKQgAQkIAEJSEACEpCABFqAgMK3BRrRKkhAAhKQgAQkIAEJSEACEpBAbQIK39psPCMBCUhAAhKQgAQkIAEJSEACLUBA4dsCjWgVJCABCUhAAhKQgAQkIAEJSKA2AYVvbTaekYAEJCABCUhAAhKQgAQkIIEWIKDwbYFGtAoSkIAEJCABCUhAAhKQgAQkUJuAwrc2G89IQAISkIAEJCABCUhAAhKQQAsQUPi2QCNaBQlIQAISkIAEJCABCUhAAhKoTUDhW5uNZyQgAQlIQAISkIAEJCABCUigBQgofFugEa2CBCQgAQlIQAISkIAEJCABCdQmoPCtzcYzEpCABCQgAQlIQAISkIAEJNACBBS+LdCIVkECEpCABCQgAQlIQAISkIAEahNQ+NZm4xkJSEACEpCABCQgAQlIQAISaAECCt8WaESrIIF2IjBgwIB2qq51lYAEJCCBKgT8W1AFiockIIFOCQzq9KwnJSABCTQQgXXWWSfNnz8/TZkypYGs0hQJSEACEuhrAitXruzrIi1PAhJocgIK3yZvQM2XQLsQGDhwYGKEf8mSJfnVLvW2nhKQgAQkUJ2AXt/qXDwqAQlUJ6Dwrc7FoxKQQIMRGDVqVBo0aFD66quvGswyzZGABCQggf4ggPBlUJTZQAYJSEACXREYsKoIXUXyvAQkIAEJSEACEpCABCQgAQlIoFkJOETWrC2n3RKQgAQkIAEJSEACEpCABCRQFwGFb12YjCQBCUhAAhKQgAQkIAEJSEACzUpA4dusLafdEpCABCQgAQlIQAISkIAEJFAXAYVvXZiMJAEJSEACEpCABCQgAQlIQALNSkDh26wtp90SkIAEJCABCUhAAhKQgAQkUBcBhW9dmIwkAQlIQAISkIAEJCABCUhAAs1KQOHbrC2n3RKQgAQkIAEJSEACEpCABCRQFwGFb12YjCQBCUhAAhKQgAQkIAEJSEACzUpA4dusLafdEpCABCQgAQlIQAISkIAEJFAXAYVvXZiMJAEJSEACEpCABCQgAQlIQALNSkDh26wtp90SkIAEJCABCUhAAhKQgAQkUBcBhW9dmIwkAQlIQAISkIAEJCABCUhAAs1KQOHbrC2n3RKQgAQkIAEJSEACEpCABCRQFwGFb12YjCQBCUhAAhKQgAQkIAEJSEACzUpA4dusLafdEpCABCQgAQlIQAISkIAEJFAXAYVvXZiMJAEJSEACEpCABCQgAQlIQALNSkDh26wtp90SkIAEJCABCUhAAhKQgAQkUBcBhW9dmIwkAQlIQAISkIAEJCABCUhAAs1KQOHbrC2n3RKQgAQkIAEJSEACEpCABCRQFwGFb12YjCQBCUhAAhKQgAQkIAEJSEACzUpA4dusLafdEpCABCQgAQlIQAISkIAEJFAXAYVvXZiMJAEJSEACEpCABCQgAQlIQALNSkDh26wtp90SkIAEJCABCUhAAhKQgAQkUBcBhW9dmIwkAQlIQAISkIAEJCABCUhAAs1K4P8D3ptPkBLuHX4AAAAASUVORK5CYII=;" vertex="1" parent="1">
          <mxGeometry x="391" y="110" width="958" height="803" as="geometry" />
        </mxCell>
        <mxCell id="YX5vVdjbQr6RenzQoTTW-6" value="" style="rounded=0;whiteSpace=wrap;html=1;fillColor=none;" vertex="1" parent="1">
          <mxGeometry x="800" y="170" width="220" height="130" as="geometry" />
        </mxCell>
      </root>
    </mxGraphModel>
  </diagram>
</mxfile>
